<?xml version="1.0" standalone="no"?>
<!DOCTYPE svg PUBLIC "-//W3C//DTD SVG 20010904//EN"
 "http://www.w3.org/TR/2001/REC-SVG-20010904/DTD/svg10.dtd">
<svg version="1.0" xmlns="http://www.w3.org/2000/svg"
 width="480.000000pt" height="351.000000pt" viewBox="0 0 480.000000 351.000000"
 preserveAspectRatio="xMidYMid meet">

<g transform="translate(0.000000,351.000000) scale(0.100000,-0.100000)"
fill="#000000" stroke="none">
<path d="M754 3265 c-3 -8 -4 -20 -2 -27 3 -7 7 -1 10 15 6 29 1 36 -8 12z"/>
<path d="M4422 3185 c-1 -55 2 -105 6 -112 4 -6 6 28 4 75 -4 132 -9 148 -10
37z"/>
<path d="M692 3245 c0 -16 2 -22 5 -12 2 9 2 23 0 30 -3 6 -5 -1 -5 -18z"/>
<path d="M2980 3225 c-94 -22 -108 -28 -137 -60 -30 -35 -50 -82 -38 -93 3 -3
31 3 63 13 45 14 53 19 37 25 -26 10 95 48 177 57 70 7 74 -2 28 -82 -30 -52
-32 -53 -91 -64 -118 -20 -170 -76 -71 -76 28 1 52 -2 52 -6 0 -4 -18 -22 -41
-40 -79 -66 -109 -97 -109 -113 0 -9 6 -16 14 -16 20 0 100 66 164 134 29 31
61 56 70 56 23 0 37 11 51 37 15 28 14 33 -4 33 -20 0 -19 6 4 38 25 37 52 90
62 124 18 64 -52 74 -231 33z"/>
<path d="M3949 3188 c-58 -56 -149 -176 -149 -198 0 -14 -75 -68 -103 -75 -26
-7 -26 -6 9 31 35 36 36 40 30 94 l-7 56 38 12 38 11 -35 -6 c-19 -3 -45 -6
-57 -5 -13 0 -23 -5 -23 -10 0 -15 -148 -157 -182 -174 -36 -18 -72 -15 -76 7
-2 12 11 22 43 34 50 19 98 68 93 94 -2 11 -16 17 -41 19 -48 4 -97 -26 -137
-82 -16 -24 -40 -50 -54 -59 -25 -17 -56 -23 -56 -11 0 12 24 51 48 77 37 39
21 63 -37 59 -25 -2 -41 1 -41 7 0 20 -26 11 -52 -16 -31 -34 -40 -57 -26 -71
7 -7 4 -14 -11 -24 -19 -12 -29 -38 -15 -38 4 0 26 18 50 40 24 22 51 40 59
40 17 0 15 -5 -17 -52 -22 -32 -23 -52 -2 -72 23 -23 37 -20 88 19 32 24 46
30 46 20 0 -26 38 -55 73 -55 18 0 48 11 69 25 l37 25 37 -25 c20 -14 49 -25
63 -25 28 0 81 28 119 63 l22 20 0 -27 c0 -50 28 -43 96 25 35 35 64 58 64 52
0 -7 -5 -15 -10 -18 -19 -12 -41 -66 -35 -85 4 -11 14 -20 24 -20 24 0 131 71
131 87 0 17 -4 17 -42 -7 -18 -11 -36 -20 -40 -20 -18 0 -6 35 23 67 34 39 34
57 -2 61 -16 1 -46 -15 -94 -52 -38 -30 -71 -53 -73 -51 -3 2 35 46 83 97 101
108 140 161 131 183 -10 26 -30 17 -97 -47z m-429 -146 c0 -11 -28 -36 -58
-51 -22 -12 -23 -11 -13 8 18 32 71 65 71 43z m160 -51 c0 -15 -9 -36 -20 -46
-17 -15 -22 -16 -37 -4 -10 7 -20 15 -22 16 -8 6 62 72 71 67 4 -3 8 -18 8
-33z"/>
<path d="M3300 3234 c38 -8 90 -9 90 -2 0 4 -24 7 -52 7 -29 -1 -46 -3 -38 -5z"/>
<path d="M3500 3230 c0 -5 -7 -10 -15 -10 -17 0 -20 -16 -5 -25 6 -3 10 -1 10
5 0 6 8 9 18 6 59 -18 182 -35 182 -25 0 8 -27 14 -102 25 -26 3 -49 12 -52
20 -6 16 -36 19 -36 4z"/>
<path d="M3408 3223 c7 -3 16 -2 19 1 4 3 -2 6 -13 5 -11 0 -14 -3 -6 -6z"/>
<path d="M1040 3211 c-14 -5 -48 -20 -77 -35 -38 -19 -51 -22 -47 -11 8 21 -9
19 -39 -6 -33 -25 -54 -94 -36 -115 7 -8 15 -11 18 -6 9 14 172 94 179 88 8
-8 -29 -86 -38 -81 -4 3 -7 -3 -6 -13 0 -9 -4 -16 -11 -15 -7 2 -10 -3 -7 -10
2 -7 -7 -24 -22 -37 l-26 -25 6 25 c6 19 5 21 -3 10 -6 -8 -8 -22 -6 -31 3 -8
-6 -26 -20 -39 -19 -18 -27 -21 -39 -11 -11 9 -15 9 -19 -1 -3 -8 -6 -5 -7 7
-1 18 -2 18 -15 -5 -19 -33 -19 -60 0 -60 13 0 14 -4 5 -22 -7 -15 0 -11 20
12 18 21 30 28 30 19 0 -8 -6 -21 -12 -28 -11 -11 -9 -12 9 -6 19 5 22 3 17
-12 -5 -14 -4 -15 4 -4 6 8 19 12 31 8 11 -3 20 -2 19 2 -2 20 5 32 27 47 35
23 42 11 15 -25 -12 -17 -17 -31 -11 -31 5 0 12 8 16 19 3 10 14 26 25 36 19
17 20 17 20 -3 0 -11 -6 -22 -12 -25 -7 -2 -5 -3 5 -2 9 2 17 -1 17 -6 0 -20
38 -7 65 21 16 17 35 30 42 30 8 0 13 6 11 13 -5 19 37 71 104 128 62 53 62
53 32 14 -52 -68 -73 -109 -76 -148 -1 -20 -6 -37 -11 -37 -6 0 2 -9 16 -20
14 -11 33 -20 42 -20 22 0 73 27 115 61 l35 29 23 -30 c13 -17 27 -30 32 -30
5 0 29 15 54 34 l45 35 -6 -34 c-4 -27 -2 -36 12 -41 31 -12 122 50 165 112 8
11 27 24 42 28 l28 6 -25 -36 c-62 -91 10 -134 92 -56 l21 21 11 -29 c12 -37
19 -37 47 -3 l22 28 30 -33 c16 -17 39 -32 49 -32 11 0 41 16 68 35 l49 35 19
-30 c26 -41 78 -41 133 -2 64 46 66 47 59 19 -8 -31 19 -60 48 -51 45 14 137
84 137 103 0 17 -8 14 -55 -20 -64 -46 -86 -20 -44 51 25 41 36 50 66 50 15 0
28 10 38 30 19 36 19 40 -1 40 -14 0 -14 3 -4 15 9 11 10 19 3 26 -14 14 -48
-4 -63 -31 -6 -12 -21 -20 -36 -20 -14 0 -35 -11 -49 -26 -32 -34 -31 -42 1
-36 l26 5 -18 -28 c-26 -40 -132 -107 -164 -103 -45 5 -33 31 29 60 59 29 89
64 77 94 -5 13 -15 16 -52 11 -36 -4 -54 -13 -85 -43 -21 -21 -41 -46 -44 -55
-8 -24 -101 -83 -120 -75 -25 9 -17 22 29 51 55 35 73 64 57 94 -7 11 -16 21
-22 21 -21 0 -76 -34 -131 -82 -88 -76 -69 -44 33 57 88 87 149 159 149 177 0
28 -92 -25 -149 -86 -14 -14 -31 -26 -39 -26 -9 0 -12 -3 -9 -7 4 -3 -4 -20
-17 -38 -13 -17 -38 -52 -56 -78 -38 -56 -87 -87 -97 -62 -4 11 8 30 33 56 32
33 37 43 27 57 -8 12 -22 16 -52 15 -23 -1 -41 2 -41 8 0 26 -57 -8 -78 -47
-7 -14 -8 -24 -1 -31 13 -13 -47 -73 -73 -73 -23 0 -23 15 1 48 24 35 34 89
19 99 -39 23 -149 -25 -244 -108 -85 -74 -131 -84 -116 -26 13 51 106 177 130
177 8 0 12 3 9 6 -4 4 3 20 14 35 23 33 22 67 -3 82 -17 12 -64 -23 -192 -143
-32 -30 -54 -46 -48 -35 19 33 39 55 50 55 5 0 8 8 5 19 -3 10 0 22 6 25 16
10 13 62 -4 76 -23 19 -55 2 -133 -74 l-74 -71 20 51 c20 50 20 51 1 83 -10
17 -20 31 -21 30 -2 0 -14 -4 -28 -8z m129 -156 c-19 -31 -53 -79 -76 -108
-24 -29 -43 -55 -43 -58 0 -10 -37 -17 -49 -9 -9 5 -7 11 5 21 16 12 17 12 9
-1 -8 -13 -7 -13 11 0 29 22 30 24 12 17 -10 -4 -18 -2 -18 3 0 11 173 198
179 194 2 -2 -11 -29 -30 -59z m1155 -56 c-22 -24 -53 -43 -60 -36 -9 8 46 57
63 57 14 0 14 -3 -3 -21z m-754 -60 c-64 -59 -87 -73 -94 -60 -10 16 43 69 82
82 20 6 41 15 47 20 5 5 11 9 15 9 3 -1 -20 -23 -50 -51z m550 42 c0 -5 -15
-19 -34 -30 -58 -36 -79 -22 -23 16 35 23 57 28 57 14z"/>
<path d="M2610 3169 c0 -4 14 -9 30 -11 17 -3 30 -1 30 3 0 4 -13 9 -30 11
-16 3 -30 1 -30 -3z"/>
<path d="M2718 3163 c7 -3 16 -2 19 1 4 3 -2 6 -13 5 -11 0 -14 -3 -6 -6z"/>
<path d="M3845 3130 c3 -5 11 -10 16 -10 6 0 7 5 4 10 -3 6 -11 10 -16 10 -6
0 -7 -4 -4 -10z"/>
<path d="M4101 3124 c0 -11 3 -14 6 -6 3 7 2 16 -1 19 -3 4 -6 -2 -5 -13z"/>
<path d="M452 3100 c0 -14 2 -19 5 -12 2 6 2 18 0 25 -3 6 -5 1 -5 -13z"/>
<path d="M1464 3089 c-2 -5 36 -8 86 -8 50 0 88 4 86 8 -7 10 -165 10 -172 0z"/>
<path d="M1680 3089 c-34 -6 -33 -6 13 -8 46 -1 59 3 35 11 -7 2 -29 1 -48 -3z"/>
<path d="M4211 3091 c-8 -6 -9 -11 -3 -15 6 -3 14 -1 17 5 9 14 2 20 -14 10z"/>
<path d="M1768 3083 c6 -2 18 -2 25 0 6 3 1 5 -13 5 -14 0 -19 -2 -12 -5z"/>
<path d="M1810 3080 c0 -5 9 -10 21 -10 11 0 17 5 14 10 -3 6 -13 10 -21 10
-8 0 -14 -4 -14 -10z"/>
<path d="M1953 3083 c9 -2 23 -2 30 0 6 3 -1 5 -18 5 -16 0 -22 -2 -12 -5z"/>
<path d="M450 3066 c0 -2 7 -6 15 -10 8 -3 15 -1 15 4 0 6 -7 10 -15 10 -8 0
-15 -2 -15 -4z"/>
<path d="M961 3044 c0 -11 3 -14 6 -6 3 7 2 16 -1 19 -3 4 -6 -2 -5 -13z"/>
<path d="M4401 3044 c0 -11 3 -14 6 -6 3 7 2 16 -1 19 -3 4 -6 -2 -5 -13z"/>
<path d="M604 2995 c-9 -40 -8 -45 7 -45 13 0 16 9 15 45 0 25 -3 45 -6 45 -3
0 -10 -20 -16 -45z"/>
<path d="M643 3024 c-3 -8 -1 -20 6 -27 8 -8 11 -4 11 16 0 30 -7 35 -17 11z"/>
<path d="M880 3031 c0 -6 4 -13 10 -16 6 -3 7 1 4 9 -7 18 -14 21 -14 7z"/>
<path d="M4422 3020 c0 -14 2 -19 5 -12 2 6 2 18 0 25 -3 6 -5 1 -5 -13z"/>
<path d="M443 2985 c0 -27 2 -38 4 -22 2 15 2 37 0 50 -2 12 -4 0 -4 -28z"/>
<path d="M701 3013 c7 -10 14 -20 16 -22 1 -1 7 0 13 4 14 9 -6 35 -27 35 -13
0 -13 -3 -2 -17z"/>
<path d="M765 3019 c-4 -6 -5 -12 -2 -15 2 -3 7 2 10 11 7 17 1 20 -8 4z"/>
<path d="M4422 2920 c1 -38 5 -70 8 -70 4 0 6 15 5 33 -2 17 2 38 7 45 7 8 7
12 -1 12 -7 0 -9 9 -5 25 4 16 2 25 -5 25 -7 0 -11 -24 -9 -70z"/>
<path d="M1685 2969 c-4 -6 -5 -12 -2 -15 2 -3 7 2 10 11 7 17 1 20 -8 4z"/>
<path d="M751 2938 c5 -10 12 -18 14 -18 2 0 3 8 2 18 0 10 -7 19 -13 19 -9 0
-10 -5 -3 -19z"/>
<path d="M2785 2950 c3 -5 8 -10 11 -10 2 0 4 5 4 10 0 6 -5 10 -11 10 -5 0
-7 -4 -4 -10z"/>
<path d="M3475 2940 c-3 -5 -1 -10 4 -10 6 0 11 5 11 10 0 6 -2 10 -4 10 -3 0
-8 -4 -11 -10z"/>
<path d="M726 2880 c3 -14 10 -32 15 -40 7 -12 8 -11 9 6 0 11 -7 29 -16 40
-14 18 -15 18 -8 -6z"/>
<path d="M780 2886 c0 -8 5 -18 10 -21 6 -3 10 1 10 9 0 8 -4 18 -10 21 -5 3
-10 -1 -10 -9z"/>
<path d="M4155 2890 c-3 -5 -2 -10 4 -10 5 0 13 5 16 10 3 6 2 10 -4 10 -5 0
-13 -4 -16 -10z"/>
<path d="M1195 2880 c-3 -5 -1 -10 4 -10 6 0 11 5 11 10 0 6 -2 10 -4 10 -3 0
-8 -4 -11 -10z"/>
<path d="M1728 2873 c6 -2 18 -2 25 0 6 3 1 5 -13 5 -14 0 -19 -2 -12 -5z"/>
<path d="M761 2863 c0 -4 4 -17 8 -27 6 -15 9 -16 13 -5 3 8 -1 20 -8 27 -8 7
-14 9 -13 5z"/>
<path d="M442 2835 c0 -16 2 -22 5 -12 2 9 2 23 0 30 -3 6 -5 -1 -5 -18z"/>
<path d="M733 2805 c-3 -10 0 -21 8 -26 18 -11 31 -7 38 12 3 12 1 12 -14 -1
-17 -14 -18 -13 -12 2 3 10 2 20 -4 23 -5 4 -12 -1 -16 -10z"/>
<path d="M4429 2809 c0 -8 -1 -80 -1 -161 -1 -138 -2 -148 -20 -148 -12 0 -16
-4 -12 -11 4 -8 0 -9 -15 -4 -12 4 -21 2 -21 -4 0 -14 47 -15 55 -1 3 5 11 7
18 4 10 -4 12 31 9 163 -2 92 -6 170 -8 172 -2 2 -4 -2 -5 -10z"/>
<path d="M840 2778 c0 -4 7 -8 15 -8 8 0 15 4 15 8 0 5 -7 9 -15 9 -8 0 -15
-4 -15 -9z"/>
<path d="M807 2773 c-4 -3 -7 -11 -7 -17 0 -6 5 -5 12 2 6 6 9 14 7 17 -3 3
-9 2 -12 -2z"/>
<path d="M950 2749 c0 -5 5 -7 10 -4 6 3 10 8 10 11 0 2 -4 4 -10 4 -5 0 -10
-5 -10 -11z"/>
<path d="M431 2734 c0 -11 3 -14 6 -6 3 7 2 16 -1 19 -3 4 -6 -2 -5 -13z"/>
<path d="M737 2743 c-4 -6 0 -13 8 -17 8 -3 17 0 21 6 4 6 3 8 -4 4 -5 -3 -12
-1 -14 6 -3 8 -6 9 -11 1z"/>
<path d="M2677 2708 c-22 -48 -6 -118 28 -118 33 0 43 101 14 137 -17 20 -25
16 -42 -19z m41 -76 c-2 -14 -8 -27 -15 -29 -18 -6 -26 57 -12 92 l12 30 9
-34 c5 -18 8 -45 6 -59z"/>
<path d="M2848 2733 c-7 -32 -1 -143 8 -143 6 0 9 12 6 30 -2 17 0 30 6 30 6
0 13 -13 17 -30 4 -16 11 -30 17 -30 6 0 8 6 5 14 -13 34 -18 104 -8 110 14 9
14 26 1 26 -5 0 -10 -6 -10 -13 0 -7 -7 -22 -16 -33 -15 -18 -15 -18 -10 8 4
15 2 30 -4 33 -5 3 -11 3 -12 -2z"/>
<path d="M695 2720 c-3 -5 -1 -10 4 -10 6 0 11 5 11 10 0 6 -2 10 -4 10 -3 0
-8 -4 -11 -10z"/>
<path d="M2230 2697 l-12 -32 -7 25 c-4 14 -15 26 -25 28 -16 3 -17 -4 -14
-67 3 -80 18 -97 19 -23 l1 47 12 -35 13 -35 7 28 c10 41 25 32 23 -13 -2 -22
2 -40 8 -40 6 0 10 29 10 70 1 78 -16 99 -35 47z"/>
<path d="M2290 2656 c0 -85 16 -104 22 -26 1 28 0 50 -4 50 -3 0 -4 8 -1 19 3
10 0 22 -6 25 -8 5 -11 -17 -11 -68z"/>
<path d="M2338 2703 c-4 -32 6 -110 15 -119 3 -3 15 -3 26 1 18 5 21 14 21 60
0 29 3 60 6 69 3 9 1 16 -5 16 -7 0 -11 -24 -11 -64 0 -63 -11 -89 -26 -64 -4
6 -6 38 -5 70 2 58 -15 84 -21 31z"/>
<path d="M2430 2653 l4 -78 6 55 c5 50 7 52 14 25 4 -16 9 -34 11 -40 1 -5 6
-1 10 10 20 59 24 59 24 6 1 -75 12 -58 17 28 4 58 2 71 -11 71 -8 0 -17 -11
-21 -25 -3 -14 -10 -25 -15 -25 -5 0 -11 11 -15 25 -3 14 -11 25 -18 25 -8 0
-10 -23 -6 -77z"/>
<path d="M2580 2660 c0 -40 4 -70 10 -70 6 0 10 4 10 10 0 5 11 20 25 34 14
14 25 34 25 45 0 25 -26 51 -51 51 -17 0 -19 -8 -19 -70z m40 15 c0 -31 -14
-54 -26 -42 -8 8 8 87 17 81 5 -3 9 -20 9 -39z"/>
<path d="M2760 2661 c0 -68 14 -96 23 -48 l4 22 8 -22 c4 -13 11 -23 16 -23 5
0 4 12 -1 26 -7 18 -7 31 1 40 6 7 9 25 7 41 -2 22 -9 29 -30 31 l-28 3 0 -70z
m40 19 c0 -16 -4 -32 -10 -35 -6 -4 -10 10 -10 35 0 25 4 39 10 35 6 -3 10
-19 10 -35z"/>
<path d="M3610 2719 c0 -5 5 -7 10 -4 6 3 10 8 10 11 0 2 -4 4 -10 4 -5 0 -10
-5 -10 -11z"/>
<path d="M1931 2650 c1 -38 5 -70 10 -70 5 0 9 7 9 15 0 8 4 15 9 15 18 0 41
31 41 55 0 29 -24 55 -51 55 -17 0 -19 -7 -18 -70z m39 15 c0 -19 -4 -37 -10
-40 -6 -4 -10 12 -10 40 0 28 4 44 10 40 6 -3 10 -21 10 -40z"/>
<path d="M2019 2648 c3 -40 6 -63 9 -50 4 27 19 29 27 2 3 -11 10 -20 15 -20
6 0 5 11 -1 27 -7 18 -6 30 1 37 26 26 4 76 -34 76 -20 0 -21 -5 -17 -72z m37
7 c-9 -36 -24 -23 -18 15 3 21 8 28 15 21 5 -5 7 -21 3 -36z"/>
<path d="M2100 2650 c0 -68 1 -70 25 -70 14 0 25 4 25 10 0 5 -7 7 -15 4 -12
-5 -15 2 -15 29 0 25 5 37 18 40 16 4 16 5 0 6 -11 1 -18 9 -18 22 0 16 4 19
21 14 15 -5 19 -4 15 4 -4 6 -18 11 -32 11 -23 0 -24 -2 -24 -70z"/>
<path d="M4297 2713 c-4 -3 -7 -16 -6 -27 0 -19 1 -19 10 3 10 24 8 36 -4 24z"/>
<path d="M432 2578 c-2 -114 -11 -154 -25 -115 -3 6 -4 2 -4 -11 1 -12 6 -21
12 -18 7 2 11 -11 10 -40 -1 -24 2 -41 7 -38 5 3 8 20 7 38 -4 61 -1 70 18 55
9 -8 14 -9 10 -2 -4 7 0 13 10 16 11 3 8 5 -9 6 l-27 1 -4 118 -3 117 -2 -127z"/>
<path d="M663 2670 c1 -11 5 -20 9 -20 3 0 6 9 5 20 -1 11 -5 20 -9 20 -3 0
-6 -9 -5 -20z"/>
<path d="M910 2679 c0 -5 5 -7 10 -4 6 3 10 8 10 11 0 2 -4 4 -10 4 -5 0 -10
-5 -10 -11z"/>
<path d="M916 2641 c-4 -7 -5 -15 -2 -18 9 -9 19 4 14 18 -4 11 -6 11 -12 0z"/>
<path d="M667 2615 c-4 -9 1 -11 14 -8 26 7 32 19 9 20 -10 1 -21 -4 -23 -12z"/>
<path d="M817 2623 c-4 -3 -7 -11 -7 -17 0 -6 5 -5 12 2 6 6 9 14 7 17 -3 3
-9 2 -12 -2z"/>
<path d="M4189 2613 c-13 -16 -12 -17 4 -4 16 13 21 21 13 21 -2 0 -10 -8 -17
-17z"/>
<path d="M787 2604 c-11 -11 -8 -26 3 -19 6 3 10 1 10 -6 0 -7 3 -10 6 -6 3 3
2 13 -3 22 -5 8 -12 12 -16 9z"/>
<path d="M4309 2583 c-13 -16 -12 -17 4 -4 9 7 17 15 17 17 0 8 -8 3 -21 -13z"/>
<path d="M870 2571 c0 -6 7 -14 15 -17 8 -4 12 -11 9 -18 -4 -6 1 -3 12 6 14
14 15 21 6 30 -9 9 -12 9 -12 -1 0 -11 -3 -11 -15 -1 -11 9 -15 9 -15 1z"/>
<path d="M1215 2560 c-4 -12 -5 -24 -2 -27 3 -2 8 5 12 17 4 12 5 24 2 27 -3
2 -8 -5 -12 -17z"/>
<path d="M1325 2569 c-4 -6 -5 -12 -2 -15 2 -3 7 2 10 11 7 17 1 20 -8 4z"/>
<path d="M615 2559 c-4 -6 -5 -12 -2 -15 2 -3 7 2 10 11 7 17 1 20 -8 4z"/>
<path d="M826 2525 c3 -16 6 -34 7 -39 1 -5 -6 -12 -16 -14 -15 -3 -17 1 -13
25 l6 28 -12 -27 c-6 -15 -21 -29 -32 -31 -20 -4 -20 -5 2 -12 16 -5 20 -11
12 -20 -6 -7 -7 -21 -3 -31 6 -17 5 -17 -10 -5 -16 13 -17 11 -15 -15 2 -36
-19 -77 -36 -71 -18 7 -40 -9 -32 -22 4 -6 10 -9 14 -7 4 2 7 -13 7 -35 1 -38
10 -58 21 -46 3 3 1 13 -4 23 -12 22 6 83 19 63 4 -7 3 -21 -2 -30 -5 -10 -8
-28 -6 -41 3 -31 -38 -35 -48 -4 -7 20 -8 20 -12 -4 -3 -13 0 -26 5 -28 7 -2
5 -16 -4 -37 -21 -51 -17 -67 5 -19 21 47 42 67 33 32 -5 -21 -3 -20 22 7 20
22 24 24 17 8 -6 -12 -11 -30 -10 -40 0 -10 8 -1 18 21 26 60 34 27 10 -45
-25 -77 -48 -108 -45 -61 1 17 -2 29 -6 26 -4 -3 -8 -14 -8 -25 0 -20 -15 -26
-25 -9 -8 13 -25 3 -25 -14 0 -9 13 -12 43 -11 23 2 42 4 42 5 0 1 8 3 18 5
22 4 47 24 47 38 0 6 -11 0 -24 -12 l-23 -22 2 23 c5 37 44 135 60 148 19 15
19 13 0 -40 -22 -63 -18 -72 7 -15 12 28 25 52 28 55 4 3 9 13 13 23 3 9 11
17 16 17 5 0 3 -12 -5 -27 -24 -48 -15 -60 12 -15 14 23 29 42 35 42 12 0 12
-17 -1 -25 -5 -3 -10 -14 -9 -23 0 -15 2 -15 12 2 7 10 22 30 33 45 12 14 22
39 22 55 0 23 -2 26 -10 12 -5 -9 -6 -20 -3 -25 3 -6 -4 -9 -15 -8 -13 1 -20
9 -21 22 -1 18 -2 18 -7 -3 -4 -13 -10 -23 -14 -23 -5 1 -12 1 -17 1 -5 0 -8
12 -5 28 3 20 2 23 -6 12 -5 -8 -10 -23 -10 -32 0 -10 -7 -18 -15 -18 -20 0
-19 36 4 85 17 38 18 39 25 16 8 -22 10 -21 36 24 17 30 30 43 35 35 4 -6 -1
-17 -10 -24 -12 -8 -15 -22 -13 -46 l4 -35 8 32 c5 18 12 30 17 27 5 -3 9 4 9
14 0 25 36 70 46 59 5 -4 4 -11 -2 -15 -18 -12 -36 -54 -27 -63 4 -4 17 12 28
37 22 50 50 62 39 17 -7 -25 -6 -27 9 -14 9 7 14 17 11 22 -6 10 23 25 32 17
2 -3 0 -17 -5 -32 -14 -36 -7 -33 18 9 11 19 28 35 37 35 13 0 14 -3 4 -15 -6
-8 -10 -20 -7 -27 3 -8 9 -2 16 15 l11 27 252 1 c319 1 447 5 455 13 7 7 -3 7
-297 8 -124 0 -240 -3 -258 -6 -37 -9 -40 -1 -12 29 17 18 18 22 4 22 -9 0
-20 -13 -26 -28 -7 -20 -14 -26 -28 -22 -11 3 -17 9 -14 14 3 5 1 9 -5 9 -5 0
-11 -6 -14 -12 -2 -8 -21 -13 -45 -13 -38 0 -40 1 -25 17 8 9 13 23 10 30 -4
10 -6 10 -6 1 -1 -17 -43 -17 -59 -1 -10 10 -14 8 -18 -9 -3 -12 -13 -24 -21
-27 -12 -5 -14 -1 -10 14 6 22 -8 37 -18 20 -3 -5 -13 -10 -22 -10 -9 0 -21
-7 -27 -16 -15 -20 -146 -34 -146 -15 0 6 3 10 8 10 17 -3 32 2 32 10 0 5 -9
7 -20 4 -19 -5 -41 10 -53 37 -4 8 -4 2 -1 -15z m220 -52 c-10 -10 -19 5 -10
18 6 11 8 11 12 0 2 -7 1 -15 -2 -18z m-131 -23 c3 -5 -3 -10 -13 -10 -11 0
-25 -7 -32 -15 -15 -18 -30 -19 -30 -2 0 31 60 52 75 27z m-65 -90 c0 -55 -13
-100 -28 -100 -12 0 -13 8 -8 42 l7 42 -21 -23 c-11 -13 -20 -19 -20 -13 0 7
-7 12 -15 12 -18 0 -18 1 -1 35 16 30 31 18 21 -18 -5 -21 -5 -20 9 2 7 14 12
30 9 37 -3 8 5 11 21 10 21 -1 26 -6 26 -26z m-70 -78 c0 -5 -7 -17 -15 -28
-15 -19 -20 -8 -9 20 6 17 24 22 24 8z m11 -29 c-12 -20 -14 -14 -5 12 4 9 9
14 11 11 3 -2 0 -13 -6 -23z"/>
<path d="M855 2540 c-4 -6 -2 -17 4 -23 15 -15 25 -2 13 19 -7 12 -11 13 -17
4z"/>
<path d="M404 2520 c0 -13 4 -16 10 -10 7 7 7 13 0 20 -6 6 -10 3 -10 -10z"/>
<path d="M661 2524 c0 -11 3 -14 6 -6 3 7 2 16 -1 19 -3 4 -6 -2 -5 -13z"/>
<path d="M761 2524 c0 -11 3 -14 6 -6 3 7 2 16 -1 19 -3 4 -6 -2 -5 -13z"/>
<path d="M920 2510 c0 -5 5 -10 11 -10 5 0 7 5 4 10 -3 6 -8 10 -11 10 -2 0
-4 -4 -4 -10z"/>
<path d="M1207 2503 c3 -7 6 -13 8 -13 1 0 7 6 13 13 8 10 6 13 -7 13 -11 0
-17 -6 -14 -13z"/>
<path d="M2320 2495 c-10 -12 -16 -13 -27 -3 -11 9 -16 9 -22 0 -5 -9 -50 -13
-152 -13 -80 -1 -135 -4 -124 -9 11 -4 77 -5 148 -3 l127 5 0 -36 c0 -20 5
-36 10 -36 6 0 10 16 10 35 0 36 13 47 24 20 3 -8 13 -15 22 -15 8 0 14 -6 11
-12 -2 -7 -12 -12 -22 -10 -10 2 -14 -1 -10 -7 8 -14 42 -14 51 0 4 6 10 26
14 44 6 29 4 34 -17 44 -30 14 -28 14 -43 -4z m30 -35 c0 -5 -4 -10 -10 -10
-5 0 -10 5 -10 10 0 6 5 10 10 10 6 0 10 -4 10 -10z"/>
<path d="M2406 2491 c-19 -21 -14 -62 10 -82 11 -9 19 -8 34 6 26 23 26 71 1
85 -25 13 -25 13 -45 -9z m42 -43 c-4 -28 -24 -34 -31 -9 -6 22 0 31 20 31 9
0 13 -8 11 -22z"/>
<path d="M2492 2498 c-9 -9 -9 -15 0 -25 8 -10 8 -17 0 -25 -17 -17 -15 -26 9
-38 29 -16 47 3 46 48 -1 48 -27 68 -55 40z m38 -8 c0 -5 -5 -10 -11 -10 -5 0
-7 5 -4 10 3 6 8 10 11 10 2 0 4 -4 4 -10z m-5 -70 c-5 -8 -11 -8 -17 -2 -6 6
-7 16 -3 22 5 8 11 8 17 2 6 -6 7 -16 3 -22z"/>
<path d="M2570 2480 c0 -5 14 -10 32 -10 36 0 35 4 -4 14 -17 4 -28 2 -28 -4z"/>
<path d="M2660 2479 c-22 -6 -20 -7 13 -8 38 -1 47 3 25 11 -7 3 -24 1 -38 -3z"/>
<path d="M2716 2469 c-13 -15 -12 -19 5 -35 20 -18 27 -6 8 13 -8 8 -7 13 2
18 7 5 10 4 6 -2 -11 -17 20 -35 64 -37 43 -2 48 1 55 38 4 23 2 23 -61 23
-47 -1 -68 -6 -79 -18z m51 -6 c-4 -3 -1 -13 6 -22 11 -14 10 -14 -5 -2 -16
12 -16 31 -1 31 4 0 3 -3 0 -7z m30 0 c-4 -3 -1 -13 6 -22 11 -14 10 -14 -5
-2 -21 15 -23 31 -6 31 6 0 8 -3 5 -7z m39 -12 c0 -15 -3 -17 -13 -9 -7 6 -13
14 -13 19 0 5 6 9 13 9 7 0 13 -9 13 -19z"/>
<path d="M2874 2479 c-2 -4 29 -8 71 -8 43 0 75 4 75 10 0 12 -138 10 -146 -2z"/>
<path d="M3030 2480 c0 -5 14 -10 32 -10 36 0 35 4 -4 14 -17 4 -28 2 -28 -4z"/>
<path d="M3490 2480 l-135 -6 153 -2 c83 -1 152 0 152 2 0 9 -44 11 -170 6z"/>
<path d="M3682 2478 c-9 -4 16 -7 57 -7 41 -1 72 2 68 5 -8 9 -105 10 -125 2z"/>
<path d="M4115 2480 c4 -6 10 -8 15 -5 5 3 20 1 33 -4 19 -7 27 -6 30 3 4 9
-8 13 -40 15 -28 1 -42 -3 -38 -9z"/>
<path d="M4250 2479 c0 -5 5 -7 10 -4 6 3 10 8 10 11 0 2 -4 4 -10 4 -5 0 -10
-5 -10 -11z"/>
<path d="M4310 2471 c-13 -25 -13 -42 1 -18 5 9 17 17 24 17 8 0 15 5 15 10 0
18 -29 11 -40 -9z"/>
<path d="M1923 2473 c9 -2 23 -2 30 0 6 3 -1 5 -18 5 -16 0 -22 -2 -12 -5z"/>
<path d="M3148 2473 c7 -3 16 -2 19 1 4 3 -2 6 -13 5 -11 0 -14 -3 -6 -6z"/>
<path d="M3198 2473 c7 -3 16 -2 19 1 4 3 -2 6 -13 5 -11 0 -14 -3 -6 -6z"/>
<path d="M3278 2473 c7 -3 16 -2 19 1 4 3 -2 6 -13 5 -11 0 -14 -3 -6 -6z"/>
<path d="M4427 2081 c2 -218 4 -579 5 -803 2 -270 0 -408 -7 -408 -5 0 -4 -4
3 -8 9 -6 12 -77 10 -316 -3 -259 -5 -308 -18 -317 -14 -10 -2154 -4 -2575 7
-88 2 -272 5 -409 6 -187 2 -252 5 -262 15 -7 7 -20 13 -29 13 -9 0 -25 5 -36
10 -13 8 -19 7 -19 0 0 -6 -4 -8 -10 -5 -5 3 -10 0 -10 -9 0 -18 -28 -15 -42
5 -8 12 -9 12 -5 -1 4 -13 -5 -16 -51 -17 -30 -1 -51 2 -46 5 5 4 10 41 11 82
l3 74 -27 -37 c-14 -20 -31 -37 -36 -37 -5 0 -4 6 2 14 8 9 8 16 2 20 -6 4
-15 -12 -22 -34 -10 -34 -16 -40 -40 -40 -15 0 -30 6 -32 13 -4 9 -6 9 -6 0
-1 -7 -8 -13 -16 -13 -26 0 -16 -19 13 -23 25 -4 25 -4 -5 -6 -22 -1 -33 4
-33 13 0 7 -7 20 -17 27 -15 13 -16 11 -10 -12 4 -17 2 -31 -6 -37 -8 -7 -70
-10 -164 -9 -83 1 -146 -1 -138 -5 7 -5 30 -9 51 -10 22 -2 42 -7 46 -13 5 -6
8 -5 8 3 0 6 5 12 10 12 6 0 10 -7 10 -16 0 -8 5 -12 10 -9 6 4 7 11 4 17 -4
7 -2 8 4 4 6 -4 9 -14 6 -24 -5 -14 -2 -13 13 3 12 15 29 20 53 19 19 -1 56
-3 83 -5 26 -1 47 -7 47 -13 0 -6 5 -4 10 4 8 13 10 12 10 -4 0 -13 3 -16 13
-9 6 6 19 11 27 11 8 1 41 3 72 5 46 3 58 0 61 -12 3 -10 5 -7 6 7 1 14 5 20
12 17 6 -4 8 -14 5 -22 -8 -19 34 -14 51 7 7 8 13 11 13 5 0 -5 5 -3 11 5 9
12 10 11 6 -7 -3 -13 -1 -23 4 -23 5 0 9 6 9 14 0 11 17 13 78 10 144 -7 390
-6 401 0 6 4 11 4 11 -1 0 -4 244 -8 543 -8 298 0 943 -3 1434 -5 983 -5 919
-9 927 56 3 16 8 38 12 48 6 15 4 17 -7 11 -11 -7 -12 -6 -3 6 13 16 15 51 2
43 -4 -3 -8 -1 -8 5 0 5 5 11 11 13 7 2 7 12 0 31 -6 16 -7 27 -1 27 5 0 9 20
8 45 0 25 -5 45 -11 45 -7 0 -7 4 1 12 16 16 15 31 0 22 -10 -6 -10 -4 -2 7
13 17 13 477 0 498 -6 10 -5 12 2 7 16 -10 16 36 0 53 -8 8 -8 11 -2 8 14 -8
13 140 0 162 -6 9 -5 12 1 8 11 -7 11 102 0 121 -5 7 -3 12 4 12 9 0 9 3 0 14
-8 10 -9 16 -1 21 7 4 7 13 -1 27 -8 15 -8 19 0 14 6 -4 11 -2 11 3 0 6 -6 11
-12 11 -8 0 -9 3 -3 8 8 6 12 66 5 82 -7 16 -6 62 2 66 5 3 4 12 -2 19 -6 7
-7 16 -2 19 8 5 7 26 -2 88 -2 16 0 30 4 33 5 3 7 11 5 18 -10 28 -12 123 -3
141 7 13 7 16 -1 12 -13 -9 -10 46 4 56 6 5 5 8 -2 8 -7 0 -10 7 -6 17 4 10 2
14 -4 10 -5 -3 -10 0 -10 8 0 8 4 12 8 9 4 -2 10 0 14 6 3 5 -2 10 -12 10 -15
0 -16 2 -3 10 10 6 11 10 3 10 -9 0 -10 7 -3 25 6 15 6 25 0 25 -5 0 -6 10 -3
23 3 12 4 32 4 45 -1 12 -1 30 -2 40 0 9 1 29 4 45 2 15 1 30 -4 33 -5 2 -6
17 -3 33 4 19 1 30 -8 33 -11 5 -13 -62 -11 -391z m-3532 -1761 c3 -6 -1 -13
-10 -16 -19 -8 -30 0 -20 15 8 14 22 14 30 1z"/>
<path d="M492 2454 c-11 -12 -10 -15 3 -21 13 -5 14 -7 3 -14 -11 -7 -11 -9 1
-9 9 0 11 -8 7 -26 -5 -17 -3 -23 4 -19 5 3 10 15 10 26 0 10 7 19 15 19 8 0
15 5 15 10 0 6 5 10 11 10 5 0 7 -5 3 -12 -4 -7 -3 -8 4 -4 7 4 12 14 12 22 0
8 -4 12 -10 9 -5 -3 -10 -2 -10 4 0 5 8 12 18 14 9 3 -3 5 -28 5 -28 1 -50 -4
-58 -14z"/>
<path d="M627 2456 c-4 -10 -1 -13 9 -9 9 3 14 -1 14 -13 0 -9 3 -15 6 -11 12
12 64 -22 58 -38 -4 -8 -1 -15 4 -15 6 0 10 16 9 35 -1 25 -6 34 -16 30 -9 -3
-11 0 -8 10 4 8 2 17 -2 20 -5 3 -12 -3 -15 -12 -6 -15 -8 -15 -16 -3 -6 8
-10 11 -10 6 0 -5 -6 -3 -14 3 -10 9 -15 8 -19 -3z"/>
<path d="M601 2444 c0 -11 3 -14 6 -6 3 7 2 16 -1 19 -3 4 -6 -2 -5 -13z"/>
<path d="M1984 2449 c-11 -18 11 -32 25 -16 9 12 8 16 -3 20 -9 4 -18 1 -22
-4z"/>
<path d="M2023 2434 c-12 -26 -12 -26 7 -9 11 10 17 22 14 26 -7 12 -7 12 -21
-17z"/>
<path d="M2054 2436 c-10 -21 -8 -23 21 -22 18 1 38 6 46 12 8 7 23 14 34 16
16 3 15 5 -7 10 -19 3 -28 1 -28 -7 0 -7 -7 -16 -16 -19 -13 -5 -14 -4 -6 7
18 21 2 29 -17 9 -9 -10 -12 -13 -8 -6 4 7 4 14 0 17 -5 3 -13 -5 -19 -17z"/>
<path d="M4237 2453 c-4 -3 -7 -11 -7 -17 0 -6 5 -5 12 2 6 6 9 14 7 17 -3 3
-9 2 -12 -2z"/>
<path d="M1431 2419 c-6 -18 -9 -34 -7 -36 2 -2 9 10 15 28 6 18 9 34 7 36 -2
2 -9 -10 -15 -28z"/>
<path d="M1214 2423 c-1 -10 -9 -36 -19 -58 -24 -57 -8 -36 21 24 16 35 19 51
11 51 -7 0 -13 -8 -13 -17z"/>
<path d="M1385 2429 c-4 -6 -5 -12 -2 -15 2 -3 7 2 10 11 7 17 1 20 -8 4z"/>
<path d="M1260 2399 c-7 -11 -10 -23 -7 -25 2 -2 9 7 15 21 14 30 7 33 -8 4z"/>
<path d="M1316 2405 c-9 -26 -7 -32 5 -12 6 10 9 21 6 23 -2 3 -7 -2 -11 -11z"/>
<path d="M4249 2403 c-13 -16 -12 -17 4 -4 16 13 21 21 13 21 -2 0 -10 -8 -17
-17z"/>
<path d="M681 2378 c1 -27 15 -52 23 -40 4 6 2 21 -4 32 -12 23 -20 26 -19 8z"/>
<path d="M1040 2365 c0 -14 2 -25 4 -25 2 0 6 11 8 25 3 14 1 25 -3 25 -5 0
-9 -11 -9 -25z"/>
<path d="M1086 2349 c-8 -42 0 -50 9 -9 4 17 5 34 2 36 -2 3 -7 -10 -11 -27z"/>
<path d="M470 2355 c-7 -9 -10 -18 -7 -21 3 -3 10 4 17 15 13 25 8 27 -10 6z"/>
<path d="M620 2356 c0 -15 -3 -16 -15 -6 -8 7 -15 8 -15 3 0 -5 9 -16 19 -25
17 -14 20 -15 25 -1 3 8 2 22 -4 31 -8 15 -9 15 -10 -2z"/>
<path d="M647 2352 c4 -9 11 -20 17 -24 7 -5 7 -8 -1 -8 -7 0 -13 -5 -13 -12
0 -9 3 -9 12 0 18 18 17 38 -3 50 -15 10 -17 9 -12 -6z"/>
<path d="M1137 2363 c-4 -3 -7 -13 -7 -22 1 -13 3 -13 11 2 11 19 8 33 -4 20z"/>
<path d="M1296 2355 c-3 -9 -6 -22 -5 -28 0 -7 5 -1 10 12 5 13 8 26 5 28 -2
2 -6 -3 -10 -12z"/>
<path d="M4243 2339 c-2 -23 3 -25 10 -4 4 8 3 16 -1 19 -4 3 -9 -4 -9 -15z"/>
<path d="M420 2300 c-1 -25 -2 -51 -1 -58 1 -8 -4 -21 -11 -30 -10 -12 -10
-14 0 -8 6 4 12 2 12 -3 0 -6 -5 -11 -11 -11 -8 0 -8 -4 -1 -13 6 -7 10 -32 9
-55 0 -23 -4 -36 -8 -30 -4 6 -6 -7 -6 -30 1 -26 5 -38 12 -31 10 10 20 247
12 289 -3 17 -5 10 -7 -20z"/>
<path d="M577 2324 c-8 -8 3 -34 15 -34 7 0 6 5 -1 13 -6 8 -8 17 -4 20 3 4 4
7 1 7 -2 0 -7 -3 -11 -6z"/>
<path d="M1370 2315 c-8 -9 -8 -15 -2 -15 12 0 26 19 19 26 -2 2 -10 -2 -17
-11z"/>
<path d="M481 2304 c0 -11 3 -14 6 -6 3 7 2 16 -1 19 -3 4 -6 -2 -5 -13z"/>
<path d="M1016 2285 c-8 -19 -19 -35 -25 -35 -10 0 -34 -60 -26 -68 2 -3 9 6
14 19 5 13 18 33 28 44 17 18 37 75 27 75 -2 0 -10 -16 -18 -35z"/>
<path d="M1257 2306 c-4 -10 -1 -13 9 -9 7 3 14 9 14 14 0 14 -17 10 -23 -5z"/>
<path d="M550 2291 c0 -6 4 -13 10 -16 6 -3 7 1 4 9 -7 18 -14 21 -14 7z"/>
<path d="M2250 2297 c-3 -2 -57 -7 -120 -11 -186 -11 -262 -27 -363 -77 -32
-16 -64 -26 -70 -23 -7 4 -9 4 -5 -1 4 -4 -14 -26 -40 -49 -86 -75 -164 -160
-170 -186 -1 -7 -9 -19 -17 -27 -8 -8 -17 -24 -21 -37 -4 -19 -21 -26 -112
-50 -59 -15 -114 -29 -122 -30 -17 -3 -15 -62 2 -84 9 -10 -6 -12 -78 -7 -49
2 -109 6 -134 7 -25 2 -47 -1 -50 -6 -3 -6 56 -11 145 -14 120 -3 153 -7 170
-21 12 -9 20 -23 17 -31 -3 -12 -2 -12 8 -3 9 8 17 7 31 -5 10 -9 19 -19 19
-22 0 -4 -27 -26 -60 -50 -66 -48 -69 -57 -47 -141 20 -75 26 -79 136 -79 83
0 106 -4 171 -30 48 -19 94 -29 127 -30 66 0 85 -22 76 -86 -9 -69 4 -78 108
-71 l87 7 6 -40 c9 -56 34 -70 125 -70 41 0 71 3 68 7 -4 3 0 15 10 25 12 13
16 36 15 82 0 55 3 66 23 85 22 18 25 19 33 5 7 -13 13 -14 31 -5 12 7 26 9
31 6 15 -9 60 6 60 21 0 8 5 14 11 14 6 0 9 -7 5 -15 -3 -8 -1 -15 4 -15 6 0
10 -5 10 -11 0 -5 -4 -7 -10 -4 -5 3 -21 -1 -34 -10 -14 -9 -28 -15 -32 -13
-3 2 -13 -7 -21 -20 -9 -13 -11 -22 -5 -22 6 0 16 8 22 18 8 11 13 13 16 5 4
-8 10 -7 23 5 10 9 16 21 13 26 -3 5 0 6 7 2 8 -6 9 -12 2 -20 -13 -15 -4 -26
21 -26 19 0 19 8 3 73 -4 16 -3 27 3 27 5 0 12 9 15 21 7 27 43 22 39 -6 -3
-18 -2 -19 10 -3 16 21 118 32 118 13 0 -22 -43 -34 -72 -19 -22 12 -28 11
-38 -1 -12 -15 -44 -9 -34 6 3 5 1 9 -4 9 -9 0 -22 -22 -21 -38 0 -4 10 -6 22
-4 20 3 20 2 6 -10 -28 -23 -31 -47 -6 -54 13 -3 27 -4 33 -3 31 6 56 -2 50
-16 -4 -11 2 -15 20 -15 17 0 27 8 34 24 5 13 13 27 19 30 9 6 9 0 1 -39 -6
-29 0 -36 23 -23 12 7 26 12 31 13 5 0 13 9 18 20 7 16 7 15 3 -7 -4 -22 -2
-25 15 -21 15 4 18 11 14 28 -3 13 -1 26 5 29 11 7 16 -13 11 -43 -1 -8 4 -12
14 -8 8 3 17 1 20 -6 3 -8 9 -6 17 7 9 15 13 16 20 5 7 -11 9 -10 9 3 0 9 6
21 14 25 8 4 16 19 18 33 2 14 7 31 11 38 5 7 10 23 13 37 3 20 1 23 -12 18
-11 -4 -15 -2 -11 4 9 14 46 23 52 13 3 -5 1 -11 -5 -15 -5 -3 -10 -15 -10
-26 0 -11 4 -17 10 -14 6 3 7 -1 3 -10 -3 -9 -9 -12 -12 -7 -10 16 -26 -10
-27 -43 0 -16 -3 -42 -7 -57 -4 -21 -2 -26 9 -21 8 3 13 8 10 11 -7 7 13 42
24 42 5 0 7 -7 4 -15 -4 -8 -1 -15 4 -15 6 0 14 16 18 35 7 41 23 47 18 8 -1
-15 1 -33 7 -39 5 -7 3 -28 -7 -57 -32 -95 -4 -131 100 -124 48 3 62 8 77 28
11 13 23 29 27 34 4 6 19 37 33 70 21 49 31 61 52 63 17 2 29 12 36 30 5 15
10 21 10 14 1 -7 -8 -30 -19 -52 -11 -22 -20 -41 -20 -44 0 -2 15 -4 34 -3 19
1 31 6 28 11 -3 5 0 6 6 2 7 -4 12 -15 12 -25 0 -19 24 -44 51 -53 16 -6 95
11 118 26 10 7 12 4 6 -13 -4 -12 -2 -21 4 -21 6 0 11 6 12 13 4 85 27 167 48
168 9 1 23 2 33 3 9 1 20 4 24 9 12 11 21 8 28 -9 3 -8 2 -12 -4 -9 -6 3 -10
2 -10 -3 0 -10 30 -25 37 -18 2 2 1 15 -3 30 -7 30 -52 69 -70 62 -19 -7 -24
17 -18 86 4 43 -1 104 -16 193 -12 72 -24 164 -25 206 -4 99 -25 170 -73 245
-90 139 -254 227 -482 259 -56 7 -673 19 -680 12z m505 -67 c-5 -8 102 -6 111
3 13 12 44 8 50 -8 4 -10 13 -13 25 -10 14 5 19 1 20 -12 0 -16 1 -16 9 2 5
11 9 14 9 8 1 -7 6 -13 12 -13 6 0 9 7 5 15 -4 12 -2 13 14 3 10 -7 17 -15 14
-19 -8 -14 16 -20 33 -9 17 11 17 11 0 6 -11 -3 -15 -2 -12 4 7 11 56 2 65
-11 3 -4 19 -9 37 -12 28 -4 78 -26 61 -27 -4 0 22 -29 58 -66 35 -36 62 -69
58 -75 -3 -5 5 -18 18 -29 13 -11 18 -19 11 -20 -7 0 -10 -6 -7 -14 6 -15 -11
-19 -121 -30 -22 -3 -60 -9 -85 -15 -25 -5 -52 -9 -60 -9 -38 3 -63 -3 -54
-11 5 -5 30 -6 59 -1 28 5 77 14 110 20 33 5 79 10 103 10 38 0 42 -2 42 -25
0 -14 6 -25 13 -25 8 0 7 -4 -3 -10 -10 -6 -11 -10 -2 -10 6 0 12 -8 12 -17 0
-14 -2 -15 -9 -5 -6 10 -10 8 -14 -10 -10 -34 -8 -68 2 -68 5 0 12 6 14 13 4
9 6 9 6 0 1 -7 -8 -17 -20 -23 -17 -10 -18 -14 -7 -28 7 -9 8 -13 2 -9 -10 5
-16 -4 -43 -58 -3 -5 3 -4 12 4 9 7 14 17 11 22 -3 5 0 9 5 9 17 0 14 -9 -28
-79 -21 -36 -41 -76 -45 -88 -4 -11 -14 -27 -24 -34 -14 -11 -15 -11 -4 1 6 8
12 21 12 30 -1 12 -4 11 -18 -5 -25 -29 -58 -54 -47 -36 5 9 -2 7 -18 -5 -15
-10 -27 -23 -27 -28 0 -5 6 -4 13 2 8 7 18 6 31 -4 16 -11 17 -16 6 -29 -10
-12 -9 -15 6 -17 11 0 27 -1 36 0 22 2 14 -22 -44 -128 -50 -90 -47 -87 -57
-72 -6 10 -10 10 -20 -2 -10 -12 -8 -15 9 -18 21 -3 21 -4 -5 -38 -14 -19 -23
-41 -20 -48 3 -7 -8 -27 -24 -43 -33 -32 -78 -38 -121 -16 -28 15 -28 30 -3
92 22 51 22 52 33 35 8 -12 10 -12 10 4 0 11 3 16 7 13 11 -12 33 14 33 39 0
13 4 24 9 24 5 0 7 -9 4 -20 -4 -15 0 -20 15 -20 23 0 68 63 57 80 -4 6 -1 25
5 44 6 20 7 42 2 56 l-9 23 -16 -24 c-9 -13 -17 -29 -17 -35 0 -6 -9 -21 -20
-34 -26 -30 -25 -25 5 34 25 50 33 92 15 81 -5 -3 -10 -1 -10 6 0 8 -4 8 -16
-2 -10 -9 -14 -22 -10 -41 6 -31 -1 -58 -16 -58 -5 0 -6 5 -3 10 3 6 2 10 -3
10 -6 0 -12 -7 -16 -15 -3 -8 -10 -15 -15 -15 -6 0 -8 7 -5 15 4 9 0 15 -9 15
-8 0 -20 7 -27 15 -14 17 -79 19 -170 6 -30 -5 -56 -8 -57 -7 -1 0 5 12 14 26
8 14 12 17 9 6 -5 -14 -2 -17 10 -12 8 3 20 6 25 6 6 0 21 12 34 26 20 22 23
22 18 5 -4 -16 -1 -19 19 -14 12 3 33 17 46 32 21 23 23 24 18 5 -6 -19 -3
-21 21 -16 16 2 33 9 40 14 14 11 5 41 -10 31 -7 -4 -8 0 -3 13 6 15 5 17 -5
7 -19 -19 -34 -16 -18 3 11 14 11 18 -4 29 -10 7 -15 19 -11 29 3 9 2 16 -4
16 -12 0 -26 -30 -23 -48 1 -8 -5 -7 -17 5 -10 10 -17 22 -14 27 2 4 8 2 13
-5 6 -11 9 -11 13 1 8 22 2 69 -7 63 -5 -3 -6 -11 -3 -19 3 -9 0 -11 -11 -7
-10 4 -14 2 -9 -5 3 -6 2 -13 -4 -17 -5 -3 -10 -15 -10 -26 0 -10 -4 -19 -10
-19 -5 0 -12 0 -15 0 -3 0 -5 3 -4 8 1 4 6 6 12 4 6 -2 3 6 -8 18 l-20 22 -3
-26 c-2 -14 -8 -24 -13 -20 -5 3 -7 11 -3 17 3 7 -2 3 -10 -7 -9 -11 -16 -23
-16 -28 0 -4 -4 -8 -10 -8 -5 0 -7 7 -4 15 4 8 1 15 -4 15 -6 0 -9 -9 -7 -20
2 -11 -5 -30 -16 -42 -11 -13 -18 -18 -15 -11 4 6 2 14 -4 18 -5 3 -10 11 -10
17 0 7 6 6 15 -2 9 -7 15 -8 15 -2 0 12 -29 24 -40 17 -5 -3 -7 -12 -4 -19 3
-8 0 -17 -7 -22 -8 -5 -10 -3 -4 7 6 11 5 12 -6 1 -11 -10 -17 -8 -32 10 -13
16 -20 19 -24 11 -9 -24 -23 -13 -17 12 4 15 2 25 -5 25 -6 0 -11 -7 -11 -16
0 -9 -5 -12 -12 -8 -7 5 -9 2 -5 -9 4 -11 2 -14 -9 -10 -7 3 -14 0 -14 -6 0
-6 5 -11 11 -11 5 0 7 -5 3 -12 -6 -9 -9 -9 -12 0 -2 7 -8 12 -14 12 -6 0 -8
-7 -4 -15 3 -9 0 -15 -8 -15 -8 0 -17 -6 -19 -12 -4 -10 -6 -10 -6 -1 -1 6 3
14 9 18 5 3 7 12 3 21 -3 9 0 14 7 12 7 -2 15 3 18 11 2 8 0 11 -6 7 -6 -3
-12 0 -15 6 -2 7 -7 -2 -11 -19 -4 -18 -12 -33 -18 -33 -6 0 -8 7 -4 15 10 27
-9 16 -28 -16 -10 -17 -20 -28 -23 -25 -3 3 -1 12 5 19 9 10 8 18 -4 33 -15
19 -15 18 -5 -1 7 -16 4 -25 -15 -44 l-24 -24 10 29 c11 28 11 28 -10 9 -20
-18 -21 -18 -14 0 6 14 4 16 -6 10 -9 -5 -11 -4 -6 3 4 7 13 12 20 12 7 0 13
7 13 15 0 8 -5 11 -11 7 -31 -19 -72 3 -53 28 6 8 8 12 3 8 -5 -4 -15 -1 -22
7 -18 18 -47 8 -39 -13 3 -9 -5 -4 -19 11 -23 25 -43 37 -32 19 2 -4 1 -14 -5
-22 -13 -22 -12 26 1 51 9 15 7 19 -5 19 -9 0 -13 -5 -10 -10 3 -6 0 -17 -8
-25 -11 -10 -14 -28 -10 -57 3 -32 2 -39 -6 -28 -6 8 -11 10 -11 5 0 -6 5 -16
10 -21 15 -15 1 -76 -16 -70 -14 5 -16 1 -16 -34 0 -51 3 -54 21 -20 10 21 23
33 32 31 34 -10 65 -7 77 8 11 14 11 14 6 -1 -5 -14 -1 -18 18 -18 13 0 30 6
37 13 12 10 13 9 7 -7 -5 -16 -2 -18 29 -14 67 8 34 -10 -59 -31 -89 -21 -126
-41 -126 -69 0 -7 -4 -12 -10 -12 -5 0 -10 -11 -10 -25 0 -28 -15 -34 -24 -9
-3 9 -11 12 -18 8 -8 -5 -9 -1 -5 12 7 18 6 18 -6 2 -8 -10 -18 -14 -22 -10
-5 4 -6 0 -3 -9 4 -9 2 -22 -3 -30 -6 -10 -9 -10 -9 -1 0 21 -38 -8 -51 -40
-12 -29 -6 -48 16 -48 8 0 15 13 17 32 2 25 9 34 33 41 21 7 30 7 33 -1 6 -18
22 -14 22 4 0 18 22 14 28 -6 3 -7 0 -10 -6 -6 -5 3 -12 -1 -15 -8 -4 -9 1
-16 10 -18 13 -3 13 -6 -3 -26 -21 -25 -91 -36 -130 -22 -40 16 -35 106 6 117
11 3 17 9 14 14 -3 5 1 12 10 15 13 5 15 20 7 66 0 4 -10 12 -22 18 -25 14
-69 -10 -69 -37 0 -18 -28 -53 -42 -53 -4 0 -8 9 -8 21 0 15 5 19 15 15 17 -6
20 12 4 34 -9 13 -10 12 -5 -3 3 -10 0 -17 -8 -17 -8 0 -17 -6 -20 -12 -3 -7
-5 2 -3 20 2 17 0 32 -4 32 -5 0 -6 7 -3 15 5 11 11 12 25 4 15 -8 19 -6 19 7
0 12 7 15 30 12 17 -3 33 -1 36 3 2 5 16 4 31 -2 29 -11 28 -12 37 19 5 13 3
22 -3 22 -6 0 -11 -5 -11 -11 0 -5 -5 -7 -10 -4 -8 5 -7 11 1 21 9 11 8 14 -4
14 -8 0 -17 9 -20 20 -3 11 -11 19 -19 17 -7 -2 -10 -2 -6 0 4 2 4 11 1 19 -4
11 -9 12 -19 3 -12 -9 -13 -6 -7 21 5 26 3 31 -7 25 -10 -6 -12 -4 -7 9 4 10
3 15 -3 11 -10 -6 -14 6 -11 35 1 11 -1 11 -9 -2 -8 -13 -8 -24 0 -38 7 -13 7
-20 0 -20 -17 0 -11 -36 10 -60 15 -17 17 -26 9 -37 -13 -15 -33 -18 -24 -3 3
6 -3 10 -14 10 -11 0 -23 5 -27 12 -5 7 -2 8 7 3 12 -7 12 -5 1 6 -11 11 -14
12 -21 1 -6 -10 -10 -8 -16 10 -4 12 -7 26 -6 31 1 4 -4 7 -10 7 -5 0 -8 4 -4
9 3 5 1 12 -4 15 -10 6 -8 57 3 74 4 7 2 12 -3 12 -6 0 -11 10 -11 22 0 41 -8
13 -13 -47 -5 -54 -21 -115 -30 -115 -2 0 -1 14 1 32 4 25 2 30 -11 25 -14 -5
-15 -2 -6 20 8 21 7 24 -6 19 -13 -4 -15 -1 -10 14 4 13 2 20 -6 20 -7 0 -9
-3 -6 -6 3 -4 2 -15 -4 -25 -6 -12 -6 -19 0 -19 5 0 7 -18 4 -40 -4 -25 -1
-46 7 -55 10 -12 10 -15 -3 -15 -8 0 -17 -7 -21 -15 -3 -8 -12 -15 -21 -15 -8
0 -15 -4 -15 -9 0 -5 -18 0 -40 11 -22 11 -40 25 -40 32 0 6 -9 -2 -21 -19
-14 -20 -19 -23 -15 -10 16 63 18 75 7 75 -7 0 -16 10 -21 23 -5 12 -9 16 -9
10 -1 -7 -10 -13 -21 -13 -15 0 -20 -7 -20 -25 0 -28 -15 -34 -18 -7 -1 9 -3
26 -4 37 -4 25 -34 38 -56 25 -14 -8 -14 -10 -2 -11 8 -1 18 -1 22 0 4 0 5 -9
3 -21 -3 -12 1 -26 8 -30 9 -7 8 -8 -3 -7 -26 4 -50 -12 -51 -35 -1 -18 -2
-18 -6 -2 -4 14 -11 17 -34 12 -25 -5 -31 -2 -39 18 -5 13 -13 27 -19 30 -6 4
-8 13 -4 21 4 11 1 13 -11 9 -9 -3 -16 -1 -16 5 0 6 5 11 12 11 7 0 34 21 60
47 47 46 62 86 36 96 -7 2 -10 7 -7 11 3 3 13 4 21 1 30 -12 3 -86 -46 -128
-11 -10 -16 -16 -10 -13 6 3 11 -2 11 -10 0 -8 -6 -13 -14 -10 -7 3 -13 -1
-13 -9 0 -8 -5 -15 -12 -15 -6 0 -9 -3 -6 -6 4 -3 25 3 48 14 26 12 38 22 31
26 -19 12 26 66 56 66 22 0 25 -4 20 -25 -4 -25 -4 -25 13 -8 11 11 14 22 8
29 -6 8 0 14 18 18 14 4 27 6 28 4 0 -2 6 -12 12 -24 8 -14 9 -26 2 -38 -5
-10 -7 -20 -4 -24 11 -10 26 14 29 45 1 18 7 29 13 26 7 -2 15 0 19 6 3 6 1
11 -5 11 -16 0 -143 82 -158 102 -9 13 -18 15 -35 9 -16 -6 -29 -4 -45 9 -47
38 -7 60 68 37 45 -13 53 -14 117 -4 49 8 73 17 73 28 0 6 5 7 10 4 6 -3 10
-2 10 2 0 5 -12 14 -27 20 -16 7 -21 12 -13 11 39 -1 70 3 70 10 0 4 -12 8
-27 8 -33 1 -73 11 -82 19 -3 4 2 11 12 16 9 6 18 20 18 32 1 19 2 19 6 3 4
-15 9 -11 28 20 12 20 30 39 39 40 9 1 14 -2 10 -7 -3 -5 -10 -6 -16 -3 -7 4
-8 2 -4 -5 6 -9 12 -9 24 1 10 7 19 13 21 15 2 1 -8 7 -23 13 -15 5 -24 14
-21 20 4 6 16 4 33 -6 25 -15 25 -15 8 0 -19 15 -19 16 10 17 16 0 23 3 17 6
-7 2 -13 9 -13 15 0 5 16 1 35 -11 19 -11 35 -16 35 -11 0 4 3 15 6 23 4 12 0
14 -18 10 -17 -3 -19 -2 -9 5 7 5 11 15 7 20 -4 6 -4 22 -1 35 5 19 11 23 27
19 15 -4 19 -2 13 7 -5 10 -2 11 12 7 13 -4 26 1 38 14 10 11 23 20 28 20 5 0
16 8 24 18 14 16 14 16 9 0 -3 -10 -1 -18 4 -18 5 0 12 9 15 20 4 11 11 18 16
15 5 -4 9 -1 9 5 0 8 6 7 21 -1 17 -8 23 -8 30 2 4 8 27 13 56 14 26 0 51 5
55 10 5 6 8 4 8 -4 0 -11 5 -10 20 4 11 10 20 14 20 9 0 -11 40 -11 56 -1 14
8 55 -3 49 -13 -3 -4 2 -11 11 -14 8 -3 13 -2 10 3 -3 5 6 17 21 26 22 15 28
15 37 4 14 -17 46 -24 46 -9 0 8 6 8 20 0 15 -8 20 -8 20 2 0 11 2 11 8 0 5
-7 16 -10 25 -6 9 3 17 2 17 -4 0 -5 16 -9 35 -8 19 1 35 -3 36 -9 0 -5 3 -4
6 3 6 15 33 16 33 0 0 -9 3 -9 11 -1 6 6 18 9 25 6 10 -4 12 0 8 13 -3 11 -2
15 3 9 9 -12 58 -13 69 -2 4 4 1 7 -6 7 -7 0 -10 3 -7 6 4 4 14 1 24 -7 9 -8
14 -9 10 -2 -11 18 16 22 34 4 9 -9 15 -18 14 -21z m63 25 c-11 -11 -58 -15
-58 -5 0 5 14 10 32 10 17 0 29 -2 26 -5z m-318 -15 c0 -5 -2 -10 -4 -10 -3 0
-8 5 -11 10 -3 6 -1 10 4 10 6 0 11 -4 11 -10z m47 4 c-3 -3 -12 -4 -19 -1 -8
3 -5 6 6 6 11 1 17 -2 13 -5z m393 -4 c0 -5 -5 -10 -11 -10 -5 0 -7 5 -4 10 3
6 8 10 11 10 2 0 4 -4 4 -10z m442 -272 c-7 -7 -12 -8 -12 -2 0 14 12 26 19
19 2 -3 -1 -11 -7 -17z m58 -56 c13 -48 13 -103 1 -82 -6 8 -8 17 -6 20 2 4
-2 30 -10 58 -7 29 -9 50 -4 47 4 -3 13 -22 19 -43z m-30 -84 c0 -7 -7 -22
-16 -33 -14 -19 -14 -19 -10 5 2 14 5 28 5 33 2 12 21 8 21 -5z m-2005 -17
c-63 -25 -94 -34 -130 -37 -36 -4 -37 -3 -15 7 36 15 122 38 145 38 l20 0 -20
-8z m2055 -79 c0 -26 4 -63 9 -82 5 -19 12 -50 15 -69 l6 -34 -22 24 c-13 13
-23 35 -22 49 2 30 -11 130 -21 160 -6 20 -5 21 14 11 17 -9 21 -21 21 -59z
m-2198 21 c-6 -2 -10 -9 -7 -14 4 -5 -1 -6 -9 -3 -24 9 -19 24 7 23 12 0 16
-3 9 -6z m32 -21 c3 -5 -1 -9 -9 -9 -8 0 -12 4 -9 9 3 4 7 8 9 8 2 0 6 -4 9
-8z m2077 -45 c-10 -9 -11 -8 -5 6 3 10 9 15 12 12 3 -3 0 -11 -7 -18z m50
-83 c0 -77 5 -114 25 -183 4 -11 10 -8 29 9 14 13 25 18 25 12 0 -7 -4 -12
-10 -12 -17 0 -32 -39 -21 -58 6 -9 11 -12 12 -7 1 6 2 15 4 20 1 6 3 16 3 23
1 6 6 12 11 12 8 0 -3 -92 -14 -109 -6 -10 -51 -9 -61 2 -3 3 -13 3 -22 0 -10
-4 -13 -2 -8 5 5 8 2 10 -8 6 -13 -5 -12 -9 4 -27 25 -26 36 -60 21 -65 -6 -2
-11 -8 -11 -13 0 -14 49 12 54 30 2 9 2 -4 0 -29 -9 -83 -21 -107 -65 -124
-49 -20 -63 -20 -80 0 -10 13 -10 17 2 25 10 6 10 9 2 9 -22 0 -14 36 13 63
14 14 34 24 44 22 12 -2 20 4 23 17 5 16 3 18 -6 9 -18 -18 -29 -13 -17 9 8
16 8 20 -4 20 -8 0 -18 4 -21 10 -4 6 1 7 11 3 13 -5 15 -2 9 16 -9 29 26 66
44 48 8 -8 11 -6 11 9 0 34 -24 57 -62 58 -34 1 -35 2 -33 39 1 20 1 37 0 37
-1 0 -12 -12 -26 -27 -18 -20 -20 -25 -7 -20 15 5 16 4 5 -14 -9 -15 -13 -16
-15 -5 -3 12 -9 9 -28 -12 -13 -15 -24 -22 -23 -17 3 24 -2 36 -13 29 -7 -4
-8 -3 -4 4 4 6 14 8 23 5 12 -5 15 -2 11 8 -4 11 0 15 16 15 15 -1 20 4 19 19
-1 11 0 14 3 7 9 -21 45 39 38 63 -4 18 -4 18 6 2 6 -9 8 -22 5 -27 -3 -6 -4
-10 -1 -10 9 0 47 69 45 82 -1 7 5 30 14 50 10 21 17 43 17 49 0 7 2 10 6 7 3
-3 5 -46 5 -94z m-64 -19 c0 -8 -4 -15 -9 -15 -10 0 -11 14 -1 23 9 10 10 9
10 -8z m93 -14 c0 -6 -4 -13 -10 -16 -5 -3 -10 1 -10 9 0 9 5 16 10 16 6 0 10
-4 10 -9z m16 -46 c-3 -9 1 -18 8 -21 21 -8 27 -31 11 -38 -10 -3 -12 0 -8 11
5 12 1 14 -18 8 -17 -4 -20 -3 -10 3 7 5 10 15 7 21 -4 6 -4 16 -1 21 10 16
18 12 11 -5z m-156 -4 c0 -5 -7 -12 -16 -15 -14 -5 -15 -4 -4 9 14 17 20 19
20 6z m-520 -41 c0 -5 -7 -10 -15 -10 -8 0 -15 5 -15 10 0 6 7 10 15 10 8 0
15 -4 15 -10z m-1283 -32 c-3 -8 -6 -5 -6 6 -1 11 2 17 5 13 3 -3 4 -12 1 -19z
m1096 7 c4 -8 3 -16 -1 -19 -4 -3 -9 4 -9 15 -2 23 3 25 10 4z m129 -7 c-7 -7
-12 -8 -12 -2 0 14 12 26 19 19 2 -3 -1 -11 -7 -17z m-447 -18 c-3 -5 -12 -10
-18 -10 -7 0 -6 4 3 10 19 12 23 12 15 0z m249 -30 c-10 -16 -20 -27 -22 -25
-5 5 26 55 34 55 3 0 -3 -13 -12 -30z m-88 -9 c1 -23 -2 -26 -11 -18 -9 8 -10
18 -4 30 13 23 14 22 15 -12z m157 14 c-3 -9 -8 -14 -10 -11 -3 3 -2 9 2 15 9
16 15 13 8 -4z m-1274 -21 c2 -2 -10 -4 -27 -4 -18 0 -32 5 -32 10 0 9 47 4
59 -6z m844 -4 c3 -11 1 -18 -4 -14 -5 3 -9 12 -9 20 0 20 7 17 13 -6z m1207
2 c0 -11 -10 -31 -23 -46 l-23 -26 0 40 c0 22 4 40 8 40 5 0 6 -4 3 -10 -3 -5
-1 -10 4 -10 6 0 11 7 11 15 0 8 5 15 10 15 6 0 10 -8 10 -18z m-90 -24 c-18
-31 -18 -33 -2 -52 13 -16 14 -18 1 -8 -17 13 -29 7 -29 -15 0 -8 5 -11 12 -7
7 4 8 3 4 -5 -9 -15 -26 -5 -26 16 0 11 -6 14 -25 9 l-25 -6 21 24 c12 13 26
23 33 20 6 -2 19 9 28 26 9 16 19 30 22 30 3 0 -3 -14 -14 -32z m-1442 -31
c-6 -18 -15 -36 -19 -41 -5 -6 -9 -17 -9 -26 0 -9 -10 -16 -24 -18 -18 -1 -25
5 -30 23 -3 13 -18 31 -32 38 l-26 14 39 16 c22 9 43 23 46 31 5 12 12 13 36
5 28 -10 29 -12 19 -42z m842 34 c0 -5 -7 -11 -14 -14 -10 -4 -13 -1 -9 9 6
15 23 19 23 5z m-60 -21 c-14 -4 -45 -8 -70 -8 -37 0 -40 1 -20 8 14 4 45 8
70 8 37 0 40 -1 20 -8z m-133 -6 c-3 -3 -12 -4 -19 -1 -8 3 -5 6 6 6 11 1 17
-2 13 -5z m423 -11 c0 -5 -4 -14 -9 -21 -6 -10 -10 -9 -14 7 -3 14 0 21 9 21
8 0 14 -3 14 -7z m-144 -28 c-10 -38 -25 -75 -31 -75 -4 0 -3 9 0 20 3 11 7
33 7 50 1 19 6 30 16 30 10 0 12 -7 8 -25z m-143 -5 c-6 -24 -4 -23 -37 -7
-30 16 -28 22 13 25 25 2 28 -1 24 -18z m56 4 c1 11 3 17 6 14 4 -3 3 -17 -1
-32 -5 -21 -9 -24 -24 -16 -14 7 -19 5 -23 -10 -3 -11 -11 -20 -19 -19 -10 0
-10 2 0 6 6 2 12 14 12 25 0 15 5 18 19 13 16 -5 19 -2 15 17 -4 21 -4 21 5 3
9 -19 10 -19 10 -1z m321 2 c0 -3 -4 -8 -10 -11 -5 -3 -10 -1 -10 4 0 6 5 11
10 11 6 0 10 -2 10 -4z m-660 -16 c-18 -12 -30 -13 -30 -2 0 4 10 9 22 9 18 2
20 0 8 -7z m1095 0 c3 -5 2 -10 -4 -10 -5 0 -13 5 -16 10 -3 6 -2 10 4 10 5 0
13 -4 16 -10z m-1152 -14 c4 -10 0 -12 -15 -8 -15 4 -17 7 -6 13 17 11 15 11
21 -5z m182 4 c3 -5 1 -10 -4 -10 -6 0 -11 5 -11 10 0 6 2 10 4 10 3 0 8 -4
11 -10z m115 -4 c-15 -15 -39 -16 -33 -1 2 8 13 13 24 12 12 -1 15 -5 9 -11z
m377 -8 c-3 -8 -6 -5 -6 6 -1 11 2 17 5 13 3 -3 4 -12 1 -19z m95 0 c-7 -7
-12 -8 -12 -2 0 14 12 26 19 19 2 -3 -1 -11 -7 -17z m-1200 -45 c8 -10 6 -13
-8 -13 -20 0 -57 20 -38 20 7 0 15 12 20 28 l8 27 4 -25 c2 -14 9 -31 14 -37z
m140 31 c-2 -10 -8 -23 -14 -29 -8 -7 -9 -5 -5 8 4 11 1 17 -10 17 -13 0 -13
3 -3 15 17 20 36 13 32 -11z m898 6 c0 -5 -5 -10 -11 -10 -5 0 -7 5 -4 10 3 6
8 10 11 10 2 0 4 -4 4 -10z m178 -19 c-7 -12 -16 -21 -21 -21 -4 0 0 11 10 24
22 29 30 27 11 -3z m-571 -6 c-2 -25 -22 -36 -22 -12 0 10 15 35 22 37 1 0 1
-11 0 -25z m-77 -10 c-7 -9 -15 -13 -19 -10 -3 3 1 10 9 15 21 14 24 12 10 -5z
m883 -5 c-6 -24 -23 -37 -23 -18 0 12 18 38 26 38 1 0 0 -9 -3 -20z m-710 -41
c-9 -9 -12 -7 -10 9 1 14 5 18 11 12 7 -7 6 -14 -1 -21z m129 9 c-7 -7 -12 -8
-12 -2 0 14 12 26 19 19 2 -3 -1 -11 -7 -17z m-876 -2 c21 -21 -16 -27 -38 -6
-16 15 -16 16 4 17 11 1 27 -4 34 -11z m64 4 c0 -5 -10 -10 -22 -9 -22 0 -22
1 -3 9 11 5 21 9 23 9 1 1 2 -3 2 -9z m611 -13 c-13 -13 -26 -3 -16 12 3 6 11
8 17 5 6 -4 6 -10 -1 -17z m709 -13 c0 -8 -4 -12 -10 -9 -5 3 -10 1 -10 -6 0
-7 -3 -9 -6 -6 -4 4 -1 13 6 22 16 19 20 19 20 -1z"/>
<path d="M1747 2103 c-11 -11 -8 -23 6 -23 8 0 14 7 14 15 0 16 -9 19 -20 8z"/>
<path d="M1784 2091 c1 -18 24 -36 33 -27 4 3 1 6 -5 6 -7 0 -12 5 -12 11 0 6
7 8 16 5 8 -3 13 -2 10 3 -3 5 -14 11 -25 14 -12 3 -18 -1 -17 -12z"/>
<path d="M1780 2050 c0 -5 5 -10 11 -10 5 0 7 5 4 10 -3 6 -8 10 -11 10 -2 0
-4 -4 -4 -10z"/>
<path d="M3296 2021 c-4 -7 -5 -15 -2 -18 9 -9 19 4 14 18 -4 11 -6 11 -12 0z"/>
<path d="M1706 1965 c-11 -29 -7 -37 10 -20 11 11 13 20 7 26 -7 7 -12 5 -17
-6z"/>
<path d="M3313 1885 c-3 -9 -3 -18 -1 -21 3 -3 8 4 11 16 6 23 -1 27 -10 5z"/>
<path d="M2905 1880 c-3 -5 -1 -10 4 -10 6 0 11 5 11 10 0 6 -2 10 -4 10 -3 0
-8 -4 -11 -10z"/>
<path d="M2955 1880 c-3 -5 1 -10 9 -10 9 0 16 5 16 10 0 6 -4 10 -9 10 -6 0
-13 -4 -16 -10z"/>
<path d="M1945 1820 c-18 -8 -17 -9 8 -9 15 -1 27 4 27 9 0 12 -8 12 -35 0z"/>
<path d="M2035 1820 c-3 -5 -1 -10 4 -10 6 0 11 5 11 10 0 6 -2 10 -4 10 -3 0
-8 -4 -11 -10z"/>
<path d="M2115 1820 c-3 -5 -2 -10 4 -10 5 0 13 5 16 10 3 6 2 10 -4 10 -5 0
-13 -4 -16 -10z"/>
<path d="M2154 1823 c11 -11 45 -13 51 -3 4 6 -7 10 -26 10 -18 0 -29 -3 -25
-7z"/>
<path d="M2303 1823 c9 -2 25 -2 35 0 9 3 1 5 -18 5 -19 0 -27 -2 -17 -5z"/>
<path d="M2413 1823 c31 -2 83 -2 115 0 31 2 5 3 -58 3 -63 0 -89 -1 -57 -3z"/>
<path d="M2628 1823 c6 -2 18 -2 25 0 6 3 1 5 -13 5 -14 0 -19 -2 -12 -5z"/>
<path d="M1873 1813 c9 -2 25 -2 35 0 9 3 1 5 -18 5 -19 0 -27 -2 -17 -5z"/>
<path d="M3250 1773 c1 -14 28 -44 32 -36 3 4 -3 16 -14 26 -10 9 -18 14 -18
10z"/>
<path d="M1350 1741 c0 -11 31 -24 39 -16 3 3 -1 10 -9 15 -19 12 -30 12 -30
1z"/>
<path d="M1663 1733 c-7 -2 -13 -12 -13 -21 0 -14 -2 -14 -9 -3 -7 11 -10 9
-16 -8 -3 -11 -10 -21 -15 -21 -4 0 -10 -9 -13 -19 -3 -14 -1 -18 9 -14 9 3
14 -2 14 -15 0 -12 4 -24 10 -27 6 -3 7 1 4 10 -5 11 -2 14 10 9 9 -3 16 -1
16 6 0 6 5 8 10 5 6 -3 10 2 11 12 0 10 2 30 3 45 1 22 -1 25 -13 15 -12 -10
-13 -9 -2 11 6 12 10 22 9 21 -2 0 -9 -3 -15 -6z"/>
<path d="M2795 1610 c-3 -5 -1 -10 4 -10 6 0 11 5 11 10 0 6 -2 10 -4 10 -3 0
-8 -4 -11 -10z"/>
<path d="M2839 1613 c-1 -4 -1 -11 0 -15 1 -7 -8 -10 -25 -7 -11 1 -22 -24
-17 -38 7 -18 23 -17 23 2 0 8 4 15 10 15 15 0 32 38 20 45 -5 3 -11 3 -11 -2z"/>
<path d="M3265 1590 c-3 -5 -1 -10 4 -10 6 0 11 5 11 10 0 6 -2 10 -4 10 -3 0
-8 -4 -11 -10z"/>
<path d="M2718 1560 c18 -21 15 -29 -9 -25 -12 3 -19 1 -15 -2 14 -15 37 -10
47 9 6 11 8 22 5 26 -3 3 -6 0 -6 -8 0 -10 -3 -10 -17 1 -15 11 -16 11 -5 -1z"/>
<path d="M1496 1545 c-9 -26 -7 -32 5 -12 6 10 9 21 6 23 -2 3 -7 -2 -11 -11z"/>
<path d="M1930 1539 c0 -5 5 -7 10 -4 6 3 10 8 10 11 0 2 -4 4 -10 4 -5 0 -10
-5 -10 -11z"/>
<path d="M2300 1530 c0 -5 5 -10 11 -10 5 0 7 5 4 10 -3 6 -8 10 -11 10 -2 0
-4 -4 -4 -10z"/>
<path d="M2330 1516 c0 -2 7 -7 16 -10 8 -3 12 -2 9 4 -6 10 -25 14 -25 6z"/>
<path d="M1485 1500 c-3 -5 1 -10 9 -10 9 0 16 5 16 10 0 6 -4 10 -9 10 -6 0
-13 -4 -16 -10z"/>
<path d="M1886 1495 c-9 -26 -7 -32 5 -12 6 10 9 21 6 23 -2 3 -7 -2 -11 -11z"/>
<path d="M2311 1494 c0 -11 3 -14 6 -6 3 7 2 16 -1 19 -3 4 -6 -2 -5 -13z"/>
<path d="M2605 1490 c3 -5 8 -10 11 -10 2 0 4 5 4 10 0 6 -5 10 -11 10 -5 0
-7 -4 -4 -10z"/>
<path d="M1312 1450 c0 -14 2 -19 5 -12 2 6 2 18 0 25 -3 6 -5 1 -5 -13z"/>
<path d="M1378 1463 c7 -3 16 -2 19 1 4 3 -2 6 -13 5 -11 0 -14 -3 -6 -6z"/>
<path d="M3060 1445 c-7 -9 -8 -15 -2 -15 5 0 12 7 16 15 3 8 4 15 2 15 -2 0
-9 -7 -16 -15z"/>
<path d="M2976 1428 c-16 -22 -8 -37 20 -38 17 0 24 38 9 50 -10 8 -17 5 -29
-12z"/>
<path d="M2052 1340 c-13 -34 -4 -136 10 -122 5 5 5 26 -1 50 -5 24 -5 39 0
36 5 -3 9 0 9 6 0 6 5 8 10 5 15 -10 12 31 -4 44 -11 9 -16 6 -24 -19z"/>
<path d="M3155 1310 c3 -5 11 -10 16 -10 6 0 7 5 4 10 -3 6 -11 10 -16 10 -6
0 -7 -4 -4 -10z"/>
<path d="M3117 1286 c-4 -10 0 -12 14 -9 10 3 16 9 13 14 -8 13 -21 11 -27 -5z"/>
<path d="M2998 1151 c-20 -20 -38 -88 -20 -77 6 3 12 1 15 -6 2 -7 2 -2 0 10
-2 15 0 21 7 17 5 -3 10 2 10 11 0 13 3 15 11 7 16 -16 69 4 69 25 0 14 -2 14
-9 3 -11 -17 -34 -4 -27 15 8 21 -35 17 -56 -5z"/>
<path d="M3355 1140 c-16 -31 -12 -39 9 -17 11 11 18 47 10 47 -2 0 -10 -13
-19 -30z"/>
<path d="M3326 1151 c-17 -6 -17 -8 -4 -14 10 -3 19 0 22 9 3 8 4 14 3 13 -1
0 -11 -4 -21 -8z"/>
<path d="M1056 2274 c-23 -23 -20 -30 4 -9 11 10 20 20 20 22 0 7 -9 2 -24
-13z"/>
<path d="M1130 2265 c-13 -14 -19 -25 -13 -25 5 0 20 11 33 25 13 14 19 25 13
25 -5 0 -20 -11 -33 -25z"/>
<path d="M1195 2280 c-3 -5 -1 -10 4 -10 6 0 11 5 11 10 0 6 -2 10 -4 10 -3 0
-8 -4 -11 -10z"/>
<path d="M454 2266 c-3 -8 -4 -23 -2 -33 3 -11 6 -6 9 15 6 34 2 42 -7 18z"/>
<path d="M621 2266 c-7 -8 -21 -12 -33 -8 -15 3 -19 2 -14 -7 4 -6 12 -8 18
-5 7 4 8 -5 4 -27 l-6 -34 12 30 c6 16 17 36 25 43 13 13 17 22 9 22 -2 0 -9
-6 -15 -14z"/>
<path d="M670 2260 c0 -11 2 -20 4 -20 2 0 6 9 9 20 3 11 1 20 -4 20 -5 0 -9
-9 -9 -20z"/>
<path d="M1088 2263 c-20 -23 -35 -68 -19 -59 6 4 11 12 11 18 0 6 7 20 17 30
9 10 14 20 11 23 -3 3 -12 -3 -20 -12z"/>
<path d="M1556 2243 c-6 -14 -5 -15 5 -6 7 7 10 15 7 18 -3 3 -9 -2 -12 -12z"/>
<path d="M4263 2235 c-3 -9 -3 -18 -1 -21 3 -3 8 4 11 16 6 23 -1 27 -10 5z"/>
<path d="M1020 2229 c0 -5 5 -7 10 -4 6 3 10 8 10 11 0 2 -4 4 -10 4 -5 0 -10
-5 -10 -11z"/>
<path d="M1603 2215 c-3 -9 -3 -18 -1 -21 3 -3 8 4 11 16 6 23 -1 27 -10 5z"/>
<path d="M1356 2185 c-9 -26 -7 -32 5 -12 6 10 9 21 6 23 -2 3 -7 -2 -11 -11z"/>
<path d="M650 2159 c0 -5 5 -7 10 -4 6 3 10 8 10 11 0 2 -4 4 -10 4 -5 0 -10
-5 -10 -11z"/>
<path d="M1080 2154 c0 -8 5 -12 10 -9 6 3 10 10 10 16 0 5 -4 9 -10 9 -5 0
-10 -7 -10 -16z"/>
<path d="M401 2144 c0 -11 3 -14 6 -6 3 7 2 16 -1 19 -3 4 -6 -2 -5 -13z"/>
<path d="M1035 2150 c-3 -5 -1 -10 4 -10 6 0 11 5 11 10 0 6 -2 10 -4 10 -3 0
-8 -4 -11 -10z"/>
<path d="M546 2105 c-3 -9 -6 -22 -5 -28 0 -7 5 -1 10 12 5 13 8 26 5 28 -2 2
-6 -3 -10 -12z"/>
<path d="M562 2083 c-5 -10 -12 -31 -16 -48 -5 -25 -4 -27 5 -12 12 21 30 77
24 77 -3 0 -8 -8 -13 -17z"/>
<path d="M586 2075 c-3 -9 -6 -22 -5 -28 0 -7 5 -1 10 12 5 13 8 26 5 28 -2 2
-6 -3 -10 -12z"/>
<path d="M615 2060 c-4 -17 -5 -34 -2 -36 2 -3 7 10 11 27 8 42 0 50 -9 9z"/>
<path d="M1209 2063 c-13 -16 -12 -17 4 -4 9 7 17 15 17 17 0 8 -8 3 -21 -13z"/>
<path d="M518 2053 c7 -3 16 -2 19 1 4 3 -2 6 -13 5 -11 0 -14 -3 -6 -6z"/>
<path d="M637 2047 c-11 -29 -9 -53 4 -40 6 6 9 21 7 34 -3 21 -4 22 -11 6z"/>
<path d="M840 2035 c-7 -9 -11 -17 -9 -20 3 -2 10 5 17 15 14 24 10 26 -8 5z"/>
<path d="M1230 2005 c0 -8 2 -15 4 -15 2 0 6 7 10 15 3 8 1 15 -4 15 -6 0 -10
-7 -10 -15z"/>
<path d="M406 1938 c5 -96 14 -100 14 -5 0 43 -4 77 -9 77 -5 0 -7 -32 -5 -72z"/>
<path d="M4306 1993 c-6 -14 -5 -15 5 -6 7 7 10 15 7 18 -3 3 -9 -2 -12 -12z"/>
<path d="M881 1974 c0 -11 3 -14 6 -6 3 7 2 16 -1 19 -3 4 -6 -2 -5 -13z"/>
<path d="M797 1973 c-4 -3 -7 -11 -7 -17 0 -6 5 -5 12 2 6 6 9 14 7 17 -3 3
-9 2 -12 -2z"/>
<path d="M1125 1961 c-3 -5 -1 -12 5 -16 5 -3 10 1 10 9 0 18 -6 21 -15 7z"/>
<path d="M3976 1951 c-4 -5 3 -7 14 -4 23 6 26 13 6 13 -8 0 -17 -4 -20 -9z"/>
<path d="M1025 1941 c-3 -5 -1 -12 5 -16 5 -3 10 1 10 9 0 18 -6 21 -15 7z"/>
<path d="M941 1924 c0 -11 3 -14 6 -6 3 7 2 16 -1 19 -3 4 -6 -2 -5 -13z"/>
<path d="M4118 1913 c-19 -23 -31 -43 -24 -43 2 0 14 14 26 30 23 33 22 40 -2
13z"/>
<path d="M4050 1890 c-12 -8 -11 -10 8 -10 12 0 22 5 22 10 0 13 -11 13 -30 0z"/>
<path d="M4130 1890 c0 -5 7 -10 15 -10 8 0 15 5 15 10 0 6 -7 10 -15 10 -8 0
-15 -4 -15 -10z"/>
<path d="M4308 1893 c7 -3 16 -2 19 1 4 3 -2 6 -13 5 -11 0 -14 -3 -6 -6z"/>
<path d="M600 1859 c0 -5 5 -7 10 -4 6 3 10 8 10 11 0 2 -4 4 -10 4 -5 0 -10
-5 -10 -11z"/>
<path d="M391 1838 c14 -25 19 -99 7 -92 -5 3 -8 -8 -8 -25 0 -16 -7 -36 -15
-45 -14 -14 -14 -17 5 -28 23 -15 27 -38 5 -38 -10 0 -15 -10 -15 -29 0 -16
-7 -45 -15 -64 -19 -45 -19 -47 2 -47 15 0 15 -1 0 -18 -19 -21 -13 -34 11
-24 11 4 10 -1 -6 -18 -26 -28 -32 -60 -7 -40 12 10 15 10 15 -4 0 -9 -7 -16
-16 -16 -13 0 -15 -9 -11 -45 2 -29 0 -45 -7 -45 -12 0 -16 -118 -4 -135 4 -6
3 -17 -1 -24 -5 -7 -6 -22 -4 -32 3 -10 0 -19 -6 -19 -6 0 -11 -5 -11 -11 0
-5 4 -7 10 -4 12 7 12 7 15 -70 1 -33 -2 -65 -7 -72 -7 -9 -4 -11 11 -8 12 2
21 0 21 -6 0 -5 -4 -9 -10 -9 -12 0 -13 -87 -1 -94 5 -3 5 -23 1 -43 -4 -21
-7 -60 -6 -88 1 -43 4 -50 21 -48 18 1 18 0 3 -11 -17 -12 -15 -59 5 -83 7
-10 4 -13 -9 -14 -15 0 -16 -2 -4 -7 17 -8 25 -32 10 -32 -6 0 -10 5 -10 12 0
6 -2 9 -5 6 -5 -4 23 -68 29 -68 4 0 6 28 6 77 0 23 4 53 10 67 6 17 6 27 -2
32 -7 5 -9 49 -5 143 4 75 7 146 7 159 0 16 5 23 18 21 37 -3 92 1 92 9 0 4
-25 5 -55 4 l-55 -4 6 349 c4 191 8 359 9 373 2 14 3 66 4 117 1 87 2 92 24
96 12 2 7 4 -10 3 -18 -1 -33 2 -33 6 0 4 -5 8 -10 8 -7 0 -6 -8 1 -22z m13
-173 c-4 -8 -11 -12 -16 -9 -6 4 -5 10 3 15 19 12 19 11 13 -6z m-4 -164 c0
-14 -18 -23 -30 -16 -6 4 -8 11 -5 16 8 12 35 12 35 0z m-27 -861 c3 -11 1
-20 -4 -20 -5 0 -9 9 -9 20 0 11 2 20 4 20 2 0 6 -9 9 -20z"/>
<path d="M720 1851 c0 -6 4 -13 10 -16 6 -3 7 1 4 9 -7 18 -14 21 -14 7z"/>
<path d="M3723 1852 c-62 -1 -113 -6 -113 -10 0 -4 53 -7 118 -7 226 1 322 5
322 15 0 10 -28 10 -327 2z"/>
<path d="M4070 1852 c0 -5 7 -9 15 -9 8 0 12 4 9 9 -3 4 -9 8 -15 8 -5 0 -9
-4 -9 -8z"/>
<path d="M4110 1845 c0 -14 -30 -19 -112 -18 -10 0 -18 -5 -18 -10 0 -5 45 -7
113 -3 199 11 231 14 234 23 3 8 -12 9 -137 3 -45 -2 -64 1 -62 9 1 6 -2 11
-8 11 -5 0 -10 -7 -10 -15z"/>
<path d="M512 1821 c0 -22 4 -28 16 -27 24 4 25 56 2 56 -12 0 -17 -9 -18 -29z"/>
<path d="M830 1841 c0 -6 4 -13 10 -16 6 -3 7 1 4 9 -7 18 -14 21 -14 7z"/>
<path d="M566 1824 c-9 -22 -8 -26 6 -18 8 5 9 -2 5 -27 -5 -24 -4 -29 3 -18
10 17 9 79 -1 79 -4 0 -10 -7 -13 -16z"/>
<path d="M985 1809 c-4 -6 -5 -12 -2 -15 2 -3 7 2 10 11 7 17 1 20 -8 4z"/>
<path d="M740 1805 c0 -5 5 -17 10 -25 5 -8 10 -10 10 -5 0 6 -5 17 -10 25 -5
8 -10 11 -10 5z"/>
<path d="M998 1780 c-13 -23 -13 -28 -2 -23 8 3 14 11 14 18 0 7 5 15 12 17 7
3 8 7 2 10 -5 4 -17 -6 -26 -22z"/>
<path d="M4280 1800 c-13 -8 -12 -10 3 -10 9 0 17 5 17 10 0 12 -1 12 -20 0z"/>
<path d="M4310 1800 c0 -7 16 -9 41 -6 58 7 61 16 6 16 -26 0 -47 -5 -47 -10z"/>
<path d="M1040 1785 c-7 -8 -8 -15 -2 -15 5 0 15 7 22 15 7 8 8 15 2 15 -5 0
-15 -7 -22 -15z"/>
<path d="M1095 1790 c3 -5 8 -10 11 -10 2 0 4 5 4 10 0 6 -5 10 -11 10 -5 0
-7 -4 -4 -10z"/>
<path d="M910 1769 c0 -11 4 -18 10 -14 5 3 7 12 3 20 -7 21 -13 19 -13 -6z"/>
<path d="M937 1772 c1 -8 3 -18 3 -24 0 -6 9 -3 20 7 15 13 17 22 10 29 -8 8
-13 7 -19 -3 -5 -7 -11 -9 -13 -5 -3 5 -3 3 -1 -4z"/>
<path d="M546 1763 c-6 -14 -5 -15 5 -6 7 7 10 15 7 18 -3 3 -9 -2 -12 -12z"/>
<path d="M600 1759 c0 -5 5 -7 10 -4 6 3 10 8 10 11 0 2 -4 4 -10 4 -5 0 -10
-5 -10 -11z"/>
<path d="M660 1764 c0 -17 17 -36 24 -26 3 5 -1 15 -9 22 -8 7 -15 9 -15 4z"/>
<path d="M770 1751 c0 -5 7 -11 14 -14 10 -4 13 -1 9 9 -6 15 -23 19 -23 5z"/>
<path d="M902 1705 c12 -14 23 -23 25 -21 6 5 -29 46 -39 46 -4 0 2 -11 14
-25z"/>
<path d="M4136 1674 c-5 -14 -4 -15 9 -4 17 14 19 20 6 20 -5 0 -12 -7 -15
-16z"/>
<path d="M4215 1680 c-3 -5 -1 -10 4 -10 6 0 11 5 11 10 0 6 -2 10 -4 10 -3 0
-8 -4 -11 -10z"/>
<path d="M4269 1673 c-13 -16 -12 -17 4 -4 9 7 17 15 17 17 0 8 -8 3 -21 -13z"/>
<path d="M680 1633 c0 -4 5 -15 10 -23 8 -13 10 -13 10 2 0 9 -4 20 -10 23 -5
3 -10 3 -10 -2z"/>
<path d="M741 1624 c0 -11 3 -14 6 -6 3 7 2 16 -1 19 -3 4 -6 -2 -5 -13z"/>
<path d="M731 1574 c0 -11 3 -14 6 -6 3 7 2 16 -1 19 -3 4 -6 -2 -5 -13z"/>
<path d="M696 1553 c-13 -13 -6 -35 10 -29 10 4 13 2 8 -6 -5 -8 -2 -9 9 -5
20 7 21 3 7 -24 -6 -10 -8 -19 -6 -19 3 0 13 14 22 31 8 17 11 28 5 25 -6 -4
-11 -3 -11 1 0 12 -37 33 -44 26z"/>
<path d="M649 1453 c-13 -16 -12 -17 4 -4 9 7 17 15 17 17 0 8 -8 3 -21 -13z"/>
<path d="M623 1338 c4 -13 1 -18 -11 -18 -14 0 -14 -2 -3 -9 8 -5 11 -16 8
-25 -9 -24 -2 -19 17 9 16 24 16 27 -1 43 -16 16 -17 16 -10 0z"/>
<path d="M691 1314 c0 -11 3 -14 6 -6 3 7 2 16 -1 19 -3 4 -6 -2 -5 -13z"/>
<path d="M967 1283 c-4 -3 -7 -11 -7 -17 0 -6 5 -5 12 2 6 6 9 14 7 17 -3 3
-9 2 -12 -2z"/>
<path d="M1638 1239 c-10 -5 -18 -18 -17 -27 0 -14 2 -14 7 -2 9 20 32 24 32
5 0 -8 7 -15 15 -15 18 0 19 9 1 33 -15 20 -15 20 -38 6z"/>
<path d="M1595 1180 c3 -5 8 -10 11 -10 2 0 4 5 4 10 0 6 -5 10 -11 10 -5 0
-7 -4 -4 -10z"/>
<path d="M1654 1175 c25 -19 46 -19 46 0 0 10 -10 15 -32 15 -31 -1 -32 -1
-14 -15z"/>
<path d="M2220 1172 c-37 -18 -51 -42 -24 -42 11 0 14 5 9 18 -5 14 -4 15 6 5
18 -18 30 -16 22 4 -4 10 -2 14 4 10 6 -4 13 0 17 8 7 18 9 18 -34 -3z"/>
<path d="M1595 1140 c-3 -5 5 -15 19 -22 14 -6 26 -15 26 -20 0 -5 4 -7 9 -3
15 9 3 -39 -13 -50 -10 -8 -4 -11 24 -11 34 -1 36 1 32 22 -2 14 -8 27 -13 30
-5 3 -2 13 8 22 16 16 15 17 -2 20 -9 2 -20 0 -24 -5 -4 -6 -17 -5 -34 2 -15
6 -24 14 -21 18 4 4 5 7 1 7 -3 0 -9 -4 -12 -10z m85 -80 c0 -5 -4 -10 -10
-10 -5 0 -10 5 -10 10 0 6 5 10 10 10 6 0 10 -4 10 -10z"/>
<path d="M2861 1129 c11 -11 23 -18 27 -15 3 4 -3 13 -14 21 -28 22 -37 18
-13 -6z"/>
<path d="M3162 1138 c-7 -7 -12 -15 -12 -20 0 -12 28 2 34 18 7 17 -6 18 -22
2z"/>
<path d="M1560 1124 c0 -8 5 -12 10 -9 6 3 10 10 10 16 0 5 -4 9 -10 9 -5 0
-10 -7 -10 -16z"/>
<path d="M3500 1110 c0 -5 5 -10 10 -10 6 0 10 5 10 10 0 6 -4 10 -10 10 -5 0
-10 -4 -10 -10z"/>
<path d="M1609 1091 c17 -13 20 -20 10 -23 -9 -3 -9 -7 -2 -11 6 -4 13 0 17 8
6 16 -18 45 -37 45 -7 0 -1 -9 12 -19z"/>
<path d="M1720 1090 c0 -5 5 -10 10 -10 6 0 10 5 10 10 0 6 -4 10 -10 10 -5 0
-10 -4 -10 -10z"/>
<path d="M3198 1093 c7 -3 16 -2 19 1 4 3 -2 6 -13 5 -11 0 -14 -3 -6 -6z"/>
<path d="M835 1080 c-3 -5 -1 -10 4 -10 6 0 11 5 11 10 0 6 -2 10 -4 10 -3 0
-8 -4 -11 -10z"/>
<path d="M2695 1070 c-3 -5 -1 -10 4 -10 6 0 11 5 11 10 0 6 -2 10 -4 10 -3 0
-8 -4 -11 -10z"/>
<path d="M3200 1069 c0 -5 5 -7 10 -4 6 3 10 8 10 11 0 2 -4 4 -10 4 -5 0 -10
-5 -10 -11z"/>
<path d="M1700 1066 c0 -2 6 -9 14 -15 10 -9 16 -8 26 4 11 13 8 15 -14 15
-14 0 -26 -2 -26 -4z"/>
<path d="M1770 1066 c0 -2 7 -6 15 -10 8 -3 15 -1 15 4 0 6 -7 10 -15 10 -8 0
-15 -2 -15 -4z"/>
<path d="M3175 1050 c-3 -5 -1 -10 4 -10 6 0 11 5 11 10 0 6 -2 10 -4 10 -3 0
-8 -4 -11 -10z"/>
<path d="M679 1038 c-5 -9 -5 -48 -1 -43 6 6 11 45 5 45 -2 0 -4 -1 -4 -2z"/>
<path d="M2615 1030 c-3 -5 1 -10 10 -10 9 0 13 5 10 10 -3 6 -8 10 -10 10 -2
0 -7 -4 -10 -10z"/>
<path d="M1736 1015 c10 -8 24 -14 29 -14 6 0 1 6 -9 14 -11 8 -24 15 -30 15
-5 0 -1 -7 10 -15z"/>
<path d="M1770 1026 c0 -2 7 -7 16 -10 8 -3 12 -2 9 4 -6 10 -25 14 -25 6z"/>
<path d="M635 909 c-38 -3 -61 -6 -50 -8 41 -4 357 -2 362 3 8 8 -233 12 -312
5z"/>
<path d="M960 906 c0 -8 71 -12 76 -4 3 4 -13 8 -35 8 -23 0 -41 -2 -41 -4z"/>
<path d="M1050 900 c0 -5 12 -10 26 -10 14 0 23 4 19 10 -3 6 -15 10 -26 10
-10 0 -19 -4 -19 -10z"/>
<path d="M1230 900 l-35 -7 43 -2 c23 0 42 4 42 9 0 6 -3 9 -7 9 -5 -1 -24 -5
-43 -9z"/>
<path d="M1295 900 c-3 -5 -1 -10 4 -10 6 0 11 5 11 10 0 6 -2 10 -4 10 -3 0
-8 -4 -11 -10z"/>
<path d="M1330 898 c0 -4 14 -8 30 -8 17 0 30 2 30 4 0 2 -13 6 -30 8 -16 3
-30 1 -30 -4z"/>
<path d="M1143 893 c9 -2 25 -2 35 0 9 3 1 5 -18 5 -19 0 -27 -2 -17 -5z"/>
<path d="M1408 893 c6 -2 18 -2 25 0 6 3 1 5 -13 5 -14 0 -19 -2 -12 -5z"/>
<path d="M1483 893 c9 -2 23 -2 30 0 6 3 -1 5 -18 5 -16 0 -22 -2 -12 -5z"/>
<path d="M1598 893 c7 -3 16 -2 19 1 4 3 -2 6 -13 5 -11 0 -14 -3 -6 -6z"/>
<path d="M1760 896 c0 -2 9 -6 20 -9 11 -3 20 -1 20 4 0 5 -9 9 -20 9 -11 0
-20 -2 -20 -4z"/>
<path d="M2050 890 c0 -6 7 -10 15 -10 8 0 15 2 15 4 0 2 -7 6 -15 10 -8 3
-15 1 -15 -4z"/>
<path d="M802 870 c0 -14 2 -19 5 -12 2 6 2 18 0 25 -3 6 -5 1 -5 -13z"/>
<path d="M685 870 c-3 -5 -1 -10 4 -10 6 0 11 5 11 10 0 6 -2 10 -4 10 -3 0
-8 -4 -11 -10z"/>
<path d="M3728 873 c7 -3 16 -2 19 1 4 3 -2 6 -13 5 -11 0 -14 -3 -6 -6z"/>
<path d="M3768 873 c7 -3 16 -2 19 1 4 3 -2 6 -13 5 -11 0 -14 -3 -6 -6z"/>
<path d="M3838 873 c6 -2 18 -2 25 0 6 3 1 5 -13 5 -14 0 -19 -2 -12 -5z"/>
<path d="M4183 873 c9 -2 23 -2 30 0 6 3 -1 5 -18 5 -16 0 -22 -2 -12 -5z"/>
<path d="M4340 870 c0 -5 5 -10 10 -10 6 0 10 5 10 10 0 6 -4 10 -10 10 -5 0
-10 -4 -10 -10z"/>
<path d="M648 845 c-3 -14 -1 -25 3 -25 5 0 9 11 9 25 0 14 -2 25 -4 25 -2 0
-6 -11 -8 -25z"/>
<path d="M1762 838 c-8 -10 -5 -13 12 -13 13 0 23 6 23 13 0 6 -6 12 -12 12
-7 0 -17 -6 -23 -12z"/>
<path d="M1832 827 c-8 -10 -6 -13 7 -13 11 0 17 6 14 13 -3 7 -6 13 -8 13 -1
0 -7 -6 -13 -13z"/>
<path d="M606 815 c-3 -8 -1 -15 4 -15 6 0 10 7 10 15 0 8 -2 15 -4 15 -2 0
-6 -7 -10 -15z"/>
<path d="M577 813 c-9 -9 -9 -53 1 -53 4 0 7 14 7 30 0 17 0 30 -1 30 0 0 -4
-3 -7 -7z"/>
<path d="M821 804 c0 -11 3 -14 6 -6 3 7 2 16 -1 19 -3 4 -6 -2 -5 -13z"/>
<path d="M1771 779 c-14 -40 -9 -47 12 -16 8 13 12 29 7 36 -5 9 -11 2 -19
-20z"/>
<path d="M1965 790 c-3 -5 -1 -10 4 -10 6 0 11 5 11 10 0 6 -2 10 -4 10 -3 0
-8 -4 -11 -10z"/>
<path d="M910 722 c0 -12 19 -26 26 -19 2 2 -2 10 -11 17 -9 8 -15 8 -15 2z"/>
<path d="M1150 671 c0 -10 19 -25 25 -20 1 2 -3 10 -11 17 -8 7 -14 8 -14 3z"/>
<path d="M1487 668 c11 -14 10 -249 -1 -267 -4 -6 -1 -11 8 -11 24 0 36 34 37
100 1 62 13 76 39 45 26 -32 -2 -137 -32 -119 -6 4 -9 1 -7 -5 3 -7 8 -12 12
-12 4 1 14 1 22 1 8 0 15 6 15 14 0 23 20 69 26 63 4 -3 1 -20 -5 -38 l-11
-32 21 19 c29 26 22 99 -12 125 -22 16 -23 19 -8 31 55 43 19 98 -62 98 -40 0
-49 -3 -42 -12z m83 -48 c0 -16 -7 -30 -15 -34 -15 -5 -17 -1 -17 29 0 37 3
44 17 39 8 -4 15 -18 15 -34z m17 18 c-3 -8 -6 -5 -6 6 -1 11 2 17 5 13 3 -3
4 -12 1 -19z"/>
<path d="M1701 601 c-13 -44 -20 -85 -16 -92 5 -7 4 -10 -2 -6 -7 4 -11 -3
-12 -18 -1 -14 -1 -36 -2 -50 -1 -14 -5 -25 -11 -25 -5 0 -6 -5 -3 -10 12 -19
27 2 20 27 -3 14 -2 22 4 19 5 -3 12 5 15 19 4 14 13 25 21 25 8 0 15 5 15 10
0 6 -4 10 -9 10 -15 0 -19 24 -8 50 l10 25 9 -33 c8 -29 11 -32 25 -20 15 12
15 11 4 -9 -12 -23 -8 -61 11 -100 12 -23 38 -32 38 -12 0 5 -4 8 -9 4 -6 -3
-9 5 -9 17 1 13 1 37 0 53 -3 29 -3 29 -17 11 -17 -22 -20 -14 -6 13 11 20
-18 162 -34 168 -6 1 -21 -33 -34 -76z m86 -163 c-3 -8 -6 -5 -6 6 -1 11 2 17
5 13 3 -3 4 -12 1 -19z"/>
<path d="M1877 667 c-38 -28 -60 -146 -37 -199 9 -20 10 -19 7 14 -2 21 2 36
7 35 6 -1 16 25 22 58 5 33 14 68 18 78 11 24 4 30 -17 14z"/>
<path d="M1910 673 c0 -7 32 -32 43 -33 4 0 7 8 7 18 0 12 -8 18 -25 20 -14 1
-25 -1 -25 -5z"/>
<path d="M2042 668 c-7 -7 -12 -21 -12 -32 0 -19 2 -18 24 7 17 19 26 24 29
15 4 -8 6 -7 6 5 1 20 -29 23 -47 5z"/>
<path d="M2313 665 c-3 -9 -3 -18 -1 -21 3 -3 8 4 11 16 6 23 -1 27 -10 5z"/>
<path d="M2790 670 c0 -5 5 -10 11 -10 5 0 7 5 4 10 -3 6 -8 10 -11 10 -2 0
-4 -4 -4 -10z"/>
<path d="M2824 650 c-4 -16 -10 -30 -15 -30 -5 0 -8 -15 -8 -32 1 -22 3 -26 6
-13 3 11 9 25 13 30 9 12 21 75 15 75 -3 0 -8 -13 -11 -30z"/>
<path d="M2898 633 c3 -27 8 -49 12 -51 5 -2 6 -13 3 -25 -3 -17 -2 -19 5 -7
6 9 7 35 3 63 -5 32 -4 47 3 47 11 0 -14 20 -25 20 -4 0 -4 -21 -1 -47z"/>
<path d="M3154 664 c3 -9 6 -28 7 -42 l1 -27 10 28 c11 30 5 57 -13 57 -6 0
-8 -7 -5 -16z"/>
<path d="M3285 672 c-10 -11 -4 -23 8 -16 6 4 3 -2 -7 -14 -11 -12 -17 -24
-14 -27 7 -7 48 34 48 49 0 12 -25 18 -35 8z"/>
<path d="M2185 660 c3 -5 6 -51 7 -102 1 -51 3 -83 5 -70 3 12 9 20 14 17 5
-4 9 1 9 10 0 9 -5 13 -11 9 -8 -5 -8 -1 0 14 14 26 14 35 1 27 -7 -4 -9 4 -5
22 6 34 -3 83 -16 83 -6 0 -7 -4 -4 -10z"/>
<path d="M2210 660 c0 -5 5 -10 10 -10 6 0 10 5 10 10 0 6 -4 10 -10 10 -5 0
-10 -4 -10 -10z"/>
<path d="M3030 661 c0 -5 7 -11 15 -15 9 -3 15 0 15 9 0 8 -7 15 -15 15 -8 0
-15 -4 -15 -9z"/>
<path d="M841 641 c-6 -10 -7 -21 -4 -25 12 -12 19 -6 21 19 2 30 -4 32 -17 6z"/>
<path d="M3192 632 c-15 -31 -15 -45 -2 -37 9 6 14 -8 11 -28 -1 -5 3 -6 9 -2
8 5 6 83 -3 91 -1 2 -8 -9 -15 -24z"/>
<path d="M3323 626 c-9 -28 -8 -34 3 -29 8 3 14 18 14 34 0 38 -4 37 -17 -5z"/>
<path d="M2102 594 c5 -65 -8 -162 -24 -181 -6 -8 -8 -16 -5 -20 4 -3 12 6 18
20 7 15 15 24 20 22 4 -3 11 0 15 6 4 7 3 9 -4 5 -12 -7 -14 22 -5 64 l6 25 7
-25 c6 -22 7 -19 11 17 3 32 2 39 -8 32 -9 -8 -12 -5 -11 8 0 10 -3 27 -7 37
-6 14 -5 17 4 11 10 -6 11 -3 2 14 -19 34 -23 25 -19 -35z"/>
<path d="M2515 640 c-3 -6 1 -7 9 -4 18 7 21 14 7 14 -6 0 -13 -4 -16 -10z"/>
<path d="M467 625 c-4 -8 -3 -16 1 -19 4 -3 9 4 9 15 2 23 -3 25 -10 4z"/>
<path d="M1170 631 c0 -5 16 -9 35 -9 19 0 35 4 35 9 0 5 -16 9 -35 9 -19 0
-35 -4 -35 -9z"/>
<path d="M2301 614 c0 -11 3 -14 6 -6 3 7 2 16 -1 19 -3 4 -6 -2 -5 -13z"/>
<path d="M2241 581 c-1 -28 3 -41 8 -35 6 5 6 24 1 44 l-8 35 -1 -44z"/>
<path d="M3046 595 c-8 -33 4 -57 15 -29 11 27 11 54 0 54 -5 0 -12 -11 -15
-25z"/>
<path d="M2026 593 c-6 -14 -9 -15 -15 -4 -6 9 -11 1 -14 -25 -13 -87 2 -92
27 -9 15 47 16 74 2 38z"/>
<path d="M930 595 c0 -5 5 -17 10 -25 5 -8 10 -10 10 -5 0 6 -5 17 -10 25 -5
8 -10 11 -10 5z"/>
<path d="M2569 583 c-13 -16 -12 -17 4 -4 16 13 21 21 13 21 -2 0 -10 -8 -17
-17z"/>
<path d="M2821 584 c0 -11 3 -14 6 -6 3 7 2 16 -1 19 -3 4 -6 -2 -5 -13z"/>
<path d="M715 580 c-3 -5 -1 -10 4 -10 6 0 11 5 11 10 0 6 -2 10 -4 10 -3 0
-8 -4 -11 -10z"/>
<path d="M475 572 c-18 -13 -15 -30 5 -25 11 3 16 11 13 19 -6 16 -5 16 -18 6z"/>
<path d="M3166 563 c-3 -10 -5 -48 -4 -84 0 -36 -2 -71 -6 -78 -4 -6 -3 -11 3
-11 5 0 12 8 14 18 6 18 6 172 1 172 -1 0 -5 -8 -8 -17z"/>
<path d="M3303 564 c-4 -10 -2 -19 5 -22 7 -2 9 -9 5 -15 -13 -21 -13 -39 1
-28 15 13 20 68 6 76 -6 3 -13 -2 -17 -11z"/>
<path d="M2850 560 c0 -5 7 -10 15 -10 8 0 15 5 15 10 0 6 -7 10 -15 10 -8 0
-15 -4 -15 -10z"/>
<path d="M3230 558 c0 -9 -5 -18 -11 -20 -15 -5 7 -58 25 -58 17 0 27 46 16
74 -6 14 -9 16 -10 6 0 -13 -1 -13 -10 0 -8 13 -10 13 -10 -2z m12 -60 c-7 -7
-12 -8 -12 -2 0 14 12 26 19 19 2 -3 -1 -11 -7 -17z"/>
<path d="M2807 543 c-4 -3 -7 -18 -6 -32 0 -14 3 -20 6 -13 2 6 8 10 11 8 4
-2 8 7 8 20 2 24 -6 31 -19 17z"/>
<path d="M3063 543 c-7 -3 -13 -13 -13 -23 0 -10 -6 -21 -12 -23 -9 -4 -8 -6
2 -6 8 -1 21 11 27 26 14 29 14 32 -4 26z"/>
<path d="M2257 533 c-4 -3 -7 -13 -7 -22 1 -13 3 -13 11 2 11 19 8 33 -4 20z"/>
<path d="M2892 520 c0 -14 2 -19 5 -12 2 6 2 18 0 25 -3 6 -5 1 -5 -13z"/>
<path d="M906 521 c-4 -7 -5 -15 -2 -18 9 -9 19 4 14 18 -4 11 -6 11 -12 0z"/>
<path d="M2631 514 c0 -11 3 -14 6 -6 3 7 2 16 -1 19 -3 4 -6 -2 -5 -13z"/>
<path d="M935 499 c-10 -30 0 -33 13 -4 6 14 7 25 2 25 -5 0 -12 -9 -15 -21z"/>
<path d="M2017 497 c-17 -27 -15 -71 4 -83 12 -7 21 36 17 77 l-3 33 -18 -27z"/>
<path d="M3082 515 c4 -4 3 -17 -3 -28 -9 -15 -8 -18 2 -12 9 6 11 3 6 -9 -5
-12 -3 -15 6 -10 9 6 9 4 1 -7 -6 -8 -14 -25 -17 -39 l-6 -25 19 25 c21 27 26
55 10 65 -5 3 -7 12 -4 19 3 8 -1 17 -8 22 -7 4 -10 4 -6 -1z"/>
<path d="M685 494 c18 -13 35 -11 35 5 0 5 -12 9 -27 9 -25 0 -25 -1 -8 -14z"/>
<path d="M735 500 c3 -5 8 -10 11 -10 2 0 4 5 4 10 0 6 -5 10 -11 10 -5 0 -7
-4 -4 -10z"/>
<path d="M2914 486 c-3 -14 -3 -29 0 -35 4 -5 2 -12 -3 -15 -5 -4 -12 2 -14
11 -3 10 -5 4 -6 -14 -1 -28 13 -52 24 -41 5 5 15 118 10 118 -3 0 -7 -11 -11
-24z"/>
<path d="M2998 503 c-20 -5 -35 -60 -20 -75 8 -8 9 -5 6 10 -4 13 2 28 16 42
24 24 23 28 -2 23z"/>
<path d="M2541 484 c0 -11 3 -14 6 -6 3 7 2 16 -1 19 -3 4 -6 -2 -5 -13z"/>
<path d="M3323 473 c-15 -32 -17 -55 -3 -33 8 12 10 9 10 -12 0 -14 -6 -29
-12 -31 -8 -3 -6 -6 4 -6 15 -1 17 8 16 54 -1 30 -2 55 -2 55 -1 0 -7 -12 -13
-27z"/>
<path d="M2293 458 c-18 -47 -16 -59 2 -24 9 17 14 36 13 44 -2 8 -9 -1 -15
-20z"/>
<path d="M2616 473 c-6 -14 -5 -15 5 -6 7 7 10 15 7 18 -3 3 -9 -2 -12 -12z"/>
<path d="M835 470 c-3 -5 1 -10 10 -10 9 0 13 5 10 10 -3 6 -8 10 -10 10 -2 0
-7 -4 -10 -10z"/>
<path d="M1862 454 c-9 -19 -9 -24 0 -18 8 5 9 2 5 -9 -3 -10 -2 -17 3 -17 6
0 10 16 10 35 0 42 -3 43 -18 9z"/>
<path d="M770 458 c0 -5 5 -6 11 -2 8 4 9 -4 5 -27 l-6 -34 12 30 c6 17 15 33
21 36 5 4 -3 7 -17 7 -14 0 -26 -5 -26 -10z"/>
<path d="M1035 460 c-3 -5 -1 -10 4 -10 6 0 11 5 11 10 0 6 -2 10 -4 10 -3 0
-8 -4 -11 -10z"/>
<path d="M909 443 c-13 -16 -12 -17 4 -4 16 13 21 21 13 21 -2 0 -10 -8 -17
-17z"/>
<path d="M2595 439 c-4 -6 -5 -12 -2 -15 2 -3 7 2 10 11 7 17 1 20 -8 4z"/>
<path d="M751 424 c0 -11 3 -14 6 -6 3 7 2 16 -1 19 -3 4 -6 -2 -5 -13z"/>
<path d="M2822 410 c0 -14 2 -19 5 -12 2 6 2 18 0 25 -3 6 -5 1 -5 -13z"/>
<path d="M965 410 c-3 -5 -1 -10 4 -10 6 0 11 5 11 10 0 6 -2 10 -4 10 -3 0
-8 -4 -11 -10z"/>
<path d="M1891 404 c0 -11 3 -14 6 -6 3 7 2 16 -1 19 -3 4 -6 -2 -5 -13z"/>
<path d="M1915 400 c-3 -6 1 -7 9 -4 18 7 21 14 7 14 -6 0 -13 -4 -16 -10z"/>
<path d="M676 385 c-3 -9 -6 -22 -5 -28 0 -7 5 -1 10 12 5 13 8 26 5 28 -2 2
-6 -3 -10 -12z"/>
<path d="M360 364 c0 -8 5 -12 10 -9 6 4 8 11 5 16 -9 14 -15 11 -15 -7z"/>
<path d="M636 363 c-6 -14 -5 -15 5 -6 7 7 10 15 7 18 -3 3 -9 -2 -12 -12z"/>
<path d="M750 370 c0 -5 5 -10 10 -10 6 0 10 5 10 10 0 6 -4 10 -10 10 -5 0
-10 -4 -10 -10z"/>
<path d="M820 354 c0 -8 5 -12 10 -9 6 3 10 10 10 16 0 5 -4 9 -10 9 -5 0 -10
-7 -10 -16z"/>
<path d="M1168 363 c7 -3 16 -2 19 1 4 3 -2 6 -13 5 -11 0 -14 -3 -6 -6z"/>
<path d="M960 348 c0 -9 5 -20 10 -23 13 -8 13 5 0 25 -8 13 -10 13 -10 -2z"/>
<path d="M1196 295 c-3 -9 -6 -22 -5 -28 0 -7 5 -1 10 12 5 13 8 26 5 28 -2 2
-6 -3 -10 -12z"/>
</g>
</svg>
