<?xml version="1.0" ?><!DOCTYPE svg  PUBLIC '-//W3C//DTD SVG 1.1//EN'  'http://www.w3.org/Graphics/SVG/1.1/DTD/svg11.dtd'>
<svg id="Layer_1" style="enable-background:new 0 0 512 512;" version="1.1" viewBox="0 0 512 512" xml:space="preserve" xmlns="http://www.w3.org/2000/svg" xmlns:xlink="http://www.w3.org/1999/xlink">
<!-- <polyline fill="current" class="st0" points="80,112 80,176 432,176 432,112 "/> -->
<path fill="current" d="M352,96V64h-16v32H176V64h-16v32H64v352h384V96H352z M432,432H80V192h352V432z M432,176H80v-64h80v32h16v-32h160v32h16v-32  h80V176z"/>

<!-- vertical -->
<line x1="154" y1="190" x2="154" y2="432" stroke="current" stroke-width="12" />
<line x1="256" y1="190" x2="256" y2="432" stroke="current" stroke-width="12" />
<line x1="358" y1="190" x2="358" y2="432" stroke="current" stroke-width="12" />

<!-- horizontal -->
<line x1="80" y1="244" x2="432" y2="244" stroke="current" stroke-width="12" />
<line x1="80" y1="308" x2="432" y2="308" stroke="current" stroke-width="12" />
<line x1="80" y1="370" x2="432" y2="370" stroke="current" stroke-width="12" />
</svg>