<?xml version="1.0" encoding="utf-8"?>
<!-- Svg Vector Icons : http://www.onlinewebfonts.com/icon -->
<!DOCTYPE svg PUBLIC "-//W3C//DTD SVG 1.1//EN" "http://www.w3.org/Graphics/SVG/1.1/DTD/svg11.dtd">
<svg version="1.1" xmlns="http://www.w3.org/2000/svg" xmlns:xlink="http://www.w3.org/1999/xlink" x="0px" y="0px" viewBox="0 0 1000 1000" enable-background="new 0 0 1000 1000" xml:space="preserve">
<metadata> Svg Vector Icons : http://www.onlinewebfonts.com/icon </metadata>
<g><g><g><path fill="current" d="M950.9,309.3C899.2,188.8,811.4,101.2,690,49.4c-60.7-25.9-124.3-39.1-190.8-39.1c-66.4,0-129.6,13.1-190.2,39.1C188.5,101.1,100.3,188.6,48.6,309.3C22.6,369.7,10,433,10,499.5c0,66.4,12.6,130.3,38.6,190.8c51.8,120.7,140,208.7,260.4,260.4c60.7,26,123.8,39.1,190.2,39.1s130-13.2,190.7-39.1c121.5-51.8,209.3-140,260.9-260.4c26-60.7,39.1-124.3,39.1-190.8C990,433,976.9,369.9,950.9,309.3z M872.7,715.9c-38.5,66-91.2,118.3-157.5,157c-66,38.5-138.2,57.9-215.9,57.9c-58.4,0-114.1-11.3-167.2-34.3c-53-23-98.9-53.3-137.2-91.6c-38.3-38.3-68.8-84.6-91.6-137.7c-22.7-52.9-33.8-109.3-33.8-167.7c0-77.7,19.1-149.6,57.3-215.4c38.4-66,91.1-118.4,157-157c65.9-38.6,137.7-57.9,215.4-57.9c77.7,0,150,19.4,215.9,57.9c66.4,38.7,119,91.1,157.5,157c38.6,65.9,57.9,137.7,57.9,215.4C930.5,577.2,911.4,649.6,872.7,715.9z"/><path fill="current" d="M530.3,495.2V217.6c0-16.6-14.5-30-31.1-30c-15.5,0-29.5,13.4-29.5,30v281.8c0,0.5,1.1,2.7,1.1,4.3c-1.1,9.6,1.6,17.7,8,24.1l160.2,160.2c10.7,10.7,30.5,10.7,41.3,0c12.3-12.3,11.5-30.2,0-41.8L530.3,495.2z"/></g></g><g></g><g></g><g></g><g></g><g></g><g></g><g></g><g></g><g></g><g></g><g></g><g></g><g></g><g></g><g></g></g>
</svg>