<svg xmlns="http://www.w3.org/2000/svg" xmlns:xlink="http://www.w3.org/1999/xlink" viewBox="0 0 774.9 346.24" xmlns:v="https://vecta.io/nano">
	<style>
		<![CDATA[.K{letter-spacing:0em}.H{letter-spacing:-.02em}.J{letter-spacing:.01em}.F{letter-spacing:-.02em}.E{letter-spacing:-.03em}.I{letter-spacing:.02em}.O{fill:#a13d33}.P{font-family:FranklinGothic-Heavy,Franklin Gothic Heavy}.Q{font-size:36.63px}]]>
	</style>
	<ellipse cx="472.05" cy="208.27" rx="302.2" ry="137.32" fill="#fff" />

	<path d="M472.05 346.24c-80.81 0-156.8-14.3-213.96-40.28-57.32-26.05-88.89-60.74-88.89-97.69s31.57-71.65 88.89-97.69C315.25 84.61 391.23 70.3 472.05 70.3s156.8 14.3 213.96 40.28c57.32 26.05 88.89 60.74 88.89 97.69s-31.57 71.65-88.89 97.69c-57.16 25.97-133.15 40.28-213.96 40.28zm0-274.63c-166.27 0-301.54 61.31-301.54 136.66s135.27 136.66 301.54 136.66 301.54-61.31 301.54-136.66S638.32 71.6 472.05 71.6z" fill="#131211" />

	<path d="M452.66 61.01l-14.34-40.15c-1.72-4.67-3.96-10.08-6.47-15.08-2.34-4.65-7.66-6.9-12.48-5.21l-.28.1c-9.28 6.11-18.72 12-27.72 18.52-20.36 14.74-41.63 27.98-63.5 40.27-18.32 10.29-37.12 19.71-56.21 28.5-12.35 5.68-24.67 11.42-37.62 15.69-5.17 1.71-10.24 3.75-15.33 5.68-1.23.47-2.41 1.1-3.69 1.31a4.87 4.87 0 0 1-.55.06h-.4l7.94 40.58c3.54-1.49 6.99-.07 8.4 3.81.66 1.82 1.09 3.76 1.4 5.68 1.37 8.65 2.27 7.99 4.98 16.35.73 2.25 1.26 4.57 2.08 6.78.04.1.06.19.09.29.27.53.52 1.07.75 1.62.45 1.09.75 2.2.95 3.33.05.11.11.22.15.33.28.69.5 1.39.68 2.09l228.53-81.35c-.06-.3-.13-.6-.17-.9-.45-.84-.83-1.73-1.13-2.68-.25-.62-.44-1.25-.6-1.88-.4-.62-.75-1.62-1.25-3.14-5.43-16.54-8.59-24.1-14.21-40.57zm-240.13 49.13c-.67-.24-1.58.16-2.36.36l-14.11 3.65-61.46 15.28a1452.39 1452.39 0 0 0-79.4 21.94l-40.06 12.24c-7.43 2.28-11.97 7.59-13.87 15-2.41 9.42-1.47 18.66 3.54 27.29 8.98 15.46 28.12 18.71 41.04 6.72 2.34-2.17 4.17-4.85 5.5-7.78.63-1.39 1.56-2.18 3-2.59l10.19-3.01 71.52-21.46 81.51-24.41c1.15-.34 2.21-.89 3.24-1.51a9.48 9.48 0 0 1 1.19-.6l-8.02-40.84c-.46-.02-.94-.1-1.45-.28zM32.3 194.43c-2.42 1.83-5.12 2.41-7.97.99-2.21-1.1-3.33-3.01-3.19-5.54.19-3.37 2.13-5.39 4.68-6.49 3.64-1.34 7.15-.2 8.6 2.55 1.5 2.83.65 6.38-2.13 8.49zm81.52-33.05c-.11 2.92-2.11 5.55-5.05 6.64-3.15 1.17-6.56.17-8.1-2.39-1.65-2.73-.94-6.3 1.71-8.59 2.29-1.98 5.77-2.52 8.23-1.2 2.17 1.17 3.32 3 3.22 5.54zm78.49-18.55c-.92 1.48-2.44 2.56-3.69 3.82-2.39.46-4.44.43-6.43-.72-2.16-1.25-3.23-3.53-2.86-6 .57-3.86 4.4-6.81 8.3-6.4 4.72.5 7.2 5.25 4.69 9.3z" />

	<g class="O">
		<path d="M331.92 70.54c.81 1.01.43 1.82-.47 2.32-.14.08-.29.13-.44.19-1.83.66-5.06.15-7.94.56l6.11 17.02c.46.8 1.23 1.7 1.73 1.53l.2-.07c.23-.08.31.17.09.25l-.25.09c-2.25.81-2.58 3.36-5.12 4.32l-.13.04c-1.63.58-2.85-.08-3.26-1.43-.39-1.24.2-2.36 1.2-2.72.28-.1.57-.15.89-.12-.78.51-.87 1.5-.4 2.35a1.54 1.54 0 0 0 1.97.76c.7-.25 1.89-1.36.86-4.21l-6.24-17.37-1.5.46c-1.33.48-2.38 1.08-3.27 1.99-1.54 1.68-1.3 3.46-.11 4.11.32.17.64.2.89.11a1.26 1.26 0 0 0 .79-1.27c0-.34-.15-.57-.27-.75-.16-.28-.1-.59.17-.79.04-.04.09-.06.14-.08a.53.53 0 0 1 .65.25c.19.38.34.87.17 1.58s-.75 1.29-1.43 1.53c-1.03.37-1.73-.09-2.34-.85.15-.05.2-.24.14-.39s-.21-.26-.36-.21c-.2.07-.25.26-.19.41.04.1.12.18.19.21.03 2.45 2.14 3.59 3.96 2.93.35-.13.7-.34 1-.59-.52.92-1.14 1.46-1.8 1.69-1.73.62-3.52-1-3.51-2.61-3.44-.91-2.36-5.48 1.92-7.41l1.26-.51c4.98-1.79 9.58-1.1 12.22-1.79.13-.04.26-.06.36-.1 1.55-.56 1.92-1.74 1.59-2.18-.23-.4-.61-.74-1.18-.54-.1.04-.19.1-.31.17-.45.33-.44.67-.35.92-.88-.42-.64-1.63.1-2.07a.96.96 0 0 1 .27-.12c.5-.18 1.21-.18 1.8.51.42.53.55 1.38.18 1.91zm-4.51 6.71l4.71-1.69c.23-.08.32.17.09.25l-.25.09c-.45.16-.47 1.36-.34 2.21l1.46 4.06 3.8-1.37-1.46-4.06c-.44-.75-1.22-1.65-1.67-1.49l-.25.09c-.23.08-.32-.17-.09-.25l4.71-1.69c.23-.08.32.17.09.25l-.25.09c-.45.16-.47 1.36-.34 2.21l3.7 10.31c.46.8 1.23 1.71 1.68 1.54l.25-.09c.23-.08.31.17.09.25l-4.71 1.69c-.23.08-.31-.17-.09-.25l.25-.09c.45-.16.47-1.36.32-2.26l-2.07-5.76-3.8 1.37 2.07 5.76c.46.8 1.23 1.7 1.68 1.54l.25-.09c.23-.08.32.17.09.25l-4.71 1.69c-.23.08-.32-.17-.09-.25l.25-.09c.45-.16.47-1.36.32-2.26l-3.7-10.31c-.44-.75-1.22-1.65-1.67-1.49l-.25.09c-.23.08-.32-.17-.09-.25zm12.11-4.36l7.66-2.75.63 1.75c.04.1 0 .17-.07.2-.05.02-.14 0-.18-.11l-.09-.25c-.16-.45-1.36-.47-2.26-.32l-2.05.74 2.03 5.66.6-.22c.8-.46 1.7-1.23 1.52-1.73l-.07-.2c-.04-.1.02-.18.07-.2.07-.03.14 0 .18.11l1.08 3c.04.1 0 .17-.07.2-.05.02-.14 0-.18-.11l-.09-.25c-.16-.45-1.36-.47-2.26-.32l-.6.22 2.64 7.36 2.05-.74c.82-.41 1.72-1.18 1.54-1.68l-.09-.25c-.04-.1.03-.15.08-.17.07-.03.13-.02.17.08l.65 1.8-7.66 2.75c-.23.08-.32-.17-.09-.25l.2-.07c.5-.18.52-1.38.37-2.28l-3.7-10.31c-.44-.75-1.22-1.65-1.72-1.47l-.2.07c-.23.08-.32-.17-.09-.25zm-106.25 53.2c4.72-1.69 8.18-.45 10.46.95 1.5.97 2.4 1.98 3.26 1.67-.22 4.07-2.27 7.03-3.87 8.76 2.11-.05 9.38-.08 13.58 4.44 1.81 7.52.89 16.45-7.48 19.46-5.43 1.95-12.06.29-14.16-5.57-1.81-5.03 1-9.32 4.58-10.97l-4.18-11.64c-.64-1.28-1.94-2.68-2.65-2.42l-.39.14c-.31.11-.46-.28-.14-.39l7.47-2.68c.31-.11.46.28.14.39l-.39.14c-.79.28-.82 2.16-.5 3.55l2.03 5.66c1.83-2.08 2.82-5.01 3.01-6.94-.8-1.49-4.22-5.58-9.1-3.83-3.85 1.38-5.88 5.13-4.67 8.51 1.19 3.3 4.2 3.55 4.2 3.55-.37.44-.72.7-1.08.83-1.41.51-2.64-1.05-2.79-2.19-1.73.62-3.04-.19-3.77-1.84-1.43-3.48 1.77-7.92 6.41-9.58zm5.85 30.12c1.51 4.21 6 5.21 9.89 3.81 5.03-1.81 8.32-8.36 4.48-14.48-.82-1.3-1.85-2.18-2.46-2.4-.35-.1-.66-.12-.9-.03-.79.28-1.06 1.36-.38 1.91.3.34.67.38.96.45-.05.11-.26.27-.57.38-.67.24-1.78.24-2.48-.97-.76-1.37.11-2.66 1.37-3.11.43-.16.95-.21 1.46-.13-.04.5.35.72.62.62.08-.03.14-.1.21-.16.27-.36-.02-.92-.65-.7-1.49-1.42-4.98-3-9.06-2.25l1.78 4.95c.37.04.74.09 1.06.24 4.58 1.37 4.84 5.81 3.16 6.59 1.46 1.6 2.06 3.52 1.31 5.12-.13.27-.29.42-.49.49-.79.28-1.94-.59-1.38-1.5.15-.32.35-.75.42-1.3.05-1.35-.72-2.76-2.03-3.44-1.24-.62-2.59-.67-3.77-.24-.98.35-1.84 1.06-2.35 2-.65 1.39-.67 2.82-.19 4.15zm13.08-27.6l7.39-2.65c.35-.13.46.28.14.39l-.39.14c-.71.25-.74 2.13-.53 3.47l4.86 13.52a3.96 3.96 0 0 0 5.13 2.42 4.02 4.02 0 0 0 2.42-5.13l-4.86-13.52c-.69-1.17-1.91-2.6-2.62-2.34l-.39.14c-.35.13-.49-.27-.14-.39l4.72-1.69c.35-.13.5.27.14.39l-.39.14c-.71.25-.74 2.13-.53 3.47l4.72 13.13c1.26 3.5.04 7.27-3.5 8.54-3.34 1.2-6.96-.61-8.15-3.91l-4.86-13.52c-.69-1.17-1.91-2.6-2.62-2.34l-.39.14c-.35.13-.5-.27-.14-.39zm17.53-6.29l17.22-6.18.99 2.75c.06.16 0 .26-.11.31-.08.03-.22 0-.28-.17l-.14-.39c-.25-.71-2.13-.74-3.55-.5l-3.46 1.24 6.72 18.71c.64 1.28 1.86 2.71 2.65 2.42l.39-.14c.28-.1.42.29.14.39l-7.47 2.68c-.28.1-.42-.29-.14-.39l.39-.14c.79-.28.82-2.16.5-3.55l-6.72-18.71-3.46 1.24c-1.25.72-2.68 1.94-2.42 2.65l.14.39c.06.16 0 .26-.11.31-.08.03-.22 0-.28-.17l-.99-2.75zm23.51-8.45c.94-.34 1.97-.44 2.96-.17.09.01.19.02.22 0 .2-.07.3-.28.24-.44s.05-.24.13-.27a.18.18 0 0 1 .27.13l2.43 6.76c.04.12-.03.28-.15.32s-.22 0-.32-.15c-1.83-2.98-3.91-4.72-5.41-4.18-1.97.71-1.91 5.57.17 10.86s5.36 8.99 7.4 8.26c1.26-.45 1.69-2.47 1.33-5.18-.04-.12.06-.2.18-.24s.26 0 .32.15l1.86 5.19c.04.12-.02.19-.14.23-.08.03-.21.03-.25-.09-.08-.24-.3-.34-.5-.27-.08.03-.1.08-.17.15-.59.83-1.42 1.49-2.36 1.83-3.93 1.41-8.91-2.57-11.2-8.94-2.26-6.29-.95-12.53 2.98-13.94z" />

		<use xlink:href="#B" />

		<use xlink:href="#C" />

		<path d="M331.72 100.05l8.65-3.11c2.67-.96 5.67.71 6.74 3.7.73 2.04.25 3.91-.86 5.28-.39.41-.8.73-1.17.95.98.27 2.03.96 2.98 1.86 1.92 1.88 4.1 5.72 5.57 7.59.68.91 1.45.81 1.68.73l.55-.2c.24-.08.35.23.14.39 0 0-1.11.98-2.37 1.43-2.16.78-3.82-.76-4.95-2.53l-3.24-5.32c-1.14-1.81-2.17-2.59-4.07-2.44l-.39.14 3.25 9.04c.64 1.28 1.94 2.68 2.65 2.42l.39-.14c.31-.11.46.28.14.39l-7.47 2.68c-.31.11-.46-.28-.14-.39l.39-.14c.79-.28.82-2.16.5-3.55l-5.82-16.2c-.61-1.2-1.83-2.63-2.62-2.34l-.39.14c-.31.11-.46-.28-.14-.39zm5.79-1.19l3.19 8.88 1.34-.48c1.65-.59 2.36-3.07 1.54-5.35s-2.61-4.3-4.73-3.54l-1.34.48zm52.04 8.96c1.42-.51 2.4-1.35 2.85-1.95.04 1.72-1.42 3.57-3.59 4.35-1.38.49-3.04.56-4.82-.09-1.36-.58-2.59-1.29-3.75-2.03-1.05 1.04-2.27 1.84-3.65 2.33l-.84.26c-4.34 1.02-10.04-1.01-11.28-6.69-.65-2.92.25-6.22 3.28-7.3 1.93-.69 3.25.39 3.19 1.6 3.85-.41 5.72 3.81 2.74 5.41 1.37-.14 3.48.79 5.54 1.83.43-1.04.5-2.31.34-3.76-.2-1.79-.76-3.36-1.72-4.53-1.28-1.58-2.67-1.88-3.58-1.56-.75.27-1.18.91-1.1 1.64-1-.8-.76-1.86-.3-2.56.14.13.32.15.48.09.67-.24.32-1.09-.31-.86-.16.06-.29.19-.31.38l-5.19-.62c-2.49-.26-6.27-1.39-6.63-5.61-.22-3.07 1.86-5.2 4.42-6.11.86-.31 1.75-.45 2.62-.5-.32-2.37.25-4.13.81-5.17.2-.43.47-.66.79-.77.98-.35 2.11.93 1.09 2.05-1.15 1.26-1.6 2.71-1.49 4 3.82.49 5.42 3.73 3.15 4.82.02 1.55-.97 2.61-2.19 3.05-.35.13-.78.19-1.17.2-1.77.01-3.08-1.91-1.91-3.58.32-.47.67-.73 1.02-.86.39-.14.8-.11 1.15-.01-.5-.89-.81-1.75-1.01-2.57-.45-.02-.91.06-1.34.22a4.85 4.85 0 0 0-1.33.74c-3.71 2.75-1.47 8.52 2.9 9.08 2.12.22 3.15.38 5.35.56 4.02.33 7.71 1.94 8.77 6.61.55 2.29.06 4.86-1.14 6.71 2.78 1.31 5.05 2.31 8.15 1.2zm-14.36 1.78c1.34-.48 2.54-1.45 3.39-2.68-1.94-1.44-3.92-2.76-6.3-2.97 0 0 1.42-1.49.77-3.29-.44-1.22-1.79-1.89-3.16-1.39-2.16.78-3.03 3.44-2.63 5.52.25-1.02.84-1.86 1.83-2.21 1.38-.49 2.35.49 2.12 1.59.48.09 1.46.36 2.14 1.27.77 1.14.67 2.86-.63 3.42l-.2.07c-1.22.44-2.25-.57-2.05-1.39.19.15.87.44 1.46.23.31-.11.59-.34.72-.84.41-1.21-.84-2.58-2.22-2.09-1.26.45-1.64 1.74-1.2 2.96.2.55.8 1.49 2 1.86 1.28.47 2.68.41 3.98-.05zm-5.1-23.6c-.21-.1-.44-.11-.64-.04-.75.27-1.17 1.57-.16 2.28.31.24.67.25 1.02.12.9-.32 1.69-1.72 1.07-3.45-.4-1.1-1.21-1.87-2.19-2.14.19 1.26.58 2.36.89 3.23z" />

		<use xlink:href="#B" x="78.39" y="-28.15" />

		<path d="M398.52 89.29c-2.34-6.53-.98-12.87 2.87-14.26 3.93-1.41 8.94 2.65 11.28 9.17 2.32 6.45 1.06 12.84-2.87 14.26-3.85 1.38-8.97-2.73-11.28-9.17zm3.4-1.4c2.13 5.45 5.52 9.2 7.49 8.49 2.04-.73 1.96-5.67-.18-11.12-2.11-5.37-5.52-9.2-7.49-8.49s-1.93 5.75.18 11.12zm5.64-1.85c-.8 1.97-.19 5.66-.19 5.66s-1.79-3.26-3.67-4.28c.77-2.05.08-5.71.08-5.71s1.87 3.23 3.77 4.33zm1.21-13.66l8.65-3.11c2.59-.93 5.59.74 6.67 3.73.73 2.04.33 3.88-.78 5.25-.82.92-1.9 1.39-2.37 1.56l-2.99 1.07 3.25 9.04c.72 1.25 1.94 2.68 2.65 2.42l.39-.14c.35-.13.5.27.14.39l-7.39 2.65c-.35.13-.5-.27-.14-.39l.39-.14c.71-.25.74-2.13.5-3.55l-5.82-16.2c-.69-1.17-1.91-2.6-2.62-2.34l-.39.14c-.35.13-.5-.27-.14-.39zM419 79.62c1.65-.59 2.44-3.09 1.62-5.37s-2.61-4.3-4.81-3.51l-1.34.48 3.19 8.88 1.34-.48zm3.46-12.16l8.65-3.11c2.59-.93 5.59.74 6.67 3.73.73 2.04.33 3.88-.78 5.25-.82.92-1.9 1.39-2.37 1.56l-2.99 1.07 3.25 9.04c.72 1.25 1.94 2.68 2.65 2.42l.39-.14c.35-.13.5.27.14.39l-7.39 2.65c-.35.13-.5-.27-.14-.39l.39-.14c.71-.25.74-2.13.5-3.55l-5.82-16.2c-.69-1.17-1.91-2.6-2.62-2.34l-.39.14c-.35.13-.5-.27-.14-.39zm10.23 7.24c1.65-.59 2.44-3.09 1.62-5.37s-2.61-4.3-4.81-3.51l-1.34.48 3.19 8.88 1.34-.48z" />

		<use xlink:href="#C" x="118.33" y="-42.5" />

	</g>
	<text font-size="43.66" class="P">
		<tspan x="201.71" y="266.87">MOBILE </tspan>
		<tspan class="E" x="370.52" y="266.87">F</tspan>
		<tspan x="392.95" y="266.87">ARM SL</tspan>
		<tspan class="F" x="548.59" y="266.87">A</tspan>
		<tspan x="575.77" y="266.87">UGHTER</tspan>
	</text>
	<text font-size="25.81" class="O P">
		<tspan x="239.86" y="293.56">ww</tspan>
		<tspan class="H" x="278.2" y="293.56">w</tspan>
		<tspan x="296.78" y="293.56">.theno</tspan>
		<tspan class="I" x="374.36" y="293.56">r</tspan>
		<tspan x="384.72" y="293.56">thpo</tspan>
		<tspan class="I" x="440.03" y="293.56">r</tspan>
		<tspan x="450.39" y="293.56">tbut</tspan>
		<tspan class="J" x="499.85" y="293.56">c</tspan>
		<tspan x="513.67" y="293.56">he</tspan>
		<tspan class="K" x="544.05" y="293.56">r</tspan>
		<tspan x="554" y="293.56">shoppe.com</tspan>
	</text>
	<!-- phone number -->
	<!-- good! -->
	<text transform="matrix(.996134 .087851 -.087851 .996134 516.96 102.3)" class="O P Q">
		<tspan x="0" y="0">5</tspan>
	</text>
	<text transform="matrix(.992332 .123601 -.123601 .992332 538.04 104.15)" class="O P Q">
		<tspan x="0" y="0">0</tspan>
	</text>
	<text transform="matrix(.98694 .161087 -.161087 .98694 559 106.75)" class="O P Q">
		<tspan x="0" y="0">9</tspan>
	</text>
	<text transform="matrix(.98176 .190124 -.190124 .98176 579.9 110.24)" class="O P Q">
		<tspan x="0" y="0">-</tspan>
	</text>
	<text transform="matrix(.975342 .220697 -.220697 .975342 589.54 112.01)" class="O P Q">
		<tspan x="0" y="0">6</tspan>
	</text>
	<text transform="matrix(.964049 .265724 -.265724 .964049 610.07 116.64)" class="O P Q">
		<tspan x="0" y="0">4</tspan>
	</text>
	<text transform="matrix(.948986 .315318 -.315318 .948986 630.32 122.19)" class="O P Q">
		<tspan x="0" y="0">0</tspan>
	</text>
	<text transform="matrix(.934702 .355433 -.355433 .934702 650.29 128.94)" class="O P Q">
		<tspan x="0" y="0">-</tspan>
	</text>
	<text transform="matrix(.916712 .399549 -.399549 .916712 659.36 132.22)" class="O P Q">
		<tspan x="0" y="0">6</tspan>
	</text>
	<text transform="matrix(.883275 .468855 -.468855 .883275 678.45 140.48)" class="O P Q">
		<tspan x="0" y="0">7</tspan>
	</text>
	<text transform="matrix(.835712 .549169 -.549169 .835712 695.66 149.46)" class="O P Q">
		<tspan x="0" y="0">6</tspan>
	</text>
	<text transform="matrix(.752989 .658033 -.658033 .752989 712.71 160.46)" class="O P Q">
		<tspan x="0" y="0">6</tspan>
	</text>
	<path d="M734.47 222.11l-1.19-.46c-2.78-.96-5.78-1.25-8.88-1.25h-.28l-.84-.03c-8.18.06-6.55-7.79-12.34-13.54-3.93-3.89-8.88-6.74-13.25-10.21-6.22-4.93-12.67-9.64-18.37-15.12-4.9-4.7-9.78-7.76-16.64-5.27-3.4 1.23-5.46-.05-7.74-2.64-7.83-8.88-15.85-17.58-24.01-26.16-2.34-2.47-5.18-4.62-8.15-6.27-1.62-.9-4-.46-6.04-.54-.38-.02-.78.34-1.16.55l-43.93 24.48c-4.61 2.65-8.57 6.41-13.03 9.37-2.25 1.49-4.88 2.56-7.47 3.37-2.02.63-4.26.83-6.39.77-7.99-.22-13.81 3.97-19.35 9-4.24 3.85-8.66 7.51-13 11.25.31-1.09.39-2.37 1.05-3.17 3.15-3.81 6.83-7.24 9.69-11.24 5.15-7.22 12.19-10.14 20.65-9.59 4.92.32 8.61-1.15 12.28-4.31 3.39-2.92 7.56-4.93 11.24-7.55 1.08-.77 2.02-2.19 2.28-3.46.1-.52-1.71-1.83-2.81-2.1-9.32-2.29-16.13-8.54-23.49-14.13-9.42-7.16-19.31-13.71-29.17-20.28-2.04-1.36-4.84-2.38-7.22-2.24-5.18.3-9.3-1.69-12.96-4.8-8.11-6.91-17.42-11.86-26.71-16.87-8.97-4.84-17.83-5.67-26.83.31-4.46 2.97-9.45 5.15-14.12 7.81-2.38 1.35-4.57 2.12-7.21.5-4.81-2.95-8.87-1.45-12.83 2.1-7.03 6.31-13.81 13.1-21.62 18.29-6.78 4.51-12.19 10.18-17.85 15.73-3.66 3.58-3.31 5.15 1.79 6.28 7.95 1.77 15.16 4.85 21.32 10.19 1.67 1.45 3.11 3.17 4.65 4.77l-.97 1.08-4.91-3.56c-5.9-4.51-12.23-7.89-19.79-8.87-2.62-.34-5.25-1.83-7.54-3.31-5.15-3.32-10.22-6.64-16.56-7.06-1.23-.08-3.08-.66-4.17-1.24-5.09-2.74-9.48-1.58-14.25 1.8-10.89 7.7-22.21 14.78-33.24 22.29-2.47 1.68-4.55 2.73-7.66 1.69-4.79-1.6-8.89.63-12.57 3.42-14 10.6-27.57 21.65-39.6 34.53l-.64.57c-8.31 6.27-16.84 11.97-26.49 14.71-2.08.59-3.58 2.36-3.79 4.52-.03.33-.07.66-.12 1a5.32 5.32 0 0 0 5.28 6.09l513.87-1.6h0l2.34.06h0l10.7-.03 1.92-1.93c1.98-2.58 1.11-6.42-1.87-7.72z" fill="#544c4c" />

	<path d="M736.94 229.71c-.74-1.33-1.96-1.9-2.14-2.8s-.74-1.43-.98-1.97c-.25-.54.44-3.98.18-4.73-.25-.75-1.52-1.16-1.54-1.26-.02-.11 2.29-1.87 2.24-2.57l-.09-.95s.67-.39.9-.73c-1.85.82-3.94 1.09-4.49 1.08 1.04-.73 1.84-1.24 2.08-1.72s1.44-1.06 1.58-1.54c-.66.25-1.49.34-1.49.34s1.46-.48 1.82-1.27c-2.19.95-3.14.86-3.68.72s-.97-.46-1.4-.37-.35-.64-.6-.73-.09-.72.11-.96c.21-.24.44-.46.9-.46s3.19-.7 4.07-2.03c-1 .66-2.16.65-2.16.65s1.09-.72 1.46-1.83.32-1.77-.7-1.61c-1.03.16-1.16.7-1.76.38s-1.06-.52-1.55-.45-1.09-.25-1.32-.52-.28-.54-.28-.54 2.33-.43 2.83-1.52c-.63.11-1.67.43-1.67.43s1.56-1.63 1.88-3.14c-.54.3-1.55 1.56-1.55 1.56s-.11-.66-.48-.65-.49.26-.49.26-.56-.3-.71-.62c-.15-.31-.49-.44-.49-.44s.9-.91.77-1.95c-.12-1.04-.77-.93-1.1-1.01s-.92-1.08-1.1-1.66-.25-2.28-.3-3.19.07-1.95-.21-2.18-.07-1.56-.22-1.59-.3.79-.33 1.9c-.03 1.1-.62 4.91-1.6 6.1.15.04.54-.19.54-.19s-.75 1.18-1.23 1.17c.76.24 1.57-.6 1.57-.6s.02.99-.11 1.36c-.14.36-2.42.77-2.76.55-.33-.22-.76-.43-.9-.4s.16.75.64 1.1 1.44.58 1.44.58-.55.52-.29 1.13c.26.6.44.58.44.58s-1.18.71-1.41 1.55c-.23.83.14 1.72.59 1.94-.16.4-2.11 1.53-2.79 1.4s-.82.03-.8.32c.01.3.75.73 1.69.66.41.23.21.51-.08.5.67.52 2.35-.23 2.35-.23s-.6.74-.62 1.1c1.15-.05 1.54-1.02 1.54-1.02s-.07 1.4-.98 3.12-1.98 2.2-1.98 2.2.57.03 1.05-.04c-.08.54.55 1.06 1.34.85-.48.47-.42 1.14-.55 1.53s-.54.66-1.02.79-.71-.25-1.68-.23h-.25l.6-.71c.28-.3.28-.76-.02-1.21s-.76-.32-1.09-.37-.45-.3-.45-.3 1.79-.54 2.08-.99c.28-.45 1.29-2.28.79-2.88s-.79.56-1.48.23c-.69-.32-.73-.44-1.57-.22l.4-.42-1.76-1.02c-.9-.46-1.32-1.05-1.32-1.05s.37-.62.67-.72.67-.39.76-1.05c.08-.66.34-1.26.08-1.42s-1.07.31-1.55.22c-.48-.1-1.84-1.08-2.19-1.46-.35-.39-1.05-.42-1.05-.42s.04-.58-.12-.81c-.16-.22.58-.98.84-.87s2.37.65 3.25-.17c-.98.13-2.4-.82-2.4-.82s1.98-.23 2.41-.85 1.04-1.25.65-1.68-1 .37-1.33.14c-.34-.22-1.21-.86-1.75-.94 1.65-.19 3.31-2.25 3.38-2.64s-.04-.76.2-1.25.21-1.29.21-1.29-1.34 2.12-3.02 2.48-2.94.23-3.79-.54-.54-2.19-.54-2.19a5.93 5.93 0 0 0 1.5.2c-.47-.85-.95-.93-.95-.93s.8-.09.58-1c.51.34 2.2-.14 2.64-.95l-.64.05s.23-.15.25-.5-1.22-1.06-1.22-1.06.06-.28-.06-.42-.29-.16-.29-.16.07-.26-.26-.75c-.33-.48-.7-.52-.7-.52s0-.78.04-.79.18.23.38.13c.2-.09.16-.63.04-1.28s-.75-1.53-.93-1.94c-.18-.42-.45-.67-.46-1.36 0-.7-.04-1.1-.12-1.37-.08-.28-.28-.44-.29-.83 0-.39-.15-1.63-.28-1.68s-.05 1.06-.19 1.41-.07 1.16-.09 1.75c-.01.59-.03 1.16-.16 1.49l-1.25 3.1s.73-.6.91-1.01l-.26 1.38h.34l-1.5 1.73c-.47.43-.06 1.97-.25 2.36s-1.32.23-1.32.23.6.41 1.19.55c-.86.33-2.86.25-3.45-.4 1.19 1.79 2.57 1.89 2.57 1.89s-1.42.36-2.44-.03c.7.82 2.11 1.56 2.99 1.35-.22.65-2.35 2.86-2.35 2.86s.83-.09 1.26-.59a6.45 6.45 0 0 0 .1.91l1.02-1.11c.42-.45 1.81-2.84 1.81-2.84s-.95 3.13-1.79 4.47-3.08 3.46-3.08 3.46.55.1.9-.11c.45.75 1.75.5 1.75.5l-.76 1.98c-.15.59-1.6 1.75-1.6 1.75s.84-1.59.54-1.83-1.01 1.05-2.22 1.22-2.44-.42-2.44-.42 1.03-.84 1.04-1.23-1.27-.76-1.58-1.65l-.7-2.33s1.05 1.7 1.55 2.03l1.4.94c.28.16 1.67.11 1.67.11l-1.49-.67s1.67-.15 1.68-.84c.02-.69-1.36-.9-2.31-2.18l-2.15-2.8s.77.3.97.56c.21.26.92.35 1.28.3s.94.13 1.37-.44c-.49.12-.77-.05-.84-.22s-.61-.51-.96-.68-.55-.73-1.09-1.41c-.54-.67-1.23-2.09-1.23-2.09s1.12-.13 1.71-1.15 0-1.72-.08-1.72-.61.14-1.13-.09-.81-.77-1.06-.76c.09-.53-.41-1.16-.61-1.38-.21-.22-.3-.76-.25-.88s1.51-.21 1.51-1.1-.67-1.46-1.29-1.52-.37-1.42-.88-1.96c-.51-.55-.18-5.66-.64-5.77-.45-.12-.18.87-.67 1.85-.5.98-.23 1.8-.25 2.7s-.36 1.58-.38 2.18-.47.84-.54 1.32c-.08.48 0 .71-.14 1.11s-1.29.81-1.29 1.16.42 1.5.97 1.55c-1.03.28-.57 1.04-1.02 1.32s-1.38.7-1.75.89-1.09.87-1.08 1.31c0 .44 1 .73 1 .73l-.93 1.03s.98-.24 1.58-.58 1.41-.14 1.41-.14-.7 1.4-1.56 2.06-.79 1.22-1.54 1.38c-.51.11-.83-.04-1.32.4s-1.42 1.56-1.7 1.56-1.1.03-1.64 1.01c.84-.47 1.44-.52 1.87-.09l-.92 1.14s.8-.47 1.52-.75 1.23-.74 2.1-.59c-.32.9-.95 2.16-1.49 2.72-.54.55-1.77 1.48-2.22 2.34.96-.63 1.55-1.01 1.98-1.01s1.88-.66 2.85-1.69c.96-1.04 2.5-3.11 2.5-3.11s-.23 1.75-.75 2.88-1.1 1.48-1.34 2.29-1.17 1.41-1.42 1.8-1.1.74-1.42 1.65c.87-.47 3.5-.48 3.5-.48l-3.39 2.5c-1.41 1.06-3.03 1.44-3.54 1.37s-2.06.11-2.56.54c.49.02.84.03 1.1.13-1.04.21-2.23 0-2.55-.47l-1.27-1.85s.75.34 1.2.12.48-.54.77-.43.5-.11.31-.52-.32-.62-.79-.84c-.47-.23-1.11-.81-1.36-2.06-.25-1.24-.62-1.22-.62-1.22s.07-6.06-1.06-6.19-.42 3.31-1.41 4.65-1.13 1.67-2.1 1.71-.65 1.27.25 1.48c-.48.31-1.73.06-1.73.06s.43.47.92.65c.5.18 1.34.14 1.34.14s-.17 1.01.48 1.3c-.08.49-1.85 1.36-1.85 1.36s1.18-.99.76-1.42c-.41-.42-.71 0-1.27.12s-.69.07-1.76-.17-1.57-.51-2.51-1.22-1.85-2.05-1.85-2.05l.89.02-.62-.76s1.56.1 2.5-.04c.94-.15 1.54-.61 1.39-1.15s-.52-.52-1.03-.66c-.51-.13-.68-.55-1.21-.79s-.88.04-1.28-.47c-.21-.26-.82-.69-1.44-1.22l.1-1.75c.41-.2.68-.5.65-.75-.06-.5-.44-.11-.88-.16s-.59-.7-.59-.7.8.31 1.55.04c.76-.27.93-1.18.87-1.35s-.32-.12-.84-.06-1.16-.23-1.25-.8c-.08-.58-.6-1.32-1.1-1.52.5-.18.52-.69.52-.69s.34.59.95.43.44-1.09.09-1.45c-.36-.36-.71-.72-.97-1.79-.25-1.07-.66-1.51-.66-2.25s-.54-3.68-1.1-3.62-.37 1.25-.39 1.55-.41.95-.44 1.91c-.03.95-1.31 3.26-1.6 3.93-.2.47-1.09.49-1.65.92-.21-.03-.49 0-.57-.1-.11-.14-.55-.88-.55-.88s.56.5.95.39.69-.29.69-.29-.39-.78-1-1.04-.47-.44-.32-.46.51-.12.63-.53c.12-.42.22-.79-.15-1.18-.37-.4-.45-.79-.36-1.02.09-.24-.02-1.07-.24-1.36-.22-.3-.25-1.08-.25-1.42s-.2-1.63-.2-1.63l-.34 2.32c-.04.46.02 1.15-.25 1.6-.28.45-.48.61-.38 1.28s-.12 1.18-.44 1.61-.42.97-.25 1.21c.18.24.68.17.8.37.11.2.1 1.27-.26 1.58s-1.06 1-2.21 1.06c-1.16.05-1.49.47-1.75.24s-.43-.43-.63-.13-.9 1.18-.93 1.55.68.26.93.04.19.39.92.18c-.33.59-.95 1.51-1.32 1.5-.37 0-.46-.04-.44.23s.34.5.83.39c.5-.11 1.75-.35 2.02-.85s.34-.62.43-.61c.09 0 0 .27.19.48a.37.37 0 0 0 .14.08c.03.09.1.3.22.46-.59.07-.7-.12-.7-.12s.07.24.32.45c-.57.41-1.31.88-1.93 1.08.57.25 1.29 0 1.29 0s-1.05.78-1.66.9c-.15-.12-.29-.11-.46-.11-.23 0-.53-.37-.82-.4s-.4-.25-.39-.55-.19-.47-.26-.46c-.07 0 .23-.59-.06-.83s-.31-.27-.3-.39c0-.12.4-.45.31-.8-.09-.36.1-.34.04-.72-.06-.37-.11-.5-.1-.95.02-.45-.19-.63-.18-1.03s.11-1.99-.22-2.04-.46.51-.48 1.07c-.02.57-.45 1.77-.64 2.18s-.26.87-.22 1.1-.25.54-.22.82.18.33.18.63-.48.76-.97.86-.74-.12-.94.13-.07.76.33.98.65.45.97.39a2.91 2.91 0 0 1-.27.24c-.51.19-1.15.35-1.72.23-1.17-.25-1.53-.11-1.93-.44s-.95-.66-1.25-.92-.7-.75-1.09-1.41c-.39-.65-.7-1.43-.64-1.65.05-.22.21.07.46.14s.6-.29.89-.22.58.56.97.6.88-.29 1.19-.13 1.27.27 2.24 0c-.67-.51-1.1-.46-1.1-.46s1.5-.57 2.02-1.19c-.77-.03-1.82.5-2.4.46s-2.01-1-2.01-1 1.32-.56 1.6-1.1c.28-.55.96-2.1.43-2.4s-1.38.77-2.27.38-2.08-1.38-2.28-1.52c-.2-.15-.07-.51.48-.7s.83-.43 1.02-.71c.2-.28-.03-.63 0-.98s.09-.81-.05-.87c-.14-.05-.84 0-1.09-.15s-.82-.36-.86-.46.06-.26.13-.46c.06-.2-.05-1.14-.05-1.14s.67.46.93.51.93-.46.93-.46l-1.02-.53s1.33-.68 1.25-1.26c-.02-.16-.52.14-.98-.26-.45-.4-1.01-.63-1.02-1.15s-.36-.63-.28-1.35-.17-.75-.16-1.21c0-.46-.11-.84-.18-1.14-.06-.3-.08-2.65-.08-2.65-.11.63-.47 1.85-.49 2.47s.17 1.08 0 1.56-.57 1.08-.54 1.43-.3.59-.34.91c-.04.31-.22.69-.68 1.05s-.9.34-.93.5.05.31.62.61c-.83.43-1.78.55-1.78.55s.87.23 1.28.19 1.44-.09 1.81-.4c.11-.09.24-.02.14.22s-.71.98-1.3 1.27c-.59.3-.67.67-.61.91s.38.34.64.22c.27-.12.41-.15.54-.12.13.04.38.04.55-.12.08.35.14.87-.33 1.17s-1.19.39-1.43.58c-.25.2-2.8.1-3.12-.06.59.71 1.48.77 1.48.77s-.18.26-.52.5l-1.53-.17c-1.58-.15-1.68-.66-1.68-.66s1.67-.65 1.59-1.42-1.15-.08-2.79-2.11c1.41.97 2.14.42 2.14.42s-.9-1.05-1.36-1.77-.95-1.27-1.12-2.17.19-1.31-.15-1.77.02-1.57-.46-1.57-.17.52-.48 1.37-.56 1.27-.54 2.17c.02.89-1.9 3.56-2.55 5.68 1.07-.42 1.72-1.43 1.72-1.43l-.86 2.37c-.25.63-.71.87-.98 1.47-.26.6-.5.54-.97.77-.47.24-.54.49-.56.75s.13.64.76.69l-3.04 1.73c-.52.34-.16.82.31.97s1.19.38 2.05.14 1.32-.56 1.32-.56-.29.41-.45.93c-.16.53-4.44 2.95-6.17 3.18 1.41.72 5.96-.21 7.16-1.2-1.64 3.3-3.24 3.57-4.52 4.13s-2.14.27-2.42.69-.36 2.41 3.59 2.44c-.59 1.07-1.81.75-2.14 1.34-.33.6-.08 1.55 1.04 1.7s.61.8.61.8c-.36.65-.73 1.41-1.03 1.56s-1-.46-1.42-.59-1.34-.26-1.83-1.12c1.01.03 1.91-.6 1.75-1.1s-1.26-.48-1.88-1.13-1.23-1.02-1.57-1.88c.8.28 1.72-.55 1.46-1.04-.26-.48-1.09-.15-2.11-1.33 1.26.28 2.04-.66 1.9-1.05-.15-.39-1.86-.19-2.72-1.99.63.26 1.6.09 1.61-.17 0-.26-.82-.41-1.39-1.6-.57-1.18-.28-1.91-.71-2.44-.11-.32-.15-4.2-.29-4.19s-.46 1.89-.43 2.47.15 1.1-.06 1.58-.21.89-.21 1.27c0 .39-.34.6-.41.89s-.81.48-.8.69.52.33.67.44-1.04.94-1.8 1.01-.54.35-.77.33c-.24-.02-.3-.16-.34-.09s-.05.61.41.58.47.39.84.44c.37.04.75 0 .75 0s-.3.56-.58.65-.77.02-.84.29c-.08.27.28.66.74.68s.84-.15.84-.15-.8.84-1.4.91c-.61.06-1.5.03-1.66.25s-.04.55.68.79.74.54.74.54-.75.08-.8.25.11.57.78.59c.62.02.92-.19.96-.22a22.54 22.54 0 0 0-1.29 1.03c-.48.42-1.49.35-1.76.61-.28.26-.81.19-1.06.22s-.64.43-.11.9c.52.47 1.75.51 1.75.51s-.67.9.15 1.23c-.15.69-1.82 1.53-2.04 1.58-.21.04-.67-.02-.92.16s-.35.77.38 1.04 1.22 1.06 2.24.94c-.46.47-2.11 1.29-2.11 1.29s-1.64-1.15-2.4-2.46l-1.96-3.01c1.75.54 3.05.52 3.89.38s1.36-.35 1.36-.52-1.78-.5-2.04-.64c.67-.43.56-.98.56-.98s-1.29.41-2.62-1.04-2.93-3.64-3.47-5.61c1.73 2.24 3.6 3.31 4.45 3.71s2.67.72 3.81.04c-2.08-.82-3.41-2.12-3.41-2.12s1.99-.95 1.64-2.62c-1.38-.01-3.01-.63-3.97-1.6s-1.1-.91-1.1-.91 1.7-1.25 1.22-2.54c-.1-.26-1.13.01-1.9-.56s-.91-.54-1.24-1.02c.68.18 1.88-.21 1.72-.98s-1.12-.86-1.58-1.68c.18-.32.18-.56.07-.75.38-.2.56-.93.5-1.37s-.53-1.5-1-2.16-.63-4.42-.85-4.4 0 .91-.24 1.39-.31 1.17-.35 1.78-.21 1.32-.51 1.71-.64.73-.68 1.03c-.05.3-.77.39-.78.73 0 .34.17.76.33.94s.54.19.54.19-.45.77-1.23 1.17c-.77.39-1.1.83-1.13 1.11s.2.65.65.75c.45.11.49.4.83.44s.35-.41.6-.41.44.03.44.13-.76.46-.86.88-.72.52-1.11.66-.95.04-1.06.28-.96.81-.99 1.11c-.02.3.84.3 1.05.54s1.46.65 1.68.66c.21 0 .21.08.21.13s-.65-.14-.98.3-.28.82-.93.69c-.64-.13-.78.64-1.75.79-.29.05-.86.04-1.53-.04l-.07-1.1c-.05-.91.05-1.95-.22-2.18-.28-.23-.08-1.56-.23-1.58-.15-.03-.29.8-.32 1.9-.01.51-.14 1.61-.37 2.75l-1.05-.29c.19-.33.23-.67.19-.77-.07-.17-.32-.12-.84-.06s-1.16-.23-1.25-.8c-.08-.58-.6-1.32-1.1-1.52.5-.18.52-.69.52-.69s.34.59.95.43.44-1.09.08-1.45-.71-.72-.97-1.79c-.25-1.07-.66-1.51-.66-2.25s-.54-3.68-1.1-3.62-.37 1.25-.39 1.55-.41.95-.44 1.91c-.03.95-1.31 3.26-1.6 3.93-.29.68-2 .42-2.11 1.81-.1 1.39 1.43.04 1.43.62s-.82 1.09-1.78 1.31c-.97.22-.49.44-1.26.7-.76.26-1.1 1.11-1.12 1.49-.76-.14-1.15-.49-1.15-.49a1.46 1.46 0 0 0 .24.51h-.08c-.2-.1-.39-.2-.56-.35-.86-.76-.56-2.19-.56-2.19a6.25 6.25 0 0 0 1.51.19c-.48-.84-.96-.92-.96-.92s.8-.1.57-1.01c.51.33 2.2-.16 2.63-.97l-.64.05s.23-.16.25-.51-1.23-1.04-1.23-1.04.06-.28-.06-.42-.29-.16-.29-.16.07-.26-.26-.74c-.34-.48-.7-.51-.7-.51s-.01-.78.03-.79.19.23.38.13.15-.63.03-1.28c-.12-.64-.76-1.52-.94-1.93-.19-.41-.46-.66-.47-1.36s-.05-1.1-.13-1.37-.28-.44-.29-.83c0-.39-.16-1.63-.29-1.68s-.04 1.06-.18 1.41-.07 1.16-.07 1.76c0 .59-.02 1.16-.14 1.49l-1.23 3.11s.73-.61.91-1.02l-.25 1.39h.34l-1.49 1.74c-.47.43-.05 1.97-.24 2.36-.07.14-.25.19-.46.23-.02-.4-.08-.75-.23-.77-.28-.04-.41.35-.45.81-.1 0-.17-.02-.17-.02l.16.1c0 .06-.01.12-.02.18 0 .12-.03.27-.07.43-.9.04-1.94-.11-2.33-.55.73 1.08 1.48 1.5 2 1.69l-.11.29c-.5.06-1.17.09-1.74-.12.35.4.87.78 1.42 1.04-.04.2-.05.38-.02.49.04.22-.25.54-.22.82s.18.33.18.63-.48.76-.97.86-.74-.12-.94.13-.07.76.33.98.65.45.97.39c-.92.89-1.87 1.24-2.34.99-.32-.18-.37-.08-.48-.04-.16-.15-.32-.28-.46-.47l-2.17-2.77s.77.29.98.55.92.34 1.28.28.94.12 1.37-.45c-.49.12-.77-.05-.84-.22s-.61-.5-.96-.67-.56-.73-1.1-1.4-1.24-2.08-1.24-2.08 1.12-.14 1.7-1.16c.58-1.03 0-1.72-.1-1.72-.09 0-.6.15-1.13-.08-.52-.23-.82-.76-1.06-.75.09-.53-.41-1.15-.62-1.37s-.3-.76-.26-.88c.05-.12 1.51-.22 1.5-1.12 0-.9-.68-1.45-1.3-1.51s-.38-1.41-.89-1.95c-.52-.54-.23-5.65-.68-5.77-.45-.11-.17.87-.66 1.85s-.22 1.8-.23 2.7c-.02.9-.35 1.58-.36 2.18s-.46.85-.53 1.32c-.07.48 0 .71-.13 1.11-.14.4-1.28.82-1.29 1.17 0 .29.3 1.09.71 1.39l-3.4-.47c-1.58-.15-1.68-.66-1.68-.66s1.67-.65 1.59-1.42c-.09-.77-1.15-.08-2.79-2.11 1.41.97 2.14.42 2.14.42s-.9-1.05-1.36-1.77-.95-1.27-1.12-2.17c-.17-.89.19-1.31-.15-1.77s.02-1.57-.46-1.57-.17.52-.48 1.37-.56 1.27-.54 2.17c.02.89-1.9 3.56-2.55 5.68 1.07-.42 1.72-1.43 1.72-1.43l-.86 2.37c-.25.63-.71.87-.98 1.47-.26.6-.5.54-.97.77-.47.24-.54.49-.56.75s.13.64.76.69l-3.04 1.73c-.52.34-.16.82.31.97s1.19.38 2.05.14 1.32-.56 1.32-.56-.29.41-.45.93c-.16.53-4.44 2.95-6.17 3.18 1.41.72 5.96-.21 7.16-1.2-1.38 2.78-2.73 3.4-3.89 3.87-.16-1.06-.42-1.92-.84-1.97-.7-.08-.69 1.22-.81 2.54-.71.13-1.21.08-1.4.38-.18.27-.26 1.2.77 1.83-.92 1.27-1.09 1.6-2.03 1.65-.16 0-.24.09-.34.15-.52-.49-1-.88-1.29-1.61.8.28 1.72-.55 1.46-1.04-.26-.48-1.09-.15-2.11-1.33 1.26.28 2.04-.66 1.9-1.05-.15-.39-1.86-.19-2.72-1.99.63.26 1.6.09 1.61-.17 0-.26-.82-.41-1.39-1.6-.57-1.18-.28-1.91-.71-2.44-.11-.32-.15-4.2-.29-4.19-.15 0-.46 1.89-.43 2.47s.15 1.1-.06 1.58-.21.89-.21 1.27-.34.6-.41.89-.81.48-.8.69c.02.21.52.33.67.44s-1.04.94-1.8 1.01-.54.35-.77.33c-.05 0-.07-.02-.11-.04.3-.19.51-.43.48-.63-.06-.5-.44-.1-.88-.15s-.59-.69-.59-.69.8.3 1.55.02.93-1.19.86-1.36-.32-.12-.84-.05c-.52.06-1.16-.22-1.25-.79-.09-.58-.61-1.32-1.11-1.51.5-.18.51-.69.51-.69s.34.58.95.42c.61-.17.43-1.1.07-1.45s-.72-.71-.98-1.78-.67-1.5-.68-2.24c0-.74-.57-3.67-1.13-3.61-.56.07-.36 1.26-.38 1.55-.01.3-.4.96-.43 1.91s-1.28 3.27-1.57 3.95c-.2.47-1.09.5-1.64.94-.21-.03-.49 0-.57-.09-.12-.14-.55-.88-.55-.88s.56.49.95.38c.39-.12.69-.3.69-.3s-.39-.78-1.01-1.03c-.61-.25-.47-.44-.32-.46s.51-.12.62-.54.21-.79-.16-1.18-.46-.78-.37-1.02-.03-1.07-.25-1.36-.26-1.07-.26-1.42-.21-1.62-.21-1.62l-.32 2.32c-.03.46.03 1.15-.24 1.6s-.48.61-.37 1.29c.1.67-.11 1.18-.43 1.62-.08.11-.1.22-.15.33-.21-.16-.41-.34-.56-.61.18-.32.18-.56.07-.75.38-.2.56-.93.5-1.37s-.53-1.5-1-2.16-.63-4.42-.85-4.4 0 .91-.24 1.39-.31 1.17-.35 1.78c-.05.62-.21 1.32-.51 1.71s-.64.73-.68 1.03c-.05.3-.77.39-.78.73s.17.76.33.94.54.19.54.19-.45.77-1.23 1.17c-.77.39-1.1.83-1.13 1.11s.2.65.65.75c.45.11.49.4.83.44s.35-.41.6-.41.44.03.44.13-.76.46-.86.88-.72.52-1.11.66c-.21.08-.47.08-.68.11.02-.56.05-1.77-.24-1.81-.33-.05-.45.51-.47 1.08-.01.4-.23 1.13-.42 1.66-.12.13-.22.25-.23.35 0 .04.04.06.06.09-.01.02-.03.07-.03.09-.19.41-.25.87-.21 1.1.05.22-.25.54-.22.82s.19.33.19.62c0 .07-.03.15-.08.23-.13.06-.26.12-.44.15-.95.15-4.74-.27-5.92-1.91.09-.03.18-.09.27-.07.29.07.59.55.98.59s.88-.3 1.19-.15c.32.15 1.27.26 2.24-.01-.68-.5-1.1-.45-1.1-.45s1.5-.59 2.01-1.21c-.77-.02-1.82.52-2.39.48s-2.02-.98-2.02-.98 1.31-.57 1.59-1.12.94-2.11.41-2.41-1.37.78-2.26.4c-.89-.39-2.09-1.36-2.29-1.5-.2-.15-.07-.51.48-.7s.82-.44 1.02-.72-.03-.63 0-.98.09-.81-.06-.87-.84.02-1.09-.14-.82-.35-.86-.46.06-.26.12-.46-.05-1.14-.05-1.14.67.46.93.5.93-.47.93-.47l-1.03-.52s1.33-.69 1.24-1.27c-.02-.16-.52.15-.98-.25s-1.01-.62-1.03-1.14-.37-.63-.29-1.35-.17-.75-.17-1.21-.12-.84-.19-1.13c-.07-.3-.1-2.65-.1-2.65-.1.63-.46 1.85-.47 2.48s.18 1.07.01 1.56c-.16.49-.57 1.09-.53 1.43.03.34-.29.59-.33.91s-.22.69-.67 1.06-.9.35-.92.51.06.31.62.6c-.82.44-1.77.56-1.77.56s.87.22 1.28.18 1.44-.1 1.8-.42c.11-.09.24-.02.14.22s-.71.98-1.29 1.29c-.59.3-.67.68-.61.91s.38.34.64.22c.27-.12.41-.16.54-.12s.38.04.55-.12c.09.35.14.87-.32 1.17s-1.18.4-1.43.6c-.24.2-2.8.13-3.12-.03.59.7 1.48.76 1.48.76s-.18.26-.51.5l-1.53-.15c-1.58-.13-1.69-.64-1.69-.64s1.67-.66 1.58-1.44c-.09-.77-1.16-.07-2.8-2.08 1.42.96 2.14.4 2.14.4s-.91-1.04-1.37-1.76c-.46-.71-.96-1.26-1.14-2.15s.18-1.31-.17-1.77c-.34-.45 0-1.57-.47-1.57-.48 0-.17.52-.47 1.38s-.55 1.28-.53 2.17-1.88 3.58-2.51 5.71c1.07-.43 1.7-1.45 1.7-1.45l-.84 2.38c-.25.63-.71.88-.97 1.48s-.5.54-.96.78c-.47.24-.54.49-.55.75-.02.26.13.63.76.68l-3.03 1.76c-.52.34-.16.83.31.97s1.19.37 2.05.12 1.31-.57 1.31-.57-.29.41-.44.94c-.16.53-4.42 3-6.15 3.24 1.41.7 5.96-.27 7.15-1.27-1.61 3.32-3.22 3.6-4.49 4.18s-2.14.29-2.41.71c-.28.42-.34 2.42 3.61 2.41-.58 1.08-1.8.76-2.13 1.36s-.07 1.55 1.06 1.69.62.8.62.8c-.36.65-.72 1.42-1.02 1.57s-1-.45-1.43-.58-1.35-.24-1.83-1.1c1.01.02 1.9-.62 1.74-1.12s-1.27-.47-1.89-1.11-1.24-1.01-1.59-1.87c.81.27 1.72-.57 1.45-1.05s-1.09-.14-2.12-1.31c1.27.27 2.04-.68 1.89-1.07s-1.86-.17-2.74-1.96c.63.26 1.6.08 1.61-.18 0-.26-.82-.4-1.41-1.58-.58-1.18-.29-1.91-.73-2.43-.11-.32-.18-4.2-.32-4.19-.15.01-.45 1.9-.41 2.48.03.58.16 1.1-.05 1.58s-.21.89-.2 1.27c.01.39-.34.6-.4.89s-.81.49-.79.7.52.33.68.43c.15.11-1.03.95-1.79 1.03s-.53.35-.77.34c-.24-.02-.3-.16-.34-.09s-.05.61.41.58.48.39.85.43.75-.02.75-.02-.29.56-.58.65c-.28.09-.77.03-.84.3s.29.66.75.67.84-.16.84-.16-.79.85-1.39.92-1.5.04-1.66.27-.03.55.69.78.75.53.75.53-.75.09-.8.26.12.57.79.58c.62.01.92-.2.96-.23-.07.05-.82.63-1.28 1.04-.48.43-1.48.36-1.76.63-.27.26-.81.2-1.06.23s-.63.44-.11.9 1.76.49 1.76.49-.67.9.16 1.23c-.14.69-1.81 1.55-2.03 1.6-.21.05-.67-.01-.92.17-.24.18-.35.77.38 1.04.73.26 1.23 1.05 2.25.92-.46.48-2.1 1.31-2.1 1.31s-1.65-1.13-2.42-2.43-1.53-2.49-1.98-2.99c1.75.52 3.05.49 3.89.34s1.36-.36 1.36-.54-1.78-.48-2.04-.62c.66-.44.55-.98.55-.98s-1.28.42-2.63-1.01c-1.34-1.44-2.96-3.61-3.51-5.57 1.75 2.23 3.62 3.27 4.47 3.67.85.39 2.67.69 3.81 0-2.09-.8-3.43-2.09-3.43-2.09s1.98-.97 1.62-2.64c-1.38 0-3.01-.6-3.99-1.56-.97-.96-1.11-.9-1.11-.9s1.69-1.27 1.2-2.55c-.11-.25-1.13.02-1.9-.54-.77-.57-.92-.53-1.25-1.01.68.17 1.87-.22 1.71-.99-.17-.77-1.12-.85-1.59-1.66.17-.32.18-.56.06-.75.37-.2.55-.94.49-1.38s-.54-1.49-1.02-2.15-.66-4.41-.88-4.39 0 .91-.23 1.39c-.23.49-.3 1.17-.34 1.79s-.2 1.32-.49 1.72c-.3.4-.63.74-.67 1.04s-.77.4-.78.74a1.59 1.59 0 0 0 .34.94c.17.18.54.18.54.18s-.45.78-1.22 1.18-1.1.84-1.13 1.12.2.64.66.75c.45.1.49.4.84.43.34.03.35-.42.6-.42s.44.02.45.12-.75.46-.85.89-.72.53-1.11.67-.95.05-1.05.29c-.11.24-.96.82-.98 1.12s.84.29 1.05.53 1.47.64 1.68.65c.21 0 .22.08.22.12s-.65-.14-.98.31c-.33.44-.28.82-.92.7s-.78.64-1.75.81c-.59.1-2.3-.01-3.79-.5.18-.33.22-.67.18-.77-.07-.17-.32-.12-.84-.05-.52.06-1.16-.22-1.25-.79-.09-.58-.61-1.32-1.11-1.51.5-.18.51-.69.51-.69s.34.58.95.42.43-1.1.07-1.45-.72-.71-.98-1.78-.67-1.5-.68-2.24c0-.74-.57-3.67-1.13-3.61s-.36 1.26-.38 1.55c-.01.3-.4.96-.43 1.91s-1.28 3.27-1.57 3.95c-.28.68-2 .44-2.09 1.83s1.43.03 1.43.6c0 .58-.81 1.1-1.77 1.33-.97.23-.49.44-1.25.71s-1.1 1.12-1.11 1.5c-.76-.13-1.16-.48-1.16-.48s.07.3.24.5c-.59.08-.7-.11-.7-.11s.21.73 1.3.78c1.1.05 1.45.52 2.31.4-.68.36-1.05 1.03-1.57 1.1-.52.06-1.75.26-2.35 1.02-.61.76-.82.31-.81.87.01.57.32.28.59.4.26.12.84.46 1.63.49s1.08-.25 1.08-.25-.02.84.42 1.03c-.21.68-.5.76-.86.78s-.65.26-.63.63.3.58.9.58 1.71-.28 1.71-.28-1.48 2.58-4.21 3.57l-.4-.19s.37-.41.35-.82c1.26-.13 2.07-.74 1.94-1.26s-1.08.31-2.6-1.46-1.75-2.47-1.92-2.9-.54-.58-.54-.58.76-.11 1.35-.3c.58-.18.7-.71.48-1.02s-.38-.28-.61-.28-.53-.37-.82-.39-.4-.25-.4-.55-.19-.47-.26-.46.23-.59-.06-.83-.31-.27-.3-.38c0-.12.4-.45.31-.81s.1-.34.04-.72c-.06-.37-.12-.5-.1-.95s-.2-.63-.19-1.03c0-.4.09-1.99-.24-2.04s-.45.51-.47 1.08c-.01.57-.43 1.78-.62 2.19s-.25.87-.21 1.1c.05.22-.25.54-.22.82s.19.33.19.62c0 .3-.47.76-.96.87s-.74-.11-.94.14-.06.76.34.97.65.45.97.39c-.91.9-1.86 1.26-2.33 1.01s-.35.06-.7-.03l-.98-.27s.35.44.78.82c-.73-.05-1.42-.27-1.58-.47.39.13 1.25-.86 1.73-1.32s1.21-.33 1.38-.84.91-1.28 1.42-2.53c-1.1 1.72-5.03 2.17-6 2.02s-1.11-.91-1.76-.78c-.64.13-.6-.25-.93-.69s-.98-.25-.98-.29 0-.12.21-.13c.21 0 1.47-.42 1.68-.67s1.07-.24 1.05-.54-.88-.87-.99-1.11-.67-.13-1.06-.28c-.39-.14-1.01-.24-1.11-.66s-.87-.78-.86-.88c0-.1.19-.13.44-.13s.26.45.61.41c.34-.04.38-.33.83-.44s.68-.48.65-.75c-.03-.28-.36-.72-1.14-1.11-.77-.39-1.23-1.16-1.23-1.16s.38 0 .54-.19c.16-.18.34-.6.33-.94s-.74-.44-.78-.73-.38-.64-.68-1.03-.46-1.09-.51-1.71-.12-1.3-.36-1.78-.02-1.37-.24-1.39-.37 3.74-.84 4.4-.94 1.72-1 2.16c-.03.25.02.6.14.89l-.52-.05c-1.58-.13-1.69-.64-1.69-.64s1.67-.66 1.58-1.44c-.09-.77-1.16-.07-2.8-2.08 1.42.96 2.14.4 2.14.4s-.91-1.04-1.37-1.76c-.46-.71-.96-1.26-1.14-2.15s.18-1.31-.17-1.77 0-1.57-.47-1.57-.17.52-.47 1.38-.55 1.28-.53 2.17-1.88 3.58-2.51 5.71c1.07-.43 1.7-1.45 1.7-1.45l-.84 2.38c-.25.63-.71.88-.97 1.48s-.5.54-.96.78c-.47.24-.54.49-.55.75-.02.26.13.63.76.68l-3.03 1.76c-.52.34-.16.83.31.97s1.19.37 2.05.12 1.31-.57 1.31-.57-.29.41-.44.94c-.1.35-2.01 1.54-3.78 2.38-.22-.14-.54-.28-.58-.47-.06-.29-.41-.5-.41-.89s0-.8-.21-1.27c-.22-.47-.09-.99-.06-1.58s-.29-2.46-.43-2.47c-.15 0-.18 3.87-.28 4.19-.44.53-.14 1.25-.71 2.44-.57 1.18-1.4 1.34-1.39 1.6s.98.43 1.61.16a2.89 2.89 0 0 1-1.31 1.38c-.18-.37-1.86-.18-2.73-1.95.63.26 1.6.08 1.61-.18 0-.26-.82-.4-1.41-1.58-.58-1.18-.29-1.91-.73-2.43-.11-.32-.18-4.2-.32-4.19-.15.01-.45 1.9-.41 2.48.03.58.16 1.1-.05 1.58s-.21.89-.2 1.27c.01.39-.34.6-.4.89s-.81.49-.79.7.52.33.68.43c.08.05-.18.28-.54.51-1.76-.82-3.62-1.96-3.73-2.3-.16-.53-.45-.93-.45-.93s.46.32 1.32.55c.86.24 1.58 0 2.05-.14.47-.15.82-.64.3-.97s-2.07-1.14-3.04-1.72c.63-.05.77-.43.75-.69s-.09-.51-.56-.74c-.47-.24-.71-.18-.97-.77-.26-.6-.72-.84-.98-1.47l-.86-2.37s.65 1.01 1.72 1.43c-.65-2.12-2.57-4.78-2.56-5.68.02-.89-.24-1.31-.55-2.16s0-1.37-.48-1.37-.12 1.11-.46 1.57.02.87-.15 1.77c-.17.89-.66 1.45-1.12 2.17s-1.36 1.77-1.36 1.77.73.55 2.14-.42c-1.63 2.03-2.7 1.34-2.78 2.11-.08.78 1.59 1.42 1.59 1.42s-.1.51-1.68.66l-.94.1h0c.17-.33.18-.56.06-.76.37-.2.55-.94.49-1.38s-.54-1.49-1.02-2.15-.66-4.41-.88-4.39 0 .91-.23 1.39-.3 1.17-.34 1.79-.2 1.32-.49 1.72c-.3.4-.63.74-.67 1.04s-.77.4-.78.74a1.59 1.59 0 0 0 .34.94c.16.18.54.18.54.18s-.45.78-1.22 1.18-1.1.84-1.13 1.12.2.64.66.75c.43.1.5.36.79.42.13.11.26.24.4.33-.07.09-.13.18-.16.27-.1.42-.72.53-1.11.67s-.95.05-1.05.29c-.11.24-.96.82-.98 1.12s.84.29 1.05.53 1.47.64 1.68.65c.21 0 .21.08.22.12 0 .04-.65-.14-.98.31s-.28.82-.92.7-.78.64-1.75.81c-.97.16-4.91-.23-6.02-1.94.53 1.24 1.27 2 1.44 2.51.18.51.9.37 1.38.82.49.45 1.35 1.44 1.74 1.3-.27.35-2.14.8-3.1.25.27.45.8.7 1.25.9-.25.02-.21-.19-.63.04-.46.25-1.42-.1-2.34-.99.32.06.57-.18.97-.4s.53-.73.33-.98-.45-.02-.94-.12-.97-.56-.97-.86.15-.34.18-.63c.03-.28-.27-.6-.22-.82.04-.22-.03-.69-.22-1.09-.19-.41-.62-1.62-.64-2.18s-.15-1.12-.48-1.07-.23 1.65-.22 2.04-.2.57-.18 1.03c.02.45-.04.58-.09.95-.06.37.13.36.05.72-.09.36.31.68.31.8s-.01.15-.3.39.01.83-.06.83-.27.16-.26.46-.1.52-.39.55-.59.4-.82.4-.39-.03-.61.28-.1.83.49 1.01a9.99 9.99 0 0 0 1.35.28s-.37.15-.53.58-.39 1.13-1.89 2.93c-1.5 1.79-2.46.97-2.58 1.5-.13.52.69 1.12 1.95 1.23-.01.42.36.82.36.82l-.39.19c-2.74-.96-4.24-3.52-4.24-3.52s1.11.26 1.72.25c.6 0 .88-.22.9-.59s-.28-.61-.64-.62-.65-.1-.87-.77c.44-.19.41-1.03.41-1.03s.3.28 1.09.24 1.37-.39 1.63-.51.58.16.59-.41-.2-.11-.82-.86c-.61-.75-1.84-.93-2.36-.99s-.9-.72-1.58-1.08c.87.11 1.21-.37 2.31-.43s1.3-.8 1.3-.8-.11.19-.7.12c.17-.21.24-.51.24-.51s-.4.35-1.15.49c-.02-.38-.36-1.23-1.12-1.49s-.29-.48-1.26-.69-1.78-.73-1.79-1.31 1.53.77 1.43-.62-1.82-1.13-2.11-1.8c-.29-.68-1.57-2.98-1.6-3.93-.04-.95-.43-1.61-.44-1.91-.02-.3.17-1.49-.39-1.55s-1.1 2.88-1.1 3.62-.41 1.17-.66 2.25-.61 1.43-.97 1.79-.52 1.29.09 1.45.95-.43.95-.43.02.51.52.68c-.5.2-1.02.95-1.1 1.52-.08.58-.73.87-1.25.81s-.77-.11-.84.06c-.04.1 0 .44.19.76-1.48.51-3.19.64-3.78.55-.97-.15-1.11-.91-1.76-.78-.64.13-.6-.25-.93-.69s-.98-.25-.98-.29 0-.12.21-.13 1.47-.42 1.68-.67 1.07-.24 1.05-.54-.88-.87-.99-1.11-.67-.13-1.06-.28c-.39-.14-1.01-.24-1.11-.66s-.87-.78-.86-.88c0-.1.19-.13.44-.13s.26.45.61.41.38-.33.83-.44.68-.48.65-.75c-.03-.28-.36-.72-1.14-1.11s-1.23-1.16-1.23-1.16.38 0 .54-.19c.16-.18.34-.6.33-.94s-.74-.44-.78-.73c-.05-.3-.38-.64-.68-1.03s-.46-1.09-.51-1.71-.12-1.3-.36-1.78-.02-1.37-.24-1.39-.37 3.74-.84 4.4-.94 1.72-1 2.16.12 1.17.5 1.37c-.11.2-.11.43.07.75-.46.82-1.42.91-1.57 1.68-.16.77 1.04 1.15 1.72.97-.33.48-.47.45-1.24 1.02-.76.58-1.79.31-1.89.56-.48 1.29 1.22 2.54 1.22 2.54s-.14-.05-1.1.92-2.59 1.59-3.97 1.61c-.34 1.67 1.65 2.62 1.65 2.62s-1.33 1.31-3.41 2.13c1.15.68 2.96.36 3.81-.05s2.71-1.47 4.44-3.72c-.54 1.96-2.13 4.16-3.46 5.61s-2.62 1.05-2.62 1.05-.11.55.56.98c-.26.14-2.04.47-2.04.65s.52.38 1.36.52 2.14.16 3.89-.39c-.44.5-1.19 1.71-1.96 3.02-.76 1.31-2.4 2.46-2.4 2.46s-1.65-.81-2.11-1.29c1.03.11 1.52-.68 2.24-.95.73-.27.62-.86.37-1.04s-.7-.11-.92-.16-1.89-.88-2.04-1.57c.83-.33.15-1.23.15-1.23s1.23-.05 1.75-.51c.52-.47.14-.87-.12-.9s-.79.05-1.06-.21c-.28-.26-1.28-.19-1.76-.61l-1.29-1.02c.04.03.34.24.96.22.67-.02.83-.42.78-.59s-.8-.25-.8-.25.02-.3.74-.54.84-.57.68-.79-1.06-.19-1.66-.25-1.4-.9-1.4-.9.38.17.84.15.82-.41.74-.68-.56-.2-.84-.28c-.28-.09-.58-.64-.58-.64a3.25 3.25 0 0 0 .75 0c.37-.05.38-.47.84-.44s.44-.51.4-.58-.1.07-.34.09-.02-.26-.77-.33c-.76-.07-1.95-.9-1.8-1.01s.66-.23.67-.44-.74-.4-.8-.69-.41-.5-.41-.89 0-.8-.21-1.27c-.22-.47-.09-.99-.06-1.58s-.29-2.46-.43-2.47c-.15 0-.18 3.87-.28 4.19-.44.53-.14 1.25-.71 2.44-.57 1.18-1.4 1.34-1.39 1.6s.98.43 1.61.16c-.86 1.8-2.57 1.61-2.72 2s.63 1.33 1.9 1.04c-1.02 1.19-1.85.85-2.11 1.34s.66 1.32 1.46 1.03c-.34.86-.95 1.24-1.57 1.89s-1.72.64-1.88 1.13c-.16.5.74 1.13 1.75 1.1-.48.86-1.4.98-1.82 1.12s-1.12.74-1.42.59-.67-.91-1.03-1.56c0 0-.51-.65.61-.81 1.12-.15 1.37-1.11 1.04-1.7-.33-.6-1.55-.26-2.14-1.34 3.95-.04 3.87-2.04 3.59-2.45-.28-.42-1.15-.12-2.42-.68s-2.88-.83-4.52-4.12c1.2.99 5.75 1.9 7.16 1.19-1.73-.22-6.02-2.64-6.18-3.17s-.45-.93-.45-.93.46.32 1.32.55c.86.24 1.58 0 2.05-.14.47-.15.82-.64.3-.97-.52-.34-2.07-1.14-3.04-1.72.63-.05.77-.43.75-.69s-.09-.51-.56-.74c-.47-.24-.7-.18-.97-.77-.26-.6-.72-.84-.98-1.47l-.86-2.37s.65 1.01 1.72 1.43c-.65-2.12-2.57-4.78-2.56-5.68.02-.89-.24-1.31-.55-2.16s0-1.37-.48-1.37-.12 1.11-.46 1.57.02.87-.15 1.77c-.17.89-.66 1.45-1.12 2.17s-1.36 1.77-1.36 1.77.73.55 2.14-.42c-1.63 2.03-2.7 1.34-2.78 2.11-.08.78 1.59 1.42 1.59 1.42s-.1.51-1.68.66l-1.53.17c-.34-.24-.52-.5-.52-.5s.89-.06 1.48-.77c-.32.16-2.88.27-3.12.07-.25-.2-.97-.28-1.43-.58-.47-.29-.41-.81-.33-1.16.18.16.42.15.55.12.13-.04.28 0 .54.12.27.12.58 0 .64-.23s-.02-.61-.61-.9-1.2-1.03-1.3-1.27.03-.31.14-.22c.37.31 1.4.36 1.81.4s1.28-.19 1.28-.19-.95-.11-1.78-.54c.57-.3.64-.45.62-.61s-.47-.14-.93-.5-.64-.73-.68-1.05c-.04-.31-.37-.56-.34-.9s-.38-.94-.55-1.42.01-.93 0-1.56-.39-1.85-.49-2.47l-.07 2.65c-.06.3-.18.68-.18 1.14s-.24.49-.16 1.21-.27.83-.28 1.35-.56.75-1.01 1.15-.95.1-.98.26c-.08.58 1.25 1.25 1.25 1.25l-1.02.53s.67.51.93.46.93-.51.93-.51-.11.95-.04 1.14c.06.19.17.36.13.46s-.61.31-.86.47-.95.1-1.09.15-.09.52-.05.87-.19.7 0 .98c.2.28.47.52 1.02.71s.68.55.48.7-1.39 1.13-2.28 1.53-1.74-.68-2.27-.37.15 1.85.43 2.4 1.6 1.1 1.6 1.1-1.44.96-2.01 1.01-1.62-.48-2.4-.45c.52.62 2.02 1.19 2.02 1.19s-.42-.05-1.09.46c.97.26 1.93.14 2.24-.01s.8.18 1.19.13.68-.53.97-.6.64.29.89.21c.25-.07.41-.36.46-.14.05.21-.25 1-.64 1.65-.39.66-.79 1.15-1.09 1.41s-.85.59-1.25.93c-.4.33-.76.19-1.93.44-.57.12-1.21-.03-1.72-.22l-.27-.24c.32.06.57-.18.97-.4s.53-.73.33-.98-.45-.02-.94-.12-.97-.56-.97-.86.15-.34.18-.63c.03-.28-.27-.6-.22-.82.04-.22-.03-.69-.22-1.09-.19-.41-.62-1.62-.64-2.18s-.15-1.12-.48-1.07-.23 1.65-.22 2.04c.01.4-.2.57-.18 1.03s-.04.58-.09.95c-.06.37.13.36.05.72-.09.36.31.68.31.8s-.01.15-.3.39.01.83-.06.83-.27.16-.26.46-.1.52-.39.55-.59.4-.82.4c-.17 0-.31-.02-.46.11-.61-.12-1.66-.89-1.66-.89s.72.26 1.29 0c-.62-.2-1.35-.66-1.93-1.07.26-.22.32-.45.32-.45s-.11.19-.7.12a1.17 1.17 0 0 0 .22-.46c.06-.02.11-.04.14-.08.19-.21.1-.47.19-.48.09 0 .16.11.43.61s1.53.74 2.02.85.82-.13.83-.4-.08-.24-.44-.23c-.37 0-.99-.9-1.32-1.49.73.21.67-.4.92-.18s.96.33.93-.04-.74-1.25-.94-1.55-.36-.1-.63.14c-.27.23-.6-.19-1.75-.24-1.16-.05-1.85-.75-2.21-1.05s-.38-1.38-.26-1.58c.11-.2.62-.13.8-.37s.08-.78-.25-1.21c-.32-.43-.55-.94-.45-1.61s-.11-.83-.39-1.28-.22-1.14-.26-1.59c-.04-.46-.34-2.32-.34-2.32l-.2 1.63c0 .35-.03 1.13-.24 1.43s-.33 1.13-.24 1.37 0 .63-.36 1.02c-.37.4-.27.77-.15 1.18.12.42.48.51.63.53s.3.2-.32.46c-.61.26-1 1.05-1 1.05a3.16 3.16 0 0 0 .69.29c.39.11.95-.39.95-.39l-.55.88c-.09.1-.37.07-.57.1-.56-.43-1.45-.45-1.65-.92-.29-.68-1.57-2.98-1.6-3.93s-.43-1.61-.44-1.91.17-1.49-.39-1.55-1.1 2.88-1.1 3.62-.41 1.17-.66 2.25c-.25 1.07-.61 1.43-.96 1.79s-.52 1.29.09 1.45.95-.43.95-.43.02.51.52.68c-.5.2-1.02.95-1.1 1.52-.08.58-.73.87-1.25.81s-.77-.11-.84.06.11 1.08.87 1.35 1.55-.04 1.55-.04-.14.65-.58.7-.82-.34-.88.16c-.03.25.24.55.65.75l.1 1.75-1.44 1.22c-.4.51-.75.23-1.28.47s-.7.65-1.21.79-.88.12-1.03.66.45 1 1.39 1.14c.94.15 2.5.04 2.5.04l-.62.76.89-.02s-.91 1.34-1.85 2.05-1.44.98-2.51 1.23c-1.07.24-1.2.3-1.76.17s-.85-.54-1.27-.12c-.41.43.77 1.41.77 1.41s-1.77-.87-1.85-1.36c.65-.29.48-1.3.48-1.3s.84.04 1.34-.14.92-.65.92-.65-1.25.26-1.73-.06c.9-.21 1.22-1.43.25-1.48-.97-.04-1.11-.37-2.1-1.71-1-1.34-.29-4.78-1.42-4.65-1.13.14-1.05 6.19-1.05 6.19s-.37-.02-.62 1.22c-.24 1.24-.89 1.83-1.36 2.06s-.59.44-.79.85c-.19.41 0 .63.31.52.3-.11.32.21.77.43s1.2-.12 1.2-.12l-1.27 1.85c-.33.47-1.51.68-2.55.48.25-.09.61-.11 1.1-.13-.51-.43-2.06-.6-2.56-.53-.51.07-2.13-.3-3.54-1.36l-3.39-2.49s2.63 0 3.5.48c-.32-.91-1.17-1.26-1.43-1.65-.25-.39-1.18-.99-1.43-1.8-.24-.81-.83-1.15-1.35-2.28s-.75-2.88-.75-2.88l2.51 3.1c.97 1.03 2.43 1.69 2.85 1.69s1.01.37 1.98 1c-.45-.86-1.68-1.78-2.22-2.33s-1.17-1.81-1.5-2.71c.87-.15 1.39.31 2.1.59a13.48 13.48 0 0 1 1.52.75l-.92-1.14c.44-.43 1.03-.38 1.87.09-.54-.98-1.37-1.01-1.64-1-.28 0-1.21-1.11-1.7-1.56s-.82-.29-1.32-.4c-.75-.16-.69-.72-1.55-1.38s-1.57-2.06-1.57-2.06.81-.2 1.41.14 1.58.58 1.58.58l-.94-1.03s.99-.3.99-.74-.71-1.12-1.08-1.31l-1.75-.88c-.45-.28 0-1.04-1.02-1.32.55-.06.98-1.2.97-1.55 0-.35-1.16-.75-1.3-1.15s-.06-.64-.14-1.11-.53-.72-.55-1.32-.35-1.28-.38-2.18c-.02-.9.24-1.72-.26-2.7s-.23-1.96-.68-1.84-.11 5.23-.63 5.77c-.51.55-.26 1.9-.88 1.96s-1.29.63-1.28 1.53c0 .9 1.46.98 1.51 1.1s-.05.65-.25.88c-.21.22-.7.85-.61 1.38-.25 0-.54.53-1.06.76s-1.03.09-1.13.09c-.09 0-.67.7-.08 1.72s1.71 1.14 1.71 1.14-.69 1.42-1.22 2.09-.73 1.24-1.09 1.41c-.35.17-.89.51-.96.68s-.35.34-.84.23c.43.57 1.01.38 1.37.44s1.07-.04 1.28-.3.97-.56.97-.56l-2.15 2.8c-.95 1.28-2.32 1.49-2.3 2.18s1.69.84 1.69.84l-1.48.68s1.39.05 1.67-.11.89-.61 1.4-.94c.5-.33 1.55-2.04 1.55-2.04l-.69 2.33c-.3.89-1.59 1.27-1.57 1.65.02.39 1.04 1.23 1.04 1.23s-1.23.59-2.43.42c-1.21-.17-1.92-1.46-2.22-1.22s.54 1.83.54 1.83-1.45-1.15-1.6-1.74-.77-1.98-.77-1.98 1.3.25 1.75-.51c.34.21.9.11.9.11s-2.24-2.11-3.08-3.45-1.8-4.47-1.8-4.47l1.81 2.84 1.02 1.11s.08-.4.1-.91c.43.5 1.26.59 1.26.59s-2.13-2.21-2.36-2.85c.89.2 2.29-.53 2.99-1.36-1.01.39-2.44.03-2.44.03s1.39-.1 2.57-1.9c-.58.66-2.59.74-3.45.41.6-.14 1.19-.55 1.19-.55s-1.13.15-1.32-.23.22-1.93-.26-2.36-1.51-1.72-1.51-1.72h.34s-.11-.42-.27-1.38c.18.41.91 1.01.91 1.01l-1.26-3.1c-.13-.33-.14-.9-.16-1.49-.01-.59.05-1.4-.09-1.75s-.07-1.46-.19-1.41c-.13.05-.27 1.29-.27 1.68s-.21.56-.29.83c-.08.28-.11.67-.12 1.37 0 .7-.27.95-.46 1.37-.18.42-.81 1.3-.93 1.94-.11.65-.15 1.18.04 1.28.2.09.33-.14.38-.14s.04.79.04.79-.37.03-.7.52c-.33.48-.26.75-.26.75s-.17.02-.29.16-.06.42-.06.42-1.24.71-1.22 1.06.25.5.25.5l-.64-.05c.44.81 2.13 1.28 2.64.94-.22.91.58 1 .58 1s-.48.08-.95.93c.83 0 1.5-.21 1.5-.21s.31 1.42-.54 2.19-2.11.91-3.79.55-3.03-2.47-3.03-2.47-.03.8.21 1.29.13.87.2 1.25 1.73 2.44 3.38 2.63c-.54.08-1.42.72-1.75.94s-.94-.57-1.33-.14.22 1.06.65 1.67c.43.62 2.41.85 2.41.85s-1.42.95-2.4.83c.88.81 2.99.27 3.26.16.26-.11 1 .64.84.87s-.12.81-.12.81-.7.04-1.05.42c-.35.39-1.71 1.37-2.19 1.47s-1.29-.37-1.55-.21 0 .76.09 1.42.45.95.76 1.05.68.72.68.72-.42.59-1.32 1.05-1.76 1.03-1.76 1.03l.4.42c-.84-.22-.88-.11-1.57.22-.69.32-.98-.83-1.48-.23s.51 2.43.79 2.87c.28.45 2.08.98 2.08.98s-.12.25-.45.3-.79-.08-1.09.37-.3.91-.02 1.21l.61.72h-.25c-.97-.02-1.19.36-1.68.23s-.9-.4-1.02-.79c-.13-.39-.07-1.06-.55-1.53.79.21 1.42-.31 1.34-.85.47.07 1.05.04 1.05.04s-1.07-.48-1.98-2.2-.98-3.12-.98-3.12a1.76 1.76 0 0 0 1.54 1.02c-.02-.36-.62-1.1-.62-1.1s1.69.75 2.36.22c-.29.01-.49-.27-.08-.5.94.07 1.68-.37 1.69-.66.01-.3-.13-.46-.8-.32-.68.14-2.63-.99-2.79-1.39.45-.22.81-1.1.58-1.94-.23-.83-1.42-1.54-1.42-1.54s.17.03.44-.58c.26-.61-.29-1.13-.29-1.13s.95-.23 1.44-.58c.48-.35.78-1.08.64-1.1-.14-.03-.56.19-.9.41-.33.22-2.62-.18-2.76-.55s-.12-1.36-.12-1.36.82.85 1.57.6c-.48.01-1.23-1.17-1.23-1.17s.39.23.54.19c-.98-1.19-1.57-5-1.61-6.1s-.19-1.92-.34-1.89.06 1.36-.22 1.59-.16 1.26-.2 2.18l-.29 3.19c-.18.58-.76 1.58-1.1 1.66s-.98-.02-1.1 1.02.78 1.95.78 1.95-.34.13-.49.44c-.14.31-.71.62-.71.62s-.13-.24-.49-.25c-.37-.01-.48.65-.48.65s-1.01-1.26-1.56-1.56c.32 1.51 1.89 3.13 1.89 3.13l-1.67-.43c.51 1.09 2.84 1.52 2.84 1.52s-.05.27-.27.54c-.23.27-.83.59-1.32.52s-.95.13-1.55.45-.74-.21-1.76-.37c-1.03-.16-1.07.5-.7 1.61s1.46 1.83 1.46 1.83-1.16.02-2.16-.64c.88 1.32 3.61 2.02 4.07 2.02s.69.21.9.46.36.87.12.96-.17.82-.6.73-.87.23-1.4.37c-.54.14-1.49.24-3.68-.71.37.79 1.82 1.27 1.82 1.27s-.83-.09-1.49-.34c.14.48 1.33 1.05 1.58 1.54.25.48 1.04.98 2.09 1.72-.55.02-2.63-.25-4.49-1.07.23.34.9.73.9.73s-.05.25-.09.95 2.27 2.46 2.25 2.57-1.29.51-1.54 1.27c-.25.75.44 4.19.19 4.73-.24.54-.79 1.08-.98 1.97s-1.41 1.47-2.14 2.8-.21 2.53-.21 2.53l111.87-.25v-.06l19.1-.04 24.35-.05 79.17-.18 299.39-1.21s.56-1.08-.17-2.41zm-479.85-13.95c.01-.11.03-.23 0-.46-.09-.52-.42-1.28-.95-1.63-.53-.36-1.11.16-1.39-.05s-.66.3-1.37-.39-1.08.04-1.56-.38-.59-1.23-.59-1.23.67.47 1.93.76 1.95.12 1.95.12l-1.09-.63s.72-.54 1.19-.61 1.01-.18 1.32-.82c-.37-.21-1.59.02-2.71-.09-1.13-.11-3.25-1.92-3.25-1.92s1.8.39 3.09.75 2 .29 2.47.05.77.07.99-.31a.55.55 0 0 1 .07-.09c.35.43 1.32 1.02 2.2.88-.92.76-.08 1.87 2.06 1.98-1.4 2.67-3.19 3.85-4.34 4.07zm13.87-3.38l-1.03.95c-.52-.28-.89-.55-.89-.55a8.47 8.47 0 0 0 .61.81l-.48.44-.64-.55c-.08-.26-.18-.53-.31-.74 0 0 2.11-.83 1.73-1.71s-2.1-1.18-2.41-1.32-.69-.82-.69-.82.25.11 1.64.32 1.61-.22 1.06-.72-1.43-1.34-1.43-1.34 1.49.34 2.63 0c-.22.21-.46.87-.53 1.33-.43-.08-.73-.21-.73-.21s.47.76.93.93c.45.17.87.17.9.23.03.05.08.24-.41.42s-.76.54-.76.54.7.37.99.27a2.88 2.88 0 0 1 .21-.06h0c.25-.05.56-.06.74 0l-1.6 1.77h.47zm3.73-15.98l-.28-1.42c.39.16.89.22 1.38.07-.21.47-.64.93-1.1 1.35zm5.47-6.21s-.01-.08-.01-.13c0-.17.13-.17.3-.13-.09.09-.19.18-.29.26zm4.47 2.95s.44.06.74 0a2.59 2.59 0 0 1-.46.24l-.29-.23zm2.54 7.7c-.3.36-.59.62-.84.8-1.1-1.21-1.27-2.31-1.34-3.12.07 0 .13-.01.19-.02 1.29 1.13 2.44 1.25 2.44 1.25s-.6-.43-.93-.72c-.19-.17-.44-.52-.62-.8.05-.02.09-.04.13-.06.26.2.6.44.79.44a1.36 1.36 0 0 1 .92.29c.24.17.45.16.62.11-.27.44-.69 1.02-1.36 1.83zm1.89-2.93l-.14.35c-.55-.07-1.45-.93-1.35-1.05.05-.07.41-.1.79-.12.57.16 1.24.25 1.24.25s-.37.15-.53.58zm3.99.77s2.07.23 2.32-.01c.15-.15.56-.32.84-.42.3-.02.5-.08.5-.08s-.15.22-.94.63c-.6.31-1.31.59-1.94.66-.54-.37-.78-.78-.78-.78zm4.02 6.25c-.05.27-.2.55-.42.82-.8-.33-1.51-.93-2.56-2.02.6.04 1.14-.59 1.14-.59s.71.27 1.92 0c.13-.03.26-.07.39-.12-.1.34-.27.77-.47 1.91zm4.06-2.58c.7.23.79-.24.91-.32.09-.06.3.17.7.62l-.02.04c-.47-.03-1.01.01-1.4.06l-.19-.39zm2.55 2.91l-.19.09c-.28-.29-.58-.58-.9-.82-.49-.36-.77-.77-1-1.22.37.18.81.34 1.21.33.34 0 .73.09 1.19.16a12.42 12.42 0 0 0 1.16.72s-.1-.25-.32-.64c.27 0 .57 0 .89-.05a5.16 5.16 0 0 0 .85.2c-.79.5-2.03.84-2.87 1.23zm.67-4.3a7.32 7.32 0 0 0 1.78-.64c-.57.33-1.13.57-1.64.82l-.15-.18zm-.06-5.48c-.37-.23-.67-.48-.85-.72-.68-.93-1-1.91-1-1.91s.51.58.86.55c.36-.03.82-.28 1.05-.03s.82.2 1.18 0 .95-.1 1.38-.2l.42.01.31.06c-.94.97-2.16 1.7-3.34 2.24zm.86-5.41c-.3.05-.55.07-.78.06a4.73 4.73 0 0 1-.76-.79c-.44-.62-.25-1.26-.09-1.48a13.6 13.6 0 0 0 .32.09c.08.1.16.23.22.31.12.14.77.23 1.16.14s.77.14 1.13.08c.11-.02.23-.06.34-.11.12.77 1.46.81 1.46.81s-.81.54-3 .9zm26.9 30.11l-1.43-1.31s1.88.29 3.15-.28c-.71 1.13-1.72 1.59-1.72 1.59zm2.06-6.62l-.58-.72 1.29-.11-.71.84zm2.94 1.55c-.44-.16-.97-.29-.97-.29l1.56-.97s-.09.67-.6 1.26zm10.88-.88s0-.03-.02-.09c.03.01.06.02.08.04l-.06.06zm1.91-7.16s-.08-.03-.11-.05l.2-.05c-.03.03-.06.06-.09.1zm1.06-3.46c-.94.71-1.44.98-2.51 1.23l-.97.21c-.44-.37-.73-.46-.73-.46s2.15.25 3.1-.42c-1.22-.33-1.19-1.17-1.19-1.17s1.56.17 2.5.08a4.3 4.3 0 0 0 .47-.09 5.78 5.78 0 0 1-.69.63zm1.18-2.3a14.6 14.6 0 0 1-1.01-.46l1.42-.04-.41.5zm.04-3.6c-.4.51-.75.23-1.28.47s-.7.65-1.21.79c-.43.11-.75.12-.94.44-.17-.13-.3-.24-.38-.33-.59-.67-1.6-1.19-1.73-1.53.31.08.45-.16.45-.16s1.15.01 1.73.22c.59.21 1.78-.04 2.1-.31s1.52-.51 1.96-1.27c-.95.57-2.83.14-3.1-.21.39.13 1.25-.86 1.73-1.32s1.21-.33 1.38-.84a2.12 2.12 0 0 1 .2-.4c.64.1 1.23-.12 1.23-.12s-.14.65-.58.7-.82-.34-.88.16 1.07 1.2 2.17.88c-.53 1.18-2.45 2.33-2.85 2.84zm12.31 7.87l-1.58.76s-1.2-.7-1.59-1.23c.74.43 3.17.48 3.17.48zm-2.02 2.67h2.02l-1.22.72-.81-.72zm2.03 3.36l-.55-.97h1.38l-.83.97zm13.65-6.4l-1.66-.7c-.06.13.15.46.61 1.37-1.41-.18-2.23-.73-3.77-2.32.6.04 1.14-.59 1.14-.59s.71.27 1.92 0c.32-.07.65-.22.98-.42l.17-.02s.04.83-1.17 1.18c.96.66 3.1.39 3.1.39s-.57.22-1.32 1.11zm-.33-6.6c-.32.37-1.53 1.17-2.75 1.8-.11-.04-.24-.08-.33-.13-.43-.22-.98-.54-1.58-.93s-.87-.84-.87-.84 2.07.23 2.32-.01 1.13-.52 1.13-.52-1.23-.04-1.72-.39c.37-.12.77-.48 1.08-.8.05.03.11.05.15.08.32.27 1.52.51 2.1.29s1.73-.25 1.73-.25.14.24.45.16c-.12.34-1.13.87-1.71 1.55zm8.2-10.93c-.05-.04-.1-.07-.15-.1.07-.02.12-.02.19-.04-.03.05-.02.09-.04.14zm7.35 4.51c.51.42 1.62.82 2.84 1.09-.04.05-.06.1-.16.09-.24-.02-.3-.16-.34-.09s-.05.61.41.58.48.39.85.43.75-.02.75-.02-.29.56-.58.65c-.28.09-.77.03-.84.3-.05.19.12.45.4.58-1.02-.48-2.16-1.28-3.33-3.62zm4.09 3.94l-.71-.3c.09.04.19.07.3.07.46.01.84-.16.84-.16s-.18.19-.43.4zm5.47 3.39c-.17-.17-.33-.34-.47-.54.24.09.49.13.74.04-.08.19-.17.35-.27.5zm.38-2.39c-.39-.16-1.05-.19-1.82-1.07.23.05.42.02.61 0 .26.39.88.78 1.76.59-.19.22-.37.35-.54.48zm4.76-1.75c-.24-.17-.46-.57-.46-.57a3.25 3.25 0 0 0 .75 0c.37-.05.38-.47.84-.44s.44-.51.41-.58c-.04-.07-.1.07-.34.09s-.02-.26-.77-.33c-.46-.04-1.04-.35-1.43-.62 1.84-.16 4.08-.8 4.86-1.46-1.36 2.79-2.71 3.43-3.86 3.91zm10.77-7.02c-.09.07-.2.1-.3.15-.46-.17-.66-.3-.66-.3s1.38-.07 1.44-.89c.27.06.54.08.76.02-.33.48-.47.45-1.24 1.02zm12.37 8.21s.08.05.11.06c-.21.15-.55.24-.87.3l.76-.37zm-4.84 8.09c-.27-.18-.44-.24-.44-.24a7.9 7.9 0 0 0 .97.04c-.18.08-.36.14-.53.2zm1.95.3l.41-.81.31-.16c-.08-.02-.12-.06-.19-.09.07-.16.1-.27.08-.32-.02-.04-.19.03-.44.15-.62-.38-.63-.91-.63-.91s1.56.17 2.5.08c.4-.04.84-.2 1.25-.39a.9.9 0 0 0 .46.08c-1.52 1.62-2.33 2.17-3.74 2.37zm3.88-6.57l-1.57.95c-.41.21-1.03.39-1.62.62-.69-.42-1.26-.82-1.46-1.05-.59-.67-1.6-1.19-1.73-1.53.31.08.45-.16.45-.16s1.15.01 1.74.22c.55.2 1.59-.01 2-.26.27.1.61.24.75.38.25.24 2.32-.02 2.32-.02s-.26.46-.86.85zm8.77 12.16l-.83-.96h1.38l-.54.96zm1.2-2.65l-1.22-.71 2.02-.02-.8.73zm.35-2.64l-1.59-.74s2.43-.08 3.17-.52c-.39.54-1.58 1.25-1.58 1.25zm10.3-5.65s.68.04 1.42.02a14.96 14.96 0 0 1-1 .48l-.41-.5zm2.7 6.23s-.06-.08-.09-.1c.07.02.13.04.2.05l-.11.05zm1.97 7.14l-.07-.06s.05-.02.08-.04c-.01.06-.02.09-.02.09zm.43-9.2c-.22-.03-.51-.1-.97-.2-1.07-.23-1.57-.5-2.52-1.19a5.76 5.76 0 0 1-.7-.62c.16.04.32.07.48.08.94.08 2.5-.11 2.5-.11s.04.83-1.17 1.18c.96.66 3.1.39 3.1.39s-.28.09-.72.46zm-.94-5.96a2.82 2.82 0 0 1-.38.34c-.19-.31-.52-.32-.94-.42-.51-.13-.68-.54-1.22-.77s-.88.05-1.29-.45c-.4-.5-2.33-1.63-2.87-2.8 1.1.31 2.22-.41 2.16-.91s-.44-.1-.88-.15-.59-.69-.59-.69a2.65 2.65 0 0 0 1.23.11 2.12 2.12 0 0 1 .2.4c.18.51.9.37 1.38.82.49.45 1.35 1.44 1.74 1.3-.27.35-2.14.8-3.1.25.45.75 1.65.98 1.97 1.24.32.27 1.52.51 2.1.29s1.73-.25 1.73-.25.14.24.45.16c-.12.34-1.13.87-1.71 1.55zm11.4 15.9c-.51-.59-.61-1.26-.61-1.26l1.57.95s-.53.14-.96.31zm2.21-2.42l1.29.09-.57.73-.72-.83zm2.83 7.42s-1.01-.45-1.73-1.57c1.27.55 3.15.24 3.15.24l-1.41 1.33zm25.07-32.13c.11.05.23.09.34.11.36.06.74-.18 1.13-.09s1.04-.01 1.16-.15c.06-.07.14-.2.22-.31l.32-.09c.16.21.35.85-.08 1.48a4.6 4.6 0 0 1-.75.8c-.22 0-.48 0-.78-.05-2.19-.34-3.01-.86-3.01-.86s1.34-.05 1.45-.83zm-.59 4.82l.42-.02c.42.1 1.01-.01 1.38.18.37.2.96.25 1.18-.01s.69 0 1.05.02.86-.56.86-.56-.31.98-.99 1.92c-.18.24-.47.5-.84.74-1.19-.53-2.41-1.25-3.36-2.2l.31-.07zm3.04 7.75a3.15 3.15 0 0 0-.15.19l-1.64-.8c.68.33 1.27.52 1.79.62zm1.79 3.55c-.32.24-.62.54-.9.83-.06-.03-.13-.05-.19-.08-.84-.38-2.09-.71-2.88-1.2a4.91 4.91 0 0 0 .84-.21c.32.04.61.05.89.04-.22.39-.32.65-.32.65s.57-.32 1.15-.73l1.19-.18c.4 0 .84-.17 1.21-.35-.22.45-.49.87-.99 1.24zm1.25-1.8c-.39-.04-.93-.08-1.4-.04l-.02-.04c.39-.45.61-.69.7-.62.12.08.21.55.91.31a3.39 3.39 0 0 0-.18.39zm2.67-9.36c-.4-.65-.71-1.43-.66-1.64.05-.22.21.07.46.14.17.05.38-.07.58-.15.51 1.19 1.21 1.93 1.38 2.43.17.51.9.38 1.38.83.32.31.81.83 1.22 1.12h-.07c-1.17-.24-1.53-.09-1.93-.42s-.95-.65-1.25-.91-.7-.75-1.1-1.4zm2.03 12.3c-.22-.26-.38-.54-.43-.81-.21-1.14-.39-1.56-.49-1.9a1.9 1.9 0 0 0 .39.11c.28.06.53.08.76.09.41.19.84.35 1.24.38l.81.03c.08.02.17.05.25.04-1.04 1.1-1.74 1.71-2.54 2.05zm2.77-6.32c-.63-.06-1.34-.33-1.95-.63-.8-.4-.95-.62-.95-.62a3.13 3.13 0 0 0 .5.07c.28.1.69.26.84.41.25.24 2.32-.02 2.32-.02s-.24.41-.77.79zm4.23-7.21c-.26.34-.29.64-.59.7.11-.16.31-.41.24-.68-.09-.36.1-.34.04-.72 0-.03 0-.05-.01-.08a9.34 9.34 0 0 0 .77.28c.07.08.2.11.37.08.15.02.17.07.17.11s-.65-.14-.98.3zm5.88-3.4s-.08.07-.12.11c-.58-.41-.75-.45-1.04-.88.46.12 1.11-.03 1.47-.36 0 .4-.07.93-.31 1.14zm3.47 1.18a2.26 2.26 0 0 1-.29-.25c.18-.04.3-.04.3.13 0 .04 0 .09-.01.13zm5.53 6.14c-.47-.41-.9-.87-1.11-1.34.49.14.99.07 1.38-.09l-.26 1.43zm1.73 1.44c-.23-.26-.82-.67-1.42-1.17l.08-1.55a.35.35 0 0 0 .35.2c.46-.03.47.39.84.44.37.04.75 0 .75 0s-.3.56-.58.65-.77.02-.84.29c-.08.27.28.66.74.68s.84-.15.84-.15-.35.36-.76.63zm6.72 6.22a2.63 2.63 0 0 0 .7-.09c0 .3.06.79.46 1-.41-.14-.87-.38-1.17-.91zm4.48-3.4v-.32c.1 0 .18.02.29.02-.08.14-.19.21-.28.3zm11.05-12.2s-.06.06-.09.1c-.02-.04-.01-.08-.04-.12l.12.02zm-.3 1.09c.28.27.85.44.85.44l-.44.49c-1.11-.3-1.56-.59-1.56-.59s.72-.03 1.15-.35zm.61 15.26c-.34-.2-.64-.42-.78-.68.46.19.85.27 1.23.34l-.45.34zm.53-3.64l-.25-.13.26.11v.02zm.71-10.38l-.77-.16.4-.19c.59-.35 1.41-.16 1.41-.16s-.13.25-.33.57c-.21 0-.45-.02-.72-.06zm1.38 5.62l-.34-.14.47-.63s-.05.34-.13.77zm-.58-9.36a2.36 2.36 0 0 1-.23.13c-.86-.2-1.36-.47-1.36-.47s1.65-.03 2.34-1.13c.08.06.17.13.26.14-1.02.29-.56 1.05-1.01 1.33zm8.86 14.11c-.12.06-.29.11-.44.17-.27-.33-1.21-.71-1.47-1.46l-.71-2.32s1.06 1.69 1.57 2.02 1.12.77 1.41.93c.1.06.37.08.64.09l-1 .57zm1.58-.93l-.15.09-.89-.39s1.05-.11 1.48-.5l.43-.04s-.27.46-.87.84zm3.81-10.74c.11.04.22.08.33.1-.09.03-.22.05-.33.07v-.18zm.49 5.9c-.04-.22-.17-.37-.23-.36-.06 0 .16-.48-.02-.75.53-.72 1.63-2.66 1.63-2.66s-.67 2.26-1.38 3.77zm6.07 7.95c-.35-.19-.77-.21-.77-.21s.03-.58-.13-.81c-.06-.08.02-.24.14-.41.11.03.19.08.34.08.6 0 1.71-.26 1.71-.26s-.46.76-1.3 1.6zm15.88 2.09c.09 0 .15-.01.15-.01s-.07.03-.11.05c-.02-.01-.03-.02-.05-.03zm10.78 10.19s-.53.13-.96.3c-.51-.59-.6-1.26-.6-1.26l1.56.97zm-10.97-17.41s.14.24.45.16c-.07.18-.39.41-.76.69.01-.13.05-.26.03-.39-.02-.2-.08-.32-.14-.44l.41-.02zm-4.36.61s-.05.05-.08.07a.81.81 0 0 1-.65-.34c-.1-.12-.29-.28-.52-.47.38.02.74-.14.99-.33a5.93 5.93 0 0 1 .35.16c0 .31-.03.71-.1.91zm-.4-1.69c-.12 0-.24-.02-.35-.04.16.01.51-.19.51-.19s-.06.1-.16.23zm-1.01-2.29c-.06-.5-.44-.11-.88-.16s-.59-.7-.59-.7.59.22 1.23.12a2.12 2.12 0 0 1 .2.4c.17.51.9.38 1.38.83l.06.06c-.21.7-.47 1.32-.76 1.7-.24-.04-.47-.11-.66-.22.17.28.45.48.74.65-.2.23-.42.43-.63.5-.74-.59-1.86-1.43-2.25-2.29 1.1.32 2.22-.39 2.17-.88zm18.01 18.69l1.29.11-.57.73-.71-.83zm2.78 7.45s-1.01-.46-1.72-1.59c1.26.56 3.15.27 3.15.27l-1.42 1.32zm25.31-31.88c.11.05.23.09.34.11.36.06.74-.17 1.13-.08s1.04 0 1.16-.14c.06-.07.14-.2.22-.31.11-.02.21-.05.32-.09.16.21.34.85-.09 1.48-.14.2-.39.48-.76.79-.22 0-.48-.01-.78-.06-2.19-.36-3.01-.89-3.01-.89s1.34-.04 1.46-.81zm-.62 4.82l.42-.01c.42.1 1.01 0 1.38.2s.95.26 1.18 0 .69 0 1.05.03.86-.55.86-.55-.32.98-1 1.91c-.18.24-.47.49-.85.73-1.18-.54-2.4-1.27-3.34-2.23l.31-.06zm2.99 7.78l-.15.18-1.64-.82c.68.33 1.27.53 1.79.63zm1.77 3.56c-.33.24-.62.53-.9.82l-.19-.09c-.84-.39-2.09-.73-2.87-1.23a5.25 5.25 0 0 0 .85-.21 4.6 4.6 0 0 0 .89.05c-.22.39-.32.64-.32.64s.58-.31 1.16-.72c.46-.07.85-.17 1.19-.17.4 0 .84-.16 1.21-.34-.23.45-.5.86-.99 1.23zm1.26-1.79c-.39-.05-.93-.09-1.4-.06l-.02-.04c.4-.45.61-.68.7-.62.11.08.21.55.91.32l-.19.39zm4.67 2.99c-.22-.27-.37-.54-.42-.81-.2-1.14-.38-1.56-.48-1.9.13.05.26.09.39.12 1.21.26 1.92 0 1.92 0s.53.63 1.14.59c-1.05 1.09-1.76 1.69-2.55 2.02zm2.82-6.29c-.63-.07-1.34-.34-1.94-.65-.8-.41-.94-.63-.94-.63a3.13 3.13 0 0 0 .5.07c.28.1.68.27.84.42.25.24 2.32 0 2.32 0s-.24.41-.77.78zm4.76-1.55c-.17-.43-.53-.58-.53-.58s.67-.09 1.24-.25c.38.02.74.05.79.12.09.13-.8.98-1.35 1.06l-.14-.35zm2.74 3.72c-.26-.18-.54-.44-.84-.8-.68-.8-1.09-1.39-1.36-1.83a.67.67 0 0 0 .62-.11c.38-.27.59-.3.92-.3.19 0 .53-.24.79-.44a1.63 1.63 0 0 0 .13.06c-.18.27-.43.63-.62.8-.33.3-.93.73-.93.73s1.16-.12 2.44-1.26c.06 0 .13.02.19.02-.07.81-.24 1.91-1.34 3.12zm1.4-8.26c-.21-.09-.37-.18-.46-.24.3.06.74 0 .74 0l-.28.23zm4.75-3.2c-.1-.08-.2-.16-.29-.26.18-.04.3-.04.3.13 0 .04 0 .09-.01.13zm5.48 6.2c-.46-.42-.89-.88-1.1-1.35a2.14 2.14 0 0 0 1.38-.08l-.28 1.42zm7.17 13.3c-.31.14-2.02.45-2.4 1.33s1.73 1.7 1.73 1.7c-.12.21-.23.48-.31.74a18.21 18.21 0 0 1-.64.55l-.48-.44c.38-.45.61-.81.61-.81s-.37.28-.89.56l-1.03-.95h.47l-1.61-1.77c.18-.07.49-.06.74-.01h0a2.88 2.88 0 0 1 .21.06c.29.11.99-.27.99-.27s-.28-.36-.76-.54c-.49-.18-.44-.37-.41-.42s.44-.05.9-.23c.45-.17.92-.93.92-.93s-.3.13-.73.21c-.07-.46-.32-1.12-.54-1.33 1.15.34 2.63 0 2.63 0l-1.42 1.34c-.55.5-.34.93 1.06.72l1.64-.32s-.38.68-.69.82zm12.34 1.51c.47.07 1.19.6 1.19.6l-1.09.63s.69.17 1.95-.12c1.26-.3 1.93-.77 1.93-.77s-.11.81-.59 1.23-.85-.3-1.56.39-1.1.18-1.37.39c-.28.22-.86-.3-1.39.05s-.86 1.11-.95 1.64a1.14 1.14 0 0 0 0 .46c-1.15-.22-2.94-1.4-4.35-4.06 2.14-.12 2.97-1.23 2.05-1.99.89.14 1.85-.45 2.2-.89.02.03.05.06.07.09.22.38.52.07.99.31s1.18.31 2.47-.05 3.09-.75 3.09-.75-2.13 1.81-3.25 1.92c-1.13.11-2.34-.12-2.71.09.31.65.85.75 1.32.82z" fill="#0d0d0c" />

	<!-- northport, wa -->
	<!-- good! -->
	<g fill="#fff">
		<path d="M638.39 209.66c.54 0 .92.21 1.17.64s.36 1.07.36 1.92c-.02.1-.07.16-.15.18s-.14-.03-.18-.13c-.03-.27-.16-.53-.38-.78s-.58-.38-1.08-.38c-.54 0-1.08.21-1.63.63s-1.09.98-1.62 1.68-1.02 1.53-1.48 2.47a26.88 26.88 0 0 0-1.23 3c-.36 1.05-.65 2.14-.87 3.25a20.69 20.69 0 0 0-.38 3.23c0 .18-.02.31-.05.36-.03.06-.09.09-.18.09s-.14-.04-.18-.11l-.1-.26c-.75-2.76-1.67-5.21-2.74-7.33-1.07-2.13-2.28-3.82-3.64-5.07-.37 2.06-.89 3.88-1.57 5.47s-1.47 2.92-2.39 4c-.91 1.08-1.92 1.9-3.04 2.46a7.74 7.74 0 0 1-3.53.84c-.79 0-1.47-.1-2.06-.29s-1.07-.46-1.46-.79-.67-.73-.87-1.18-.29-.95-.29-1.48c0-.67.16-1.33.49-1.97a4.04 4.04 0 0 1 1.42-1.57c.08-.03.14-.02.18.05.03.07.03.14 0 .23a3.63 3.63 0 0 0-.72 1.02c-.18.38-.26.77-.26 1.19 0 1.05.35 1.9 1.05 2.54s1.76.95 3.16.95c2.41 0 4.43-.99 6.05-2.97s2.73-4.97 3.31-8.95c-.75-.6-1.52-1.07-2.31-1.39-.79-.33-1.61-.49-2.46-.49-.8 0-1.47.18-2 .55s-.91.77-1.14 1.21c-.05.05-.11.07-.16.05-.06-.02-.1-.07-.11-.15.15-.32.37-.64.65-.97s.62-.62.99-.88c.38-.26.79-.47 1.26-.63a4.35 4.35 0 0 1 1.44-.24 6.18 6.18 0 0 1 2.07.36c.68.24 1.33.59 1.97 1.04a1.87 1.87 0 0 1 .15-.34 3.37 3.37 0 0 1 .21-.34c.08-.1.14-.17.2-.21s.1-.03.11.04l-.05.64-.08.62c.74.59 1.43 1.28 2.1 2.1.66.81 1.27 1.69 1.83 2.65.56.95 1.07 1.96 1.52 3.03a27.63 27.63 0 0 1 1.15 3.23c.13-.92.33-1.87.6-2.86s.59-1.95.98-2.9a25.83 25.83 0 0 1 1.27-2.7c.46-.85.95-1.6 1.46-2.25.51-.64 1.03-1.15 1.57-1.53s1.07-.56 1.61-.56z" />

		<use xlink:href="#D" />

		<use xlink:href="#E" />

		<use xlink:href="#F" />
<!-- hp (Northport, Wa) -->
		<path d="M649.82 225.6c.75-2.88 1.62-5.47 2.6-7.78s2.01-4.28 3.1-5.9 2.19-2.87 3.3-3.75 2.17-1.32 3.18-1.32c.42 0 .75.1.99.29s.41.43.5.7c.09.28.1.57.04.89-.07.32-.19.6-.38.85-.05.05-.1.07-.15.05s-.08-.06-.08-.13c.08-.33 0-.65-.28-.95-.27-.3-.69-.45-1.28-.45a4.89 4.89 0 0 0-2.57.73c-.81.49-1.6 1.29-2.37 2.42s-1.52 2.63-2.26 4.49c-.74 1.87-1.49 4.19-2.26 6.97.25-.45.54-.88.87-1.28s.68-.75 1.07-1.05c.38-.3.79-.54 1.23-.72.43-.18.89-.26 1.36-.26.2 0 .35.05.44.15s.14.22.14.35c0 .22-.08.46-.23.73-.35.62-.64 1.26-.85 1.91s-.33 1.25-.33 1.78c0 .23.02.43.08.58.05.15.14.23.28.23.17 0 .35-.09.55-.26a2.53 2.53 0 0 0 .5-.59.12.12 0 0 1 .15.01c.05.04.07.09.05.14-.22.37-.52.69-.92.98-.39.28-.75.43-1.07.43-.28 0-.52-.08-.7-.24s-.28-.43-.28-.82a5.74 5.74 0 0 1 .09-.97l.23-1.02c.09-.33.2-.67.33-.99.13-.33.26-.62.41-.89.08-.2.13-.34.13-.43 0-.15-.08-.23-.25-.23-.32 0-.66.12-1.03.36s-.73.59-1.08 1.03-.69.98-1.02 1.59c-.33.62-.61 1.31-.84 2.06-.03.12-.17.23-.4.35a1.66 1.66 0 0 1-.78.18c-.17 0-.23-.08-.2-.23zm13.45-6.2c.37 0 .67.18.89.54.23.36.34.78.34 1.27 0 .69-.14 1.31-.41 1.87a4.94 4.94 0 0 1-1.09 1.46c-.45.41-.97.73-1.56.95-.59.23-1.18.34-1.78.34a2.26 2.26 0 0 1-.73-.1l-.77 2.64c-.23.94-.34 1.81-.34 2.61 0 .38.18.54.55.45.13-.02.26-.05.39-.1a1.58 1.58 0 0 0 .36-.2c.07 0 .1.03.11.1 0 .07 0 .13-.04.2-.1.05-.25.1-.44.16l-.61.18c-.22.06-.44.1-.65.14l-.55.05c-.13 0-.24-.03-.33-.1-.08-.07-.13-.17-.13-.3 0-.85.14-1.85.41-2.98.28-1.13.63-2.3 1.07-3.5-.1-.13-.16-.24-.18-.33-.02-.07.11-.14.38-.23l.7-1.81.75-1.78c.32-.69.46-1.11.44-1.28s-.13-.2-.31-.1c-.25.13-.53.37-.83.7-.03.03-.07.02-.11-.04s-.05-.1-.04-.14a6.41 6.41 0 0 1 .45-.44 4.31 4.31 0 0 1 .59-.44l.61-.34c.2-.09.38-.14.53-.14.18 0 .31.08.36.24.06.16.05.33-.04.51l-.85 1.98.58-.72c.22-.24.45-.46.69-.67.24-.2.5-.36.77-.49s.54-.19.8-.19zm-2.99 5.92c.4 0 .78-.08 1.13-.24s.66-.39.92-.7.47-.69.63-1.15.24-.99.24-1.59c0-.4-.08-.73-.23-.98s-.37-.38-.65-.38c-.39 0-.85.34-1.38 1.03-.54.69-1.03 1.65-1.48 2.89l-.15.41-.15.44c.27.18.64.28 1.13.28z" />

		<use xlink:href="#D" x="32.04" />

		<use xlink:href="#E" x="32.04" />

		<use xlink:href="#F" x="32.04" />
<!-- , Wa -->
		<path d="M683.36 224.07c.08.03.16.14.23.31.07.18.1.36.1.56 0 .55-.21 1.11-.63 1.67s-.96 1.03-1.63 1.42c-.07 0-.11-.02-.13-.08-.02-.05 0-.12.08-.2.35-.22.64-.49.87-.83s.34-.69.34-1.08-.09-.59-.28-.68c-.05-.05-.05-.14.01-.26.06-.13.15-.25.26-.38.12-.13.25-.23.39-.33.14-.09.27-.14.39-.14zm19.18.9c.07-.97.05-2-.04-3.1l-.26-3.19-.13-2.81c0-.84.13-1.51.4-2l-1.59 2.32-1.44 2.37-1.37 2.6-1.37 2.97-.49 1.28c-.08.27-.19.4-.34.4-.13 0-.22-.06-.26-.19s0-.35.14-.67a25.09 25.09 0 0 0 1.13-3.51c.28-1.17.47-2.28.55-3.34.08-1.05.08-2.03-.03-2.94-.1-.9-.3-1.69-.59-2.36s-.68-1.19-1.15-1.57-1.04-.56-1.69-.56-1.19.13-1.67.4-.88.62-1.21 1.07c-.33.44-.57.95-.74 1.53s-.25 1.18-.25 1.82c-.03.1-.09.16-.16.18-.08.02-.11-.02-.11-.1a6.77 6.77 0 0 1 .3-2.3 6.04 6.04 0 0 1 1-1.92 4.76 4.76 0 0 1 1.62-1.32c.64-.33 1.37-.49 2.17-.49 1.04 0 1.85.33 2.45.98.59.65.99 1.54 1.18 2.65s.19 2.41-.01 3.88-.59 3.03-1.15 4.67l1.51-2.94 1.77-2.94 1.97-2.72c.69-.86 1.38-1.62 2.08-2.27.08-.03.15.03.2.2s.04.3-.03.4c-.27.12-.5.3-.7.55-.28.37-.48.83-.59 1.39s-.17 1.18-.18 1.86l.09 2.13.2 2.23.15 2.17c.03.7.02 1.35-.05 1.93.42-.6.89-1.18 1.41-1.73l1.58-1.66 1.56-1.67c.5-.56.95-1.15 1.34-1.78s.71-1.3.95-2.01.36-1.49.36-2.32c0-.55-.08-.99-.24-1.31s-.38-.48-.67-.48c-.2 0-.37.1-.51.3a6.11 6.11 0 0 0-.41.68c-.05.03-.1.03-.15 0s-.08-.09-.08-.18a4.05 4.05 0 0 1 .79-1.33c.34-.38.68-.58 1.02-.58.55 0 .97.22 1.24.65.28.44.41.97.41 1.61 0 .97-.15 1.85-.46 2.65s-.72 1.54-1.22 2.23a16.74 16.74 0 0 1-1.72 2l-1.97 1.93-1.97 2.06a15.02 15.02 0 0 0-1.72 2.36 4.95 4.95 0 0 1-.36.48c-.11.12-.23.18-.36.18-.08 0-.14-.03-.16-.08s-.04-.12-.04-.2.01-.18.04-.28.04-.2.04-.3zm14.38-.73s.08-.03.13 0 .07.08.05.15c-.3.44-.64.78-1 1.04-.37.26-.72.39-1.05.39-.39 0-.63-.27-.74-.82-.11-.54-.05-1.19.16-1.95-.45.72-.94 1.33-1.47 1.85-.53.51-1.08.82-1.67.92-.4 0-.71-.18-.93-.55s-.33-.79-.33-1.28c0-.55.13-1.1.4-1.64a5.43 5.43 0 0 1 1.07-1.47 5.94 5.94 0 0 1 1.48-1.07c.54-.28 1.09-.41 1.64-.41.59 0 1.05.14 1.38.43.17-.12.38-.22.64-.3s.49-.13.69-.13c.07 0 .1.04.1.13-.38.47-.72.98-.99 1.54a9.78 9.78 0 0 0-.64 1.61 7.58 7.58 0 0 0-.28 1.37c-.03.4 0 .68.1.83.08.1.23.13.43.09s.48-.28.83-.72zm-4.82.65c.2 0 .45-.13.74-.38s.6-.59.92-1a15 15 0 0 0 .94-1.41 15.84 15.84 0 0 0 .82-1.58c-.07-.22-.22-.39-.46-.53-.24-.13-.52-.2-.84-.2-.38 0-.74.1-1.08.29s-.62.46-.87.8c-.24.34-.44.75-.58 1.23s-.21 1-.21 1.57c0 .37.06.66.19.88s.27.33.44.33z" />

	</g>
	<defs>
		<!-- H  (THE BUTCHER SHOPPE)-->
		<path id="B" d="M298.78 111.88l7.39-2.65c.35-.13.5.27.14.39l-.39.14c-.71.25-.74 2.13-.53 3.47l2.29 6.37 5.97-2.15-2.29-6.37c-.69-1.17-1.91-2.6-2.62-2.34l-.39.14c-.35.13-.49-.27-.14-.39l7.39-2.65c.35-.13.49.27.14.39l-.39.14c-.71.25-.74 2.13-.53 3.47l5.82 16.2c.72 1.25 1.94 2.68 2.65 2.42l.39-.14c.35-.13.49.27.14.39l-7.39 2.65c-.35.13-.49-.27-.14-.39l.39-.14c.71-.25.74-2.13.5-3.55l-3.25-9.04-5.97 2.15 3.25 9.04c.72 1.25 1.94 2.68 2.65 2.42l.39-.14c.35-.13.5.27.14.39l-7.39 2.65c-.35.13-.5-.27-.14-.39l.39-.14c.71-.25.74-2.13.5-3.55l-5.82-16.2c-.69-1.17-1.91-2.6-2.62-2.34l-.39.14c-.35.13-.5-.27-.14-.39z" />
<!-- E (THE BUTCHER SHOPPE)-->
		<path id="C" d="M317.81 105.05l12.03-4.32.99 2.75c.06.16 0 .26-.11.31-.08.03-.23 0-.28-.17l-.14-.39c-.25-.71-2.13-.74-3.55-.5l-3.22 1.16 3.19 8.88.94-.34c1.25-.72 2.68-1.94 2.39-2.72l-.11-.31c-.06-.16.03-.28.11-.31.12-.04.22 0 .28.17l1.69 4.72c.06.16 0 .26-.11.31-.08.03-.23 0-.28-.17l-.14-.39c-.25-.71-2.13-.74-3.55-.5l-.94.34 4.15 11.56 3.22-1.16c1.28-.64 2.71-1.86 2.42-2.65l-.14-.39c-.06-.16.05-.24.13-.27a.18.18 0 0 1 .27.13l1.02 2.83-12.03 4.32c-.35.13-.5-.27-.14-.39l.31-.11c.79-.28.82-2.16.58-3.58l-5.82-16.2c-.69-1.17-1.91-2.6-2.7-2.32l-.31.11c-.35.13-.5-.27-.14-.39z" />
<!-- o (Northport, Wa) -->
		<path id="D" d="M637.21 219.4c.59 0 1.02.18 1.31.53a1.92 1.92 0 0 1 .43 1.23 4.28 4.28 0 0 1-.39 1.82 6.36 6.36 0 0 1-.95 1.48c-.37.43-.78.76-1.22 1s-.83.36-1.18.36c-.57 0-1-.17-1.29-.51s-.44-.78-.44-1.32c0-.49.1-1 .31-1.53.21-.54.49-1.03.83-1.48a4.9 4.9 0 0 1 1.19-1.13c.45-.3.92-.45 1.41-.45zm-1.38 5.65c.52 0 .96-.27 1.32-.82.36-.54.54-1.29.54-2.25 0-.5-.1-.92-.3-1.26-.2-.33-.49-.5-.88-.5-.54 0-.97.26-1.31.78s-.5 1.28-.5 2.28c0 .59.1 1.03.31 1.32s.48.44.82.44z" />
<!-- r (Northport, Wa) -->
		<path id="E" d="M642.61 220.13c0 .25-.03.54-.08.85l-.2.98c.33-.8.7-1.43 1.1-1.88s.84-.68 1.31-.68c.25 0 .44.06.58.18a.59.59 0 0 1 .2.45c0 .17-.06.39-.19.65-.13.27-.23.45-.31.55-.03.02-.07.01-.1-.01-.03-.03-.05-.05-.05-.09a.39.39 0 0 0-.14-.3c-.09-.08-.23-.13-.41-.13-.59 0-1.12.4-1.59 1.19-.48.8-.92 1.94-1.32 3.43-.02.08-.08.16-.18.21-.1.06-.21.11-.34.15l-.39.1c-.13.03-.25.04-.35.04-.18 0-.23-.1-.15-.3l.44-1.14.39-1.24.3-1.22.2-1.09c.03-.25.05-.44.04-.58 0-.13-.08-.2-.21-.2-.17 0-.34.07-.51.21-.18.14-.34.32-.49.54-.07.05-.13.05-.19.01s-.07-.1-.04-.16c.1-.13.22-.27.36-.41s.3-.28.48-.4a2.75 2.75 0 0 1 .55-.31 1.53 1.53 0 0 1 .59-.13c.27 0 .45.06.55.19s.15.31.15.54z" />
<!-- t (Northport, Wa) -->
		<path id="F" d="M650.09 219.52c.08.03.12.08.1.14s-.09.1-.23.14l-.87.03-1.04.08a21.43 21.43 0 0 0-.83 2.4c-.22.78-.33 1.41-.33 1.9 0 .57.22.85.65.85s.92-.38 1.46-1.13c.05-.03.1-.03.14 0s.05.09.04.18c-.28.47-.64.87-1.08 1.22-.44.34-.86.51-1.28.51s-.76-.1-.97-.31-.31-.5-.31-.87c0-.49.12-1.15.35-2.01.23-.85.54-1.72.9-2.61l-1.21.2c-.08-.02-.1-.06-.06-.13s.12-.14.23-.21a1.78 1.78 0 0 1 .39-.2c.15-.06.29-.09.43-.09h.2c.07 0 .13 0 .2-.03l.68-1.41.7-1.23a1.34 1.34 0 0 1 .41-.31 3.45 3.45 0 0 1 .51-.21c.17-.05.3-.08.41-.09.11 0 .15.02.14.09l-.84 1.46-.79 1.68.97-.03h.92z" />

	</defs>
</svg>