<svg id="Layer_1" xmlns="http://www.w3.org/2000/svg" viewBox="0 0 774.9 346.2">
	<style>.cls-2{fill:#fff}.cls-5{font-family:FranklinGothic-Heavy,&apos;Franklin Gothic Heavy&apos;}.cls-5,.cls-6{fill:#a13d33}.cls-5{font-size:36.63px}.cls-14{letter-spacing:.02em}</style>
<!-- white bg -->
	<ellipse class="cls-2" cx="472.1" cy="208.3" rx="302.2" ry="137.3" />
<!-- black border -->
	<path d="M472 346.2c-80.8 0-156.8-14.3-214-40.2-57.2-26-88.8-60.8-88.8-97.7s31.6-71.7 88.9-97.7c57.2-26 133.1-40.3 214-40.3s156.8 14.3 214 40.3c57.2 26 88.8 60.7 88.8 97.7S743.3 279.9 686 306c-57 26-133 40.2-214 40.2Zm0-274.6c-166.2 0-301.5 61.3-301.5 136.7s135.3 136.6 301.6 136.6 301.5-61.3 301.5-136.6S638.3 71.6 472 71.6Z" style="fill:#131211" />
<!-- cleaver blade -->
	<path d="M452.7 61c-4.6-13.4-9.5-26.8-14.4-40.1a170 170 0 0 0-6.4-15.1A10.2 10.2 0 0 0 419.4.6h-.3c-9.3 6.2-18.7 12-27.7 18.6a655.4 655.4 0 0 1-63.5 40.3A785.5 785.5 0 0 1 271.7 88c-12.4 5.6-24.7 11.4-37.7 15.7-5.1 1.7-10.2 3.7-15.3 5.6-1.2.5-2.4 1.1-3.7 1.3l-.5.1h-.4l8 40.6c3.4-1.5 6.9 0 8.3 3.8a28 28 0 0 1 1.4 5.7c1.4 8.6 2.3 8 5 16.3.7 2.3 1.2 4.6 2 6.8l.2.3.7 1.6c.5 1.1.8 2.2 1 3.3l.1.4.7 2L470 110.3l-.2-.9c-.4-.8-.8-1.7-1-2.7l-.7-1.8c-.4-.7-.7-1.7-1.2-3.2-5.5-16.5-8.6-24-14.2-40.6Z" />
<!-- handle -->
	<path d="M212.5 110.1c-.6-.2-1.5.2-2.3.4l-14.1 3.6-61.5 15.3c-26.7 6.6-53.1 14-79.4 22l-40 12.2c-7.5 2.3-12 7.6-14 15A35.2 35.2 0 0 0 4.9 206c9 15.5 28.1 18.7 41 6.7 2.4-2.1 4.2-4.8 5.5-7.8a4.4 4.4 0 0 1 3-2.6l10.2-3 71.6-21.4 81.5-24.4a14 14 0 0 0 3.2-1.5l1.2-.6-8-40.9a5 5 0 0 1-1.5-.3ZM32.3 194.4a7.1 7.1 0 0 1-8 1 5.5 5.5 0 0 1-3.2-5.5 7.2 7.2 0 0 1 4.7-6.5c3.7-1.3 7.2-.2 8.6 2.5 1.5 2.9.7 6.4-2.1 8.5Zm81.5-33c0 2.9-2 5.5-5 6.6-3.2 1.2-6.6.2-8.1-2.4-1.7-2.7-1-6.3 1.7-8.6 2.3-2 5.7-2.5 8.2-1.2 2.2 1.2 3.3 3 3.2 5.6Zm78.5-18.6c-1 1.5-2.4 2.6-3.7 3.8-2.4.5-4.4.5-6.4-.7a5.8 5.8 0 0 1-2.9-6 7.8 7.8 0 0 1 8.3-6.4c4.7.5 7.2 5.3 4.7 9.3Z" />
	<!-- THE BUTCHER SHOPPE -->
	<!-- good! -->
<!-- T -->
	<path class="cls-6" d="M332 70.5c.7 1 .4 1.9-.5 2.4l-.5.1c-1.8.7-5 .2-8 .6l6.2 17c.4.8 1.2 1.7 1.7 1.6l.2-.1c.2 0 .3.2.1.2l-.3.1c-2.2.8-2.5 3.4-5 4.4h-.2c-1.6.6-2.9 0-3.3-1.4-.3-1.3.2-2.4 1.2-2.8h1c-.9.4-1 1.4-.5 2.3s1.3 1 2 .7 1.9-1.3.9-4.2L320.7 74l-1.5.5a7 7 0 0 0-3.2 2c-1.6 1.7-1.3 3.5-.2 4.1.4.2.7.2 1 .1.4-.2.8-.7.7-1.3l-.2-.7a.6.6 0 0 1 .1-.8h.2c.2-.2.5 0 .6.2.2.4.4.8.2 1.6-.2.7-.8 1.2-1.4 1.5-1 .4-1.8-.1-2.4-.9.2 0 .2-.2.2-.4s-.3-.2-.4-.2c-.2.1-.3.3-.2.4l.2.3c0 2.4 2.1 3.5 4 2.9l1-.6c-.6 1-1.2 1.5-1.8 1.7-1.8.6-3.6-1-3.6-2.6-3.4-1-2.3-5.5 2-7.4l1.2-.5c5-1.8 9.6-1.1 12.2-1.8l.4-.1c1.6-.6 2-1.8 1.6-2.2-.2-.4-.6-.8-1.2-.6l-.3.2c-.4.3-.4.7-.3 1-1-.5-.7-1.7 0-2.1l.3-.2c.5-.1 1.2-.1 1.8.6.4.5.6 1.3.2 1.9Z" />
<!-- HE BUTCHER S -->
	<path class="cls-6" d="m327.4 77.3 4.7-1.7c.2-.1.3.1.1.2l-.2.1c-.5.2-.5 1.4-.4 2.2l1.5 4 3.8-1.3-1.5-4c-.4-.8-1.2-1.7-1.6-1.6l-.3.1c-.2.1-.3-.1 0-.2l4.6-1.7c.2 0 .3.2.1.3h-.2c-.5.2-.5 1.4-.4 2.3l3.7 10.3c.5.8 1.2 1.7 1.7 1.5h.3c.2-.2.3 0 0 .2l-4.7 1.7c-.2 0-.3-.2 0-.3h.2c.4-.3.5-1.5.3-2.4l-2-5.7-3.9 1.4 2.1 5.7c.5.8 1.2 1.7 1.7 1.6l.2-.1c.3-.1.4.1.1.2l-4.7 1.7c-.2 0-.3-.2 0-.2l.2-.1c.4-.2.5-1.4.3-2.3L329.4 79c-.4-.8-1.2-1.7-1.7-1.5l-.2.1c-.2 0-.3-.2-.1-.3Zm12.1-4.4 7.7-2.8.6 1.8v.2l-.2-.1-.1-.3c-.2-.4-1.4-.4-2.3-.3l-2 .8 2 5.6.6-.2c.8-.5 1.7-1.2 1.5-1.7v-.2c-.1-.1 0-.2 0-.2h.2l1 3v.3l-.2-.1v-.3c-.2-.4-1.4-.5-2.3-.3l-.6.2 2.6 7.4 2-.8c.9-.4 1.8-1.1 1.6-1.6V83c-.1-.1 0-.1 0-.2l.2.1.6 1.8-7.6 2.8c-.3 0-.4-.2-.1-.3h.2c.5-.2.5-1.4.3-2.3l-3.7-10.4c-.4-.7-1.2-1.6-1.7-1.4h-.2c-.2.1-.3-.1 0-.2ZM233.3 126c4.7-1.6 8.1-.4 10.4 1 1.5 1 2.4 2 3.3 1.7-.2 4-2.3 7-3.9 8.8 2.1 0 9.4-.1 13.6 4.4 1.8 7.5.9 16.5-7.5 19.5-5.4 2-12 .3-14.1-5.6-1.8-5 1-9.3 4.5-11l-4.1-11.6c-.7-1.3-2-2.7-2.7-2.4l-.4.1c-.3.1-.4-.3-.1-.4l7.5-2.7c.3 0 .4.3 0 .4l-.3.2c-.8.2-.8 2.1-.5 3.5l2 5.7c1.9-2.1 2.9-5 3-7-.8-1.5-4.2-5.5-9-3.8-4 1.4-6 5.1-4.7 8.5a5.2 5.2 0 0 0 4.2 3.6c-.4.4-.7.7-1.1.8-1.4.5-2.6-1-2.8-2.2-1.7.6-3-.2-3.8-1.8-1.4-3.5 1.8-8 6.4-9.6Zm5.8 30.2c1.5 4.2 6 5.2 10 3.8 5-1.8 8.2-8.3 4.4-14.5a6.2 6.2 0 0 0-2.5-2.4h-.9c-.8.3-1 1.4-.4 2 .3.3.7.3 1 .4l-.6.3a2 2 0 0 1-2.4-1c-.8-1.3 0-2.6 1.3-3a3 3 0 0 1 1.5-.2c0 .5.3.8.6.7l.2-.2c.3-.4 0-1-.6-.7-1.5-1.4-5-3-9-2.3l1.7 5c.4 0 .7 0 1 .2 4.6 1.4 4.9 5.8 3.2 6.6 1.5 1.6 2 3.6 1.3 5.2-.1.2-.3.4-.5.4-.8.3-2-.5-1.3-1.5l.4-1.3c0-1.3-.8-2.7-2-3.4a4.7 4.7 0 0 0-3.8-.2 4 4 0 0 0-2.4 2 5.3 5.3 0 0 0-.2 4.1Zm13.1-27.6 7.4-2.6c.3-.2.4.2.1.4h-.4c-.7.3-.7 2.2-.5 3.6l4.9 13.5a4 4 0 0 0 7.6-2.7l-5-13.6c-.6-1.1-1.8-2.5-2.6-2.3l-.3.2c-.4 0-.5-.3-.2-.4l4.7-1.7c.4-.2.5.2.2.4l-.4.1c-.7.3-.8 2.1-.5 3.5l4.7 13.1c1.2 3.5 0 7.3-3.5 8.5-3.4 1.2-7-.6-8.2-3.9l-4.8-13.5c-.7-1.2-2-2.6-2.7-2.3l-.3.1c-.4.1-.5-.3-.2-.4Zm17.5-6.3 17.3-6.2 1 2.8c0 .1 0 .2-.2.3 0 0-.2 0-.2-.2l-.2-.4c-.2-.7-2.1-.7-3.5-.5l-3.5 1.3 6.7 18.7c.7 1.3 1.9 2.7 2.7 2.4l.4-.1c.2-.1.4.3.1.4l-7.5 2.6a.2.2 0 0 1-.1-.4h.4c.8-.4.8-2.3.5-3.6l-6.7-18.8-3.5 1.3c-1.2.7-2.7 2-2.4 2.6l.1.4v.3l-.4-.1-1-2.8Zm23.5-8.4c1-.4 2-.5 3-.2h.2c.2 0 .3-.3.3-.4v-.3l.4.1 2.4 6.8c0 .1 0 .3-.2.3l-.3-.1c-1.8-3-3.9-4.8-5.4-4.2-2 .7-1.9 5.5.2 10.8 2 5.3 5.3 9 7.4 8.3 1.2-.5 1.7-2.5 1.3-5.2 0-.1 0-.2.2-.2l.3.1 1.9 5.2c0 .1 0 .2-.2.2h-.2c-.1-.3-.3-.4-.5-.3l-.2.1a5 5 0 0 1-2.4 1.9c-3.9 1.4-8.9-2.6-11.1-9-2.3-6.3-1-12.5 3-14Zm5.6-2 7.4-2.7c.3-.1.5.3.1.4l-.4.2c-.7.2-.7 2-.5 3.4l2.3 6.4 6-2.1-2.3-6.4c-.7-1.2-2-2.6-2.7-2.4l-.3.2c-.4.1-.5-.3-.2-.4l7.4-2.7c.3 0 .5.3.1.4l-.3.2c-.8.2-.8 2.1-.6 3.4l5.8 16.2c.8 1.3 2 2.7 2.7 2.5l.4-.2c.3-.1.5.3.1.4l-7.4 2.7c-.3 0-.5-.3-.1-.4l.4-.2c.7-.2.7-2.1.5-3.5l-3.3-9-6 2 3.3 9.1c.7 1.3 2 2.7 2.7 2.5l.3-.2c.4-.1.5.3.2.4l-7.4 2.6c-.4.2-.5-.2-.1-.3l.3-.2c.8-.2.8-2.1.5-3.5l-5.8-16.2c-.7-1.2-1.9-2.6-2.6-2.4l-.4.2c-.3.1-.5-.3-.1-.4Zm19-6.9 12-4.3 1 2.8v.3c-.2 0-.3 0-.4-.2l-.1-.4c-.3-.7-2.1-.7-3.5-.5l-3.3 1.2 3.2 8.9 1-.4c1.2-.7 2.6-2 2.3-2.7v-.6c.2 0 .3 0 .3.2l1.7 4.7v.3c-.2 0-.3 0-.4-.2l-.1-.4c-.3-.7-2.1-.7-3.6-.5l-.9.4 4.1 11.5 3.3-1.1c1.2-.7 2.7-1.9 2.4-2.7l-.2-.4.2-.2h.2l1 3-12 4.2c-.3.2-.5-.2-.1-.4h.3c.8-.3.8-2.2.6-3.6l-5.8-16.2c-.7-1.2-2-2.6-2.7-2.4l-.3.1c-.4.2-.5-.2-.2-.3Zm13.9-5 8.7-3c2.6-1 5.6.6 6.7 3.6.7 2 .3 4-.9 5.3l-1.1 1c1 .2 2 1 3 1.8 1.9 2 4 5.8 5.5 7.6.7 1 1.5.8 1.7.8l.6-.2c.2-.1.3.2.1.3 0 0-1.1 1-2.4 1.5-2.1.8-3.8-.8-5-2.6-1-1.9-2.4-4-3.2-5.3-1.1-1.8-2.1-2.6-4-2.4l-.4.1 3.2 9c.7 1.3 2 2.7 2.7 2.5l.4-.2c.3 0 .4.3.1.4L340 123c-.3.1-.4-.3-.1-.4l.4-.1c.8-.3.8-2.2.5-3.6l-5.8-16.2c-.6-1.2-1.9-2.6-2.7-2.3l-.3.1c-.4.1-.5-.2-.2-.4Zm5.8-1.1 3.2 8.8 1.3-.4c1.7-.6 2.4-3.1 1.6-5.4s-2.6-4.3-4.7-3.5l-1.4.4Zm52.1 8.9a6.3 6.3 0 0 0 2.8-2c0 1.8-1.4 3.6-3.6 4.4a7 7 0 0 1-4.8 0l-3.8-2.1c-1 1-2.2 1.8-3.6 2.3l-.8.3c-4.4 1-10-1-11.3-6.7-.7-3 .2-6.2 3.3-7.3 1.9-.7 3.2.4 3.1 1.6 3.9-.4 5.8 3.8 2.8 5.4a13 13 0 0 1 5.5 1.8c.5-1 .5-2.3.4-3.7a8.6 8.6 0 0 0-1.8-4.6c-1.2-1.5-2.6-1.8-3.5-1.5-.8.3-1.2.9-1.1 1.6-1-.8-.8-1.8-.3-2.5.1.1.3.1.4 0 .7-.2.4-1-.3-.8-.1 0-.3.2-.3.4l-5.2-.6c-2.5-.3-6.2-1.4-6.6-5.7-.2-3 1.9-5.2 4.4-6 .9-.4 1.8-.5 2.6-.6-.3-2.3.3-4 .9-5.1.2-.5.4-.7.7-.8 1-.4 2.2 1 1.1 2a5.3 5.3 0 0 0-1.5 4c3.9.5 5.5 3.8 3.2 4.9 0 1.5-1 2.6-2.2 3l-1.2.2c-1.7 0-3-1.9-1.9-3.6.3-.4.7-.7 1-.8.4-.2.8-.1 1.2 0a10 10 0 0 1-1-2.6c-.5 0-1 0-1.4.2-.4.2-.9.4-1.3.8-3.7 2.7-1.5 8.5 3 9l5.3.6c4 .3 7.7 2 8.7 6.6a9 9 0 0 1-1.1 6.7c2.8 1.3 5 2.3 8.1 1.2Zm-14.4 1.8a7.1 7.1 0 0 0 3.4-2.7c-2-1.4-4-2.7-6.3-3 0 0 1.4-1.4.7-3.2a2.4 2.4 0 0 0-3.1-1.4c-2.2.7-3 3.4-2.6 5.5.2-1 .8-1.9 1.8-2.2 1.4-.5 2.3.5 2.1 1.6.5 0 1.5.3 2.1 1.2.8 1.2.7 2.9-.6 3.5h-.2c-1.2.5-2.2-.5-2-1.4.2.2.8.5 1.4.3.3-.1.6-.4.7-.9.5-1.2-.8-2.6-2.2-2-1.2.4-1.6 1.7-1.2 2.9.2.5.8 1.5 2 1.9 1.3.4 2.7.4 4 0ZM370 86a.8.8 0 0 0-.7 0c-.7.2-1.1 1.5-.1 2.2.3.3.7.3 1 .2 1-.4 1.7-1.8 1-3.5a3.3 3.3 0 0 0-2.1-2.1c.2 1.2.6 2.3.9 3.2Z" />
<!-- H -->
	<path class="cls-6" d="m377.2 83.7 7.4-2.6c.3-.1.5.3.1.4l-.4.1c-.7.3-.7 2.1-.5 3.5l2.3 6.4 6-2.2-2.3-6.4c-.7-1.1-2-2.6-2.7-2.3l-.4.1c-.3.2-.4-.2-.1-.4l7.4-2.6c.3-.1.5.3.1.4l-.4.1c-.7.3-.7 2.1-.5 3.5l5.8 16.2c.8 1.2 2 2.7 2.7 2.4l.4-.1c.3-.2.5.2.1.4l-7.4 2.6c-.3.1-.5-.3-.1-.4l.4-.1c.7-.3.7-2.2.5-3.6l-3.3-9-6 2.1 3.3 9c.7 1.3 2 2.8 2.6 2.5l.4-.1c.4-.2.5.2.2.4l-7.4 2.6c-.4.1-.5-.3-.1-.4l.3-.1c.7-.3.8-2.2.5-3.6l-5.8-16.2c-.7-1.1-1.9-2.6-2.6-2.3l-.4.1c-.3.2-.5-.2-.1-.4Z" />
<!-- O -->
	<path class="cls-6" d="M398.5 89.3c-2.3-6.5-1-12.9 2.9-14.3 4-1.4 9 2.7 11.3 9.2 2.3 6.5 1 12.8-2.9 14.3-3.9 1.3-9-2.8-11.3-9.2Zm3.4-1.4c2.1 5.4 5.5 9.2 7.5 8.5 2-.8 2-5.7-.2-11.1-2-5.4-5.5-9.2-7.5-8.5s-1.9 5.7.2 11Zm5.7-1.9c-.8 2-.2 5.7-.2 5.7s-1.8-3.3-3.7-4.3c.8-2 0-5.7 0-5.7s2 3.2 3.8 4.3Z" />
<!-- P -->
	<path class="cls-6" d="m408.8 72.4 8.6-3.1c2.6-1 5.6.7 6.7 3.7.7 2 .3 3.9-.8 5.3a6 6 0 0 1-2.4 1.5l-3 1 3.3 9.1c.7 1.3 2 2.7 2.6 2.4l.4-.1c.4-.1.5.3.2.4l-7.4 2.6c-.4.2-.5-.2-.2-.4h.4c.7-.3.8-2.2.5-3.6L412 75c-.7-1.2-1.9-2.6-2.6-2.4l-.4.2c-.3 0-.5-.3-.1-.4Zm10.2 7.2c1.6-.6 2.4-3 1.6-5.4s-2.6-4.3-4.8-3.5l-1.3.5 3.2 8.9 1.3-.5Z" />
<!-- P -->
	<path class="cls-6" d="m422.5 67.5 8.6-3.2c2.6-.9 5.6.8 6.7 3.8.7 2 .3 3.9-.8 5.2a6 6 0 0 1-2.4 1.6l-3 1L435 85c.7 1.3 2 2.7 2.6 2.4l.4-.1c.4-.1.5.3.2.4l-7.4 2.6c-.4.2-.5-.2-.2-.4l.4-.1c.7-.3.8-2.1.5-3.6L425.6 70c-.7-1.1-1.9-2.6-2.6-2.3l-.4.1c-.4.2-.5-.2-.1-.3Zm10.2 7.2c1.6-.6 2.4-3 1.6-5.4-.8-2.3-2.6-4.3-4.8-3.5l-1.3.5 3.2 8.9 1.3-.5Z" />
<!-- E -->
	<path class="cls-6" d="m436.1 62.5 12-4.3 1 2.8v.3c-.1 0-.3 0-.3-.2l-.2-.4c-.2-.7-2.1-.7-3.5-.5l-3.2 1.2 3.1 8.9 1-.4c1.2-.7 2.7-2 2.4-2.7l-.1-.3v-.3c.2 0 .3 0 .4.2l1.6 4.7v.3c-.1 0-.3 0-.3-.2l-.2-.4c-.2-.7-2.1-.7-3.5-.5l-1 .4 4.2 11.5 3.2-1.1c1.3-.7 2.7-1.9 2.4-2.7l-.1-.4.1-.2h.3l1 3-12 4.2c-.4.2-.5-.2-.2-.4h.3c.8-.3.9-2.2.6-3.6l-5.8-16.2c-.7-1.2-2-2.6-2.7-2.4l-.3.1c-.4.2-.5-.2-.2-.3Z" />
<!-- MOBILE FARM SLAUGHTER -->
	<text transform="translate(201.7 266.9)" style="font-family:FranklinGothic-Heavy,'Franklin Gothic Heavy';font-size:43.66px">
		<tspan x="0" y="0">MOBILE </tspan>
		<tspan x="168.8" y="0" style="letter-spacing:-.03em">F</tspan>
		<tspan x="191.2" y="0">ARM SL</tspan>
		<tspan x="346.9" y="0" style="letter-spacing:-.02em">A</tspan>
		<tspan x="374.1" y="0">UGHTER</tspan>
	</text>
	<!-- website URL -->
	<text transform="translate(239.9 293.6)" style="fill:#a13d33;font-size:25.81px;font-family:FranklinGothic-Heavy,'Franklin Gothic Heavy'">
		<tspan x="0" y="0">ww</tspan>
		<tspan x="38.3" y="0" style="letter-spacing:-.02em">w</tspan>
		<tspan x="56.9" y="0">.theno</tspan>
		<tspan class="cls-14" x="134.5" y="0">r</tspan>
		<tspan x="144.9" y="0">thpo</tspan>
		<tspan class="cls-14" x="200.2" y="0">r</tspan>
		<tspan x="210.5" y="0">tbut</tspan>
		<tspan x="260" y="0" style="letter-spacing:.01em">c</tspan>
		<tspan x="273.8" y="0">he</tspan>
		<tspan x="304.2" y="0" style="letter-spacing:0">r</tspan>
		<tspan x="314.1" y="0">shoppe.com</tspan>
	</text>
	<!-- phone number -->
	<!-- good! -->
	<text transform="matrix(.996134 .087851 -.087851 .996134 516.96 102.3)" class="cls-5">
		<tspan x="0" y="0">5</tspan>
	</text>
	<text transform="matrix(.992332 .123601 -.123601 .992332 538.04 104.15)" class="cls-5">
		<tspan x="0" y="0">0</tspan>
	</text>
	<text transform="matrix(.98694 .161087 -.161087 .98694 559 106.75)" class="cls-5">
		<tspan x="0" y="0">9</tspan>
	</text>
	<text transform="matrix(.98176 .190124 -.190124 .98176 579.9 110.24)" class="cls-5">
		<tspan x="0" y="0">-</tspan>
	</text>
	<text transform="matrix(.975342 .220697 -.220697 .975342 589.54 112.01)" class="cls-5">
		<tspan x="0" y="0">6</tspan>
	</text>
	<text transform="matrix(.964049 .265724 -.265724 .964049 610.07 116.64)" class="cls-5">
		<tspan x="0" y="0">4</tspan>
	</text>
	<text transform="matrix(.948986 .315318 -.315318 .948986 630.32 122.19)" class="cls-5">
		<tspan x="0" y="0">0</tspan>
	</text>
	<text transform="matrix(.934702 .355433 -.355433 .934702 650.29 128.94)" class="cls-5">
		<tspan x="0" y="0">-</tspan>
	</text>
	<text transform="matrix(.916712 .399549 -.399549 .916712 659.36 132.22)" class="cls-5">
		<tspan x="0" y="0">6</tspan>
	</text>
	<text transform="matrix(.883275 .468855 -.468855 .883275 678.45 140.48)" class="cls-5">
		<tspan x="0" y="0">7</tspan>
	</text>
	<text transform="matrix(.835712 .549169 -.549169 .835712 695.66 149.46)" class="cls-5">
		<tspan x="0" y="0">6</tspan>
	</text>
	<text transform="matrix(.752989 .658033 -.658033 .752989 712.71 160.46)" class="cls-5">
		<tspan x="0" y="0">6</tspan>
	</text>
	<!-- mountains -->
	<path d="m734.5 222.1-1.2-.4c-2.8-1-5.8-1.3-8.9-1.3h-1.1c-8.2 0-6.6-7.8-12.4-13.6-3.9-3.9-8.8-6.7-13.2-10.2-6.2-5-12.7-9.6-18.4-15.1-4.9-4.7-9.8-7.8-16.6-5.3-3.4 1.3-5.5 0-7.8-2.6a942.5 942.5 0 0 0-24-26.2 34.3 34.3 0 0 0-8.1-6.2c-1.6-1-4-.5-6-.6-.4 0-.8.4-1.2.6-14.7 8.1-29.4 16.1-44 24.5-4.6 2.6-8.5 6.4-13 9.3a29.6 29.6 0 0 1-7.4 3.4c-2 .6-4.3.8-6.4.8-8-.3-13.8 4-19.4 9-4.2 3.8-8.6 7.5-13 11.2.3-1 .4-2.4 1-3.2 3.2-3.8 6.9-7.2 9.8-11.2a22 22 0 0 1 20.6-9.6 16 16 0 0 0 12.3-4.3c3.4-3 7.5-5 11.2-7.5 1.1-.8 2-2.2 2.3-3.5.1-.5-1.7-1.8-2.8-2.1-9.3-2.3-16.1-8.5-23.5-14.1-9.4-7.2-19.3-13.7-29.2-20.3-2-1.4-4.8-2.4-7.2-2.3-5.2.3-9.3-1.6-13-4.8-8-6.9-17.4-11.8-26.7-16.8-9-4.9-17.8-5.7-26.8.3-4.4 3-9.4 5.1-14.1 7.8-2.4 1.3-4.6 2.1-7.2.5-4.8-3-8.9-1.5-12.8 2-7 6.4-13.9 13.2-21.7 18.4-6.7 4.5-12.2 10.2-17.8 15.7-3.7 3.6-3.3 5.2 1.8 6.3a47 47 0 0 1 21.3 10.2c1.7 1.4 3.1 3.1 4.6 4.7l-1 1.1-4.8-3.5a41 41 0 0 0-19.8-8.9 19 19 0 0 1-7.6-3.3 34.7 34.7 0 0 0-16.5-7c-1.3-.1-3.1-.7-4.2-1.3-5-2.7-9.5-1.6-14.3 1.8-10.8 7.7-22.2 14.8-33.2 22.3-2.5 1.7-4.5 2.7-7.7 1.7-4.7-1.6-8.8.6-12.5 3.4a306 306 0 0 0-39.6 34.5l-.7.6a82.6 82.6 0 0 1-26.4 14.7 5.2 5.2 0 0 0-3.8 4.5l-.2 1c-.4 3.2 2 6.1 5.3 6.1l513.9-1.6h13l2-1.9a5 5 0 0 0-2-7.7Z" style="fill:#544c4c" />
<!-- trees -->
	<path d="M737 229.7c-.8-1.3-2-1.9-2.2-2.8-.2-.9-.7-1.4-1-2-.2-.5.5-4 .2-4.7-.3-.7-1.5-1.1-1.5-1.2 0-.2 2.3-2 2.2-2.6v-1l.8-.7c-1.8.8-4 1-4.5 1 1-.6 1.9-1.2 2.1-1.6s1.4-1.1 1.6-1.6c-.7.3-1.5.4-1.5.4s1.5-.5 1.8-1.3c-2.2 1-3.1.9-3.7.7-.5-.1-1-.4-1.4-.4-.4.1-.3-.6-.6-.7-.2 0 0-.7.1-1 .3-.2.5-.4 1-.4s3.1-.7 4-2c-1 .6-2.1.6-2.1.6s1-.7 1.4-1.8c.4-1.1.3-1.8-.7-1.6-1 .1-1.1.7-1.7.4-.6-.4-1.1-.6-1.6-.5-.5 0-1-.2-1.3-.5l-.3-.6s2.3-.4 2.8-1.5l-1.6.5s1.5-1.7 1.8-3.2c-.5.3-1.5 1.6-1.5 1.6s-.1-.7-.5-.7-.5.3-.5.3l-.7-.6c-.1-.3-.5-.5-.5-.5s1-.9.8-2c-.1-1-.8-.9-1.1-1s-1-1-1.1-1.6c-.2-.6-.3-2.3-.3-3.2 0-.9 0-2-.2-2.2-.3-.2 0-1.5-.2-1.6-.2 0-.3.8-.4 2 0 1-.6 4.9-1.6 6l.6-.1s-.8 1.1-1.3 1.1c.8.3 1.6-.6 1.6-.6l-.1 1.4c-.1.3-2.4.8-2.8.5l-.9-.4c-.1 0 .2.8.7 1.1.5.4 1.4.6 1.4.6s-.5.5-.3 1.1c.3.6.5.6.5.6s-1.2.7-1.4 1.6c-.3.8.1 1.7.6 2-.2.3-2.2 1.4-2.8 1.3-.7-.1-.9 0-.8.3 0 .3.7.8 1.7.7.4.2.2.5-.1.5.6.5 2.3-.2 2.3-.2s-.6.7-.6 1c1.2 0 1.5-1 1.5-1s0 1.4-1 3.2c-.8 1.7-2 2.2-2 2.2h1.1c0 .5.6 1 1.4.8-.5.4-.4 1.1-.6 1.5-.1.4-.5.7-1 .8-.5.1-.7-.3-1.7-.2h-.2l.6-.7c.3-.3.3-.8 0-1.3-.3-.4-.8-.3-1.1-.3s-.5-.3-.5-.3 1.8-.6 2-1c.4-.5 1.4-2.3.9-2.9-.5-.6-.8.6-1.5.2-.7-.3-.7-.4-1.6-.2l.4-.4-1.7-1c-1-.5-1.3-1-1.3-1s.3-.7.6-.8.7-.4.8-1c0-.7.3-1.3 0-1.5s-1 .3-1.5.3a7.8 7.8 0 0 1-2.2-1.5c-.3-.4-1-.4-1-.4l-.1-.8c-.2-.3.5-1 .8-1 .3.2 2.4.7 3.2 0-1 0-2.4-.9-2.4-.9s2-.2 2.5-.8c.4-.7 1-1.3.6-1.7-.4-.5-1 .3-1.3.1-.4-.2-1.2-.8-1.8-1 1.7-.1 3.3-2.2 3.4-2.6s0-.7.2-1.2.2-1.3.2-1.3-1.3 2.1-3 2.5c-1.7.3-3 .2-3.8-.6-.8-.7-.5-2.2-.5-2.2s.6.2 1.5.2c-.5-.8-1-.9-1-.9s.8 0 .6-1c.5.4 2.2-.1 2.6-1l-.6.1s.2-.1.2-.5c0-.3-1.2-1-1.2-1v-.5c0-.2-.3-.1-.3-.1s0-.3-.3-.8-.7-.5-.7-.5v-.8s.2.2.4.1c.2 0 .2-.6 0-1.2l-.9-2c-.1-.4-.4-.6-.4-1.3l-.1-1.4c-.1-.3-.3-.4-.3-.8l-.3-1.7c-.1 0 0 1-.2 1.4v1.7a5 5 0 0 1-.2 1.5l-1.3 3.1 1-1-.3 1.4h.3l-1.5 1.7c-.5.5 0 2-.3 2.4-.1.4-1.3.2-1.3.2l1.2.6c-.8.3-2.8.2-3.4-.4 1.2 1.8 2.5 1.9 2.5 1.9s-1.4.3-2.4 0c.7.8 2.1 1.5 3 1.3-.2.6-2.4 2.8-2.4 2.8s.9 0 1.3-.5v.9l1.1-1.1a33 33 0 0 0 1.8-2.9s-1 3.1-1.8 4.5c-.8 1.3-3 3.4-3 3.4h.9c.4.7 1.7.4 1.7.4l-.8 2c-.1.6-1.6 1.8-1.6 1.8s.9-1.6.6-1.9c-.3-.2-1 1-2.2 1.2s-2.5-.4-2.5-.4 1-.8 1-1.2-1.2-.8-1.5-1.7l-.7-2.3s1 1.7 1.5 2l1.4 1c.3.2 1.7.1 1.7.1l-1.5-.7s1.7-.1 1.7-.8c0-.7-1.4-1-2.3-2.2l-2.2-2.8s.8.3 1 .6c.2.2 1 .3 1.3.3.3 0 1 .1 1.4-.5-.5.1-.8 0-.9-.2 0-.2-.6-.5-1-.7-.3-.1-.5-.7-1-1.4-.6-.7-1.3-2-1.3-2s1.1-.2 1.7-1.2c.6-1 0-1.7 0-1.7s-.7.1-1.2-.1c-.5-.3-.8-.8-1-.8 0-.5-.4-1.2-.6-1.4-.3-.2-.3-.7-.3-.9 0 0 1.5-.2 1.5-1s-.7-1.5-1.3-1.6c-.6 0-.3-1.4-.9-2-.5-.5-.1-5.6-.6-5.7-.4-.1-.2.9-.7 1.8-.5 1-.2 1.8-.2 2.7 0 1-.4 1.6-.4 2.2 0 .6-.5.9-.5 1.3-.1.5 0 .8-.2 1.2-.1.4-1.3.8-1.3 1.1 0 .4.5 1.5 1 1.6-1 .2-.6 1-1 1.3l-1.8.9c-.4.2-1 .8-1 1.3 0 .4 1 .7 1 .7l-1 1s1-.2 1.6-.5c.6-.4 1.4-.2 1.4-.2s-.7 1.4-1.5 2-.8 1.3-1.6 1.5c-.5 0-.8 0-1.3.4s-1.4 1.5-1.7 1.5-1.1 0-1.6 1c.8-.4 1.4-.5 1.8 0l-.9 1 1.5-.7c.7-.3 1.3-.7 2.1-.6a9 9 0 0 1-1.5 2.8c-.5.5-1.7 1.4-2.2 2.3 1-.6 1.6-1 2-1s1.9-.7 2.9-1.7 2.5-3.1 2.5-3.1-.3 1.7-.8 2.9c-.5 1.1-1.1 1.5-1.3 2.3-.3.8-1.2 1.4-1.5 1.8-.2.4-1 .7-1.4 1.6.9-.5 3.5-.5 3.5-.5l-3.4 2.5c-1.4 1.1-3 1.5-3.5 1.4s-2 .1-2.6.5c.5 0 .9 0 1.1.2-1 .2-2.2 0-2.5-.5l-1.3-1.8s.8.3 1.2 0c.5-.1.5-.5.8-.4s.5 0 .3-.5-.3-.6-.8-.8c-.5-.2-1.1-.8-1.4-2-.2-1.3-.6-1.3-.6-1.3s0-6-1-6.2c-1.2-.1-.5 3.3-1.4 4.7-1 1.3-1.2 1.6-2.1 1.7-1 0-.7 1.2.2 1.5-.5.3-1.7 0-1.7 0s.4.5.9.7l1.3.1s-.1 1 .5 1.3c0 .5-1.8 1.4-1.8 1.4s1.1-1 .7-1.5c-.4-.4-.7 0-1.2.2s-.7 0-1.8-.2c-1-.2-1.6-.5-2.5-1.2s-1.9-2-1.9-2h1l-.7-.8h2.5c1-.2 1.5-.7 1.4-1.2-.2-.5-.5-.5-1-.7-.5 0-.7-.5-1.2-.8-.6-.2-1 0-1.3-.4-.2-.3-.8-.7-1.5-1.2l.1-1.8c.4-.2.7-.5.7-.7 0-.5-.5-.1-.9-.2-.4 0-.6-.7-.6-.7s.8.3 1.6 0c.7-.2.9-1.1.8-1.3s-.3-.1-.8 0c-.5 0-1.2-.3-1.3-.9 0-.5-.6-1.3-1-1.5.4-.2.5-.7.5-.7s.3.6 1 .4c.5-.1.4-1 0-1.4-.4-.4-.7-.7-1-1.8-.2-1-.6-1.5-.6-2.2s-.6-3.7-1.1-3.7c-.6.1-.4 1.3-.4 1.6 0 .3-.4 1-.5 1.9 0 1-1.3 3.3-1.6 4-.2.4-1 .4-1.6.9l-.6-.1-.5-1s.5.6 1 .5l.6-.3s-.4-.8-1-1-.5-.5-.3-.5c.1 0 .5-.1.6-.6.1-.4.2-.7-.1-1.1-.4-.4-.5-.8-.4-1 .1-.3 0-1.1-.2-1.4-.2-.3-.3-1.1-.3-1.4l-.2-1.7-.3 2.4c0 .4 0 1.1-.3 1.5-.2.5-.4.7-.3 1.3a2 2 0 0 1-.5 1.6c-.3.5-.4 1-.2 1.2.1.3.6.2.8.4 0 .2 0 1.3-.3 1.6s-1 1-2.2 1c-1.2.1-1.5.5-1.8.3s-.4-.4-.6-.1l-1 1.5c0 .4.8.3 1 0 .3-.2.2.5 1 .2-.4.6-1 1.6-1.4 1.5-.4 0-.5 0-.4.3 0 .2.3.5.8.4.5-.1 1.8-.4 2-.9l.4-.6c.1 0 0 .3.2.5h.2c0 .2 0 .4.2.5l-.7-.1s0 .2.3.5c-.6.4-1.3.8-2 1 .7.3 1.4 0 1.4 0s-1 .8-1.7 1c-.1-.2-.3-.2-.4-.2-.3 0-.6-.3-.9-.4-.3 0-.4-.2-.4-.5s-.1-.5-.2-.5c0 0 .2-.6 0-.8l-.4-.4c0-.1.4-.5.3-.8v-1.7l-.2-1c0-.4.1-2-.2-2-.3-.1-.5.5-.5 1 0 .6-.5 1.8-.6 2.2l-.3 1.1-.2.8.2.6c0 .3-.5.8-1 1-.5 0-.7-.2-1 0s0 .8.4 1c.4.2.7.5 1 .4l-.3.2c-.5.2-1.1.4-1.7.3-1.2-.3-1.5-.1-2-.5l-1.2-.9a6 6 0 0 1-1-1.4c-.5-.6-.8-1.4-.7-1.6 0-.3.2 0 .4.1.3 0 .6-.3 1-.2.2 0 .5.5 1 .6.3 0 .8-.3 1.1-.2s1.3.3 2.2 0c-.6-.5-1-.4-1-.4s1.4-.6 2-1.2c-.8 0-1.9.5-2.4.5s-2-1-2-1 1.3-.6 1.6-1.1c.2-.6 1-2.1.4-2.4-.5-.3-1.4.7-2.3.3-.9-.4-2-1.3-2.3-1.5-.2-.1 0-.5.5-.7.6-.2.8-.4 1-.7.2-.3 0-.6 0-1 0-.3.1-.8 0-.8-.2 0-.9 0-1.1-.2l-.9-.5.2-.4v-1.2l.8.6c.3 0 1-.5 1-.5l-1-.5s1.3-.7 1.2-1.3c0-.2-.5.1-1-.3-.4-.4-1-.6-1-1.1s-.4-.6-.3-1.4c.1-.7-.2-.7-.1-1.2l-.2-1.1-.1-2.7c-.1.7-.5 1.9-.5 2.5s.2 1.1 0 1.6-.6 1-.5 1.4-.3.6-.4 1c0 .2-.2.6-.6 1-.5.3-1 .3-1 .5s0 .3.6.6c-.8.4-1.7.5-1.7.5s.8.3 1.2.2c.5 0 1.5 0 1.9-.4 0 0 .2 0 0 .2 0 .3-.6 1-1.2 1.3-.6.3-.7.7-.6 1s.4.3.6.1h.6s.3 0 .5-.2c0 .3.1.9-.3 1.2-.5.3-1.2.4-1.4.5-.3.2-2.8.1-3.2 0 .6.7 1.5.8 1.5.8l-.5.5-1.5-.2c-1.6-.2-1.7-.7-1.7-.7s1.7-.6 1.6-1.4c-.1-.8-1.2 0-2.8-2.1 1.4 1 2.1.4 2.1.4s-.9-1-1.3-1.7c-.5-.8-1-1.3-1.2-2.2s.2-1.3-.1-1.8c-.3-.5 0-1.6-.5-1.6s-.1.6-.4 1.4c-.4.9-.6 1.3-.6 2.2 0 .9-1.9 3.5-2.5 5.7a4 4 0 0 0 1.7-1.5l-.9 2.4c-.2.6-.7.9-1 1.5-.2.6-.5.5-1 .7-.4.3-.5.5-.5.8 0 .3.1.6.8.7l-3 1.7c-.6.3-.2.8.2 1 .5.1 1.2.4 2 .1l1.4-.5s-.3.4-.4.9c-.2.5-4.5 3-6.2 3.2 1.4.7 6-.2 7.2-1.2-1.7 3.3-3.3 3.5-4.6 4.1s-2.1.3-2.4.7-.3 2.4 3.6 2.4c-.6 1.1-1.8.8-2.1 1.4-.4.6-.1 1.5 1 1.7 1.1.1.6.8.6.8-.3.6-.7 1.4-1 1.5-.3.2-1-.4-1.4-.6-.5 0-1.4-.2-1.9-1 1 0 2-.7 1.8-1.2-.2-.5-1.3-.5-1.9-1.1-.6-.7-1.2-1-1.6-1.9.8.3 1.8-.5 1.5-1-.3-.5-1.1-.2-2.1-1.4 1.2.3 2-.6 1.9-1-.2-.4-1.9-.2-2.7-2 .6.3 1.6 0 1.6-.2s-.8-.4-1.4-1.6c-.6-1.1-.3-1.9-.7-2.4l-.3-4.2a9 9 0 0 0-.4 2.5c0 .5.1 1-.1 1.5s-.2 1-.2 1.3c0 .4-.4.6-.4 1s-.8.4-.8.6.5.3.6.4c.2.1-1 1-1.8 1-.7.1-.5.4-.7.4-.3 0-.3-.2-.4-.1 0 0 0 .6.4.6.5 0 .5.4.9.4h.7s-.3.6-.5.7c-.3 0-.8 0-.9.3 0 .2.3.6.8.6l.8-.1s-.8.8-1.4.9c-.6 0-1.5 0-1.7.2-.1.3 0 .6.7.8.7.3.8.6.8.6s-.8 0-.8.2c-.1.2 0 .6.7.6s1-.2 1-.2l-1.3 1c-.5.4-1.5.4-1.8.6-.2.3-.8.2-1 .3-.3 0-.7.4-.1.9.5.4 1.7.5 1.7.5s-.6.9.2 1.2c-.2.7-1.8 1.5-2 1.6l-1 .1c-.3.1-.3.8.4 1s1.2 1.1 2.2 1c-.4.5-2 1.3-2 1.3s-1.7-1.1-2.5-2.5c-.7-1.3-1.5-2.5-2-3 1.8.6 3.1.6 4 .4.8-.1 1.3-.3 1.3-.5s-1.8-.5-2-.7c.6-.4.5-1 .5-1s-1.3.5-2.6-1c-1.3-1.4-3-3.6-3.5-5.6a12 12 0 0 0 4.5 3.7c.8.4 2.7.8 3.8 0-2-.8-3.4-2-3.4-2s2-1 1.6-2.7a6 6 0 0 1-4-1.6c-.9-1-1-.9-1-.9s1.7-1.2 1.2-2.5c-.1-.3-1.1 0-2-.6-.7-.5-.8-.5-1.2-1 .7.2 2-.2 1.8-1-.2-.7-1.2-.8-1.6-1.7.2-.3.2-.5 0-.7.4-.2.6-1 .6-1.4-.1-.4-.6-1.5-1-2.1-.5-.7-.7-4.5-.9-4.4-.2 0 0 .9-.2 1.3-.3.5-.3 1.2-.4 1.8s-.2 1.3-.5 1.7l-.7 1c0 .4-.7.5-.8.8 0 .3.2.8.4 1l.5.1s-.4.8-1.2 1.2c-.8.4-1.1.8-1.1 1.1 0 .3.2.7.6.8.5 0 .5.4.8.4.4 0 .4-.4.6-.4l.5.1c0 .1-.8.5-.9.9 0 .4-.7.5-1.1.7-.4.1-1 0-1 .2s-1 .8-1 1.1c0 .3.8.3 1 .6a5 5 0 0 0 1.7.6c.2 0 .2.1.2.2s-.7-.2-1 .3c-.3.4-.3.8-1 .7-.6-.2-.7.6-1.7.8h-1.5v-1.2c-.1-.9 0-2-.3-2.2-.3-.2 0-1.5-.2-1.5s-.3.8-.3 1.9l-.4 2.7c-.4 0-.7-.2-1-.3.1-.3.2-.7.1-.8 0-.1-.3 0-.8 0s-1.2-.2-1.3-.8c0-.6-.6-1.3-1-1.5.4-.2.5-.7.5-.7s.3.6 1 .4c.5-.2.4-1 0-1.4-.4-.4-.7-.8-1-1.8-.2-1.1-.6-1.5-.6-2.3s-.6-3.7-1.1-3.6c-.6 0-.4 1.2-.4 1.5 0 .3-.4 1-.5 2 0 1-1.3 3.2-1.6 3.9-.3.7-2 .4-2 1.8-.2 1.4 1.4 0 1.4.6s-.9 1.1-1.8 1.3c-1 .2-.5.5-1.3.7-.7.3-1 1.1-1.1 1.5-.8-.1-1.2-.5-1.2-.5l.3.5h-.1l-.6-.3c-.8-.8-.5-2.2-.5-2.2s.7.2 1.5.2c-.5-.9-1-1-1-1s.8 0 .6-1c.5.4 2.2-.1 2.6-1l-.6.1s.2-.1.2-.5c0-.3-1.2-1-1.2-1v-.4l-.3-.2-.3-.7c-.3-.5-.7-.5-.7-.5v-.8s.2.2.4.1.2-.6 0-1.3c0-.6-.7-1.5-.9-2-.2-.3-.5-.6-.5-1.3l-.1-1.3c-.1-.3-.3-.5-.3-.9s-.1-1.6-.3-1.6c-.1-.1 0 1-.2 1.4v1.7c0 .6 0 1.2-.2 1.5 0 .3-1.2 3.1-1.2 3.1l1-1-.3 1.4h.3l-1.5 1.7c-.5.5 0 2-.2 2.4l-.5.2c0-.4 0-.7-.2-.8-.3 0-.4.4-.5.9h-.1.1v.6c-1 0-2 0-2.4-.5.7 1 1.5 1.5 2 1.7l-.1.3-1.7-.1c.3.4.8.7 1.4 1v.5c0 .2-.3.5-.3.8l.2.6c0 .3-.5.8-1 .9-.4.1-.7-.1-.9.1s0 .8.3 1 .7.5 1 .4c-1 .9-1.9 1.2-2.3 1-.4-.2-.4 0-.5 0l-.5-.5-2.1-2.8s.7.3 1 .6c.1.2.9.3 1.2.2.4 0 1 .2 1.4-.4-.5.1-.8 0-.9-.2s-.6-.5-1-.7c-.3-.2-.5-.7-1-1.4a15 15 0 0 1-1.3-2s1.2-.2 1.7-1.2c.6-1 0-1.8 0-1.8-.1 0-.7.2-1.2 0-.5-.3-.8-.8-1-.8 0-.5-.5-1.1-.7-1.4-.2-.2-.3-.7-.2-.8 0-.2 1.5-.3 1.5-1.2 0-.9-.7-1.4-1.3-1.5-.6 0-.4-1.4-1-2-.4-.5-.1-5.6-.6-5.7-.4-.1-.2.9-.7 1.9-.4 1-.2 1.8-.2 2.7 0 .9-.3 1.5-.3 2.1 0 .6-.5.9-.6 1.4l-.1 1c-.1.5-1.3.9-1.3 1.2 0 .3.3 1.1.7 1.4l-3.4-.4c-1.6-.2-1.7-.7-1.7-.7s1.7-.7 1.6-1.4c0-.8-1.1-.1-2.8-2.1 1.4 1 2.2.4 2.2.4s-1-1-1.4-1.8c-.4-.7-1-1.3-1.1-2.2-.2-.8.2-1.3-.2-1.7-.3-.5 0-1.6-.4-1.6s-.2.5-.5 1.4c-.3.8-.6 1.2-.5 2.1 0 1-2 3.6-2.6 5.7a4 4 0 0 0 1.7-1.4l-.8 2.4c-.3.6-.7.8-1 1.4-.3.6-.5.6-1 .8-.4.2-.5.5-.5.8 0 .2 0 .6.7.6l-3 1.8c-.5.3-.2.8.3 1 .5.1 1.2.3 2 0l1.4-.5-.5 1c-.1.5-4.4 3-6.2 3.1 1.5.8 6-.2 7.2-1.2-1.4 2.8-2.7 3.4-3.9 4-.1-1.2-.4-2-.8-2-.7-.1-.7 1.2-.8 2.5-.7.1-1.2 0-1.4.4-.2.2-.3 1.2.7 1.8-.9 1.3-1 1.6-2 1.6-.2 0-.2.1-.3.2a4 4 0 0 1-1.3-1.6c.8.3 1.7-.6 1.4-1-.2-.5-1-.2-2-1.4 1.2.3 2-.7 1.8-1-.1-.4-1.8-.2-2.7-2 .6.2 1.6 0 1.6-.2 0-.3-.8-.4-1.4-1.6-.5-1.2-.3-2-.7-2.4-.1-.4-.1-4.2-.3-4.2l-.4 2.4c0 .6.1 1.1 0 1.6-.3.5-.3 1-.3 1.3s-.3.6-.4.9-.8.5-.8.7c0 .2.5.3.7.4s-1 1-1.8 1-.6.4-.8.3h-.1c.3-.2.5-.4.5-.6 0-.5-.5-.1-.9-.2-.4 0-.6-.7-.6-.7s.8.3 1.6 0c.7-.2.9-1.1.8-1.3 0-.2-.3-.1-.8 0-.5 0-1.2-.3-1.3-.8 0-.6-.6-1.4-1-1.6.4-.1.4-.6.4-.6s.4.5 1 .4c.6-.2.4-1.1 0-1.5-.3-.3-.7-.7-1-1.8-.2-1-.6-1.5-.6-2.2 0-.7-.6-3.7-1.1-3.6-.6 0-.4 1.3-.4 1.5 0 .3-.4 1-.4 2s-1.3 3.2-1.6 4c-.2.4-1.1.4-1.7.8h-.5l-.6-1s.6.6 1 .5l.7-.3s-.4-.8-1-1c-.7-.3-.5-.5-.4-.5.2 0 .5-.2.7-.6s.2-.8-.2-1.2c-.4-.3-.5-.7-.4-1 .1-.2 0-1-.2-1.3-.2-.3-.3-1.1-.3-1.5l-.2-1.6-.3 2.3c0 .5 0 1.2-.3 1.6-.2.5-.4.7-.3 1.3 0 .7-.1 1.2-.5 1.7l-.1.3a2 2 0 0 1-.6-.6c.2-.3.2-.6.1-.8.4-.2.6-.9.5-1.3 0-.5-.5-1.5-1-2.2-.5-.7-.6-4.4-.8-4.4s0 1-.3 1.4a5 5 0 0 0-.3 1.8c0 .6-.2 1.3-.5 1.7-.3.4-.7.7-.7 1 0 .3-.8.4-.8.7l.3 1c.1.2.6.2.6.2s-.5.7-1.3 1.1c-.7.4-1 .9-1.1 1.1 0 .3.2.7.7.8.4.1.4.4.8.4.3 0 .3-.4.6-.4l.4.2s-.7.4-.8.8c-.1.5-.8.6-1.1.7l-.7.1c0-.6 0-1.8-.3-1.8s-.4.5-.4 1-.3 1.2-.5 1.7l-.2.4v.2l-.2 1-.2.9.2.6v.2l-.5.2c-1 .1-4.8-.3-6-2h.3c.3 0 .6.6 1 .6s.9-.3 1.2-.2c.3.2 1.3.3 2.2 0-.6-.5-1-.4-1-.4s1.4-.6 2-1.2c-.8 0-1.9.5-2.4.5-.6 0-2-1-2-1s1.3-.6 1.5-1.1 1-2.2.4-2.5c-.5-.3-1.3.8-2.2.4a7 7 0 0 1-2.3-1.5c-.2-.1 0-.5.5-.7.5-.1.8-.4 1-.7s0-.6 0-1v-.8s-1 0-1.2-.2l-.8-.4.1-.5V178l.9.5 1-.5-1.1-.5s1.3-.7 1.2-1.3c0-.1-.5.2-1-.2s-1-.7-1-1.2-.4-.6-.3-1.3c.1-.7-.1-.8-.1-1.2l-.2-1.2-.1-2.6c-.1.6-.5 1.8-.5 2.5s.2 1 0 1.5-.6 1.1-.5 1.5c0 .3-.3.5-.4.9s-.2.7-.6 1l-1 .5c0 .2.1.3.7.6-.8.5-1.8.6-1.8.6l1.3.2c.4 0 1.4-.1 1.8-.4 0-.1.2 0 .1.2 0 .2-.7 1-1.3 1.3-.6.3-.6.6-.6.9 0 .2.4.3.7.2.2-.1.4-.2.5-.1s.4 0 .6-.1c0 .3 0 .8-.4 1.1-.4.3-1.1.4-1.4.6a8 8 0 0 1-3.1 0c.6.7 1.5.8 1.5.8l-.5.5-1.6-.2c-1.6-.1-1.7-.6-1.7-.6s1.7-.7 1.6-1.5c0-.7-1.1 0-2.8-2 1.4 1 2.2.3 2.2.3s-1-1-1.4-1.7c-.5-.7-1-1.3-1.2-2.2-.1-.9.2-1.3-.1-1.7-.4-.5 0-1.6-.5-1.6s-.2.5-.5 1.4c-.3.8-.5 1.3-.5 2.1 0 1-1.9 3.6-2.5 5.8 1-.5 1.7-1.5 1.7-1.5l-.8 2.4c-.2.6-.8.9-1 1.5s-.5.5-1 .7c-.4.3-.5.5-.5.8 0 .3.1.6.7.7l-3 1.7c-.5.4-.2.9.3 1s1.2.4 2 .1c1-.2 1.4-.5 1.4-.5l-.5.9c-.1.5-4.4 3-6.1 3.2 1.4.7 6-.2 7.1-1.2-1.6 3.3-3.2 3.6-4.5 4.1-1.2.6-2.1.3-2.4.8-.2.4-.3 2.4 3.6 2.4-.5 1-1.8.7-2 1.3-.4.6-.2 1.6 1 1.7s.6.8.6.8c-.4.7-.7 1.4-1 1.6-.3.1-1-.5-1.5-.6-.4-.1-1.3-.2-1.8-1 1 0 2-.7 1.8-1.2-.2-.5-1.3-.5-2-1.1-.6-.7-1.2-1-1.5-1.9.8.3 1.7-.6 1.4-1s-1-.2-2.1-1.4c1.3.3 2-.6 1.9-1-.2-.4-1.9-.2-2.7-2 .6.3 1.6.1 1.6-.2 0-.2-.9-.4-1.4-1.5-.6-1.2-.3-2-.8-2.5l-.3-4.2-.4 2.5c0 .6.2 1.1 0 1.6l-.3 1.3c0 .4-.3.6-.4.9 0 .2-.8.4-.7.7 0 .2.5.3.6.4.2.1-1 1-1.8 1-.7.1-.5.4-.7.4-.3 0-.3-.2-.4-.1 0 0 0 .6.4.5.5 0 .5.4.9.5h.7s-.2.5-.5.6c-.3.1-.8 0-.9.3s.3.7.8.7l.8-.2s-.8.9-1.4 1c-.6 0-1.5 0-1.6.2-.2.2 0 .6.7.8.7.2.7.5.7.5s-.7.1-.8.3c0 .1.1.5.8.6.6 0 1-.2 1-.3l-1.3 1c-.5.5-1.5.4-1.8.7-.3.3-.8.2-1 .2s-.7.5-.2 1c.6.4 1.8.4 1.8.4s-.7 1 .2 1.2c-.2.7-1.8 1.6-2 1.6-.3.1-.7 0-1 .2-.2.2-.3.8.4 1 .7.3 1.2 1.1 2.2 1-.4.5-2 1.3-2 1.3s-1.7-1.1-2.5-2.4l-2-3c1.8.5 3 .5 4 .3.8-.1 1.3-.4 1.3-.5l-2-.7c.6-.4.5-1 .5-1s-1.3.5-2.6-1a14 14 0 0 1-3.5-5.5c1.7 2.2 3.6 3.3 4.4 3.7.9.3 2.7.6 3.8 0-2-.8-3.4-2.1-3.4-2.1s2-1 1.6-2.7a6 6 0 0 1-4-1.5l-1-1s1.6-1.2 1.1-2.5c0-.2-1.1 0-1.9-.5-.7-.6-.9-.6-1.2-1 .7.1 1.9-.3 1.7-1-.2-.8-1.1-.9-1.6-1.7.2-.3.2-.5 0-.7.4-.2.6-1 .6-1.4-.1-.5-.6-1.5-1-2.2-.5-.6-.7-4.4-1-4.4s0 1-.2 1.4c-.2.5-.3 1.2-.3 1.8 0 .6-.2 1.3-.5 1.7l-.7 1c0 .4-.7.5-.8.8 0 .4.2.8.4 1s.5.1.5.1-.4.8-1.2 1.2c-.8.4-1.1.9-1.1 1.1 0 .3.2.7.6.8.5.1.5.4.9.4.3 0 .3-.4.6-.4l.4.1c0 .1-.7.5-.8 1s-.7.4-1.1.6-1 0-1 .3c-.2.2-1 .8-1 1.1s.8.3 1 .5a5 5 0 0 0 1.7.7l.2.1s-.7-.1-1 .3c-.3.4-.3.8-1 .7-.6-.1-.7.6-1.7.8-.6.1-2.3 0-3.8-.5.2-.3.3-.7.2-.8 0-.1-.3 0-.8 0s-1.2-.2-1.3-.8c0-.6-.6-1.3-1-1.5.4-.2.4-.7.4-.7s.4.6 1 .4.4-1 0-1.4-.7-.7-1-1.8c-.2-1-.6-1.5-.6-2.2 0-.8-.6-3.7-1.1-3.7s-.4 1.3-.4 1.6c0 .3-.4 1-.4 2s-1.3 3.2-1.6 3.9c-.3.6-2 .4-2.1 1.8-.1 1.4 1.4 0 1.4.6s-.8 1-1.7 1.3c-1 .2-.5.5-1.3.7-.8.3-1.1 1.1-1.1 1.5-.8-.1-1.2-.5-1.2-.5l.3.5h-.7s.2.7 1.3.7c1 0 1.4.5 2.3.4-.7.4-1 1-1.6 1.1-.5 0-1.7.3-2.3 1-.6.8-.9.3-.8 1 0 .5.3.2.5.3.3.1.9.5 1.7.5.8 0 1-.3 1-.3s0 .9.5 1c-.2.8-.5.8-.9.9s-.6.2-.6.6c0 .4.3.6.9.6.6 0 1.7-.3 1.7-.3s-1.5 2.6-4.2 3.6l-.4-.2s.4-.4.3-.9c1.3 0 2.1-.7 2-1.2-.2-.5-1.1.3-2.6-1.5a9.3 9.3 0 0 1-2-2.9c-.1-.4-.5-.6-.5-.6s.8 0 1.4-.3c.5-.1.7-.7.4-1-.2-.3-.3-.3-.6-.3s-.5-.3-.8-.3-.4-.3-.4-.6-.2-.5-.2-.5.2-.5-.1-.8c-.3-.2-.3-.3-.3-.4 0 0 .4-.4.3-.8v-1.7c0-.4-.3-.6-.2-1 0-.4 0-2-.3-2s-.4.5-.5 1a8 8 0 0 1-.6 2.3c-.2.4-.2.8-.2 1l-.2.9.2.6c0 .3-.5.8-1 .9-.5 0-.7-.1-1 .1-.1.3 0 .8.4 1 .4.2.7.4 1 .4-1 .9-1.9 1.2-2.3 1-.5-.3-.4 0-.7 0l-1-.3.8.8c-.8 0-1.5-.3-1.6-.5.4.2 1.2-.8 1.7-1.3s1.2-.3 1.4-.8c.2-.5.9-1.3 1.4-2.6-1 1.8-5 2.2-6 2s-1.1-.9-1.7-.7c-.7.1-.6-.3-1-.7-.3-.5-1-.3-1-.3l.3-.1c.2 0 1.4-.5 1.6-.7s1.1-.2 1-.5c0-.3-.8-1-1-1.2 0-.2-.6 0-1-.2s-1-.3-1-.7c-.2-.4-1-.8-1-.9l.5-.1c.3 0 .3.4.6.4.4 0 .4-.3.8-.4.5-.1.7-.5.7-.8 0-.3-.4-.7-1.1-1-.8-.5-1.3-1.3-1.3-1.3l.6-.1c.1-.2.3-.6.3-1s-.7-.4-.8-.7l-.7-1c-.3-.4-.4-1.1-.5-1.8 0-.6-.1-1.3-.3-1.7-.3-.5 0-1.4-.3-1.4s-.3 3.7-.8 4.4a5 5 0 0 0-1 2.1l.1 1-.5-.1c-1.6-.2-1.7-.7-1.7-.7s1.7-.6 1.6-1.4c-.1-.8-1.2 0-2.8-2 1.4.9 2.1.3 2.1.3s-.9-1-1.3-1.7c-.5-.8-1-1.3-1.2-2.2-.2-.9.2-1.3-.1-1.8s0-1.5-.5-1.5-.2.5-.5 1.3c-.3 1-.5 1.3-.5 2.2 0 1-1.9 3.6-2.5 5.7 1-.4 1.7-1.4 1.7-1.4l-.9 2.4c-.2.6-.7.8-1 1.4-.2.6-.4.6-.9.8-.5.3-.5.5-.5.8 0 .2 0 .6.7.6l-3 1.8c-.5.3-.2.8.3 1s1.2.3 2 .1l1.4-.6-.5 1c0 .3-2 1.5-3.8 2.3-.2 0-.5-.2-.5-.4-.1-.3-.5-.5-.5-1 0-.3 0-.7-.2-1.2s0-1 0-1.6-.3-2.4-.5-2.4l-.2 4.2c-.5.5-.2 1.2-.7 2.4-.6 1.2-1.4 1.3-1.4 1.6s1 .4 1.6.2c-.4.7-.9 1-1.3 1.3-.2-.3-1.9-.1-2.8-2 .7.3 1.6.2 1.6 0 0-.4-.8-.5-1.4-1.7-.5-1.2-.3-1.9-.7-2.4l-.3-4.2c-.2 0-.5 2-.4 2.5 0 .6.1 1 0 1.6-.3.4-.3.9-.3 1.2 0 .4-.3.6-.4 1 0 .2-.8.4-.8.6 0 .2.6.4.7.5l-.5.5a13 13 0 0 1-3.8-2.3c-.1-.6-.4-1-.4-1s.5.4 1.3.6a3 3 0 0 0 2-.2c.5-.1.9-.6.4-1s-2.1-1-3-1.6c.6 0 .7-.5.7-.7s-.1-.5-.6-.8c-.5-.2-.7-.2-1-.7-.2-.6-.7-.9-1-1.5l-.8-2.4s.7 1 1.7 1.4c-.6-2-2.5-4.7-2.5-5.6 0-1-.3-1.3-.6-2.2s0-1.4-.5-1.4 0 1.1-.4 1.6 0 .9-.2 1.8c-.1.9-.6 1.4-1.1 2.1l-1.4 1.8s.8.6 2.2-.4c-1.6 2-2.7 1.3-2.8 2.1 0 .8 1.6 1.4 1.6 1.4s-.1.5-1.7.7h-1c.2-.2.3-.5.1-.7.4-.2.6-1 .5-1.4 0-.4-.5-1.4-1-2.1-.5-.7-.7-4.4-.9-4.4s0 1-.2 1.4-.3 1.2-.3 1.8c0 .6-.2 1.3-.5 1.7-.3.4-.7.7-.7 1 0 .3-.8.4-.8.8 0 .3.2.7.4 1l.5.1s-.5.8-1.2 1.2c-.8.4-1.1.8-1.2 1.1 0 .3.2.6.7.8.4 0 .5.3.8.4l.4.3-.2.3c0 .4-.7.5-1 .6s-1 .1-1.1.3c-.1.3-1 .9-1 1.2s.8.2 1 .5a5 5 0 0 0 1.7.6c.2 0 .2.1.2.2 0 0-.6-.2-1 .3s-.2.8-.9.7c-.6-.2-.7.6-1.7.8-1 .1-5-.3-6-2 .5 1.3 1.2 2 1.4 2.5.2.6 1 .4 1.4.9.5.4 1.3 1.4 1.7 1.3-.2.3-2.1.8-3 .2.2.5.7.7 1.2 1-.3 0-.2-.3-.6 0-.5.2-1.5-.1-2.4-1 .3 0 .6-.2 1-.4.4-.3.5-.8.3-1-.2-.3-.4 0-1-.1-.4-.1-.9-.6-.9-.9l.2-.6c0-.3-.3-.6-.2-.8 0-.3 0-.7-.3-1.1-.1-.4-.6-1.7-.6-2.2s-.1-1.1-.5-1c-.3 0-.2 1.6-.2 2l-.2 1v1.7c-.1.3.3.6.3.8l-.3.3c-.3.3 0 .9 0 .9-.1 0-.3.1-.3.4s-.1.6-.4.6c-.3 0-.6.4-.8.4-.3 0-.4 0-.6.3-.3.3-.1.8.4 1l1.4.3s-.4.1-.5.5-.4 1.2-2 3c-1.4 1.8-2.4 1-2.5 1.5-.1.5.7 1 2 1.2 0 .4.3.8.3.8l-.4.2c-2.7-1-4.2-3.5-4.2-3.5l1.7.2c.6 0 .9-.2.9-.6 0-.3-.3-.6-.6-.6s-.7 0-1-.7c.5-.2.5-1 .5-1s.3.2 1 .2c.9 0 1.5-.4 1.7-.5s.6.1.6-.5-.2 0-.8-.8c-.6-.8-1.9-1-2.4-1s-.9-.7-1.6-1c1 0 1.3-.5 2.4-.5 1 0 1.3-.8 1.3-.8s-.2.2-.7.1l.2-.5s-.4.3-1.2.5c0-.4-.3-1.2-1-1.5-.8-.3-.4-.5-1.3-.7s-1.8-.7-1.8-1.3 1.5.8 1.4-.6c-.1-1.4-1.8-1.2-2.1-1.8-.3-.7-1.6-3-1.6-4 0-.9-.4-1.6-.4-1.9 0-.3.1-1.5-.4-1.5-.6 0-1.1 2.9-1.1 3.6 0 .7-.4 1.2-.7 2.3s-.6 1.4-1 1.7c-.3.4-.5 1.3.1 1.5.6.2 1-.4 1-.4s0 .5.5.6c-.5.2-1 1-1.1 1.6 0 .5-.7.8-1.3.8s-.7-.1-.8 0c0 .1 0 .5.2.8a10 10 0 0 1-3.8.5c-1-.1-1.1-.9-1.7-.7-.7.1-.6-.3-1-.7-.3-.5-1-.3-1-.3l.3-.1c.3 0 1.4-.5 1.6-.7s1.1-.3 1-.6c0-.3-.8-.8-1-1s-.6-.2-1-.3c-.4-.2-1-.3-1-.7s-1-.8-1-.9l.5-.1c.3 0 .3.4.6.4s.4-.3.8-.4c.5-.2.7-.5.7-.8 0-.3-.4-.7-1.1-1.1s-1.3-1.2-1.3-1.2.4 0 .6-.2l.3-.9c0-.3-.7-.4-.8-.7 0-.3-.4-.7-.7-1-.3-.4-.4-1.1-.5-1.8 0-.6-.1-1.3-.3-1.7s0-1.4-.3-1.4c-.2 0-.3 3.7-.8 4.4a5 5 0 0 0-1 2.1c0 .5.1 1.2.5 1.4v.7c-.4.9-1.4 1-1.5 1.7-.2.8 1 1.2 1.7 1-.3.5-.5.4-1.2 1-.8.6-1.8.3-2 .6-.4 1.3 1.3 2.5 1.3 2.5l-1.1 1a6 6 0 0 1-4 1.5c-.3 1.7 1.7 2.7 1.7 2.7s-1.4 1.3-3.4 2.1c1.1.7 3 .4 3.8 0s2.7-1.5 4.4-3.8c-.5 2-2.1 4.2-3.4 5.6-1.4 1.5-2.7 1-2.7 1s0 .6.6 1c-.3.2-2 .5-2 .7 0 .2.5.4 1.3.5.9.2 2.2.2 3.9-.4l-2 3c-.7 1.4-2.4 2.5-2.4 2.5s-1.6-.8-2-1.3c1 .1 1.5-.6 2.2-1 .7-.2.6-.8.3-1l-.9-.1c-.2-.1-1.9-.9-2-1.6.8-.3.1-1.2.1-1.2s1.3 0 1.8-.5.1-.9-.1-1-.8.1-1.1-.1c-.3-.3-1.3-.2-1.8-.6a26 26 0 0 0-1.2-1s.3.2 1 .2c.6 0 .7-.5.7-.6l-.8-.3s0-.3.7-.5.9-.6.7-.8c-.1-.2-1-.2-1.6-.3s-1.4-.9-1.4-.9.3.2.8.2.8-.4.7-.7c0-.3-.5-.2-.8-.3-.3 0-.6-.6-.6-.6h.8c.3 0 .3-.5.8-.5s.4-.5.4-.5h-.3c-.3 0 0-.2-.8-.3-.8 0-2-.9-1.8-1s.7-.2.7-.4-.8-.4-.8-.7c-.1-.3-.4-.5-.4-.9s0-.8-.3-1.3c-.2-.4 0-1 0-1.6l-.4-2.4c-.2 0-.2 3.8-.3 4.2-.5.5-.2 1.2-.7 2.4-.6 1.2-1.4 1.3-1.4 1.6s1 .4 1.6.2c-.9 1.8-2.6 1.6-2.7 2-.2.4.6 1.3 1.9 1-1 1.2-1.9.9-2.1 1.3s.6 1.4 1.4 1c-.3 1-1 1.3-1.6 2-.6.6-1.7.6-1.8 1.1-.2.5.7 1.1 1.7 1.1-.5.9-1.4 1-1.8 1.1-.4.2-1.1.8-1.4.6-.3-.1-.7-.9-1-1.6 0 0-.6-.6.6-.8 1-.1 1.3-1 1-1.7-.3-.6-1.6-.2-2.1-1.3 3.9 0 3.8-2 3.5-2.5-.2-.4-1.1 0-2.4-.6-1.2-.6-2.9-.9-4.5-4.2 1.2 1 5.8 2 7.2 1.2-1.8-.2-6-2.6-6.2-3.1l-.5-1s.5.4 1.4.6c.8.2 1.5 0 2-.2.5-.1.8-.6.3-1l-3-1.6c.6 0 .7-.5.7-.7 0-.3 0-.5-.5-.8-.5-.2-.7-.2-1-.7l-1-1.5-.9-2.4s.7 1 1.8 1.4c-.7-2-2.6-4.7-2.6-5.6 0-1-.2-1.3-.5-2.2-.4-.8 0-1.4-.5-1.4s-.1 1.1-.5 1.6c-.3.5 0 .9-.1 1.8-.2.9-.7 1.4-1.2 2.1-.4.8-1.3 1.8-1.3 1.8s.7.6 2.1-.4c-1.6 2-2.7 1.3-2.8 2.1 0 .8 1.6 1.4 1.6 1.4s0 .5-1.6.7l-1.6.2-.5-.5s.9-.1 1.5-.8c-.3.1-2.9.3-3.1 0-.3-.1-1-.2-1.5-.5-.4-.3-.4-.8-.3-1.2.2.2.4.2.6.1l.5.2c.3 0 .6 0 .6-.3 0-.2 0-.6-.6-.9-.6-.3-1.2-1-1.3-1.2 0-.3 0-.4.2-.3.3.3 1.4.4 1.8.4l1.3-.2s-1 0-1.8-.5c.5-.3.6-.4.6-.6s-.5-.1-1-.5c-.4-.4-.6-.7-.6-1 0-.4-.4-.6-.4-1 0-.3-.3-.9-.5-1.4-.2-.5 0-.9 0-1.5s-.4-1.9-.5-2.5v2.6l-.2 1.2c0 .4-.3.5-.2 1.2 0 .7-.3.8-.3 1.3 0 .6-.5.8-1 1.2-.4.4-1 .1-1 .3 0 .5 1.3 1.2 1.3 1.2l-1 .5s.6.5.9.5 1-.5 1-.5-.2 1-.1 1.1l.1.5-.9.5-1 .1-.1.9c0 .4-.2.7 0 1 .2.2.5.5 1 .7.6.2.7.5.5.7-.2.1-1.4 1.1-2.3 1.5s-1.7-.7-2.2-.4c-.6.3.1 1.9.4 2.4.3.6 1.6 1.1 1.6 1.1s-1.5 1-2 1c-.6 0-1.6-.4-2.4-.4.5.6 2 1.2 2 1.2s-.4 0-1.1.4c1 .3 2 .2 2.2 0 .4-.1.8.2 1.2.2.4 0 .7-.6 1-.6.3-.1.6.2.9.2.2-.1.4-.4.5-.2 0 .2-.3 1-.7 1.7a6 6 0 0 1-1 1.4c-.4.2-1 .6-1.3 1-.4.2-.8.1-2 .4-.5 0-1.2 0-1.7-.3l-.2-.2c.3 0 .5-.2 1-.4s.5-.7.3-1c-.2-.2-.5 0-1-.1s-1-.6-1-.9l.2-.6-.2-.8c0-.2 0-.7-.2-1.1l-.7-2.2c0-.6-.1-1.1-.4-1s-.3 1.6-.3 2c0 .4-.2.6-.1 1s0 .6-.1 1v.7c0 .3.3.7.3.8l-.3.4c-.3.2 0 .8 0 .8-.1 0-.3.2-.3.5s0 .5-.4.5c-.3 0-.6.4-.8.4l-.5.1c-.6 0-1.6-.9-1.6-.9s.7.3 1.3 0a8 8 0 0 1-2-1l.4-.5s-.1.2-.7.1l.2-.4.1-.1c.2-.2.1-.5.2-.5s.2.1.4.6c.3.5 1.6.8 2 .9s.9-.2.9-.4 0-.3-.4-.3-1-.9-1.4-1.4c.8.2.7-.4 1-.2.2.2 1 .3.9 0 0-.4-.8-1.3-1-1.6s-.3-.1-.6.1c-.3.3-.6-.2-1.7-.2-1.2 0-1.9-.8-2.2-1-.4-.4-.4-1.4-.3-1.6.1-.2.6-.2.8-.4.2-.3 0-.8-.3-1.2a2 2 0 0 1-.4-1.6c0-.7-.1-.9-.4-1.3s-.2-1.2-.3-1.6l-.3-2.3-.2 1.6c0 .4 0 1.1-.2 1.4s-.4 1.2-.3 1.4c.1.2 0 .6-.3 1-.4.4-.3.8-.2 1.2.1.4.5.5.6.5.2 0 .3.2-.3.5s-1 1-1 1l.7.3c.4.1 1-.4 1-.4l-.6 1h-.6c-.5-.4-1.4-.4-1.6-.9-.3-.7-1.6-3-1.6-4s-.4-1.5-.4-1.8.1-1.5-.4-1.6-1.1 2.9-1.1 3.6c0 .8-.4 1.2-.7 2.3-.2 1-.6 1.4-1 1.8s-.5 1.3.1 1.4 1-.4 1-.4 0 .5.5.7c-.5.2-1 1-1.1 1.5 0 .6-.7.9-1.2.8h-.9c0 .2.1 1.1.9 1.4.7.3 1.5 0 1.5 0s-.1.6-.5.7c-.5 0-.9-.4-1 .1 0 .3.3.6.7.8l.1 1.7-1.4 1.3c-.4.5-.8.2-1.3.4s-.7.7-1.2.8c-.5.2-.9.1-1 .7-.2.5.4 1 1.4 1.1.9.2 2.5 0 2.5 0l-.7.8h1s-1 1.3-2 2c-.9.8-1.4 1-2.4 1.3-1.1.2-1.2.3-1.8.1-.6 0-.8-.5-1.3 0-.4.4.8 1.3.8 1.3s-1.8-.8-1.8-1.3c.6-.3.4-1.3.4-1.3s.9 0 1.4-.2c.5-.1.9-.6.9-.6s-1.3.2-1.7 0c.9-.3 1.2-1.5.2-1.6-1 0-1.1-.3-2-1.7-1-1.3-.4-4.7-1.5-4.6-1.1.1-1 6.2-1 6.2s-.4 0-.7 1.2c-.2 1.2-.9 1.8-1.3 2-.5.3-.6.5-.8 1-.2.3 0 .5.3.4.3 0 .3.2.8.5.4.2 1.2-.2 1.2-.2l-1.3 1.9c-.3.5-1.5.7-2.6.5l1.1-.2c-.5-.4-2-.6-2.5-.5-.5 0-2.2-.3-3.6-1.4l-3.4-2.4s2.7 0 3.5.4c-.3-.9-1.1-1.2-1.4-1.6-.2-.4-1.2-1-1.4-1.8-.3-.8-.8-1.2-1.4-2.3-.5-1.1-.7-2.9-.7-2.9s1.5 2.1 2.5 3.1 2.4 1.7 2.8 1.7 1 .4 2 1c-.4-.8-1.7-1.8-2.2-2.3s-1.2-1.8-1.5-2.7c.9-.2 1.4.3 2.1.6.7.2 1.5.7 1.5.7l-.9-1.1c.4-.5 1-.4 1.9 0-.6-1-1.4-1-1.7-1-.2 0-1.2-1-1.7-1.5s-.8-.3-1.3-.4c-.7-.2-.7-.7-1.5-1.4s-1.6-2-1.6-2 .8-.2 1.4.1l1.6.6-1-1s1-.3 1-.8c0-.4-.7-1.1-1-1.3l-1.8-.9c-.4-.3 0-1-1-1.3.5 0 1-1.2 1-1.5 0-.4-1.2-.8-1.3-1.2l-.2-1.1c0-.5-.5-.7-.5-1.3 0-.6-.4-1.3-.4-2.2 0-.9.2-1.7-.3-2.7-.5-1-.2-2-.7-1.8-.4 0 0 5.2-.6 5.7-.5.6-.2 2-.9 2-.6 0-1.3.6-1.2 1.5 0 1 1.4 1 1.5 1.1 0 .1 0 .7-.3.9-.2.2-.7.8-.6 1.4-.2 0-.5.5-1 .7-.6.3-1 .1-1.2.1 0 0-.7.7 0 1.7.5 1 1.6 1.2 1.6 1.2s-.6 1.4-1.2 2c-.5.7-.7 1.3-1 1.5-.4.2-1 .5-1 .7-.1.1-.4.3-.9.2.5.6 1 .4 1.4.4s1 0 1.3-.3 1-.5 1-.5l-2.2 2.8c-1 1.3-2.3 1.5-2.3 2.2 0 .6 1.7.8 1.7.8l-1.5.7 1.7-.1 1.4-1c.5-.3 1.5-2 1.5-2l-.7 2.3c-.3 1-1.5 1.3-1.5 1.7 0 .4 1 1.2 1 1.2s-1.2.6-2.4.4c-1.2-.2-2-1.4-2.2-1.2s.5 1.8.5 1.8-1.4-1.1-1.6-1.7c-.1-.6-.8-2-.8-2s1.3.3 1.8-.5c.3.2.9.1.9.1s-2.3-2.1-3.1-3.4c-.8-1.4-1.8-4.5-1.8-4.5s1.4 2.4 1.8 2.8l1 1.1.1-.9c.5.5 1.3.6 1.3.6s-2.1-2.2-2.4-2.8c1 .2 2.3-.6 3-1.4-1 .4-2.4 0-2.4 0s1.4 0 2.6-1.9c-.6.7-2.6.8-3.5.4.6 0 1.2-.5 1.2-.5s-1.1.1-1.3-.2.2-2-.3-2.4-1.5-1.7-1.5-1.7h.3l-.2-1.4c.2.4.9 1 .9 1s-1.1-2.8-1.3-3l-.1-1.6-.1-1.7c-.1-.3-.1-1.5-.2-1.4l-.3 1.6-.3.9-.1 1.3c0 .7-.3 1-.5 1.4-.1.4-.8 1.3-.9 2v1.2c.3.1.4-.1.4-.1v.8s-.3 0-.6.5c-.4.5-.3.8-.3.8l-.3.1v.4s-1.3.7-1.3 1.1.3.5.3.5h-.6c.4.8 2 1.2 2.6.9-.2.9.6 1 .6 1s-.5 0-1 1c.9 0 1.5-.3 1.5-.3s.3 1.4-.5 2.2c-.9.8-2.1 1-3.8.5-1.7-.3-3-2.4-3-2.4s0 .8.2 1.3.1.8.2 1.2 1.7 2.5 3.4 2.6c-.6.1-1.5.8-1.8 1s-1-.6-1.3-.2c-.4.5.2 1.1.6 1.7.5.6 2.4.9 2.4.9s-1.4 1-2.4.8c1 .8 3 .3 3.3.2.3-.2 1 .6.8.8s0 .8 0 .8-.8 0-1.1.5c-.4.3-1.7 1.3-2.2 1.4-.5.1-1.3-.3-1.6-.2s0 .8.1 1.4c.1.7.5 1 .8 1s.7.8.7.8-.5.6-1.4 1l-1.7 1 .4.5c-.9-.2-1-.1-1.6.2-.7.3-1-.8-1.5-.2-.5.6.5 2.4.8 2.9.3.4 2 1 2 1s0 .2-.4.2c-.3.1-.7 0-1 .4-.3.5-.3 1 0 1.2l.5.7h-.2c-1 0-1.2.4-1.7.3s-.9-.4-1-.8c-.1-.4 0-1-.6-1.5.8.2 1.5-.4 1.4-.9h1s-1-.4-2-2.2c-.9-1.7-1-3-1-3s.5.9 1.6 1c0-.4-.6-1.2-.6-1.2s1.7.8 2.4.3c-.3 0-.5-.3-.1-.5 1 0 1.7-.4 1.7-.7 0-.3-.2-.5-.8-.3-.7.1-2.7-1-2.8-1.4.4-.2.8-1.1.6-2-.3-.8-1.5-1.5-1.5-1.5s.2 0 .5-.6c.2-.6-.3-1-.3-1s1-.3 1.4-.7c.5-.3.8-1 .7-1-.2-.1-.6.1-1 .3-.3.3-2.6-.1-2.7-.5l-.1-1.4s.8.9 1.6.6c-.5 0-1.3-1.1-1.3-1.1s.4.2.6.1c-1-1.1-1.6-5-1.6-6 0-1.2-.2-2-.4-2-.1 0 0 1.4-.2 1.6-.3.3-.2 1.3-.2 2.2 0 1-.1 2.6-.3 3.2-.2.6-.8 1.6-1.1 1.7-.3 0-1 0-1.1 1-.1 1 .8 2 .8 2s-.4 0-.5.4c-.1.3-.7.6-.7.6s-.1-.2-.5-.2-.5.6-.5.6-1-1.3-1.5-1.6a8.1 8.1 0 0 0 1.8 3.2l-1.6-.5c.5 1.1 2.8 1.6 2.8 1.6s0 .2-.3.5c-.2.3-.8.6-1.3.5a3 3 0 0 0-1.5.5c-.6.3-.8-.2-1.8-.4s-1 .5-.7 1.6a4 4 0 0 0 1.5 1.8s-1.2 0-2.2-.6c.9 1.3 3.6 2 4 2 .5 0 .8.2 1 .5s.3.9.1 1c-.2 0-.2.8-.6.7-.4-.1-.9.2-1.4.3-.5.2-1.5.3-3.7-.7.4.8 1.8 1.3 1.8 1.3s-.8 0-1.4-.3c0 .4 1.3 1 1.5 1.5.3.5 1 1 2.1 1.7a14 14 0 0 1-4.5-1l1 .7-.2 1c0 .6 2.3 2.4 2.3 2.5s-1.3.5-1.5 1.3c-.3.7.4 4.2.1 4.7-.2.5-.7 1-1 2s-1.3 1.4-2 2.8c-.8 1.3-.3 2.5-.3 2.5s111.9.1 111.9-.2v-.1h43.4l79.2-.3 299.4-1.2s.6-1-.2-2.4Zm-480-14c.1 0 .1-.2 0-.4 0-.5-.3-1.3-.9-1.6-.5-.4-1 .1-1.3 0-.3-.3-.7.2-1.4-.5s-1.1 0-1.6-.3c-.5-.5-.6-1.3-.6-1.3s.7.5 2 .8c1.2.3 2 .1 2 .1l-1.2-.6s.7-.6 1.2-.6c.5-.1 1-.2 1.3-.9-.3-.2-1.6 0-2.7 0a11 11 0 0 1-3.2-2l3 .8c1.4.3 2 .3 2.5 0 .5-.2.8.1 1-.3.4.4 1.4 1 2.3.8-1 .8 0 1.9 2 2-1.3 2.7-3.1 3.8-4.3 4Zm14-3.3-1 1-1-.6.7.8-.5.4-.7-.5c0-.3-.1-.6-.3-.8 0 0 2.1-.8 1.8-1.7-.4-.9-2.1-1.2-2.5-1.3-.3-.1-.6-.8-.6-.8l1.6.3c1.4.2 1.6-.2 1-.7l-1.4-1.4s1.5.4 2.7 0a3 3 0 0 0-.6 1.4l-.7-.2s.5.7 1 .9l.8.2s.1.3-.4.4c-.5.2-.7.6-.7.6s.7.4 1 .3l.2-.1h.7l-1.6 1.8h.5Zm3.7-16-.3-1.4c.4.1.9.2 1.4 0-.2.5-.6 1-1.1 1.4Zm5.5-6.2v-.1c0-.2 0-.2.3-.2l-.3.3Zm4.4 3h.8c-.1 0-.3 0-.5.2l-.3-.2Zm2.6 7.6c-.3.4-.6.7-.9.8a4.9 4.9 0 0 1-1.3-3l.2-.1a4.9 4.9 0 0 0 2.4 1.3l-1-.8-.5-.8h.1l.8.4c.3 0 .5 0 1 .3.2.2.4.2.5.1l-1.3 1.8Zm1.9-2.9-.2.4c-.5-.1-1.4-1-1.3-1 0-.2.4-.2.8-.2l1.2.2s-.4.2-.5.6Zm4 .8s2 .2 2.3 0c.1-.2.5-.3.8-.4l.5-.1s-.1.2-1 .6a6 6 0 0 1-1.9.7c-.5-.4-.7-.8-.7-.8Zm4 6.2c0 .3-.2.6-.4.9a8 8 0 0 1-2.6-2c.6 0 1.1-.7 1.1-.7a3.6 3.6 0 0 0 2.3 0l-.4 1.8Zm4-2.5c.7.2.8-.3 1-.4l.6.7h-1.4l-.2-.3Zm2.6 2.9h-.2l-1-.8a4 4 0 0 1-1-1.2l1.3.3 1.2.2 1.2.7-.4-.6h1l.8.1c-.8.5-2 .9-2.9 1.3Zm.7-4.3c.5-.2 1-.3 1.7-.7l-1.6.8-.2-.1Zm-.1-5.5-.9-.7-1-2s.6.6.9.6c.4 0 .8-.3 1 0 .3.2.9.2 1.2 0 .4-.2 1-.1 1.4-.2h.7a11 11 0 0 1-3.3 2.3Zm.9-5.4h-.8l-.8-.8c-.4-.6-.2-1.2 0-1.4h.2l.3.4c0 .1.7.2 1.1.1h1.5c.1.7 1.5.8 1.5.8s-.9.5-3 .9Zm26.9 30-1.5-1.2s1.9.3 3.2-.3c-.7 1.1-1.7 1.6-1.7 1.6Zm2-6.5-.6-.8h1.3l-.7.8Zm3 1.5-1-.3 1.5-1s0 .7-.6 1.3Zm10.8-.9Zm2-7.1h-.2l.2-.1Zm1-3.5c-1 .7-1.4 1-2.5 1.2l-1 .2-.7-.4s2.1.2 3-.4c-1.1-.4-1.1-1.2-1.1-1.2a16 16 0 0 0 3 0l-.7.6Zm1.2-2.3-1-.5h1.4l-.4.5Zm0-3.6c-.4.5-.7.2-1.3.5-.5.2-.7.6-1.2.8-.4 0-.7 0-1 .4l-.3-.3c-.6-.7-1.6-1.2-1.7-1.6.3.1.4-.1.4-.1s1.2 0 1.8.2a3 3 0 0 0 2-.3c.4-.3 1.6-.5 2-1.3-1 .6-2.8.2-3-.2.3.1 1.2-.8 1.7-1.3.4-.5 1.2-.3 1.3-.8l.2-.4c.7 0 1.3-.2 1.3-.2s-.2.7-.6.7c-.5 0-.8-.3-.9.2 0 .5 1 1.2 2.2.9-.6 1.2-2.5 2.3-2.9 2.8Zm12.3 7.9-1.5.7s-1.2-.7-1.6-1.2c.7.4 3.1.5 3.1.5Zm-2 2.7h2l-1.2.7-.8-.8Zm2 3.3-.5-1h1.4l-.9 1Zm13.7-6.4c-.8-.3-1.6-.8-1.7-.7l.6 1.4c-1.4-.2-2.2-.7-3.7-2.3.6 0 1.1-.6 1.1-.6a3.6 3.6 0 0 0 3-.4s.1.8-1 1.1c.9.7 3 .4 3 .4s-.6.2-1.3 1.1Zm-.3-6.6c-.4.4-1.6 1.2-2.8 1.8l-.3-.1-1.6-1c-.6-.3-.9-.8-.9-.8s2.1.2 2.4 0l1-.5s-1.1 0-1.6-.4c.3-.1.7-.5 1-.8h.2a3 3 0 0 0 2 .4c.7-.3 1.8-.3 1.8-.3s.2.3.5.2c-.1.3-1.2.8-1.7 1.5Zm8.2-11h-.2.2Zm7.3 4.6c.5.4 1.6.8 2.9 1l-.2.2-.3-.1s-.1.6.4.6c.4 0 .4.4.8.4h.8s-.3.5-.6.6c-.3.1-.8 0-.9.3 0 .2.2.5.4.6-1-.5-2.1-1.3-3.3-3.6Zm4.1 4a13.6 13.6 0 0 1-.4-.3c.5 0 .8-.2.8-.2l-.4.4Zm5.5 3.3a4 4 0 0 1-.5-.5h.7l-.2.5Zm.4-2.4c-.4-.1-1.1-.2-1.9-1h.6c.3.4 1 .7 1.8.6l-.5.4Zm4.7-1.7-.4-.6h.7c.4 0 .4-.5.8-.4.5 0 .5-.5.5-.6h-.4c-.2.1 0-.2-.8-.3-.4 0-1-.3-1.4-.6 1.9-.1 4-.8 4.9-1.4-1.4 2.8-2.7 3.4-3.9 3.9Zm10.8-7-.3.1-.7-.3s1.4 0 1.5-.9h.7c-.3.5-.4.5-1.2 1Zm12.4 8.2c-.1.2-.5.3-.8.3l.8-.3Zm-4.9 8-.4-.2h1l-.6.3Zm2 .4.4-.8.3-.2-.2-.1v-.3l-.4.1c-.6-.3-.6-.9-.6-.9s1.6.2 2.5.1c.4 0 .8-.2 1.3-.4 0 0 .3.1.4 0-1.5 1.7-2.3 2.3-3.7 2.5Zm3.8-6.6-1.5 1-1.6.6-1.5-1c-.6-.8-1.6-1.3-1.7-1.6.3 0 .4-.2.4-.2s1.2 0 1.8.2a3 3 0 0 0 2-.2c.2 0 .6.2.7.4.3.2 2.3 0 2.3 0s-.2.4-.8.8Zm8.8 12.2-.8-1h1.4l-.6 1Zm1.2-2.7-1.2-.7h2l-.8.7Zm.4-2.6-1.6-.8s2.4 0 3.1-.5c-.3.5-1.5 1.3-1.5 1.3Zm10.3-5.7h1.4l-1 .5-.4-.5Zm2.7 6.2h-.1.2-.1Zm2 7.2h-.1v-.1Zm.4-9.2-1-.2c-1-.2-1.6-.5-2.5-1.2l-.7-.6h3s0 .8-1.2 1.1c1 .7 3 .4 3 .4l-.6.5Zm-1-6-.4.4c-.1-.3-.5-.4-.9-.5-.5 0-.7-.5-1.2-.7-.6-.3-.9 0-1.3-.5s-2.3-1.6-2.9-2.8c1.1.3 2.2-.4 2.2-.9s-.5 0-.9-.1c-.4 0-.6-.7-.6-.7s.6.2 1.2 0l.2.5c.2.5 1 .4 1.4.8.5.5 1.4 1.4 1.8 1.3-.3.4-2.2.8-3.1.3.4.7 1.6 1 2 1.2a3 3 0 0 0 2 .3l1.8-.3s.1.3.4.2c-.1.3-1.1.9-1.7 1.5Zm11.4 16c-.5-.7-.6-1.3-.6-1.3l1.6 1-1 .2Zm2.2-2.5h1.3l-.5.8-.8-.8Zm2.9 7.4s-1-.4-1.8-1.5c1.3.5 3.2.2 3.2.2l-1.4 1.3Zm25-32.1.4.1c.3 0 .7-.2 1.1 0s1-.1 1.2-.2l.2-.3.3-.1c.2.2.4.8 0 1.4l-.8.8h-.8c-2.2-.4-3-.9-3-.9s1.3 0 1.4-.8Zm-.6 4.8h.5c.4 0 1 0 1.3.2.4.2 1 .2 1.2 0s.7 0 1 0 1-.6 1-.6l-1 2-.9.7c-1.2-.5-2.4-1.3-3.4-2.2h.4Zm3 7.8v.2l-1.7-.9a6 6 0 0 0 1.8.7Zm1.9 3.5-1 .8h-.1c-.9-.4-2.1-.7-2.9-1.2l.8-.2h1l-.4.6 1.2-.7 1.2-.2a3 3 0 0 0 1.2-.3c-.3.4-.5.9-1 1.2Zm1.2-1.8h-1.4c.4-.5.6-.8.7-.7.1 0 .2.6 1 .3l-.3.4Zm2.7-9.4c-.4-.6-.7-1.4-.7-1.6 0-.2.2 0 .5.2l.6-.2c.5 1.2 1.2 2 1.4 2.4.1.5.9.4 1.3.9.4.3.8.8 1.3 1h-.1c-1.2-.2-1.5 0-2-.3-.3-.4-.9-.7-1.2-1l-1.1-1.3Zm2 12.4c-.2-.3-.4-.6-.4-.9l-.5-1.9.4.2h.8a3.8 3.8 0 0 0 2 .5h.3a8 8 0 0 1-2.6 2Zm2.8-6.4a6 6 0 0 1-3-1.2h.6c.3.2.7.3.8.5.3.2 2.4 0 2.4 0l-.8.7Zm4.2-7.2c-.2.4-.3.7-.6.7.1-.1.3-.4.3-.7v-.7a9.3 9.3 0 0 0 1.3.4s-.6-.1-1 .3Zm5.9-3.4-.1.1c-.6-.4-.8-.4-1-.8.4 0 1 0 1.4-.4 0 .4 0 1-.3 1.1Zm3.5 1.2-.3-.2h.3v.2Zm5.5 6.1c-.5-.4-.9-.8-1.1-1.3h1.4l-.3 1.3Zm1.7 1.5-1.4-1.2V193l.4.2c.5 0 .5.4.9.4h.7s-.3.6-.5.7c-.3 0-.8 0-.9.2 0 .3.3.7.8.7l.8-.1-.8.6Zm6.8 6.2h.7c0 .2 0 .7.4 1a2 2 0 0 1-1.2-1Zm4.4-3.4v-.3h.3l-.3.3Zm11-12.2v.1-.1Zm-.2 1c.3.4.8.5.8.5l-.4.5c-1.1-.3-1.6-.6-1.6-.6s.8 0 1.2-.3Zm.6 15.4a2 2 0 0 1-.8-.7l1.2.3-.4.3Zm.5-3.7-.2-.1h.2v.1Zm.7-10.4-.7-.1.4-.2c.6-.4 1.4-.2 1.4-.2l-.4.6a5 5 0 0 1-.7 0Zm1.4 5.7-.3-.2.4-.6v.8Zm-.6-9.4-.2.1-1.4-.4s1.7 0 2.4-1.2l.2.2c-1 .3-.5 1-1 1.3Zm8.9 14.1-.4.2c-.3-.4-1.3-.7-1.5-1.5l-.7-2.3s1 1.7 1.5 2l1.5 1h.6l-1 .6Zm1.6-1-.2.2-.9-.4s1-.1 1.5-.5h.4s-.2.4-.8.8Zm3.8-10.7.3.1-.3.1v-.2Zm.5 6c0-.3-.2-.4-.3-.4 0 0 .2-.5 0-.8.6-.7 1.7-2.6 1.7-2.6s-.7 2.2-1.4 3.7Zm6 7.9c-.3-.2-.7-.2-.7-.2s0-.6-.2-.8c0-.1 0-.3.2-.4h.3l1.7-.2s-.4.7-1.3 1.6Zm16 2v.1Zm10.7 10.3-1 .3c-.5-.6-.6-1.3-.6-1.3l1.6 1Zm-11-17.4s.2.2.5.1c0 .2-.4.4-.8.7v-.8h.3Zm-4.3.6h-.1c-.2 0-.4 0-.7-.3l-.5-.5c.4 0 .8-.1 1-.3l.4.2-.1.9Zm-.4-1.7a2 2 0 0 1-.4 0c.2 0 .5-.3.5-.3l-.1.3Zm-1-2.3c-.1-.5-.5-.1-1-.2-.4 0-.5-.7-.5-.7s.6.2 1.2.1l.2.4c.2.6 1 .4 1.4.9-.1.7-.4 1.4-.7 1.7a2 2 0 0 1-.7-.2l.8.7-.6.5c-.8-.6-2-1.5-2.3-2.3 1.1.3 2.2-.4 2.2-1Zm18 18.7h1.3l-.6.8-.7-.8Zm2.8 7.4s-1-.4-1.8-1.6c1.3.6 3.2.3 3.2.3l-1.4 1.3Zm25.3-31.9.3.2c.4 0 .7-.2 1.1-.1.4 0 1 0 1.2-.2l.2-.3h.3c.2.1.4.8 0 1.4l-.8.8h-.8c-2.2-.4-3-1-3-1s1.3 0 1.5-.8Zm-.7 4.9h.5c.4 0 1 0 1.3.2.4.2 1 .2 1.2 0 .2-.3.7 0 1 0 .4 0 1-.6 1-.6l-1 2-1 .7a14 14 0 0 1-3.3-2.3h.3Zm3 7.7-.1.2-1.7-.8 1.8.6Zm1.8 3.6a7 7 0 0 0-.9.8h-.2c-.8-.5-2-.8-2.9-1.3l.9-.2h.9l-.3.7 1.1-.7 1.2-.2a3 3 0 0 0 1.2-.3c-.2.4-.5.8-1 1.2Zm1.3-1.8h-1.4l.6-.7c.2 0 .3.5 1 .3l-.2.4Zm4.6 3-.4-.8-.5-2 .4.2c1.2.3 2 0 2 0s.5.6 1 .6a8 8 0 0 1-2.5 2Zm2.8-6.3a6 6 0 0 1-2.8-1.3l.5.1.8.4c.3.3 2.3 0 2.3 0s-.2.4-.7.8Zm4.8-1.5c-.2-.5-.5-.6-.5-.6l1.2-.3c.4 0 .8 0 .8.2.1 0-.8 1-1.3 1l-.2-.3Zm2.8 3.7-.9-.8-1.4-1.8c.2 0 .4 0 .7-.2l.9-.3.8-.4h.1a5 5 0 0 1-.6.9l-1 .7s1.2-.1 2.5-1.3h.2c0 .9-.2 2-1.3 3.2Zm1.4-8.3a3 3 0 0 1-.5-.2h.7l-.3.2Zm4.7-3.2-.3-.2h.3v.2Zm5.5 6.2c-.5-.4-1-.9-1.1-1.3.5.1 1 0 1.4-.1l-.3 1.4Zm7.2 13.3c-.4.2-2 .5-2.4 1.4-.4.8 1.7 1.7 1.7 1.7l-.3.7-.7.5-.4-.4.6-.8-1 .6-1-1h.5l-1.6-1.8h1c.2.2 1-.2 1-.2l-.8-.5c-.5-.2-.5-.4-.4-.4l.9-.3c.4-.1.9-1 .9-1l-.7.3a3 3 0 0 0-.6-1.3c1.2.3 2.7 0 2.7 0l-1.5 1.3c-.5.5-.3 1 1 .7l1.7-.3s-.3.7-.7.8Zm12.3 1.5c.5.1 1.2.6 1.2.6l-1.1.7s.7.1 2-.2c1.2-.3 1.9-.7 1.9-.7s-.1.8-.6 1.2c-.5.4-.9-.3-1.6.4-.7.7-1 .2-1.3.4-.3.2-1-.3-1.4 0s-.9 1.1-1 1.7v.4c-1.1-.2-3-1.4-4.3-4 2.1-.1 3-1.3 2-2 .9.1 1.9-.5 2.2-1v.2c.3.4.6 0 1 .3a4 4 0 0 0 2.5 0l3.1-.8s-2.1 1.8-3.2 2c-1.1 0-2.4-.2-2.7 0 .3.7.8.8 1.3.8Z" style="fill:#0d0d0c" />
<!-- North -->
<!-- good! -->
	<path class="cls-2" d="M638.4 209.7c.5 0 1 .2 1.2.6s.3 1 .3 2l-.1.1-.2-.1c0-.3-.2-.6-.4-.8-.2-.3-.6-.4-1-.4-.6 0-1.2.2-1.7.6l-1.6 1.7-1.5 2.5a26.9 26.9 0 0 0-2.7 10l-.2-.2v-.3a39 39 0 0 0-2.8-7.3 16.7 16.7 0 0 0-3.7-5c-.3 2-.9 3.8-1.5 5.4-.7 1.6-1.5 3-2.4 4-1 1.1-2 2-3 2.5a7.7 7.7 0 0 1-5.7.5c-.5-.2-1-.4-1.4-.8-.4-.3-.7-.7-.9-1.1s-.3-1-.3-1.5a4.3 4.3 0 0 1 2-3.6h.1v.3l-.7 1c-.2.3-.3.8-.3 1.2 0 1 .4 2 1 2.6a5 5 0 0 0 3.2 1c2.4 0 4.5-1 6-3 1.7-2 2.8-5 3.4-9l-2.3-1.4a7 7 0 0 0-2.5-.5 3.4 3.4 0 0 0-3.1 1.8h-.2v-.1c0-.3.3-.7.6-1a5.2 5.2 0 0 1 2.2-1.5c.5-.2 1-.2 1.5-.2.7 0 1.3 0 2 .3l2 1 .1-.3.3-.3.2-.2v1.3l2 2a20.7 20.7 0 0 1 3.4 5.8c.4 1 .8 2 1.1 3.2a23.2 23.2 0 0 1 2.9-8.5l1.5-2.2c.5-.7 1-1.2 1.5-1.6s1-.5 1.6-.5Zm-1.2 9.7c.6 0 1 .2 1.3.5.3.4.4.8.4 1.3 0 .6 0 1.2-.3 1.8l-1 1.5c-.4.5-.8.7-1.2 1l-1.2.3c-.6 0-1-.2-1.3-.5a2 2 0 0 1-.4-1.3c0-.5 0-1 .3-1.5.2-.6.5-1 .8-1.5l1.2-1.1a3 3 0 0 1 1.4-.5Zm-1.4 5.7c.6 0 1-.3 1.4-.9a4 4 0 0 0 .5-2.2c0-.5-.1-1-.3-1.3a1 1 0 0 0-.9-.5c-.5 0-1 .3-1.3.8-.3.5-.5 1.3-.5 2.3 0 .6.1 1 .3 1.3.2.3.5.4.8.4Zm6.8-5v.9l-.3 1c.4-.8.7-1.5 1.1-2a2 2 0 0 1 1.3-.6c.3 0 .5 0 .6.2l.2.4c0 .2 0 .4-.2.7l-.3.5h-.1c0-.2 0-.3-.2-.4l-.4-.1c-.6 0-1.1.4-1.6 1.2-.5.8-.9 2-1.3 3.4 0 .1 0 .2-.2.2l-.3.2h-.4l-.3.1c-.2 0-.3 0-.2-.3a16 16 0 0 0 1.1-3.6 21.9 21.9 0 0 0 .3-1.7l-.2-.2-.6.3-.4.5h-.2s-.1 0 0-.2a4.2 4.2 0 0 1 .8-.8c.2 0 .3-.2.5-.3l.6-.1c.3 0 .5 0 .6.2l.1.5Zm7.4-.6c.2 0 .2.1.2.2l-.2.1h-1l-1 .1-.8 2.4-.3 2c0 .5.2.8.6.8s1-.4 1.5-1.2h.1v.2a3 3 0 0 1-1 1.2c-.4.4-.9.5-1.3.5s-.7 0-1-.3c-.2-.2-.3-.5-.3-.8l.4-2 .9-2.7-1.2.2c-.1 0-.1 0 0 0l.1-.3a1.8 1.8 0 0 1 .9-.3h.4a26.3 26.3 0 0 1 1.4-2.7l.4-.3a3.5 3.5 0 0 1 .9-.3l.1.1a19 19 0 0 0-1.6 3.2h1.9Zm-.2 6.1a56.2 56.2 0 0 1 5.7-13.7c1.1-1.6 2.2-2.9 3.3-3.7a5.2 5.2 0 0 1 3.2-1.4c.4 0 .8.1 1 .3l.5.7v1l-.4.8h-.1v-.1c0-.3 0-.7-.4-1-.2-.3-.7-.4-1.2-.4-1 0-1.8.2-2.6.7a8 8 0 0 0-2.4 2.4c-.8 1.2-1.5 2.7-2.2 4.5a72 72 0 0 0-2.3 7 8.5 8.5 0 0 1 2-2.3 5 5 0 0 1 1.2-.7 3 3 0 0 1 1.3-.3l.5.1.1.4c0 .2 0 .5-.2.7-.4.6-.7 1.3-.9 2l-.3 1.7v.6l.4.2c.1 0 .3 0 .5-.2l.5-.6h.2v.1c-.2.4-.5.7-1 1a2 2 0 0 1-1 .4 1 1 0 0 1-.7-.2c-.2-.2-.3-.4-.3-.8l.1-1a9.3 9.3 0 0 1 1-2.9l.1-.4c0-.2 0-.3-.2-.3a2 2 0 0 0-1 .4c-.4.2-.8.6-1.1 1a11 11 0 0 0-1.9 3.7l-.4.3c-.2.2-.5.2-.8.2-.1 0-.2 0-.2-.2Z" />
<!-- port, Wa -->
<!-- good! -->
	<path class="cls-2" d="M663.3 219.4c.3 0 .6.2.9.5.2.4.3.8.3 1.3a4 4 0 0 1-.4 1.9 5 5 0 0 1-4.4 2.7h-.8l-.7 2.6a11 11 0 0 0-.4 2.6c0 .4.2.5.6.4h.4l.3-.3.1.1v.2l-.4.2-.7.2-.6.1h-.9l-.1-.3c0-.9.1-1.9.4-3l1-3.5a1 1 0 0 1-.1-.3c0-.1 0-.2.4-.3l.7-1.8.7-1.8.5-1.2c0-.2-.2-.2-.4-.1-.2 0-.5.3-.8.7h-.1v-.2a6.4 6.4 0 0 1 1-1l.6-.2.5-.2c.2 0 .4 0 .4.3v.5a24 24 0 0 1-.9 2 10.8 10.8 0 0 1 1.3-1.4l.8-.5c.2-.2.5-.2.8-.2Zm-3 6a2.7 2.7 0 0 0 2-1c.3-.3.5-.7.7-1.2l.2-1.6c0-.4 0-.7-.2-1a.7.7 0 0 0-.7-.3c-.4 0-.8.3-1.4 1-.5.7-1 1.7-1.4 2.9l-.2.4-.1.4c.2.2.6.3 1 .3Zm9-6c.5 0 1 .2 1.3.5.2.4.4.8.4 1.3a4 4 0 0 1-.4 1.8l-1 1.5c-.4.5-.7.7-1.2 1l-1.2.3c-.5 0-1-.2-1.2-.5a2 2 0 0 1-.5-1.3l.3-1.5c.2-.6.5-1 .9-1.5.3-.5.7-.8 1.1-1.1a3 3 0 0 1 1.5-.5Zm-1.4 5.7c.5 0 1-.3 1.3-.9a4 4 0 0 0 .5-2.2c0-.5 0-1-.3-1.3a1 1 0 0 0-.8-.5c-.6 0-1 .3-1.4.8-.3.5-.5 1.3-.5 2.3 0 .6.1 1 .4 1.3.2.3.4.4.8.4Zm6.7-5v.9l-.2 1 1-2c.5-.4 1-.6 1.4-.6.2 0 .4 0 .6.2l.2.4-.2.7-.3.5h-.1l-.2-.4-.4-.1c-.6 0-1.2.4-1.6 1.2-.5.8-1 2-1.3 3.4l-.2.2-.4.2h-.4l-.3.1c-.2 0-.2 0-.2-.3a16 16 0 0 0 1.2-3.6 21.9 21.9 0 0 0 .2-1.7s0-.2-.2-.2-.3.1-.5.3l-.5.5h-.2v-.2a4.2 4.2 0 0 1 .8-.8l.6-.3.5-.1c.3 0 .5 0 .6.2l.1.5Zm7.5-.6.1.2-.2.1h-.9l-1 .1-.8 2.4c-.3.8-.4 1.4-.4 2 0 .5.2.8.7.8s.9-.4 1.4-1.2h.2v.2a4 4 0 0 1-1 1.2c-.5.4-1 .5-1.3.5s-.8 0-1-.3c-.2-.2-.3-.5-.3-.8l.3-2 1-2.7-1.3.2c0-.2 0-.2.2-.3a1.8 1.8 0 0 1 .8-.3h.4a26.3 26.3 0 0 1 1.4-2.7l.4-.3a3.5 3.5 0 0 1 1-.3v.1a19 19 0 0 0-1.6 3.2h2Zm1.3 4.5.2.4v.5c0 .6-.1 1.1-.5 1.7-.5.6-1 1-1.7 1.4h-.1v-.3c.4-.2.7-.4 1-.8.2-.3.3-.7.3-1s-.1-.7-.3-.7v-.3a1.7 1.7 0 0 1 .7-.7l.4-.2Zm19.1 1v-3.1c0-1.1-.2-2.2-.3-3.2v-2.8c0-.8 0-1.5.3-2a53.8 53.8 0 0 0-6.6 12l-.3-.3.2-.6a25 25 0 0 0 1.7-6.9v-3l-.7-2.3c-.2-.7-.6-1.2-1.1-1.6s-1-.5-1.7-.5-1.2.1-1.7.4c-.4.2-.8.6-1.2 1l-.7 1.6-.3 1.8-.1.2-.1-.1c0-.8 0-1.6.3-2.3.2-.8.5-1.4 1-2a4.8 4.8 0 0 1 3.8-1.8c1 0 1.8.4 2.4 1 .6.7 1 1.6 1.2 2.7a13 13 0 0 1 0 3.9 25 25 0 0 1-1.2 4.6 51.7 51.7 0 0 1 5.3-8.6l2-2.2.3.1v.4c-.3.2-.6.3-.8.6a3 3 0 0 0-.6 1.4l-.1 1.8v2.2l.2 2.2a42.5 42.5 0 0 1 .1 4.1l1.5-1.7 1.5-1.7 1.6-1.7a9.7 9.7 0 0 0 2.3-3.8c.2-.6.3-1.4.3-2.3 0-.5 0-1-.2-1.3-.2-.3-.4-.4-.7-.4-.2 0-.3 0-.5.3l-.4.6h-.1l-.1-.1c.2-.5.4-1 .8-1.4.3-.4.7-.6 1-.6.6 0 1 .3 1.2.7.3.4.4 1 .4 1.6a7.7 7.7 0 0 1-1.6 4.9l-1.8 2-2 2a38.7 38.7 0 0 0-4.5 5v-1Zm14.5-.8.1.2c-.3.4-.6.8-1 1-.4.3-.7.4-1 .4-.4 0-.7-.3-.8-.8a5 5 0 0 1 .2-2c-.5.8-1 1.4-1.5 1.9s-1 .8-1.7 1a1 1 0 0 1-.9-.6c-.2-.4-.3-.8-.3-1.3a4.5 4.5 0 0 1 1.4-3.1 6 6 0 0 1 1.5-1c.6-.4 1.1-.5 1.7-.5.5 0 1 .1 1.3.4l.7-.3.7-.1v.1a9.8 9.8 0 0 0-2 4.5l.3.9s.2.1.4 0c.2 0 .5-.2.8-.6Zm-4.9.7c.2 0 .4-.1.7-.4l1-1a15 15 0 0 0 1.7-3 1 1 0 0 0-.4-.5l-.9-.2c-.4 0-.7 0-1 .3-.4.2-.7.4-1 .8l-.5 1.2c-.2.5-.2 1-.2 1.6 0 .4 0 .6.2.9.1.2.2.3.4.3Z" />

</svg>