<svg id="Layer_1" xmlns="http://www.w3.org/2000/svg" viewBox="0 0 774.9 346.2">
	<style>.cls-2{fill:#fff}.cls-5{font-family:FranklinGothic-Heavy,&apos;Franklin Gothic Heavy&apos;}.cls-5,.cls-6{fill:#a13d33}.cls-5{font-size:36.63px}.cls-14{letter-spacing:.02em}</style>
	
	<ellipse class="cls-2" cx="472.1" cy="208.3" rx="302.2" ry="137.3" />

	<path d="M472 346c-81 0-157-14-214-40s-89-61-89-98 32-71 89-97 133-41 214-41 157 15 214 41 89 60 89 97-32 72-89 98-133 40-214 40Zm0-274c-166 0-301 61-301 136s135 137 301 137 302-61 302-137S638 72 472 72Z" style="fill:#131211" />

	<path d="M453 61a1726 1726 0 0 0-21-55c-2-5-8-7-13-5l-28 18a655 655 0 0 1-119 69l-38 16-15 5-4 2h-1l8 40c4-1 7 0 8 4l2 6c1 8 2 8 5 16l2 7 1 2 1 3v3l229-82v-1l-1-2-1-2-1-3-14-41Z" />

	<path d="m213 110-3 1-14 3-61 15-80 22-40 13c-7 2-12 7-14 15-2 9-1 18 4 27 9 15 28 19 41 7l5-8 3-3 11-3 71-21 82-25 3-1 1-1-8-41h-1ZM32 194c-2 2-5 3-8 1-2-1-3-3-3-5 0-3 2-6 5-7s7 0 8 3c2 3 1 6-2 8Zm82-33c0 3-2 6-5 7s-7 0-8-2c-2-3-1-7 1-9 3-2 6-2 9-1 2 1 3 3 3 5Zm78-18-3 4-7-1c-2-1-3-4-3-6 1-4 5-7 9-6 4 0 7 5 4 9Z" />

	<path class="cls-6" d="M332 71c1 1 0 1-1 2l-8 1 6 17 2 1-5 5c-2 0-3 0-4-2l2-2h1l-1 2 2 1c1 0 2-2 1-5l-6-17-2 1-3 1c-2 2-1 4 0 5h1l1-2h-1v-1h1v2l-1 1c-1 1-2 0-2-1h-1c0 3 3 4 4 3h1l-1 1c-2 1-4-1-4-2-3-1-2-6 2-8h1c5-2 10-1 12-2h1l1-2-1-1v1-2l2 1v2Z" />

	<path class="cls-6" d="m327 77 5-1c0-1 0 0 0 0v2l1 4 4-1-2-4-1-2h-1l5-2v3l3 10 2 2s1 0 0 0l-4 2v-3l-2-6-4 2 2 5 2 2s1 0 0 0l-4 2c-1 0-1 0 0 0v-3l-4-10-1-2h-1c0 1 0 0 0 0Zm13-4 7-3 1 2h-1l-2-1-2 1 2 6h1l1-2v-1 1l2 3h-1v-1h-3l3 8 2-1 2-2c-1 0 0 0 0 0v2l-7 2c0 1-1 0 0 0v-2l-3-10-2-2c-1 0-1 0 0 0Zm-107 53c5-2 8 0 11 1l3 2c0 4-2 7-4 8 2 0 10 0 14 5 2 7 1 16-8 19-5 2-12 1-14-5-2-5 1-10 5-11l-5-12-2-2h-1l8-3-1 4 2 6 3-7c-1-2-4-6-9-4-4 1-6 5-5 8 1 4 4 4 4 4l-1 1-2-2-4-2c-2-4 2-8 6-10Zm6 30c2 4 6 5 10 4 5-2 8-8 4-14 0-2-1-3-2-3h-1v2h1l-1 1-2-1c-1-1 0-3 1-3h2v-1c-2-1-5-3-9-2l1 5h1c5 2 5 6 4 7 1 2 2 3 1 5l-1 1s-2-1-1-2v-1c1-2 0-3-2-4h-3l-3 2v4Zm13-27 8-3h-1v4l5 13c0 3 3 4 5 3s3-3 2-5l-5-14-2-2h-1l5-2v1l-1 3 5 13c1 4 0 7-4 9-3 1-7-1-8-4l-5-14-2-2h-1Zm18-7 17-6 1 3h-1l-3-1-4 1 7 19 3 3v-1 1l-7 2c0 1-1 0 0 0l1-4-7-18-4 1-2 3-1-3Zm23-8h3l1-1 2 7c1 0 0 0 0 0-2-3-4-5-5-4-2 1-2 5 0 11 2 5 5 9 7 8 1 0 2-2 2-5-1 0 0 0 0 0l2 5h-1l-3 2c-3 1-8-3-11-9-2-6-1-13 3-14Zm6-2 7-3v1l-1 3 3 7 6-3-3-6-2-2h-1v-1l8-2h-1v4l6 16 2 2h1v1l-8 2h1v-4l-3-9-6 2 3 9 3 3c1 0 1 0 0 0l-7 3v-1l1-3-6-17-3-2s-1 0 0 0Zm19-7 12-4 1 2v1h-1v-1h-3l-3 1 3 9 1-1 2-2v-1l2 5h-1l-3-1-1 1 4 11 3-1 3-3 1 3-12 4v-1l1-3-6-16-3-3c0 1-1 0 0 0Zm14-5 8-3c3-1 6 1 7 4 1 2 0 4-1 5l-1 1 3 2 6 7 1 1h1l-2 2c-3 0-4-1-5-3l-4-5c-1-2-2-3-4-3v1l3 9 3 2c1 0 1 0 0 0l-7 3s-1 0 0 0v-1l1-3-6-16-3-3c0 1-1 0 0 0Zm6-1 3 9 1-1c2 0 2-3 2-5s-3-4-5-4l-1 1Zm52 9 2-2c0 2-1 3-3 4h-5l-4-2-3 2-1 1c-5 1-10-1-12-7 0-3 1-6 4-7 2-1 3 0 3 1 4 0 6 4 3 6 1 0 3 0 5 2l1-4-2-5c-1-1-3-2-4-1l-1 1v-3h-5c-3-1-7-2-7-6 0-3 2-5 4-6h3l1-6h1c1-1 2 1 1 2-2 1-2 2-2 4 4 0 6 3 3 4l-2 4h-1c-2 0-3-2-2-4l1-1h1l-1-2h-1l-1 1c-4 2-2 8 2 9h6c4 1 7 2 9 7 0 2 0 5-2 7 3 1 5 2 9 1Zm-15 2 4-3c-2-2-4-3-7-3 0 0 2-2 1-3 0-2-2-2-3-2-2 1-3 4-3 6l2-2c1-1 2 0 2 1l2 1v4l-3-1h2l1-1c0-1-1-3-3-2l-1 3 2 2h4Zm-5-24h-1v2h1c1 0 2-1 1-3l-2-2 1 3Z" />

	<path class="cls-6" d="m377 84 8-3-1 1v3l2 6 6-2-2-6c-1-1-2-3-3-2v-1l7-2-1 4 6 16c1 1 2 3 3 2v1l-7 2c-1 0-1 0 0 0l1-4-4-9-6 2 4 9c0 2 2 3 2 3h1c0-1 0 0 0 0l-8 3v-1h1v-3l-6-17-2-2h-1Zm22 5c-3-6-1-13 2-14 4-1 9 3 12 9 2 7 1 13-3 14-4 2-9-2-11-9Zm3-1c2 5 5 9 7 8 2 0 2-5 0-11-2-5-5-9-7-8s-2 6 0 11Zm6-2-1 6s-1-4-3-5v-5l4 4Z" />

	<path class="cls-6" d="m409 72 8-3c3-1 6 1 7 4 1 2 0 4-1 5l-2 2-3 1 3 9c1 1 2 3 3 2v1l-7 2s-1 0 0 0l1-4-6-16c-1-1-2-3-3-2v-1Zm10 8c2-1 2-3 2-6s-3-4-5-3h-2l4 9h1Z" />

	<path class="cls-6" d="m422 67 9-3c3-1 6 1 7 4 1 2 0 4-1 5l-2 2-3 1 3 9c1 1 2 3 3 2v1l-7 2c-1 0-1 0 0 0v-4l-5-16c-1-1-2-3-3-2l-1-1Zm11 8c1-1 2-3 1-6-1-2-2-4-4-3h-2l3 9h2Z" />

	<path class="cls-6" d="m436 63 12-5 1 3-4-1-3 1 3 9h1c1-1 3-2 2-3h1l1 4v1-1h-5l4 12 4-2 2-2v-1l1 3-12 4c0 1 0 0 0 0h1v-4l-6-16-2-2h-1Z" />

	<text transform="translate(202 267)" style="font-family:FranklinGothic-Heavy,'Franklin Gothic Heavy';font-size:43.66px">
		<tspan x="0" y="0">MOBILE </tspan>
		<tspan x="168.8" y="0" style="letter-spacing:-.03em">F</tspan>
		<tspan x="191.2" y="0">ARM SL</tspan>
		<tspan x="346.9" y="0" style="letter-spacing:-.02em">A</tspan>
		<tspan x="374.1" y="0">UGHTER</tspan>
	</text>
	<text transform="translate(240 294)" style="fill:#a13d33;font-size:25.81px;font-family:FranklinGothic-Heavy,'Franklin Gothic Heavy'">
		<tspan x="0" y="0">ww</tspan>
		<tspan x="38.3" y="0" style="letter-spacing:-.02em">w</tspan>
		<tspan x="56.9" y="0">.theno</tspan>
		<tspan class="cls-14" x="134.5" y="0">r</tspan>
		<tspan x="144.9" y="0">thpo</tspan>
		<tspan class="cls-14" x="200.2" y="0">r</tspan>
		<tspan x="210.5" y="0">tbut</tspan>
		<tspan x="260" y="0" style="letter-spacing:.01em">c</tspan>
		<tspan x="273.8" y="0">he</tspan>
		<tspan x="304.2" y="0" style="letter-spacing:0">r</tspan>
		<tspan x="314.1" y="0">shoppe.com</tspan>
	</text>
	<text class="cls-5" transform="rotate(5 -904 5924)">
		<tspan x="0" y="0">5</tspan>
	</text>
	<text class="cls-5" transform="rotate(7 -570 4388)">
		<tspan x="0" y="0">0</tspan>
	</text>
	<text class="cls-5" transform="rotate(9 -379 3501)">
		<tspan x="0" y="0">9</tspan>
	</text>
	<text class="cls-5" transform="rotate(11 -285 3077)">
		<tspan x="0" y="0">-</tspan>
	</text>
	<text class="cls-5" transform="rotate(13 -207 2694)">
		<tspan x="0" y="0">6</tspan>
	</text>
	<text class="cls-5" transform="rotate(15 -126 2313)">
		<tspan x="0" y="0">4</tspan>
	</text>
	<text class="cls-5" transform="rotate(18 -62 2009)">
		<tspan x="0" y="0">0</tspan>
	</text>
	<text class="cls-5" transform="rotate(21 -26 1834)">
		<tspan x="0" y="0">-</tspan>
	</text>
	<text class="cls-5" transform="rotate(24 13 1648)">
		<tspan x="0" y="0">6</tspan>
	</text>
	<text class="cls-5" transform="rotate(28 57 1433)">
		<tspan x="0" y="0">7</tspan>
	</text>
	<text class="cls-5" transform="rotate(33 98 1237)">
		<tspan x="0" y="0">6</tspan>
	</text>
	<text class="cls-5" transform="rotate(41 143 1030)">
		<tspan x="0" y="0">6</tspan>
	</text>
	<path d="M734 222h-1l-9-2h-1c-8 0-6-7-12-13l-13-10-19-15c-5-5-9-8-16-6-4 1-6 0-8-2a942 942 0 0 0-32-33h-7l-44 25c-5 2-9 6-13 9-3 2-5 3-8 3l-6 1c-8 0-14 4-20 9l-13 11 1-3 10-11c5-7 12-10 21-10 5 1 8-1 12-4l11-7 3-4-3-2c-10-2-16-9-24-14l-29-20c-2-2-5-3-7-3-5 1-9-1-13-4-8-7-17-12-27-17-9-5-18-6-27 0l-14 8c-2 1-4 2-7 0-5-3-9-1-13 2l-21 19c-7 4-13 10-18 15-4 4-4 6 2 7 8 1 15 5 21 10l5 5-1 1-5-4c-6-4-13-8-20-9-3 0-5-2-8-3-5-3-10-7-16-7l-4-1c-5-3-10-2-15 1l-33 23c-2 1-4 3-8 1-4-1-8 1-12 4-14 10-28 22-40 34v1c-9 6-17 12-27 15-2 0-3 2-4 4v1c0 3 2 6 6 6l513-1h13l2-2c2-3 1-7-2-8Z" style="fill:#544c4c" />

	<path d="m737 230-2-3-1-2v-5l-2-1 3-3v-1h1l-5 1 2-2 2-1h-2l2-1h-5l-1-1v-1h1l4-2h-2l2-1-1-2h-3l-2-1 3-2-2 1 2-3-1 1h-1l-1-1h-1l1-2-1-1-1-2v-3l-1-2v-2 2l-2 6h1l-1 1h1v1h-4l1 1 2 1-1 1h1l-2 2 1 2-3 1-1 1h2v1h2v1l1-1-1 3-2 2h1l2 1-1 1-1 1h-2l1-1v-1h-1l-1-1 2-1 1-3-1 1-2-1-1-1-2-1 1-1 1-1v-1h-2l-2-2h-1v-1l1-1h3l-2-1h2l1-2h-2l-1-1 3-3v-2s-1 2-3 2h-3l-1-2h1v-2l3-1h-1l-1-2v-1h-1v-2l-1-2v-3l-1-1v-2 5l-1 3v-1 2l-1 1v3h-2 2-4c1 2 3 2 3 2h-3l3 1-2 3h1l1-1 2-2-2 4-3 3h1l2 1-1 2-1 2v-2l-2 1h-3l1-2-1-1-1-3 2 2 1 1h2-2l2-1-2-2a141 141 0 0 0-1-3l1 1 1-1h-1l-1-1-1-1-1-2 2-1v-2h-1l-2-1v-2l1-1-1-2-1-2-1-5v1l-1 3v2l-1 2v1l-1 1 1 1-1 2-2 1-1 1 1 1-1 1 2-1h1l-1 2-2 1-1 1-2 1-2 1h2l-1 1h2l2-1-1 3-3 2 2-1 3-1 3-4-1 3-1 3-2 1-1 2h3l-3 2-4 1-2 1h1-3l-1-2h1l1-1v-1l-2-2v-1s0-6-2-6c-1-1 0 3-1 4l-2 2v1l-2 1h3v2l-2 1 1-1h-1l-2-1-2-1-2-2h1l-1-1h3l1-1h-1l-1-1-2-1-1-1v-2h1l-1-1h-1 2l1-2h-2l-2-2 1-1 1 1v-2l-1-1-1-3-1-3v1l-1 2-1 4-2 1-1-1h2l-1-1h-1l1-1v-2l-1-1v-3l-1 2v3l-1 1v2h1v2l-3 1h-2l-1 1h2l-1 2h-1l1 1 2-1 1-1v1h-1 1l-2 2h1-3v-1h-1v-7 1l-1 2v2h-1l1 1-1 1h-1v1h1v1h-2l-2-1-1-1-1-1-1-2h1c0 1 0 0 0 0l1 1h4l-1-1 2-1-3 1-2-1 2-2v-2h-2l-2-1v-1h1v-2h-1l-1-1v-2l1 1 1-1h-1l2-1-1-1-2-1v-6l-1 2v3l-1 1v1l-1 1-1 1h3l-1 1-1 1h2l-1 1-1 1h-3l1 1h-2l-1-1 1-1-3-2h3l-2-2-1-2v-1l-1-2v1l-1 2-2 6 2-1-1 2-1 2h-1l-1 1 1 1-3 2c-1 0 0 0 0 0l2 1 2-1-1 1-6 3c1 1 6 0 7-1-1 3-3 4-4 4l-3 1c0 1 0 2 4 2l-2 2 1 1v1l-1 2-1-1-2-1 2-1-2-1-2-2 2-1-2-2c1 1 2 0 2-1-1 0-2 0-3-2h1l-1-1-1-3v-4 4l-1 1v1l-1 1h1l-2 1-1 1 1 1h1-1v1c-1 0 0 0 0 0h1l-1 1h-2l1 1v1h1l-1 1-2 1h-1v1h2v2l-2 1h-1v1s2 2 3 1l-2 2-3-3-2-3 4 1 2-1-3-1 1-1s-1 1-3-1c-1-1-3-3-3-5l4 4h4l-3-3s2-1 1-2l-4-2-1-1 2-2-2-1-2-1 2-1-1-1v-3l-1-2-1-4v3l-1 2v1h-1v1l1 1-2 1-1 1 1 1h2l-1 1h-1l-1 1-1 1h1l1 1h1-1l-1 1-2 1h-1l-1-1v-4 2l-1 3-1-1v-1h-2l-1-2 1-1 1 1v-2l-1-1-1-3-1-3v1l-1 2-1 4-2 2c-1 1 1 0 1 1l-2 1-1 1-1 1h-2v-2h1l-1-1 1-1 2-1v-1l-1-1h-1v-2c1 0 0 0 0 0v-1l-1-2v-2l-1-1v-3 4l-1 1-1 3 1-1v2l-1 1-1 3v-1l-1 1v1l-2-1 2 2h-2l1 1v2l-1 1v1h1c-1 1-2 2-3 1l-3-3 1 1h2l1-1h-1l-1-1-1-1-1-2 2-1-1-2h-1l-1-1v-1l-1-1 2-1-1-2-1-2-1-5-1 2v4l-1 2v1l-1 1 1 1h-4l-2-1 2-1-3-2h2l-1-2-1-2v-2l-1-1v1l-1 2-2 6 1-1v2l-1 2h-1l-1 1 1 1-3 1v1l2 1 1-1v1l-6 3c1 1 6 0 7-1-1 3-3 3-4 4l-1-2-1 2-1 1 1 2-2 1h-1l-1-1 2-1-2-2c1 1 2 0 1-1l-2-2h1l-1-1-1-3v-4l-1 2v4l-1 1h1l-2 1-1 1v-1c0-1 0 0 0 0l-1-1h2v-1l-2-1-1-2h2v-1l-1-2-1-2-1-4v2l-1 2-1 4h-3v-1l1 1-1-1v-1h1v-2l-1-1v-4l-1 2v3l-1 2-1-1h1v-2l-1-2-1-4v3l-1 2-1 1v2l-1 1-1 1 1 1h2l-1 1h-2v-1l-1 1v2l-1 1v2c-1 0-5 0-6-2h5-1l2-1h-3l-2-1 2-1v-2h-2l-2-2c-1 0 0 0 0 0l1-1v-2h-2v-2h2l-1-1 1-1h-1l-1-1v-4l-1-3v5l-1 1v1l-1 1c-1 0 0 0 0 0v1l-2 1h2l1-1 1 1-2 1v1h1v1l-1 1-3-1 1 1v1h-2l-2-1 2-1-3-3 2 1-1-2-1-2v-2l-1-1v1l-1 2-2 6 1-2-1 3-1 1v1l-1 1h1l-3 2v1h3v1l-6 3c1 1 6 0 7-1-2 3-3 3-5 4l-2 1s0 2 4 2l-2 1c-1 1-1 2 1 2s0 1 0 1l-1 1h-1l-2-1 2-1-2-2-2-1 2-1-2-2c1 1 2 0 1-1l-2-2h1l-1-2-1-2v-4l-1 2v4l-1 1h1l-2 1-1 1v-1 1h2l-1 1h-1l1 1h1l-1 1h-2l1 1v1c-1 0 0 0 0 0h1l-1 1-2 1h-1v1h2v2l-2 1h-1v1l3 1-2 2-3-3-2-3 4 1 1-1-2-1 1-1s-1 1-3-1c-1-1-3-3-3-5l4 3h4c-2 0-3-2-3-2s2-1 1-2l-4-2-1-1s2-1 1-2l-2-1-1-1 2-1-2-1v-1l1-2-1-2-1-4v1l-1 2v2l-1 1-1 1h1v1l-1 1-1 1 1 1h2l-1 1h-1l-1 1-1 1h1l1 1-1 1-2 1-4-1h-1l-1-1-1-2h1l1-1-1-2-1-2-1-4-1 1v2l-2 4-2 2c0 2 2 0 2 1l-2 1-1 1-1 1h-2 1-1l1 1h3l-2 2-2 1h-1v1h3l1 1-1 1h-1l1 1h2l-5 3v-1c2 0 3 0 2-1l-2-1-2-3-1-1h2v-1l-1-1h-1v-8l-1 1-1 3v2l-1 1h-1l1 1 1 1-3 1c0-1 0 0 0 0l-1-1v1h-1l2-2 1-1 1-2c-1 2-5 2-6 2l-1-1-1-1h-1l2-1h1l-1-1-1-1h-2v-1h1l1-1-1-1-1-1 1-1-1-1-1-1v-2l-1-2v-1l-1 4-1 3h-2l2-2-3-2 2 1-1-2-1-2-1-2v-2l-1 2v2l-3 6 2-2-1 3-1 1-1 1v1h1l-4 2 1 1h3l-4 3-1-1v-3l-1-3v4l-1 3-1 1 1 1-1 1s-2 0-3-2h2l-1-2-1-2v-4l-1 2v4l-1 1-4-2v-1l1 1h2v-1l-3-2 1-1c0-1 0 0 0 0l-1-1-1-2-1-2 1 1-2-5-1-2v-2l-1 2v1l-1 3-1 1h2l-3 2 2 2h-3l1-2-1-2-1-4-1 1v4l-1 1h-1l1 1-1 2-1 1 1 1h1-1l-1 1h-1l-1 2h1l2 1h-1l-1 1-1 1-6-2 1 2 1 1 2 1-3 1 1 1s0-1 0 0l-3-1 1-1 1-1h-1l-1-1v-1l-1-1v-3l-1-1v8h-1l-1 1v1h2l-1 1-2 3-2 1c-1 1 0 1 2 1v1l-5-3h3l-1-1-1-1 1-1h3v-1h-1l-2-1-2-1 3-1 1-1h-2l-1-1-1-1-2-1s2 1 2-1l-3-2-1-3-1-2v-2l-1 4-1 2-1 2v1h2l-1 2-1 1h-1v1h-4l-2-1h-1l-1-1h2l1-1-1-1h-1l-1-1-1-1h2l1-1-1-1-1-1v-2l-1-1-1-2v-3l-1 5-1 2v1l1 1-2 2h2l-2 2h-1c-1 1 1 3 1 3l-1 1-4 1c-1 2 1 3 1 3l-3 2h4l4-4-3 6-3 1 1 1h-2l1 1h4l-2 3-2 2-3-1 3-1v-1h-1l-2-2v-1l2-1v-1h-3l-1-1h1v-1c-1 0 0 0 0 0v-1h1l-2-1-1-1 1 1 1-1h-1l-1-1h2v-1h-1l-2-1 1-1h-1v-3l-1-1v-3 5l-1 2-1 2h1l-2 2 1 1-2 1 2 1-2 2-2 1 2 1-2 1-1 1-1-2s-1 0 0 0c2-1 2-1 1-2l-2-1c4 0 4-2 4-3l-2-1c-2 0-3 0-5-4l7 2-6-4v-1l1 1h2v-1l-3-2 1-1h-1l-1-1-1-2v-2l1 2-2-6-1-2v-2l-1 2v2l-1 2-1 2 2-1-3 2 2 2h-2l-2 1v-1l1-1h-4l-1-1h2v-1l-2-2 2 1 1-1h-1v-1h-1v-1l-1-1v-3l-1-3v7l-1 1h-1l1 1-1 1h2v1l-1 1h-1v2l1 1s1 0 0 0l-2 2h-2v2l2 1-2 1h-3l2 1h-1 6l-1 1-1 2-1 1h-4l1-1v-1l-1-1v-1l-1-1v-2l-1-1v6c-1 0 0 0 0 0l-1 1-1 1-2-1h1l-2-1h1-1v-1h1l2 1h1l-1-1-1-1h2l-1-2h-2l-3-1v-2h1v-1l-1-2v-3l-1-2v5l-1 1v1h1l-1 1-1 1h2v1h-1l-2-1-1-4-1-2v-2l-1 4-1 2-1 2v1h1l1 1-1 1-2 1v1h2l-1 1h-1l1 1v2l-1 1h-1l-2 1-1 1 2 1h2v1l-1 2-3 1h-3l1 2-2-2v-1h2l1-1h-2v-1l-2-2-1-5-1 6-1 2-1 2-1 1h2l-1 2-3 1h1l-2-1-4-1-3-3 3 1-1-2-1-2-2-2-1-3 3 3 3 2 2 1-2-3-2-2h2l2 1-1-1h2l-2-1-2-1-1-1-2-1-1-2h3l-1-1h1l-1-2-2-1-1-1 1-1-1-2v-1l-1-1v-2l-1-3v-2l-1 6-1 2-1 2 1 1c1 0 0 0 0 0v2l-1 1h-2v1l2 2-1 2-1 1-1 1h-1 4l-3 2-2 3h2l-2 1h2l1-1 2-2-1 2-1 2 1 1-3 1-2-2 1 2-2-2-1-1 2-1h1l-3-3-2-5 2 3 1 1v-1l1 1-2-3 3-1h-3s2 0 3-2h-3 1l-2-1v-2l-1-2v-1l1 1-2-3v-5 2l-1 1v2l-1 2v2-1 2l-1 1-1 1v1h-1l3 1 1 1-1 1 1-1v2l-4 1c-2 0-3-2-3-2v2s2 3 4 3l-2 1h-2l1 1 3 1-3 1h3l1 1v1h-1l-2 2-2-1v2l1 1 1 1-1 1-2 1h-3l1 3 2 1-2 1v1l1 1h-2l-1-1v-2h2l-2-3-1-3 2 1-1-1h2l2-1h-1l-3-1 1-2-2-2h1v-2h1l1-1h-4v-2l1 1-1-1h1l-2-6v-2 1l-1 3v3l-1 1-1 1 1 2-1 1-1 1v-1 1l-2-2c0 2 2 3 2 3h-2l3 2-2 1h-3l-1 1 2 2h-2l4 2h1v1l-1 1h-1l-4-1 2 2-2-1 2 2 2 2-4-2 1 1-1 1 3 3-2 1v5l-1 2-2 2v3h155l80-1 299-1v-2Zm-480-14v-1l-1-1h-1l-2-1h-1l-1-1h2l2 1-1-1 1-1 2-1h-3l-3-2 3 1h3l2 1c-1 0 0 2 2 2l-4 4Zm14-4-1 1h-1l1 1h-1v-1h-1l2-2-2-1-1-1h1l2-1-2-1h3l-1 1h-1l1 1h1v1h-1l1 1h1l-2 1h1Zm4-16-1-1h2l-1 1Zm5-6Zm5 3Zm2 8-1 1-1-3 3 1-1-1-1-1 1 1h2l-2 2Zm2-3-1-1h2l-1 1Zm4 1h2l1-1h1l-1 1h-3Zm4 6v1l-3-2 1-1a4 4 0 0 0 3 0l-1 2Zm4-3h1l1 1h-2v-1Zm3 3h-1l-1-2 1 1h1l1 1v-1h2l-3 1Zm0-4 2-1-2 1Zm0-6h-1l-1-2h6l-4 2Zm1-5h-1v-2h3l1 1-3 1Zm27 30-1-1h3l-2 1Zm2-6v-1h1l-1 1Zm3 1h-1l2-1-1 1Zm11-1Zm2-7Zm1-3-3 1h-1l3-1-1-1a16 16 0 0 0 3 0l-1 1Zm1-3h-1 1Zm0-3h-1l-1 1h-2l-1-1v-1l2 1 2-1 2-1h-3l1-2h2v-1h1v1h-1l2 1-3 3Zm12 8h-1l-2-1 3 1Zm-2 2h2l-1 1-1-1Zm2 4v-1h1l-1 1Zm14-7h-2l1 1-4-2 1-1a4 4 0 0 0 3 0l-1 1h3l-1 1Zm0-6-3 1-2-1h-1 3l1-1h-2l1-1h4l-1 2Zm8-11Zm7 4 3 1v1h2l-1 1h-1l1 1c-1-1-3-1-4-4Zm4 4h1-1Zm6 4-1-1h1v1Zm0-3-2-1h1l2 1h-1Zm5-2 1-1h1-2l-1-1 5-2c-1 3-3 4-4 4Zm11-7-1 1v-1l1-1h1l-1 1Zm12 9h-1 1Zm-5 8v-1h1l-1 1Zm2 0 1-1h-1v-1h4l-4 2Zm4-7-1 1-2 1-2-1-1-2h4l1 1h2-1Zm9 13-1-1h1v1Zm1-3-1-1h2l-1 1Zm0-3h-1l3-1-2 1Zm11-5h1-1Zm2 6h1-1Zm2 7Zm1-9h-1l-3-2h3l-2 1h4l-1 1Zm-1-6h-1l-2-1h-1l-3-3 2-1c0-1 0 0 0 0l-1-1h1l2 1 1 2h-3l2 1h5l-2 2Zm11 16v-2l1 1-1 1Zm3-3h1l-1 1v-1Zm2 8-1-2h3l-2 2Zm25-32h2l1-1h1v2h-2l-3-1h1Zm0 4 2 1h2l1-1-1 2-1 1-3-3Zm3 8h-2 2Zm2 4-1 1v-1l-3-1h1v1l1-1h1l2-1-1 2Zm1-2h-1v-1l1 1Zm3-9-1-2h1l1 2 2 1 1 1h-2l-1-1-1-1Zm2 12-1-1v-2h1a4 4 0 0 0 2 1l-2 2Zm2-6a6 6 0 0 1-3-2h1l1 1h2l-1 1Zm5-8-1 1v-1a9 9 0 0 0 2 0h-1Zm6-3h-1l-1-1h2v1Zm3 1Zm6 6-2-1h2v1Zm1 2-1-1v-2l1 1h1-1l-1 1h2l-1 1Zm7 6h1v1l-1-1Zm4-3v-1h1l-1 1Zm11-13Zm0 1 1 1h-2l1-1Zm1 16-1-1h1v1Zm0-4Zm1-10-1-1h2v1h-1Zm1 5 1-1-1 1Zm0-9h-2s2 0 3-2v1l-1 1Zm9 14h-1l-1-1-1-3 2 2 1 1h1l-1 1Zm1-1h-1l2-1-1 1Zm4-11v1-1Zm1 6h-1v-1l2-3-1 4Zm6 8h-1v-1h2l-1 1Zm16 2Zm10 10-1 1v-1h1Zm-11-17h1l-1 1v-1Zm-4 1-1-1h1v1Zm0-2h-1 1Zm-1-2h-1l-1-1h2l1 1-1 2v1l-3-2 3-1Zm18 18h1l-1 1v-1Zm2 8-1-2 3 1-2 1Zm26-32h3v-1 2l-1 1h-1l-3-1 2-1Zm-1 5h4l1-1-1 2-1 1-3-2Zm3 8-2-1 2 1Zm2 3-1 1-3-1 1-1h1l-1 1 1-1h3l-1 1Zm1-2h-1 1Zm5 3-1-1v-1h3l-2 2Zm3-6a6 6 0 0 1-3-1h3v1Zm4-2h2l-2 1v-1Zm3 4-1-1-1-1v-1h2v1h-1l2-1-1 3Zm1-8h1-1Zm5-3v-1 1Zm6 6-1-1 1-1v2Zm7 13-3 2 2 1v1l-1 1v-2l-1 1-1-1h1l-2-2h2l-1-1h1l1-1h-1v-1h2l-1 1c-1 1-1 1 1 1l2-1-1 1Zm12 2h1l-1 1h2l2-1v1l-2 1h-3l-1 2c-1 0-3-1-4-4 2 0 3-1 2-2l2-1 1 1h3l3-1-3 2h-3l1 1Z" style="fill:#0d0d0c" />

	<path class="cls-2" d="M638 210h2v2l-1-1h-1l-2 1-1 1-2 3a27 27 0 0 0-2 10l-1-1-2-7-4-5-2 6-2 4-3 2a8 8 0 0 1-6 1l-1-1-1-1v-2a4 4 0 0 1 2-3l-1 1v1l1 3 3 1c3 0 5-1 6-3 2-2 3-5 3-9l-2-2h-2a3 3 0 0 0-3 1l-1 1v-1l1-1a5 5 0 0 1 2-1h4l2 1v-1 1l2 3a21 21 0 0 1 4 5l1 3a23 23 0 0 1 3-8l1-2 2-2h1Zm-1 9 2 1v3l-1 1-2 1-1 1-1-1-1-1 1-2 1-1 1-1 1-1Zm-1 6 1-1 1-2-1-1v-1l-2 1v4h1Zm7-5v1l-1 1 1-2 2-1v1h1l-1 1h-1l-1 1-2 3v1h-1a16 16 0 0 0 1-4 22 22 0 0 0 0-2l-1 1a4 4 0 0 1 1-1l1-1v1h1Z" />

	<path class="cls-2" d="M650 220h-2l-1 2v2l1 1 1-1-1 1-1 1h-1v-3l1-3h-1c-1 0-1 0 0 0a2 2 0 0 1 1 0 26 26 0 0 1 1-3h1a3 3 0 0 1 1-1 19 19 0 0 0-2 4h2Zm0 6a56 56 0 0 1 6-14l3-4 3-1h1v1l1 1-1 1v-1l-2-1-2 1-3 2-2 5-2 7a8 8 0 0 1 2-3h1l1-1 1 1c0 1 0 0 0 0v1l-1 2v2h1v-1l-1 1-1 1-1-1v-1a9 9 0 0 1 1-3v-1l-1 1-1 1a11 11 0 0 0-2 3v1h-1Z" />

	<path class="cls-2" d="m663 219 1 1v3a5 5 0 0 1-4 3h-1l-1 2v3s0 1 0 0h1v1h-3l1-3 1-4 1-2 1-2v-1c0-1 0-1 0 0h-1a6 6 0 0 1 1-1h1l-1 2a11 11 0 0 1 2-1l1-1Zm-3 6a3 3 0 0 0 2-1l1-1v-2l-1-1-1 1-2 3v1h1Zm9-6 2 1v3l-1 1-2 1-1 1-1-1v-3l1-1 1-1 1-1Zm-1 6 1-1 1-2-1-1v-1l-2 1v4h1Zm7-5v1l-1 1 1-2 2-1v1h1l-1 1h-1l-1 1-2 3v1h-1a16 16 0 0 0 1-4 22 22 0 0 0 0-2l-1 1a4 4 0 0 1 1-1l1-1v1h1Zm7 0h-2l-1 2v2l1 1 1-1-1 1-1 1h-1v-3l1-3h-1a2 2 0 0 1 1 0 26 26 0 0 1 1-3h1a3 3 0 0 1 1-1 19 19 0 0 0-2 4h2Zm1 4h1v1l-1 2-2 1 1-1 1-1-1-1a2 2 0 0 1 1-1Zm20 1-1-3v-6l1-2a54 54 0 0 0-7 12v-1a25 25 0 0 0 1-7v-5l-1-2h-4l-1 1-1 2v2-3l1-2 2-1h2l2 1 2 2v4l-2 5a52 52 0 0 1 6-9l2-2-1 1v1l-1 2 1 2v3a42 42 0 0 1 0 4l1-2 2-2 1-1 2-2 1-2v-4h-1l-1 1 1-2h2v5l-1 2-2 2-2 2a39 39 0 0 0-4 5h-1l1-1Zm14-1-1 1-1 1-1-1v-2l-1 2-2 1-1-1v-3l2-1 1-1 2-1 1 1h1v-1 1l-1 1a10 10 0 0 0 0 3v1l1-1Zm-5 1h1l1-1a15 15 0 0 0 2-3l-1-1h-2l-1 1v1l-1 2 1 1Z" />

</svg>