<svg id="svg" version="1.1" xmlns="http://www.w3.org/2000/svg" xmlns:xlink="http://www.w3.org/1999/xlink" width="400" height="400" viewBox="0, 0, 400,400">
<g id="svgg">
<path id="path0" d="M189.063 0.232 C 188.311 0.317,186.025 0.574,183.984 0.803 C 109.097 9.204,55.771 80.470,68.398 155.273 C 71.618 174.353,76.760 187.110,90.474 210.041 C 92.813 213.953,97.122 221.336,100.050 226.448 C 102.977 231.560,118.953 259.385,135.552 288.281 C 152.150 317.178,168.051 344.863,170.888 349.805 C 177.806 361.858,185.574 375.365,192.062 386.622 C 195.002 391.724,197.917 396.821,198.538 397.949 C 199.160 399.077,199.817 400.000,200.000 400.000 C 200.183 400.000,200.840 399.077,201.462 397.949 C 202.083 396.821,205.023 391.680,207.995 386.523 C 214.596 375.069,222.253 361.755,229.112 349.805 C 231.949 344.863,247.850 317.178,264.448 288.281 C 281.047 259.385,297.023 231.563,299.950 226.455 C 302.878 221.347,308.050 212.470,311.445 206.728 C 327.579 179.434,333.362 159.907,333.333 132.813 C 333.262 65.783,284.952 10.825,217.383 0.908 C 213.674 0.363,192.391 -0.144,189.063 0.232 M207.869 50.406 C 277.888 57.430,308.481 142.451,258.825 192.019 C 209.764 240.992,126.416 212.524,117.353 143.698 C 110.471 91.437,155.389 45.141,207.869 50.406 " stroke="none" fill="#e34c3c" fill-rule="evenodd">
</path>
<path id="path1" d="M191.602 50.426 C 122.032 57.606,91.738 142.669,141.175 192.019 C 190.236 240.992,273.584 212.524,282.647 143.698 C 289.557 91.227,244.410 44.976,191.602 50.426 M210.156 84.578 C 249.250 93.238,263.057 141.204,234.472 169.049 C 203.270 199.443,150.386 177.020,150.392 133.398 C 150.397 101.948,179.873 77.870,210.156 84.578 " stroke="none" fill="#c33c2c" fill-rule="evenodd">
</path>
</g>
</svg>