<svg xml:space="preserve" style="enable-background:new 0 0 400 400;" xmlns="http://www.w3.org/2000/svg" viewBox="0, 0, 400,400"><path fill="current" d="M76.563 10.389c-5.047 2.036-7.853 16.8-7.925 41.694l-.113 38.542-31.137 20.361-31.138 20.36v118.702C6.25 408.927-14.213 393.75 200 393.75s193.75 15.177 193.75-143.702V131.346l-31.138-20.36C326.577 87.422 323.959 81.25 350 81.25c22.071 0 28.34-45.767 8.929-65.179-9.637-9.636-260.077-14.676-282.366-5.682m235.579 94.299l-.358 79.687-55.892 45.818L200 276.011l-55.892-45.818-55.892-45.818-.358-79.687L87.5 25H200h112.5l-.358 79.688M350 50.369c0 12.172-3.167 18.381-9.375 18.381-9.453 0-13.696-31.096-5.378-39.413C342.811 21.773 350 32.022 350 50.369M95.001 73.438l1.874 35.937h34.375 34.375l1.874-35.937 1.875-35.938H131.25 93.126l1.875 35.938M150 75c0 16.667-2.083 18.75-18.75 18.75S112.5 91.667 112.5 75s2.083-18.75 18.75-18.75S150 58.333 150 75m-81.25 65.769v22.019L53.125 152.55c-18.451-12.089-19.544-18.396-4.687-27.049 17.493-10.19 20.312-8.071 20.312 15.268m29.463-18.149c-10.006 10.006-3.108 14.88 21.058 14.88 17.618 0 24.726-2.419 22.956-7.812-2.837-8.642-36.96-14.121-44.014-7.068m55.938.312c-11.743 11.743 2.319 14.545 70.849 14.118 58.649-.366 75-2.311 75-8.924 0-8.987-137.171-13.872-145.849-5.194m197.412 4.518c14.273 10.836 13.882 12.933-4.688 25.1l-15.625 10.238v-22.019c0-23.831 3.468-26.105 20.313-13.319M98.087 153.997c-8.331 8.331 3.545 14.753 27.282 14.753 17.728 0 24.631-2.628 24.631-9.375 0-9.558-43.252-14.039-51.913-5.378m64.413 5.378c0 8.102 5.778 9.689 29.688 8.155 16.328-1.048 29.687-4.717 29.687-8.155s-13.359-7.107-29.687-8.155c-23.91-1.534-29.688.053-29.688 8.155m68.75 0c0 7.197 7.986 9.375 34.375 9.375S300 166.572 300 159.375 292.014 150 265.625 150s-34.375 2.178-34.375 9.375m-114.725 72.38l19.65 16.7-55.588 55.33L25 359.114V256.923 154.732l35.938 30.161 55.587 46.862M375 257.675v101.424l-53.125-52.849c-29.219-29.067-53.125-54.86-53.125-57.317 0-3.702 99.769-91.836 104.688-92.479.859-.112 1.562 45.437 1.562 101.221M125 187.5c0 3.438 14.063 6.25 31.25 6.25s31.25-2.812 31.25-6.25-14.062-6.25-31.25-6.25S125 184.063 125 187.5m81.25 0c0 3.438 14.063 6.25 31.25 6.25s31.25-2.812 31.25-6.25-14.062-6.25-31.25-6.25-31.25 2.813-31.25 6.25M200 293.75c2.478 0 14.408-6.72 26.51-14.932l22.004-14.933 55.3 55.558 55.3 55.557H200 40.886l55.3-55.557 55.3-55.558 22.004 14.933c12.102 8.212 24.032 14.932 26.51 14.932" fill-rule="evenodd"/></svg>