<svg id="svg" xmlns="http://www.w3.org/2000/svg" xmlns:xlink="http://www.w3.org/1999/xlink" width="400" height="400" viewBox="0, 0, 400,400"><g id="svgg"><path id="path0" d="M174.000 28.755 C 169.600 31.236,160.087 38.381,152.861 44.633 C 140.954 54.934,136.921 56.000,109.861 56.000 L 80.000 56.000 80.000 81.746 L 80.000 107.493 52.000 132.562 L 24.000 157.631 24.000 266.815 L 24.000 376.000 200.000 376.000 L 376.000 376.000 376.000 266.815 L 376.000 157.631 348.000 132.562 L 320.000 107.493 320.000 81.746 L 320.000 56.000 290.139 56.000 C 263.038 56.000,259.064 54.945,247.139 44.587 C 223.085 23.692,194.103 17.418,174.000 28.755 M220.000 50.000 C 224.336 55.224,221.751 56.000,200.000 56.000 C 178.249 56.000,175.664 55.224,180.000 50.000 C 182.809 46.616,191.528 44.000,200.000 44.000 C 208.472 44.000,217.191 46.616,220.000 50.000 M303.777 141.000 L 303.553 210.000 281.859 227.123 L 260.164 244.245 239.633 230.123 C 211.012 210.435,188.988 210.435,160.367 230.123 L 139.836 244.245 118.141 227.123 L 96.447 210.000 96.223 141.000 L 96.000 72.000 200.000 72.000 L 304.000 72.000 303.777 141.000 M120.000 120.000 C 120.000 127.733,122.667 128.000,200.000 128.000 C 277.333 128.000,280.000 127.733,280.000 120.000 C 280.000 112.267,277.333 112.000,200.000 112.000 C 122.667 112.000,120.000 112.267,120.000 120.000 M80.000 168.336 L 80.000 196.672 64.000 184.000 C 44.761 168.763,44.852 169.629,60.785 153.190 C 78.488 134.926,80.000 136.118,80.000 168.336 M338.810 152.785 C 355.310 168.778,355.317 168.700,336.000 184.000 L 320.000 196.672 320.000 168.336 C 320.000 136.013,320.813 135.341,338.810 152.785 M120.000 160.000 C 120.000 167.590,122.667 168.000,172.000 168.000 C 221.333 168.000,224.000 167.590,224.000 160.000 C 224.000 152.410,221.333 152.000,172.000 152.000 C 122.667 152.000,120.000 152.410,120.000 160.000 M120.412 257.950 C 120.390 259.336,102.289 274.767,80.186 292.240 L 40.000 324.009 40.000 257.888 L 40.000 191.766 80.226 223.598 C 102.350 241.105,120.434 256.564,120.412 257.950 M360.000 258.005 L 360.000 324.009 319.814 292.240 C 297.711 274.767,279.261 259.615,278.814 258.569 C 278.161 257.044,355.409 193.156,359.000 192.252 C 359.550 192.113,360.000 221.702,360.000 258.005 M287.988 294.000 C 327.445 324.800,359.789 352.250,359.864 355.000 C 359.971 358.919,325.406 360.000,200.000 360.000 C 74.589 360.000,40.032 358.919,40.146 355.000 C 40.227 352.250,73.077 324.318,113.146 292.928 C 206.553 219.756,192.770 219.671,287.988 294.000 " stroke="none" fill="current" fill-rule="evenodd"></path></g></svg>