<?xml version="1.0" encoding="UTF-8"?>
<!DOCTYPE svg PUBLIC "-//W3C//DTD SVG 1.1//EN" "http://www.w3.org/Graphics/SVG/1.1/DTD/svg11.dtd">
<svg xmlns="http://www.w3.org/2000/svg" version="1.1" width="1522px" height="440px" style="shape-rendering:geometricPrecision; text-rendering:geometricPrecision; image-rendering:optimizeQuality; fill-rule:evenodd; clip-rule:evenodd" xmlns:xlink="http://www.w3.org/1999/xlink">
<g><path style="opacity:1" fill="#fefefe" d="M -0.5,-0.5 C 493.833,-0.5 988.167,-0.5 1482.5,-0.5C 1415.8,16.0102 1349.13,33.1769 1282.5,51C 1104.8,91.781 924.804,111.781 742.5,111C 741.956,110.283 741.289,109.783 740.5,109.5C 734.996,106.428 728.996,104.928 722.5,105C 618.122,95.1289 513.789,84.7955 409.5,74C 294.345,64.1807 179.012,57.8473 63.5,55C 47.5322,58.6314 34.3655,66.7981 24,79.5C 11.4057,96.6791 3.23905,115.679 -0.5,136.5C -0.5,90.8333 -0.5,45.1667 -0.5,-0.5 Z"/></g>
<g><path style="opacity:1" fill="#fdfdfd" d="M 1489.5,-0.5 C 1500.17,-0.5 1510.83,-0.5 1521.5,-0.5C 1521.5,40.8333 1521.5,82.1667 1521.5,123.5C 1521.17,123.5 1520.83,123.5 1520.5,123.5C 1520.67,101.831 1520.5,80.1641 1520,58.5C 1519.53,47.7828 1518.53,37.1161 1517,26.5C 1513.22,11.8829 1504.05,2.88292 1489.5,-0.5 Z"/></g>
<g><path style="opacity:1" fill="#080808" d="M 1482.5,-0.5 C 1484.83,-0.5 1487.17,-0.5 1489.5,-0.5C 1504.05,2.88292 1513.22,11.8829 1517,26.5C 1518.53,37.1161 1519.53,47.7828 1520,58.5C 1520.5,80.1641 1520.67,101.831 1520.5,123.5C 1520.59,213.03 1518.92,302.53 1515.5,392C 1515.67,400.844 1516.01,409.678 1516.5,418.5C 1509.14,417.298 1501.81,415.964 1494.5,414.5C 1488.86,406.726 1482.86,399.226 1476.5,392C 1457.62,378.054 1439.29,363.388 1421.5,348C 1415.26,345.931 1409.1,346.098 1403,348.5C 1400.68,348.091 1398.51,347.257 1396.5,346C 1382.24,329.067 1367.24,312.733 1351.5,297C 1347.2,293.018 1342.2,291.685 1336.5,293C 1318,303.08 1299.67,313.413 1281.5,324C 1279.09,325.885 1276.42,326.552 1273.5,326C 1265.24,321.241 1256.57,317.241 1247.5,314C 1226.06,297.226 1204.06,281.226 1181.5,266C 1178.91,264.803 1176.24,263.803 1173.5,263C 1168.75,262.811 1164.08,262.145 1159.5,261C 1142.18,247.331 1123.51,235.664 1103.5,226C 1095.59,223.196 1087.59,222.863 1079.5,225C 1067.45,232.027 1055.11,238.527 1042.5,244.5C 1039.5,243.336 1036.5,242.17 1033.5,241C 1030.04,240.183 1026.7,240.517 1023.5,242C 1013.54,250.296 1003.87,258.963 994.5,268C 978.991,278.502 964.991,290.835 952.5,305C 949.833,305.667 947.167,305.667 944.5,305C 942.33,303.414 939.996,302.08 937.5,301C 929.661,299.167 921.995,296.834 914.5,294C 911.5,293.333 908.5,293.333 905.5,294C 884.994,307.419 864.661,321.086 844.5,335C 839.806,336.768 835.14,336.601 830.5,334.5C 823.841,335.663 818.174,338.663 813.5,343.5C 812.52,346.086 812.187,348.753 812.5,351.5C 813.117,355.917 814.117,360.25 815.5,364.5C 817.006,365.23 818.34,365.563 819.5,365.5C 818.677,367.641 817.677,369.807 816.5,372C 816.759,373.261 817.426,374.261 818.5,375C 816.915,375.085 815.582,375.251 814.5,375.5C 815.482,378.303 817.149,380.137 819.5,381C 821.405,379.185 823.072,377.185 824.5,375C 820.489,374.834 819.989,374 823,372.5C 823.833,370.833 824.667,369.167 825.5,367.5C 824.389,366.389 823.722,365.055 823.5,363.5C 825.409,361.743 826.742,359.576 827.5,357C 826.833,356 826.167,355 825.5,354C 826.667,351.833 827.833,349.667 829,347.5C 829.186,344.964 829.686,342.631 830.5,340.5C 830.5,340.833 830.5,341.167 830.5,341.5C 830.335,344.518 830.502,347.518 831,350.5C 832.844,353.533 833.844,356.866 834,360.5C 838.41,362.963 838.577,365.63 834.5,368.5C 837.076,371.787 840.076,374.62 843.5,377C 841.776,377.448 841.109,378.282 841.5,379.5C 840.38,378.167 839.047,377.667 837.5,378C 839.212,380.933 840.712,383.766 842,386.5C 838.667,384.5 836,381.833 834,378.5C 834.466,382.856 836.3,386.69 839.5,390C 838.5,390.333 837.5,390.667 836.5,391C 838.936,394.612 842.269,396.778 846.5,397.5C 850.104,396.603 850.437,394.937 847.5,392.5C 850.709,386.994 852.375,380.994 852.5,374.5C 852.882,380.039 855.215,384.539 859.5,388C 858.5,388.833 857.5,389.667 856.5,390.5C 862.041,392.233 865.041,390.233 865.5,384.5C 863.571,384.769 861.905,384.269 860.5,383C 862.388,380.81 864.555,378.977 867,377.5C 867.14,375.479 867.307,373.645 867.5,372C 866.572,371.612 865.905,370.945 865.5,370C 867.189,368.642 868.522,366.975 869.5,365C 868.484,364.481 867.818,363.647 867.5,362.5C 868.532,357.722 869.699,353.055 871,348.5C 875.02,365.571 877.353,364.905 878,346.5C 879.583,352.16 880.25,357.827 880,363.5C 881.789,365.229 883.956,365.896 886.5,365.5C 885.667,367.752 885.667,369.919 886.5,372C 885.167,372 883.833,372 882.5,372C 883.618,373.074 884.618,374.24 885.5,375.5C 885.833,375.333 886.167,375.167 886.5,375C 887.141,370.548 887.808,366.048 888.5,361.5C 888.969,366.187 891.302,367.52 895.5,365.5C 894.652,363.591 894.318,361.591 894.5,359.5C 899.158,360.009 900.491,358.176 898.5,354C 898.945,352.553 899.612,351.22 900.5,350C 899.704,348.908 899.037,347.741 898.5,346.5C 899.854,342.566 901.021,338.566 902,334.5C 902.362,339.136 903.862,343.303 906.5,347C 905.5,347.333 904.5,347.667 903.5,348C 906.044,349.563 906.044,351.063 903.5,352.5C 905.423,353.308 907.423,353.808 909.5,354C 908.112,354.889 908.278,355.389 910,355.5C 910.5,355.333 911,355.167 911.5,355C 910.14,353.062 910.473,351.396 912.5,350C 911.833,349.667 911.167,349.333 910.5,349C 913.723,345.527 915.223,341.361 915,336.5C 916.024,341.466 917.524,346.299 919.5,351C 919.167,352 918.833,353 918.5,354C 920.426,358 922.426,361.834 924.5,365.5C 923.127,365.343 921.793,365.51 920.5,366C 923.167,368 925.833,370 928.5,372C 925.764,372.422 923.098,372.422 920.5,372C 922.327,375.078 924.994,376.912 928.5,377.5C 928.548,380.292 927.215,382.125 924.5,383C 926.964,384.835 926.964,386.835 924.5,389C 925.681,391.702 927.348,391.702 929.5,389C 928.692,388.692 928.025,388.192 927.5,387.5C 928.833,385.833 930.167,384.167 931.5,382.5C 929.913,380.554 930.246,379.054 932.5,378C 930.044,376.087 930.378,374.421 933.5,373C 933.043,372.586 932.709,372.086 932.5,371.5C 934.138,367.02 934.971,362.353 935,357.5C 934.274,363.736 936.108,368.903 940.5,373C 938.46,375.182 938.794,377.349 941.5,379.5C 938.37,382.701 939.036,384.368 943.5,384.5C 943.38,386.199 943.046,387.865 942.5,389.5C 942.728,391.397 943.728,392.73 945.5,393.5C 944.833,394.5 944.167,395.5 943.5,396.5C 943.833,396.833 944.167,397.167 944.5,397.5C 950.764,392.832 950.431,389.999 943.5,389C 944.973,388.29 945.64,387.124 945.5,385.5C 949.612,383.953 951.779,380.953 952,376.5C 950.287,381.038 947.12,382.538 942.5,381C 944.061,380.059 945.395,378.892 946.5,377.5C 945.05,376.15 944.383,374.484 944.5,372.5C 949.251,371.933 950.918,369.433 949.5,365C 950.444,363.523 951.777,362.523 953.5,362C 952.572,361.612 951.905,360.945 951.5,360C 953.277,354.01 954.61,347.843 955.5,341.5C 956.469,347.584 958.135,353.417 960.5,359C 960.241,360.261 959.574,361.261 958.5,362C 960.061,362.941 961.395,364.108 962.5,365.5C 961.91,366.799 960.91,367.632 959.5,368C 964.272,372.501 968.272,371.667 971.5,365.5C 970.952,359.716 971.786,354.049 974,348.5C 974.711,354.476 976.878,359.809 980.5,364.5C 979.975,365.192 979.308,365.692 978.5,366C 980.937,367.714 983.27,369.547 985.5,371.5C 984.092,372.243 982.759,373.077 981.5,374C 987.573,376.005 987.907,378.505 982.5,381.5C 982.977,382.478 983.643,383.311 984.5,384C 981.507,384.427 981.007,385.594 983,387.5C 985.7,385.766 987.7,383.432 989,380.5C 989.711,378.633 989.211,377.133 987.5,376C 988.333,375.167 989.167,374.333 990,373.5C 990.089,369.972 990.756,366.638 992,363.5C 992.979,368.213 994.146,372.546 995.5,376.5C 996.795,375.902 998.128,375.402 999.5,375C 992.657,368.462 992.99,366.962 1000.5,370.5C 1005.33,369.165 1005.99,367.165 1002.5,364.5C 1003.61,363.108 1004.94,361.941 1006.5,361C 1005.64,360.311 1004.98,359.478 1004.5,358.5C 1005.5,357.167 1006.5,355.833 1007.5,354.5C 1006.44,352.234 1006.94,350.234 1009,348.5C 1009.33,345.833 1009.67,343.167 1010,340.5C 1010.11,344.401 1010.94,348.068 1012.5,351.5C 1012.32,352.554 1011.99,353.554 1011.5,354.5C 1012.5,355.833 1013.5,355.833 1014.5,354.5C 1012.91,352.554 1013.25,351.054 1015.5,350C 1014.69,349.692 1014.03,349.192 1013.5,348.5C 1016.4,345.038 1017.9,341.038 1018,336.5C 1019,341.492 1020.5,346.326 1022.5,351C 1022.26,351.873 1021.93,352.707 1021.5,353.5C 1023.55,357.593 1025.55,361.593 1027.5,365.5C 1026.13,365.343 1024.79,365.51 1023.5,366C 1024.73,367.529 1026.23,368.696 1028,369.5C 1028.96,365.204 1029.8,360.87 1030.5,356.5C 1031.28,362.328 1032.28,367.828 1033.5,373C 1036.18,373.617 1036.84,372.784 1035.5,370.5C 1037.12,366.356 1037.95,362.022 1038,357.5C 1038.33,360.833 1038.67,364.167 1039,367.5C 1041.14,368.03 1042.97,367.197 1044.5,365C 1043.21,364.51 1041.87,364.343 1040.5,364.5C 1042.83,360.469 1045.16,356.136 1047.5,351.5C 1047.01,350.554 1046.68,349.554 1046.5,348.5C 1047.61,344.467 1048.77,340.467 1050,336.5C 1051.52,341.224 1053.36,345.891 1055.5,350.5C 1053.16,352.073 1053.16,353.406 1055.5,354.5C 1056.75,350.254 1057.58,345.921 1058,341.5C 1059.83,347.831 1061.66,354.164 1063.5,360.5C 1062.45,360.351 1061.45,360.517 1060.5,361C 1062.09,362.046 1063.59,363.213 1065,364.5C 1065.31,365.742 1064.81,366.742 1063.5,367.5C 1066.17,371.076 1069.34,371.409 1073,368.5C 1073.33,369.167 1073.67,369.833 1074,370.5C 1075.08,366.908 1076.08,363.241 1077,359.5C 1077.33,363.5 1077.67,367.5 1078,371.5C 1080.57,373.203 1081.07,375.369 1079.5,378C 1080.92,381.092 1082.76,383.926 1085,386.5C 1086.95,384.863 1086.78,383.363 1084.5,382C 1085.36,381.311 1086.02,380.478 1086.5,379.5C 1084.49,378.935 1082.82,377.935 1081.5,376.5C 1082.75,374.541 1084.41,373.041 1086.5,372C 1085.38,370.956 1084.04,370.29 1082.5,370C 1085.17,368 1087.83,366 1090.5,364C 1087.93,362.374 1088.1,360.874 1091,359.5C 1092.58,355.275 1093.75,350.941 1094.5,346.5C 1096.06,352.94 1097.23,359.273 1098,365.5C 1101.57,369.411 1105.07,369.411 1108.5,365.5C 1106.96,364.468 1106.46,363.135 1107,361.5C 1108.25,360.789 1109.42,359.956 1110.5,359C 1106.68,357.232 1106.68,355.232 1110.5,353C 1109.98,352.439 1109.64,351.772 1109.5,351C 1111.66,347.511 1112.83,343.678 1113,339.5C 1113.07,343.251 1113.9,346.751 1115.5,350C 1113.95,352.583 1114.29,354.917 1116.5,357C 1116.26,357.873 1115.93,358.707 1115.5,359.5C 1116.75,360.631 1117.75,361.964 1118.5,363.5C 1118.39,364.442 1118.06,365.275 1117.5,366C 1119.49,367.998 1121.49,369.998 1123.5,372C 1123.24,373.261 1122.57,374.261 1121.5,375C 1122.69,376.353 1124.02,377.52 1125.5,378.5C 1122.43,380.052 1119.93,379.385 1118,376.5C 1117.83,376.833 1117.67,377.167 1117.5,377.5C 1119.86,381.109 1122.19,384.109 1124.5,386.5C 1122.83,387.167 1121.17,387.833 1119.5,388.5C 1120.5,391.173 1122,393.507 1124,395.5C 1125.63,394.181 1125.46,392.848 1123.5,391.5C 1126.86,389.118 1127.2,386.451 1124.5,383.5C 1125.83,382.5 1127.17,381.5 1128.5,380.5C 1128.5,377.167 1128.5,373.833 1128.5,370.5C 1130.18,369.231 1131.35,367.564 1132,365.5C 1132.33,361.833 1132.67,358.167 1133,354.5C 1133.08,359.625 1134.24,364.459 1136.5,369C 1135.83,369.333 1135.17,369.667 1134.5,370C 1135.55,371.385 1136.88,372.385 1138.5,373C 1138.45,375.793 1138.29,378.626 1138,381.5C 1138.82,382.823 1139.98,383.489 1141.5,383.5C 1141.57,381.589 1142.57,380.422 1144.5,380C 1142.11,379.945 1140.78,378.778 1140.5,376.5C 1143.45,374.221 1146.11,371.554 1148.5,368.5C 1148.33,368.167 1148.17,367.833 1148,367.5C 1145.42,369.347 1142.59,369.847 1139.5,369C 1142.6,367.719 1145.27,365.886 1147.5,363.5C 1146.17,362.833 1144.83,362.167 1143.5,361.5C 1145.68,358.298 1147.68,354.964 1149.5,351.5C 1149.07,350.707 1148.74,349.873 1148.5,349C 1150.58,344.007 1152.08,338.84 1153,333.5C 1153.87,337.854 1155.37,342.02 1157.5,346C 1157.17,346.333 1156.83,346.667 1156.5,347C 1159.17,348.667 1159.17,350.333 1156.5,352C 1157,352.167 1157.5,352.333 1158,352.5C 1160.06,351.277 1162.22,350.277 1164.5,349.5C 1163.25,347.958 1163.25,346.458 1164.5,345C 1161.2,344.433 1161.03,342.933 1164,340.5C 1164.84,336.389 1165.84,332.389 1167,328.5C 1167.33,332.167 1167.67,335.833 1168,339.5C 1170.71,341.707 1170.54,344.04 1167.5,346.5C 1170.86,348.687 1171.2,351.187 1168.5,354C 1169.65,355.883 1171.32,356.716 1173.5,356.5C 1173.74,358.467 1173.41,360.301 1172.5,362C 1177.44,363.885 1177.11,365.551 1171.5,367C 1173.68,368.202 1176.01,368.702 1178.5,368.5C 1178.46,365.09 1178.96,361.757 1180,358.5C 1180.83,361 1182,361.167 1183.5,359C 1182.09,358.632 1181.09,357.799 1180.5,356.5C 1182.88,351.053 1184.72,345.386 1186,339.5C 1186,343.192 1187,346.525 1189,349.5C 1189.33,347.5 1189.67,345.5 1190,343.5C 1190.63,348.601 1191.63,353.601 1193,358.5C 1195.54,354.563 1197.04,350.23 1197.5,345.5C 1199.07,351.353 1200.07,357.019 1200.5,362.5C 1202.9,364.456 1202.9,366.29 1200.5,368C 1201,368.5 1201.5,369 1202,369.5C 1204.85,366.386 1206.02,362.719 1205.5,358.5C 1205.25,356.599 1205.58,355.933 1206.5,356.5C 1206.4,359.237 1206.73,361.904 1207.5,364.5C 1207.3,366.39 1207.96,367.89 1209.5,369C 1207.29,369.957 1207.46,371.124 1210,372.5C 1210.68,373.784 1210.52,374.951 1209.5,376C 1211.96,377.154 1211.96,378.488 1209.5,380C 1211.23,381.985 1212.57,381.651 1213.5,379C 1212.98,378.439 1212.64,377.772 1212.5,377C 1213.81,374.869 1214.98,372.703 1216,370.5C 1216.25,371.624 1216.75,372.624 1217.5,373.5C 1218.94,372.135 1220.27,370.635 1221.5,369C 1218.87,369.253 1216.2,369.253 1213.5,369C 1216.01,367.579 1218.34,365.912 1220.5,364C 1219.21,363.51 1217.87,363.343 1216.5,363.5C 1216.5,362.5 1216.5,361.5 1216.5,360.5C 1218.7,358.632 1220.37,356.299 1221.5,353.5C 1222.61,352.177 1222.61,350.677 1221.5,349C 1223.5,344.326 1225,339.492 1226,334.5C 1226.82,338.732 1228.32,342.732 1230.5,346.5C 1229.52,347.801 1229.86,348.968 1231.5,350C 1230.98,350.95 1230.31,351.784 1229.5,352.5C 1231.34,353.23 1233.17,353.897 1235,354.5C 1234.75,351.846 1235.42,349.179 1237,346.5C 1237.06,341.982 1237.73,337.649 1239,333.5C 1239.33,337.167 1239.67,340.833 1240,344.5C 1240.38,345.942 1241.21,346.942 1242.5,347.5C 1242.33,349.861 1241.99,352.194 1241.5,354.5C 1242.65,356.149 1243.98,357.649 1245.5,359C 1242.86,362.961 1243.53,366.461 1247.5,369.5C 1244.14,370.937 1244.3,372.604 1248,374.5C 1249.71,373.863 1249.88,372.863 1248.5,371.5C 1249.84,370.312 1250.51,368.812 1250.5,367C 1249.89,365.463 1249.89,364.13 1250.5,363C 1249.83,362.333 1249.17,361.667 1248.5,361C 1250.33,360.727 1251.83,359.893 1253,358.5C 1253.16,356.324 1254,354.491 1255.5,353C 1254.98,352.439 1254.64,351.772 1254.5,351C 1256.01,349.121 1256.68,346.954 1256.5,344.5C 1256.34,342.801 1256.51,341.134 1257,339.5C 1257.48,340.448 1257.65,341.448 1257.5,342.5C 1258.53,349.063 1260.19,355.396 1262.5,361.5C 1261.5,361.5 1260.5,361.5 1259.5,361.5C 1259.33,363.861 1258.99,366.194 1258.5,368.5C 1260.91,367.313 1263.24,365.813 1265.5,364C 1264.98,363.439 1264.64,362.772 1264.5,362C 1267.18,357.103 1269.18,351.936 1270.5,346.5C 1272.35,352.463 1273.18,358.463 1273,364.5C 1274.02,365.687 1275.19,366.687 1276.5,367.5C 1277.31,365.234 1277.81,362.9 1278,360.5C 1278.5,363.146 1278.66,365.813 1278.5,368.5C 1282.82,368.251 1283.82,366.584 1281.5,363.5C 1282.3,361.868 1283.3,360.368 1284.5,359C 1284.26,358.127 1283.93,357.293 1283.5,356.5C 1285.92,351.006 1287.75,345.339 1289,339.5C 1289.23,343.32 1290.07,346.987 1291.5,350.5C 1289.93,353.12 1290.26,355.453 1292.5,357.5C 1291.32,359.874 1291.99,361.707 1294.5,363C 1294.17,364 1293.83,365 1293.5,366C 1295.04,368.442 1297.04,370.442 1299.5,372C 1299.24,373.261 1298.57,374.261 1297.5,375C 1298.83,376.333 1300.17,377.667 1301.5,379C 1297.74,380.176 1294.91,379.01 1293,375.5C 1294.07,380.117 1296.57,383.95 1300.5,387C 1298.5,387.333 1296.5,387.667 1294.5,388C 1295.81,390.795 1297.47,393.295 1299.5,395.5C 1300.31,395.192 1300.97,394.692 1301.5,394C 1300.17,393.333 1299.17,392.333 1298.5,391C 1302.77,389.365 1303.44,386.865 1300.5,383.5C 1301.83,382.5 1303.17,381.5 1304.5,380.5C 1303.83,379.167 1303.17,377.833 1302.5,376.5C 1303.38,375.749 1304.38,375.249 1305.5,375C 1305.5,373.601 1305.17,372.101 1304.5,370.5C 1307.95,366.184 1309.45,361.184 1309,355.5C 1309.48,359.531 1310.15,363.531 1311,367.5C 1312.91,368.676 1312.75,369.676 1310.5,370.5C 1313.17,371.499 1313.84,373.166 1312.5,375.5C 1315.04,376.937 1315.04,378.437 1312.5,380C 1314.02,381.351 1315.35,382.851 1316.5,384.5C 1315.08,387.428 1316.08,388.762 1319.5,388.5C 1319.52,386.4 1318.86,384.567 1317.5,383C 1318.02,382.05 1318.69,381.216 1319.5,380.5C 1317.57,379.932 1316.23,378.765 1315.5,377C 1318.62,375.045 1321.29,372.545 1323.5,369.5C 1321.43,369.448 1319.1,369.281 1316.5,369C 1318.83,367.333 1321.17,365.667 1323.5,364C 1322.21,363.51 1320.87,363.343 1319.5,363.5C 1321.29,359.485 1323.29,355.485 1325.5,351.5C 1325.07,350.707 1324.74,349.873 1324.5,349C 1326.23,344.232 1327.73,339.398 1329,334.5C 1329.1,339.038 1330.6,343.038 1333.5,346.5C 1333.51,348.412 1333.18,350.412 1332.5,352.5C 1333.17,352.833 1333.83,353.167 1334.5,353.5C 1335.65,352.041 1337.65,350.874 1340.5,350C 1339.5,348.333 1338.5,346.667 1337.5,345C 1339.54,342.02 1341.2,338.853 1342.5,335.5C 1342.93,338.522 1344.26,341.022 1346.5,343C 1345.82,344.693 1344.82,346.193 1343.5,347.5C 1345.6,349.583 1345.94,351.917 1344.5,354.5C 1345.42,356.756 1347.09,357.756 1349.5,357.5C 1349.82,359.722 1349.16,361.556 1347.5,363C 1350.11,363.45 1351.44,364.95 1351.5,367.5C 1343.21,365.079 1342.21,366.913 1348.5,373C 1349.83,373.667 1351.17,373.667 1352.5,373C 1352.04,372.586 1351.71,372.086 1351.5,371.5C 1353.41,368.428 1354.75,365.095 1355.5,361.5C 1356.32,364.785 1356.82,368.118 1357,371.5C 1359.22,372.82 1360.72,372.153 1361.5,369.5C 1360.42,369.251 1359.08,369.085 1357.5,369C 1358.17,368.333 1358.83,367.667 1359.5,367C 1358.03,366.29 1357.36,365.124 1357.5,363.5C 1359.83,363.335 1361.99,362.669 1364,361.5C 1364.29,355.585 1364.96,349.585 1366,343.5C 1367.02,363.095 1369.35,363.762 1373,345.5C 1374.17,350.091 1375.33,354.758 1376.5,359.5C 1374.9,362.709 1375.57,365.375 1378.5,367.5C 1377.02,368.88 1376.02,370.547 1375.5,372.5C 1377.86,375.527 1380.53,378.194 1383.5,380.5C 1382.33,382.217 1380.66,382.884 1378.5,382.5C 1379.68,388.09 1383.01,390.09 1388.5,388.5C 1387.5,387.667 1386.5,386.833 1385.5,386C 1386.62,383.575 1388.12,381.409 1390,379.5C 1390.18,376.774 1390.68,374.107 1391.5,371.5C 1392.24,376.521 1393.08,381.521 1394,386.5C 1395.02,387.354 1395.86,388.354 1396.5,389.5C 1393.55,393.4 1394.55,394.9 1399.5,394C 1404.11,392.537 1407.78,389.87 1410.5,386C 1410.33,385.5 1410.17,385 1410,384.5C 1409.28,385.451 1408.45,385.617 1407.5,385C 1408.64,384.259 1408.64,383.425 1407.5,382.5C 1408.48,381.019 1409.65,379.685 1411,378.5C 1412.76,371.235 1414.09,363.902 1415,356.5C 1415.37,362.055 1416.87,367.222 1419.5,372C 1418.83,373 1418.17,374 1417.5,375C 1418.26,377.576 1419.59,379.743 1421.5,381.5C 1419.04,385.8 1420.04,389.3 1424.5,392C 1423.17,392.333 1421.83,392.667 1420.5,393C 1422.05,395.257 1423.71,397.424 1425.5,399.5C 1423.97,403.204 1422.14,403.204 1420,399.5C 1419.84,401.387 1420.67,402.887 1422.5,404C 1422.04,404.414 1421.71,404.914 1421.5,405.5C 1423.44,406.158 1425.27,406.491 1427,406.5C 1428.99,404.265 1428.83,402.099 1426.5,400C 1427.83,397.667 1429.17,395.333 1430.5,393C 1430.33,392.5 1430.17,392 1430,391.5C 1429.27,393.158 1428.11,393.658 1426.5,393C 1427.29,391.915 1427.96,390.748 1428.5,389.5C 1427.5,387.5 1426.5,385.5 1425.5,383.5C 1426.66,383.563 1427.99,383.23 1429.5,382.5C 1430.82,377.572 1431.82,372.572 1432.5,367.5C 1432.64,365.97 1433.31,364.97 1434.5,364.5C 1434.5,365.167 1434.5,365.833 1434.5,366.5C 1435.83,370.305 1436.67,374.305 1437,378.5C 1437.71,380.081 1438.54,381.581 1439.5,383C 1438.44,384.188 1437.1,384.688 1435.5,384.5C 1434.67,386.752 1434.67,388.919 1435.5,391C 1438.33,391.326 1441,390.826 1443.5,389.5C 1443.75,391.827 1443.09,393.827 1441.5,395.5C 1444.41,399.245 1448.07,400.578 1452.5,399.5C 1451.97,398.808 1451.31,398.308 1450.5,398C 1453.1,393.19 1454.1,388.024 1453.5,382.5C 1453.83,382.5 1454.17,382.5 1454.5,382.5C 1454.29,386.879 1454.63,391.213 1455.5,395.5C 1457.84,397.995 1459.34,400.995 1460,404.5C 1460.33,404.167 1460.67,403.833 1461,403.5C 1461.31,404.308 1461.81,404.975 1462.5,405.5C 1463.61,404.41 1464.61,404.41 1465.5,405.5C 1464.69,406.814 1463.69,407.981 1462.5,409C 1463.78,409.684 1464.95,409.517 1466,408.5C 1466.85,411.407 1466.02,413.74 1463.5,415.5C 1463.83,416.5 1464.5,417.167 1465.5,417.5C 1466.33,416.5 1467.17,415.5 1468,414.5C 1468.33,411.167 1468.67,407.833 1469,404.5C 1469.48,408.531 1470.15,412.531 1471,416.5C 1471.67,417.167 1472.33,417.833 1473,418.5C 1473.85,416.065 1474.85,413.731 1476,411.5C 1476.28,415.205 1477.78,418.205 1480.5,420.5C 1480.05,423.941 1480.05,427.274 1480.5,430.5C 1481.83,431.5 1483.17,432.5 1484.5,433.5C 1483.05,434.85 1482.38,436.516 1482.5,438.5C 1237.17,438.5 991.833,438.5 746.5,438.5C 749.872,436.665 750.205,434.332 747.5,431.5C 749.167,430.333 750.833,429.167 752.5,428C 750.195,425.193 750.528,422.526 753.5,420C 752.833,419.333 752.167,418.667 751.5,418C 753.815,416.891 755.315,415.057 756,412.5C 756.498,409.518 756.665,406.518 756.5,403.5C 756.982,407.57 757.982,411.57 759.5,415.5C 760.799,414.91 761.632,413.91 762,412.5C 762.333,409.167 762.667,405.833 763,402.5C 763.147,407.057 763.981,411.391 765.5,415.5C 770.463,415.898 771.463,414.231 768.5,410.5C 771.206,408.349 771.54,406.182 769.5,404C 773.892,399.903 775.726,394.736 775,388.5C 774.831,393.715 775.997,398.548 778.5,403C 777.833,403.333 777.167,403.667 776.5,404C 779.008,407.525 781.842,408.025 785,405.5C 785.688,404.668 785.521,404.002 784.5,403.5C 782.336,402.586 780.336,401.419 778.5,400C 779.167,399.667 779.833,399.333 780.5,399C 779.62,397.644 779.286,396.144 779.5,394.5C 781.989,394.702 784.323,394.202 786.5,393C 785.167,392 783.833,391 782.5,390C 783.573,388.75 783.573,387.416 782.5,386C 782.667,385.5 782.833,385 783,384.5C 786.362,387.239 787.529,386.572 786.5,382.5C 788.84,378.553 790.34,374.219 791,369.5C 791.755,372.688 792.589,375.855 793.5,379C 793.265,379.873 792.931,380.707 792.5,381.5C 793.833,382.167 795.167,382.833 796.5,383.5C 795.585,384.328 794.919,385.328 794.5,386.5C 795.108,389.145 795.608,391.812 796,394.5C 797.487,395.155 798.653,396.155 799.5,397.5C 794.633,399.512 793.633,402.512 796.5,406.5C 796.238,405.022 796.571,403.689 797.5,402.5C 799.54,400.823 801.54,399.156 803.5,397.5C 801.995,396.158 801.328,394.492 801.5,392.5C 808.55,390.661 808.884,388.494 802.5,386C 803.167,385.667 803.833,385.333 804.5,385C 800.81,382.884 800.81,381.051 804.5,379.5C 801.848,377.408 801.014,374.742 802,371.5C 805.192,375.651 808.026,375.485 810.5,371C 808.893,369.951 808.227,368.451 808.5,366.5C 807.5,366.5 806.5,366.5 805.5,366.5C 807.346,363.119 808.346,359.453 808.5,355.5C 809.3,353.393 809.967,351.226 810.5,349C 810.167,348.167 809.833,347.333 809.5,346.5C 786.422,364.056 765.422,383.889 746.5,406C 741.034,409.817 735.201,412.983 729,415.5C 728.164,390.461 728.83,365.461 731,340.5C 734.179,315.763 737.679,291.096 741.5,266.5C 742.374,251.569 735.374,243.569 720.5,242.5C 727.375,198.77 734.041,154.436 740.5,109.5C 741.289,109.783 741.956,110.283 742.5,111C 924.804,111.781 1104.8,91.781 1282.5,51C 1349.13,33.1769 1415.8,16.0102 1482.5,-0.5 Z"/></g>
<g><path style="opacity:1" fill="#000000" d="M 740.5,109.5 C 734.041,154.436 727.375,198.77 720.5,242.5C 714.42,243.847 708.253,244.514 702,244.5C 520.164,234.588 338.331,224.588 156.5,214.5C 152.877,214.244 149.544,215.077 146.5,217C 126.532,237.438 102.199,246.438 73.5,244C 36.7375,236.38 13.2375,214.547 3,178.5C 2.00117,172.994 0.834504,167.66 -0.5,162.5C -0.5,153.833 -0.5,145.167 -0.5,136.5C 3.23905,115.679 11.4057,96.6791 24,79.5C 34.3655,66.7981 47.5322,58.6314 63.5,55C 179.012,57.8473 294.345,64.1807 409.5,74C 513.789,84.7955 618.122,95.1289 722.5,105C 728.996,104.928 734.996,106.428 740.5,109.5 Z"/></g>
<g><path style="opacity:1" fill="#fdfdfd" d="M 1418.5,87.5 C 1431.28,85.0445 1440.78,89.3779 1447,100.5C 1448.81,116.021 1441.98,125.188 1426.5,128C 1415.16,130.558 1406.33,127.058 1400,117.5C 1396.85,107.616 1399.35,99.4496 1407.5,93C 1411.26,91.1207 1414.93,89.2874 1418.5,87.5 Z"/></g>
<g><path style="opacity:1" fill="#fcfcfc" d="M 84.5,126.5 C 96.2815,124.806 105.448,128.806 112,138.5C 115.322,151.025 111.156,160.192 99.5,166C 86.7417,170.606 76.5751,167.439 69,156.5C 65.4278,141.978 70.5945,131.978 84.5,126.5 Z"/></g>
<g><path style="opacity:1" fill="#fcfcfc" d="M 352.5,128.5 C 366.131,125.665 375.965,130.332 382,142.5C 383.821,156.352 377.988,165.185 364.5,169C 343.664,171.166 334.83,162 338,141.5C 341.785,135.875 346.618,131.542 352.5,128.5 Z"/></g>
<g><path style="opacity:1" fill="#911102" d="M 757.5,131.5 C 770.504,131.333 783.504,131.5 796.5,132C 800.997,135.82 802.83,140.653 802,146.5C 800.136,149.207 797.636,150.041 794.5,149C 792.093,146.298 789.593,143.798 787,141.5C 786.055,141.905 785.388,142.572 785,143.5C 784.333,152.167 784.333,160.833 785,169.5C 786.708,171.543 788.708,173.21 791,174.5C 790.983,178.485 788.817,180.652 784.5,181C 776.971,182.072 769.638,181.405 762.5,179C 759.525,175.284 760.525,172.951 765.5,172C 766.191,170.933 766.691,169.766 767,168.5C 767.5,159.506 767.666,150.506 767.5,141.5C 763.841,142.315 761.174,144.481 759.5,148C 752.575,150.411 750.075,147.911 752,140.5C 752.837,136.843 754.67,133.843 757.5,131.5 Z"/></g>
<g><path style="opacity:1" fill="#921102" d="M 915.5,131.5 C 927.886,131.106 940.22,131.606 952.5,133C 958.025,135.919 959.858,140.419 958,146.5C 957.252,148.909 956.085,151.075 954.5,153C 956.6,155.1 958.767,157.267 961,159.5C 964.535,169.931 961.035,176.764 950.5,180C 938.5,180.667 926.5,180.667 914.5,180C 912.789,178.867 912.289,177.367 913,175.5C 914.713,174.122 916.047,172.455 917,170.5C 917.273,161.983 917.773,153.483 918.5,145C 918.458,143.033 917.958,141.199 917,139.5C 911.756,137.421 911.256,134.754 915.5,131.5 Z"/></g>
<g><path style="opacity:1" fill="#921102" d="M 1248.5,131.5 C 1255.72,131.865 1262.89,131.865 1270,131.5C 1275.56,134.621 1277.89,139.288 1277,145.5C 1276.33,146.578 1275.33,147.245 1274,147.5C 1269.31,144.657 1264.48,141.99 1259.5,139.5C 1252.95,142.331 1252.95,145.164 1259.5,148C 1265.75,148.967 1271.25,151.467 1276,155.5C 1280.91,165.772 1278.41,173.605 1268.5,179C 1258.71,182.413 1249.04,182.08 1239.5,178C 1235.91,173.807 1234.41,168.973 1235,163.5C 1235.74,162.426 1236.74,161.759 1238,161.5C 1240.83,163.952 1243.33,166.785 1245.5,170C 1249.22,172.298 1253.22,172.965 1257.5,172C 1260.17,170 1260.17,168 1257.5,166C 1248.55,164.615 1241.72,160.115 1237,152.5C 1235.08,142.347 1238.91,135.347 1248.5,131.5 Z"/></g>
<g><path style="opacity:1" fill="#901102" d="M 814.5,132.5 C 817.5,132.5 820.5,132.5 823.5,132.5C 823.17,138.868 823.504,145.202 824.5,151.5C 826.841,147.161 830.508,145.161 835.5,145.5C 840.429,145.047 843.929,147.047 846,151.5C 847.182,158.771 847.849,166.104 848,173.5C 851.62,176.772 851.12,179.272 846.5,181C 842.167,181.667 837.833,181.667 833.5,181C 828.17,179.857 827.336,177.357 831,173.5C 831.667,168.5 831.667,163.5 831,158.5C 829.695,155.694 827.528,154.86 824.5,156C 823.874,156.75 823.374,157.584 823,158.5C 821.736,165.051 822.569,171.218 825.5,177C 825.241,178.261 824.574,179.261 823.5,180C 816.417,182.34 809.583,181.84 803,178.5C 802.333,177.5 802.333,176.5 803,175.5C 805.324,174.193 806.657,172.193 807,169.5C 807.667,160.833 807.667,152.167 807,143.5C 803.761,141.69 802.928,139.19 804.5,136C 807.85,134.514 811.184,133.347 814.5,132.5 Z"/></g>
<g><path style="opacity:1" fill="#911102" d="M 1095.5,132.5 C 1098.83,132.5 1102.17,132.5 1105.5,132.5C 1105.04,139.014 1105.54,145.347 1107,151.5C 1111.99,145.411 1118.16,143.911 1125.5,147C 1127.04,148.579 1128.21,150.413 1129,152.5C 1129.33,158.833 1129.67,165.167 1130,171.5C 1131.18,173.344 1132.35,175.177 1133.5,177C 1133.24,178.261 1132.57,179.261 1131.5,180C 1124.7,182.32 1118.2,181.82 1112,178.5C 1112.03,176.402 1112.7,174.402 1114,172.5C 1114.67,168.167 1114.67,163.833 1114,159.5C 1112.15,155.205 1109.49,154.538 1106,157.5C 1105.33,162.833 1105.33,168.167 1106,173.5C 1108.37,174.927 1108.87,176.761 1107.5,179C 1100.25,182.41 1093.08,182.243 1086,178.5C 1085.55,175.906 1086.55,173.906 1089,172.5C 1090.49,162.879 1090.82,153.212 1090,143.5C 1088.1,142.32 1086.6,140.82 1085.5,139C 1085.76,137.739 1086.43,136.739 1087.5,136C 1090.31,134.907 1092.98,133.74 1095.5,132.5 Z"/></g>
<g><path style="opacity:1" fill="#911102" d="M 1290.5,132.5 C 1293.83,132.5 1297.17,132.5 1300.5,132.5C 1300.5,138.5 1300.5,144.5 1300.5,150.5C 1301.98,150.762 1303.31,150.429 1304.5,149.5C 1306.6,146.283 1309.6,144.95 1313.5,145.5C 1319.8,145.301 1323.64,148.301 1325,154.5C 1325.33,160.833 1325.67,167.167 1326,173.5C 1329.63,177.289 1328.79,179.789 1323.5,181C 1318.41,181.826 1313.41,181.492 1308.5,180C 1306.13,177.816 1306.3,175.65 1309,173.5C 1309.67,168.5 1309.67,163.5 1309,158.5C 1306.68,155.083 1304.01,154.75 1301,157.5C 1300.33,162.833 1300.33,168.167 1301,173.5C 1304.01,175.516 1304.18,177.683 1301.5,180C 1294.42,182.34 1287.58,181.84 1281,178.5C 1280.55,175.906 1281.55,173.906 1284,172.5C 1285.56,162.894 1285.89,153.228 1285,143.5C 1283.48,141.978 1281.98,140.478 1280.5,139C 1280.76,137.739 1281.43,136.739 1282.5,136C 1285.31,134.907 1287.98,133.74 1290.5,132.5 Z"/></g>
<g><path style="opacity:1" fill="#911102" d="M 1029.5,136.5 C 1031.5,136.5 1033.5,136.5 1035.5,136.5C 1035.5,139.5 1035.5,142.5 1035.5,145.5C 1038.83,145.5 1042.17,145.5 1045.5,145.5C 1045.5,147.833 1045.5,150.167 1045.5,152.5C 1042.17,152.5 1038.83,152.5 1035.5,152.5C 1035.33,158.176 1035.5,163.843 1036,169.5C 1038.37,171.908 1040.87,171.908 1043.5,169.5C 1045.05,170.212 1046.05,171.378 1046.5,173C 1043.24,178.714 1038.24,181.548 1031.5,181.5C 1025.3,181.317 1021.13,178.317 1019,172.5C 1018.5,165.842 1018.33,159.175 1018.5,152.5C 1016.5,152.5 1014.5,152.5 1012.5,152.5C 1012.26,150.533 1012.59,148.699 1013.5,147C 1019.01,143.637 1024.34,140.137 1029.5,136.5 Z"/></g>
<g><path style="opacity:1" fill="#170c09" d="M 935.5,138.5 C 937.993,138.329 939.826,139.329 941,141.5C 941.667,144.5 941.667,147.5 941,150.5C 939.267,152.602 937.267,152.935 935,151.5C 934.232,147.08 934.398,142.747 935.5,138.5 Z"/></g>
<g><path style="opacity:1" fill="#911102" d="M 865.5,145.5 C 874.083,143.793 881.25,146.127 887,152.5C 888.72,156.294 888.886,160.127 887.5,164C 880.809,164.169 874.142,164.669 867.5,165.5C 870.138,171.06 874.471,172.893 880.5,171C 883.794,167.32 886.127,167.82 887.5,172.5C 885.17,177.514 881.17,180.347 875.5,181C 859.813,182.312 852.313,175.145 853,159.5C 854.926,152.745 859.093,148.078 865.5,145.5 Z"/></g>
<g><path style="opacity:1" fill="#921102" d="M 971.5,145.5 C 975.833,145.5 980.167,145.5 984.5,145.5C 984.334,153.507 984.5,161.507 985,169.5C 986.826,173.037 989.16,173.371 992,170.5C 992.667,164.833 992.667,159.167 992,153.5C 989.002,152.716 988.169,151.049 989.5,148.5C 995.445,145.491 1001.61,144.825 1008,146.5C 1008.33,154.833 1008.67,163.167 1009,171.5C 1013.68,174.168 1013.51,176.668 1008.5,179C 1003.68,180.709 998.843,181.209 994,180.5C 993.517,179.552 993.351,178.552 993.5,177.5C 989.449,178.928 985.282,180.262 981,181.5C 976.981,181.157 973.648,179.491 971,176.5C 969.837,169.897 969.17,163.23 969,156.5C 967.485,154.323 965.985,152.156 964.5,150C 964.645,149.228 964.978,148.561 965.5,148C 967.611,147.155 969.611,146.322 971.5,145.5 Z"/></g>
<g><path style="opacity:1" fill="#911102" d="M 1061.5,145.5 C 1067.73,144.939 1073.73,145.772 1079.5,148C 1083.13,151.05 1084.3,154.883 1083,159.5C 1076.89,164.375 1072.72,163.042 1070.5,155.5C 1067.96,152.84 1065.79,153.173 1064,156.5C 1063.03,168.276 1068.2,172.276 1079.5,168.5C 1080.44,168.608 1081.28,168.941 1082,169.5C 1081.92,175.603 1078.75,179.437 1072.5,181C 1058.03,183.025 1049.7,176.858 1047.5,162.5C 1049.12,154.224 1053.79,148.558 1061.5,145.5 Z"/></g>
<g><path style="opacity:1" fill="#911102" d="M 1148.5,145.5 C 1156.46,144.046 1163.29,146.046 1169,151.5C 1171.94,155.68 1172.11,159.847 1169.5,164C 1163.18,164.5 1156.84,164.666 1150.5,164.5C 1151.94,171.051 1155.94,173.217 1162.5,171C 1168.67,167.18 1170.83,168.68 1169,175.5C 1158.04,184.165 1147.71,183.498 1138,173.5C 1132.55,160.682 1136.05,151.349 1148.5,145.5 Z"/></g>
<g><path style="opacity:1" fill="#921102" d="M 1185.5,145.5 C 1187.86,145.337 1190.19,145.503 1192.5,146C 1193.09,147.509 1193.76,149.009 1194.5,150.5C 1198.28,145.595 1202.94,144.429 1208.5,147C 1211.46,151.665 1211.12,155.998 1207.5,160C 1202.68,162.446 1198.51,161.613 1195,157.5C 1194.67,157.833 1194.33,158.167 1194,158.5C 1193.33,162.833 1193.33,167.167 1194,171.5C 1195.44,172.87 1197.11,173.87 1199,174.5C 1199.72,176.112 1199.55,177.612 1198.5,179C 1190.98,181.931 1183.31,182.265 1175.5,180C 1172.69,176.717 1173.19,173.883 1177,171.5C 1178.94,166.14 1178.94,160.807 1177,155.5C 1175.99,154.663 1174.82,154.33 1173.5,154.5C 1173.29,152.856 1173.62,151.356 1174.5,150C 1178.05,147.879 1181.72,146.379 1185.5,145.5 Z"/></g>
<g><path style="opacity:1" fill="#921102" d="M 1345.5,145.5 C 1357.25,143.117 1365.75,147.117 1371,157.5C 1373.22,167.533 1369.72,174.7 1360.5,179C 1348.83,184.201 1339.33,181.701 1332,171.5C 1328.84,158.824 1333.34,150.157 1345.5,145.5 Z"/></g>
<g><path style="opacity:1" fill="#921102" d="M 1386.5,145.5 C 1389.5,145.5 1392.5,145.5 1395.5,145.5C 1395.28,146.675 1395.61,147.675 1396.5,148.5C 1410.43,141.8 1418.43,146.134 1420.5,161.5C 1420.26,170.845 1415.92,177.345 1407.5,181C 1403.8,181.804 1400.3,181.304 1397,179.5C 1394.81,182.745 1395.48,185.411 1399,187.5C 1399.67,188.5 1399.67,189.5 1399,190.5C 1396.37,192.413 1393.37,193.413 1390,193.5C 1386.08,193.049 1382.25,192.216 1378.5,191C 1376.26,190.266 1374.93,188.766 1374.5,186.5C 1376.56,184.244 1378.06,181.577 1379,178.5C 1379.67,171.833 1379.67,165.167 1379,158.5C 1373.02,156.914 1372.19,154.081 1376.5,150C 1379.89,148.38 1383.23,146.88 1386.5,145.5 Z"/></g>
<g><path style="opacity:1" fill="#911102" d="M 1435.5,145.5 C 1438.17,145.5 1440.83,145.5 1443.5,145.5C 1443.28,146.675 1443.61,147.675 1444.5,148.5C 1458.77,141.8 1466.77,146.3 1468.5,162C 1467.09,177.282 1459.09,183.449 1444.5,180.5C 1444.07,181.293 1443.74,182.127 1443.5,183C 1444.88,185.006 1446.21,187.006 1447.5,189C 1447.09,191.214 1445.76,192.547 1443.5,193C 1436.05,194.262 1429.21,192.762 1423,188.5C 1422.33,187.167 1422.33,185.833 1423,184.5C 1425,183.833 1426.33,182.5 1427,180.5C 1427.5,172.841 1427.67,165.174 1427.5,157.5C 1423.4,157.504 1421.9,155.504 1423,151.5C 1426.84,148.62 1431.01,146.62 1435.5,145.5 Z"/></g>
<g><path style="opacity:1" fill="#911102" d="M 1483.5,145.5 C 1495.89,143.02 1503.89,147.686 1507.5,159.5C 1507.61,161.374 1506.94,162.874 1505.5,164C 1499.18,164.5 1492.84,164.666 1486.5,164.5C 1485.97,167.808 1487.31,169.974 1490.5,171C 1495.09,172.075 1499.26,171.241 1503,168.5C 1506.49,172.091 1505.99,175.258 1501.5,178C 1487.48,184.994 1477.31,181.494 1471,167.5C 1470.23,157.365 1474.4,150.031 1483.5,145.5 Z"/></g>
<g><path style="opacity:1" fill="#fbfbfb" d="M 618.5,149.5 C 631.607,147.237 641.107,151.904 647,163.5C 648.897,172.205 646.397,179.372 639.5,185C 623.207,195.892 610.707,192.725 602,175.5C 600.122,166.465 602.956,159.299 610.5,154C 613.099,152.205 615.766,150.705 618.5,149.5 Z"/></g>
<g><path style="opacity:1" fill="#110a09" d="M 869.5,151.5 C 873.833,151.167 875.833,153.167 875.5,157.5C 872.833,157.5 870.167,157.5 867.5,157.5C 867.253,155.142 867.919,153.142 869.5,151.5 Z"/></g>
<g><path style="opacity:1" fill="#110a09" d="M 1152.5,151.5 C 1156.83,151.167 1158.83,153.167 1158.5,157.5C 1155.83,157.5 1153.17,157.5 1150.5,157.5C 1150.25,155.142 1150.92,153.142 1152.5,151.5 Z"/></g>
<g><path style="opacity:1" fill="#140b08" d="M 1488.5,151.5 C 1492.45,151.488 1494.11,153.488 1493.5,157.5C 1490.83,157.5 1488.17,157.5 1485.5,157.5C 1485.46,154.911 1486.46,152.911 1488.5,151.5 Z"/></g>
<g><path style="opacity:1" fill="#0e0908" d="M 1347.5,153.5 C 1350.81,152.974 1352.97,154.307 1354,157.5C 1355.68,162.327 1355.85,167.16 1354.5,172C 1352.1,172.63 1350.26,171.797 1349,169.5C 1346.85,164.262 1346.35,158.929 1347.5,153.5 Z"/></g>
<g><path style="opacity:1" fill="#170c09" d="M 1396.5,155.5 C 1401.68,155.749 1404.02,158.583 1403.5,164C 1403.53,168.127 1401.69,170.96 1398,172.5C 1396.74,172.241 1395.74,171.574 1395,170.5C 1394.09,165.311 1394.59,160.311 1396.5,155.5 Z"/></g>
<g><path style="opacity:1" fill="#0f0908" d="M 1444.5,155.5 C 1449.73,155.753 1452.07,158.586 1451.5,164C 1452.19,170.142 1449.52,172.642 1443.5,171.5C 1443.22,166.073 1443.55,160.74 1444.5,155.5 Z"/></g>
<g><path style="opacity:1" fill="#130a09" d="M 935.5,159.5 C 942.809,159.666 945.309,163.333 943,170.5C 941.258,173.351 938.925,174.018 936,172.5C 934.312,168.176 934.146,163.842 935.5,159.5 Z"/></g>
<g><path style="opacity:1" fill="#fefefe" d="M -0.5,162.5 C 0.834504,167.66 2.00117,172.994 3,178.5C 13.2375,214.547 36.7375,236.38 73.5,244C 102.199,246.438 126.532,237.438 146.5,217C 149.544,215.077 152.877,214.244 156.5,214.5C 338.331,224.588 520.164,234.588 702,244.5C 708.253,244.514 714.42,243.847 720.5,242.5C 735.374,243.569 742.374,251.569 741.5,266.5C 737.679,291.096 734.179,315.763 731,340.5C 728.83,365.461 728.164,390.461 729,415.5C 735.201,412.983 741.034,409.817 746.5,406C 765.422,383.889 786.422,364.056 809.5,346.5C 809.833,347.333 810.167,348.167 810.5,349C 809.967,351.226 809.3,353.393 808.5,355.5C 803.186,359.81 797.852,364.143 792.5,368.5C 781.026,378.27 769.026,389.936 756.5,403.5C 754.983,403.511 753.816,404.177 753,405.5C 747.881,414.625 740.381,420.791 730.5,424C 726.399,428.094 725.399,432.928 727.5,438.5C 727.5,438.833 727.5,439.167 727.5,439.5C 484.833,439.5 242.167,439.5 -0.5,439.5C -0.5,347.167 -0.5,254.833 -0.5,162.5 Z"/></g>
<g><path style="opacity:1" fill="#f5f4f4" d="M 1520.5,123.5 C 1520.83,123.5 1521.17,123.5 1521.5,123.5C 1521.5,228.833 1521.5,334.167 1521.5,439.5C 1518.83,439.5 1516.17,439.5 1513.5,439.5C 1518.29,434.945 1518.62,430.112 1514.5,425C 1506.33,422.425 1498,420.758 1489.5,420C 1485.96,414.74 1482.8,409.24 1480,403.5C 1471.93,395.895 1463.43,388.895 1454.5,382.5C 1454.17,382.5 1453.83,382.5 1453.5,382.5C 1447.39,376.939 1441.06,371.606 1434.5,366.5C 1434.5,365.833 1434.5,365.167 1434.5,364.5C 1433.84,361.592 1433.01,361.258 1432,363.5C 1423.77,353.2 1413.43,350.2 1401,354.5C 1399.37,354.375 1397.87,353.875 1396.5,353C 1382.24,336.067 1367.24,319.733 1351.5,304C 1346.26,299.717 1340.26,298.384 1333.5,300C 1311.83,312.333 1290.17,324.667 1268.5,337C 1265.83,339 1263.17,341 1260.5,343C 1259.42,343.47 1258.42,343.303 1257.5,342.5C 1257.65,341.448 1257.48,340.448 1257,339.5C 1256.51,341.134 1256.34,342.801 1256.5,344.5C 1252.75,349.552 1247.75,352.885 1241.5,354.5C 1241.99,352.194 1242.33,349.861 1242.5,347.5C 1248.8,343.344 1255.14,339.177 1261.5,335C 1265.03,332.714 1265.7,330.048 1263.5,327C 1256.55,324.574 1249.88,321.574 1243.5,318C 1223.34,301.507 1202.34,286.174 1180.5,272C 1173.94,270.19 1167.28,268.857 1160.5,268C 1145.02,256.089 1128.69,245.423 1111.5,236C 1100.23,230.004 1088.56,229.004 1076.5,233C 1066.82,239.173 1056.82,244.84 1046.5,250C 1041.43,249.81 1036.43,248.976 1031.5,247.5C 1028.74,247.542 1026.07,248.042 1023.5,249C 1015.17,256.667 1006.83,264.333 998.5,272C 984.159,281.665 970.992,292.832 959,305.5C 956.654,307.706 956.154,310.206 957.5,313C 971.144,315.985 983.478,321.651 994.5,330C 997.206,332.371 999.539,335.037 1001.5,338C 1000.5,338.667 999.5,338.667 998.5,338C 988.154,327.994 975.82,321.994 961.5,320C 953.671,315.92 946.004,311.587 938.5,307C 934.012,305.189 929.346,304.189 924.5,304C 916.473,299.381 908.473,299.381 900.5,304C 883.167,316 865.833,328 848.5,340C 842.72,342.657 836.72,343.157 830.5,341.5C 830.5,341.167 830.5,340.833 830.5,340.5C 830.631,339.624 830.298,338.957 829.5,338.5C 828.738,339.628 828.071,340.795 827.5,342C 822.349,344.996 817.349,348.162 812.5,351.5C 812.187,348.753 812.52,346.086 813.5,343.5C 818.174,338.663 823.841,335.663 830.5,334.5C 835.14,336.601 839.806,336.768 844.5,335C 864.661,321.086 884.994,307.419 905.5,294C 908.5,293.333 911.5,293.333 914.5,294C 921.995,296.834 929.661,299.167 937.5,301C 939.996,302.08 942.33,303.414 944.5,305C 947.167,305.667 949.833,305.667 952.5,305C 964.991,290.835 978.991,278.502 994.5,268C 1003.87,258.963 1013.54,250.296 1023.5,242C 1026.7,240.517 1030.04,240.183 1033.5,241C 1036.5,242.17 1039.5,243.336 1042.5,244.5C 1055.11,238.527 1067.45,232.027 1079.5,225C 1087.59,222.863 1095.59,223.196 1103.5,226C 1123.51,235.664 1142.18,247.331 1159.5,261C 1164.08,262.145 1168.75,262.811 1173.5,263C 1176.24,263.803 1178.91,264.803 1181.5,266C 1204.06,281.226 1226.06,297.226 1247.5,314C 1256.57,317.241 1265.24,321.241 1273.5,326C 1276.42,326.552 1279.09,325.885 1281.5,324C 1299.67,313.413 1318,303.08 1336.5,293C 1342.2,291.685 1347.2,293.018 1351.5,297C 1367.24,312.733 1382.24,329.067 1396.5,346C 1398.51,347.257 1400.68,348.091 1403,348.5C 1409.1,346.098 1415.26,345.931 1421.5,348C 1439.29,363.388 1457.62,378.054 1476.5,392C 1482.86,399.226 1488.86,406.726 1494.5,414.5C 1501.81,415.964 1509.14,417.298 1516.5,418.5C 1516.01,409.678 1515.67,400.844 1515.5,392C 1518.92,302.53 1520.59,213.03 1520.5,123.5 Z"/></g>
<g><path style="opacity:1" fill="#f9f9f8" d="M 1246.5,200.5 C 1252.44,206.938 1258.6,213.271 1265,219.5C 1265.17,213.141 1265.67,206.807 1266.5,200.5C 1267.66,208.145 1267.83,215.812 1267,223.5C 1261,217.5 1255,211.5 1249,205.5C 1248.83,211.528 1248.33,217.528 1247.5,223.5C 1246.5,215.862 1246.17,208.196 1246.5,200.5 Z"/></g>
<g><path style="opacity:1" fill="#59514d" d="M 1331.5,209.5 C 1331.44,210.043 1331.11,210.376 1330.5,210.5C 1329.68,207.553 1329.18,204.553 1329,201.5C 1328.5,208.826 1328.33,216.159 1328.5,223.5C 1327.51,216.018 1327.17,208.352 1327.5,200.5C 1328.5,200.5 1329.5,200.5 1330.5,200.5C 1330.19,203.713 1330.52,206.713 1331.5,209.5 Z"/></g>
<g><path style="opacity:1" fill="#d8d5d2" d="M 1314.5,203.5 C 1316.18,204.183 1316.84,205.517 1316.5,207.5C 1324.5,208.167 1324.5,208.833 1316.5,209.5C 1316.33,213.514 1316.5,217.514 1317,221.5C 1319.07,222.264 1321.24,222.764 1323.5,223C 1320.17,225.291 1317.33,224.791 1315,221.5C 1314.5,217.514 1314.33,213.514 1314.5,209.5C 1310.5,208.833 1310.5,208.167 1314.5,207.5C 1314.5,206.167 1314.5,204.833 1314.5,203.5 Z"/></g>
<g><path style="opacity:1" fill="#eae8e7" d="M 1415.5,203.5 C 1417.18,204.183 1417.84,205.517 1417.5,207.5C 1425.5,208.167 1425.5,208.833 1417.5,209.5C 1417.33,213.514 1417.5,217.514 1418,221.5C 1420.33,222.32 1422.5,222.653 1424.5,222.5C 1423.83,223.946 1422.66,224.612 1421,224.5C 1418.69,224.516 1417.03,223.516 1416,221.5C 1415.5,217.514 1415.33,213.514 1415.5,209.5C 1411.5,209.167 1411.5,208.833 1415.5,208.5C 1415.5,206.833 1415.5,205.167 1415.5,203.5 Z"/></g>
<g><path style="opacity:1" fill="#e2e0de" d="M 1331.5,209.5 C 1335.93,206.6 1340.1,206.933 1344,210.5C 1344.83,214.871 1344.66,219.205 1343.5,223.5C 1342.67,219.541 1342.17,215.541 1342,211.5C 1338.06,208.634 1334.39,208.968 1331,212.5C 1329.99,216.241 1329.15,219.907 1328.5,223.5C 1328.33,216.159 1328.5,208.826 1329,201.5C 1329.18,204.553 1329.68,207.553 1330.5,210.5C 1331.11,210.376 1331.44,210.043 1331.5,209.5 Z"/></g>
<g><path style="opacity:1" fill="#e3e1df" d="M 1279.5,207.5 C 1291.08,206.568 1294.75,211.401 1290.5,222C 1282.17,226.494 1276.5,224.328 1273.5,215.5C 1274.4,211.942 1276.4,209.275 1279.5,207.5 Z"/></g>
<g><path style="opacity:1" fill="#5a514d" d="M 1301.5,209.5 C 1301.57,209.938 1301.4,210.272 1301,210.5C 1300.67,209.833 1300.33,209.167 1300,208.5C 1299.5,213.489 1299.33,218.489 1299.5,223.5C 1298.51,218.36 1298.18,213.026 1298.5,207.5C 1300.18,207.285 1301.18,207.952 1301.5,209.5 Z"/></g>
<g><path style="opacity:1" fill="#efeeed" d="M 1299.5,223.5 C 1299.33,218.489 1299.5,213.489 1300,208.5C 1300.33,209.167 1300.67,209.833 1301,210.5C 1301.4,210.272 1301.57,209.938 1301.5,209.5C 1303.38,207.864 1305.38,207.531 1307.5,208.5C 1305.25,209.245 1303.42,210.578 1302,212.5C 1300.99,216.241 1300.15,219.907 1299.5,223.5 Z"/></g>
<g><path style="opacity:1" fill="#9e9791" d="M 1401.5,208.5 C 1400.51,213.305 1400.18,218.305 1400.5,223.5C 1399.19,218.32 1399.19,212.986 1400.5,207.5C 1401.11,207.624 1401.44,207.957 1401.5,208.5 Z"/></g>
<g><path style="opacity:1" fill="#f3f2f1" d="M 1400.5,223.5 C 1400.18,218.305 1400.51,213.305 1401.5,208.5C 1402.05,210.657 1403.05,210.49 1404.5,208C 1405.83,207.333 1407.17,207.333 1408.5,208C 1405.83,209.25 1403.66,211.083 1402,213.5C 1401.82,217.025 1401.32,220.359 1400.5,223.5 Z"/></g>
<g><path style="opacity:1" fill="#11100f" d="M 1279.5,209.5 C 1289.3,208.44 1292.3,212.273 1288.5,221C 1280.42,224.545 1276.25,222.045 1276,213.5C 1276.69,211.65 1277.86,210.316 1279.5,209.5 Z"/></g>
<g><path style="opacity:1" fill="#eceae9" d="M 1351.5,207.5 C 1352.93,207.881 1353.76,208.881 1354,210.5C 1357.76,207.125 1361.93,206.625 1366.5,209C 1371.66,216.864 1369.66,222.03 1360.5,224.5C 1358.14,223.905 1355.98,222.905 1354,221.5C 1353.82,224.553 1353.32,227.553 1352.5,230.5C 1351.5,222.862 1351.17,215.196 1351.5,207.5 Z"/></g>
<g><path style="opacity:1" fill="#111010" d="M 1356.5,209.5 C 1366.24,208.386 1369.24,212.22 1365.5,221C 1358.99,224.219 1354.99,222.386 1353.5,215.5C 1353.63,213.045 1354.63,211.045 1356.5,209.5 Z"/></g>
<g><path style="opacity:1" fill="#e3e1df" d="M 1380.5,207.5 C 1390.18,206.015 1394.35,210.015 1393,219.5C 1387.59,225.574 1381.92,225.907 1376,220.5C 1373.52,214.796 1375.02,210.463 1380.5,207.5 Z"/></g>
<g><path style="opacity:1" fill="#100f0f" d="M 1380.5,209.5 C 1390.3,208.44 1393.3,212.273 1389.5,221C 1381.42,224.545 1377.25,222.045 1377,213.5C 1377.69,211.65 1378.86,210.316 1380.5,209.5 Z"/></g>
<g><path style="opacity:1" fill="#e8e6e4" d="M 1443.5,200.5 C 1444.5,200.414 1445.33,200.748 1446,201.5C 1448.67,207.534 1451.34,213.534 1454,219.5C 1456.23,213.377 1458.73,207.377 1461.5,201.5C 1464.24,207.568 1467.08,213.568 1470,219.5C 1472.22,213.385 1474.72,207.385 1477.5,201.5C 1478.17,200.167 1478.83,200.167 1479.5,201.5C 1476.24,208.792 1473.07,216.126 1470,223.5C 1466.8,217.766 1464.13,211.766 1462,205.5C 1459.08,211.432 1456.24,217.432 1453.5,223.5C 1449.88,215.937 1446.55,208.271 1443.5,200.5 Z"/></g>
<g><path style="opacity:1" fill="#f0efee" d="M 1489.5,200.5 C 1493.47,207.771 1497.47,215.105 1501.5,222.5C 1501.17,222.833 1500.83,223.167 1500.5,223.5C 1499.25,221.999 1498.25,220.332 1497.5,218.5C 1492.5,217.167 1487.5,217.167 1482.5,218.5C 1481.83,220.517 1480.66,222.183 1479,223.5C 1478.83,223.167 1478.67,222.833 1478.5,222.5C 1482.19,215.114 1485.86,207.78 1489.5,200.5 Z"/></g>
<g><path style="opacity:1" fill="#171514" d="M 1489.5,204.5 C 1492.18,208.02 1494.52,211.853 1496.5,216C 1492.17,216.667 1487.83,216.667 1483.5,216C 1485.64,212.219 1487.64,208.385 1489.5,204.5 Z"/></g>
<g><path style="opacity:1" fill="#dbd8d6" d="M 1428.5,221.5 C 1429.38,221.369 1430.04,221.702 1430.5,222.5C 1426.78,230.273 1426.12,229.94 1428.5,221.5 Z"/></g>
<g><path style="opacity:1" fill="#534b4a" d="M 1242.5,347.5 C 1241.21,346.942 1240.38,345.942 1240,344.5C 1239.67,340.833 1239.33,337.167 1239,333.5C 1237.73,337.649 1237.06,341.982 1237,346.5C 1235.42,349.179 1234.75,351.846 1235,354.5C 1233.17,353.897 1231.34,353.23 1229.5,352.5C 1230.31,351.784 1230.98,350.95 1231.5,350C 1229.86,348.968 1229.52,347.801 1230.5,346.5C 1228.32,342.732 1226.82,338.732 1226,334.5C 1225,339.492 1223.5,344.326 1221.5,349C 1222.61,350.677 1222.61,352.177 1221.5,353.5C 1221.26,352.903 1220.76,352.57 1220,352.5C 1215.33,353.336 1210.83,354.669 1206.5,356.5C 1205.58,355.933 1205.25,356.599 1205.5,358.5C 1203.25,359.08 1201.58,360.413 1200.5,362.5C 1200.07,357.019 1199.07,351.353 1197.5,345.5C 1197.04,350.23 1195.54,354.563 1193,358.5C 1191.63,353.601 1190.63,348.601 1190,343.5C 1189.67,345.5 1189.33,347.5 1189,349.5C 1187,346.525 1186,343.192 1186,339.5C 1184.72,345.386 1182.88,351.053 1180.5,356.5C 1181.09,357.799 1182.09,358.632 1183.5,359C 1182,361.167 1180.83,361 1180,358.5C 1178.96,361.757 1178.46,365.09 1178.5,368.5C 1176.01,368.702 1173.68,368.202 1171.5,367C 1177.11,365.551 1177.44,363.885 1172.5,362C 1173.41,360.301 1173.74,358.467 1173.5,356.5C 1171.32,356.716 1169.65,355.883 1168.5,354C 1171.2,351.187 1170.86,348.687 1167.5,346.5C 1170.54,344.04 1170.71,341.707 1168,339.5C 1167.67,335.833 1167.33,332.167 1167,328.5C 1165.84,332.389 1164.84,336.389 1164,340.5C 1161.03,342.933 1161.2,344.433 1164.5,345C 1163.25,346.458 1163.25,347.958 1164.5,349.5C 1162.22,350.277 1160.06,351.277 1158,352.5C 1157.5,352.333 1157,352.167 1156.5,352C 1159.17,350.333 1159.17,348.667 1156.5,347C 1156.83,346.667 1157.17,346.333 1157.5,346C 1155.37,342.02 1153.87,337.854 1153,333.5C 1152.08,338.84 1150.58,344.007 1148.5,349C 1148.74,349.873 1149.07,350.707 1149.5,351.5C 1147.68,354.964 1145.68,358.298 1143.5,361.5C 1144.83,362.167 1146.17,362.833 1147.5,363.5C 1145.27,365.886 1142.6,367.719 1139.5,369C 1142.59,369.847 1145.42,369.347 1148,367.5C 1148.17,367.833 1148.33,368.167 1148.5,368.5C 1146.11,371.554 1143.45,374.221 1140.5,376.5C 1140.78,378.778 1142.11,379.945 1144.5,380C 1142.57,380.422 1141.57,381.589 1141.5,383.5C 1139.98,383.489 1138.82,382.823 1138,381.5C 1138.29,378.626 1138.45,375.793 1138.5,373C 1136.88,372.385 1135.55,371.385 1134.5,370C 1135.17,369.667 1135.83,369.333 1136.5,369C 1134.24,364.459 1133.08,359.625 1133,354.5C 1132.67,358.167 1132.33,361.833 1132,365.5C 1131.35,367.564 1130.18,369.231 1128.5,370.5C 1128.5,373.833 1128.5,377.167 1128.5,380.5C 1127.17,381.5 1125.83,382.5 1124.5,383.5C 1127.2,386.451 1126.86,389.118 1123.5,391.5C 1125.46,392.848 1125.63,394.181 1124,395.5C 1122,393.507 1120.5,391.173 1119.5,388.5C 1121.17,387.833 1122.83,387.167 1124.5,386.5C 1122.19,384.109 1119.86,381.109 1117.5,377.5C 1117.67,377.167 1117.83,376.833 1118,376.5C 1119.93,379.385 1122.43,380.052 1125.5,378.5C 1124.02,377.52 1122.69,376.353 1121.5,375C 1122.57,374.261 1123.24,373.261 1123.5,372C 1121.49,369.998 1119.49,367.998 1117.5,366C 1118.06,365.275 1118.39,364.442 1118.5,363.5C 1117.75,361.964 1116.75,360.631 1115.5,359.5C 1115.93,358.707 1116.26,357.873 1116.5,357C 1114.29,354.917 1113.95,352.583 1115.5,350C 1113.9,346.751 1113.07,343.251 1113,339.5C 1112.83,343.678 1111.66,347.511 1109.5,351C 1109.64,351.772 1109.98,352.439 1110.5,353C 1106.68,355.232 1106.68,357.232 1110.5,359C 1109.42,359.956 1108.25,360.789 1107,361.5C 1106.46,363.135 1106.96,364.468 1108.5,365.5C 1105.07,369.411 1101.57,369.411 1098,365.5C 1097.23,359.273 1096.06,352.94 1094.5,346.5C 1093.75,350.941 1092.58,355.275 1091,359.5C 1088.1,360.874 1087.93,362.374 1090.5,364C 1087.83,366 1085.17,368 1082.5,370C 1084.04,370.29 1085.38,370.956 1086.5,372C 1084.41,373.041 1082.75,374.541 1081.5,376.5C 1082.82,377.935 1084.49,378.935 1086.5,379.5C 1086.02,380.478 1085.36,381.311 1084.5,382C 1086.78,383.363 1086.95,384.863 1085,386.5C 1082.76,383.926 1080.92,381.092 1079.5,378C 1081.07,375.369 1080.57,373.203 1078,371.5C 1077.67,367.5 1077.33,363.5 1077,359.5C 1076.08,363.241 1075.08,366.908 1074,370.5C 1073.67,369.833 1073.33,369.167 1073,368.5C 1069.34,371.409 1066.17,371.076 1063.5,367.5C 1064.81,366.742 1065.31,365.742 1065,364.5C 1063.59,363.213 1062.09,362.046 1060.5,361C 1061.45,360.517 1062.45,360.351 1063.5,360.5C 1061.66,354.164 1059.83,347.831 1058,341.5C 1057.58,345.921 1056.75,350.254 1055.5,354.5C 1053.16,353.406 1053.16,352.073 1055.5,350.5C 1053.36,345.891 1051.52,341.224 1050,336.5C 1048.77,340.467 1047.61,344.467 1046.5,348.5C 1046.68,349.554 1047.01,350.554 1047.5,351.5C 1045.16,356.136 1042.83,360.469 1040.5,364.5C 1041.87,364.343 1043.21,364.51 1044.5,365C 1042.97,367.197 1041.14,368.03 1039,367.5C 1038.67,364.167 1038.33,360.833 1038,357.5C 1037.95,362.022 1037.12,366.356 1035.5,370.5C 1036.84,372.784 1036.18,373.617 1033.5,373C 1032.28,367.828 1031.28,362.328 1030.5,356.5C 1029.8,360.87 1028.96,365.204 1028,369.5C 1026.23,368.696 1024.73,367.529 1023.5,366C 1024.79,365.51 1026.13,365.343 1027.5,365.5C 1025.55,361.593 1023.55,357.593 1021.5,353.5C 1021.93,352.707 1022.26,351.873 1022.5,351C 1020.5,346.326 1019,341.492 1018,336.5C 1017.9,341.038 1016.4,345.038 1013.5,348.5C 1014.03,349.192 1014.69,349.692 1015.5,350C 1013.25,351.054 1012.91,352.554 1014.5,354.5C 1013.5,355.833 1012.5,355.833 1011.5,354.5C 1011.99,353.554 1012.32,352.554 1012.5,351.5C 1010.94,348.068 1010.11,344.401 1010,340.5C 1009.67,343.167 1009.33,345.833 1009,348.5C 1006.94,350.234 1006.44,352.234 1007.5,354.5C 1006.5,355.833 1005.5,357.167 1004.5,358.5C 1004.98,359.478 1005.64,360.311 1006.5,361C 1004.94,361.941 1003.61,363.108 1002.5,364.5C 1005.99,367.165 1005.33,369.165 1000.5,370.5C 992.99,366.962 992.657,368.462 999.5,375C 998.128,375.402 996.795,375.902 995.5,376.5C 994.146,372.546 992.979,368.213 992,363.5C 990.756,366.638 990.089,369.972 990,373.5C 989.167,374.333 988.333,375.167 987.5,376C 989.211,377.133 989.711,378.633 989,380.5C 987.7,383.432 985.7,385.766 983,387.5C 981.007,385.594 981.507,384.427 984.5,384C 983.643,383.311 982.977,382.478 982.5,381.5C 987.907,378.505 987.573,376.005 981.5,374C 982.759,373.077 984.092,372.243 985.5,371.5C 983.27,369.547 980.937,367.714 978.5,366C 979.308,365.692 979.975,365.192 980.5,364.5C 976.878,359.809 974.711,354.476 974,348.5C 971.786,354.049 970.952,359.716 971.5,365.5C 968.272,371.667 964.272,372.501 959.5,368C 960.91,367.632 961.91,366.799 962.5,365.5C 961.395,364.108 960.061,362.941 958.5,362C 959.574,361.261 960.241,360.261 960.5,359C 958.135,353.417 956.469,347.584 955.5,341.5C 954.61,347.843 953.277,354.01 951.5,360C 951.905,360.945 952.572,361.612 953.5,362C 951.777,362.523 950.444,363.523 949.5,365C 950.918,369.433 949.251,371.933 944.5,372.5C 944.383,374.484 945.05,376.15 946.5,377.5C 945.395,378.892 944.061,380.059 942.5,381C 947.12,382.538 950.287,381.038 952,376.5C 951.779,380.953 949.612,383.953 945.5,385.5C 945.64,387.124 944.973,388.29 943.5,389C 950.431,389.999 950.764,392.832 944.5,397.5C 944.167,397.167 943.833,396.833 943.5,396.5C 944.167,395.5 944.833,394.5 945.5,393.5C 943.728,392.73 942.728,391.397 942.5,389.5C 943.046,387.865 943.38,386.199 943.5,384.5C 939.036,384.368 938.37,382.701 941.5,379.5C 938.794,377.349 938.46,375.182 940.5,373C 936.108,368.903 934.274,363.736 935,357.5C 934.971,362.353 934.138,367.02 932.5,371.5C 932.709,372.086 933.043,372.586 933.5,373C 930.378,374.421 930.044,376.087 932.5,378C 930.246,379.054 929.913,380.554 931.5,382.5C 930.167,384.167 928.833,385.833 927.5,387.5C 928.025,388.192 928.692,388.692 929.5,389C 927.348,391.702 925.681,391.702 924.5,389C 926.964,386.835 926.964,384.835 924.5,383C 927.215,382.125 928.548,380.292 928.5,377.5C 924.994,376.912 922.327,375.078 920.5,372C 923.098,372.422 925.764,372.422 928.5,372C 925.833,370 923.167,368 920.5,366C 921.793,365.51 923.127,365.343 924.5,365.5C 922.426,361.834 920.426,358 918.5,354C 918.833,353 919.167,352 919.5,351C 917.524,346.299 916.024,341.466 915,336.5C 915.223,341.361 913.723,345.527 910.5,349C 911.167,349.333 911.833,349.667 912.5,350C 910.473,351.396 910.14,353.062 911.5,355C 911,355.167 910.5,355.333 910,355.5C 908.278,355.389 908.112,354.889 909.5,354C 907.423,353.808 905.423,353.308 903.5,352.5C 906.044,351.063 906.044,349.563 903.5,348C 904.5,347.667 905.5,347.333 906.5,347C 903.862,343.303 902.362,339.136 902,334.5C 901.021,338.566 899.854,342.566 898.5,346.5C 899.037,347.741 899.704,348.908 900.5,350C 899.612,351.22 898.945,352.553 898.5,354C 900.491,358.176 899.158,360.009 894.5,359.5C 894.318,361.591 894.652,363.591 895.5,365.5C 891.302,367.52 888.969,366.187 888.5,361.5C 887.808,366.048 887.141,370.548 886.5,375C 886.167,375.167 885.833,375.333 885.5,375.5C 884.618,374.24 883.618,373.074 882.5,372C 883.833,372 885.167,372 886.5,372C 885.667,369.919 885.667,367.752 886.5,365.5C 883.956,365.896 881.789,365.229 880,363.5C 880.25,357.827 879.583,352.16 878,346.5C 877.353,364.905 875.02,365.571 871,348.5C 869.699,353.055 868.532,357.722 867.5,362.5C 867.818,363.647 868.484,364.481 869.5,365C 868.522,366.975 867.189,368.642 865.5,370C 865.905,370.945 866.572,371.612 867.5,372C 867.307,373.645 867.14,375.479 867,377.5C 864.555,378.977 862.388,380.81 860.5,383C 861.905,384.269 863.571,384.769 865.5,384.5C 865.041,390.233 862.041,392.233 856.5,390.5C 857.5,389.667 858.5,388.833 859.5,388C 855.215,384.539 852.882,380.039 852.5,374.5C 852.375,380.994 850.709,386.994 847.5,392.5C 850.437,394.937 850.104,396.603 846.5,397.5C 842.269,396.778 838.936,394.612 836.5,391C 837.5,390.667 838.5,390.333 839.5,390C 836.3,386.69 834.466,382.856 834,378.5C 836,381.833 838.667,384.5 842,386.5C 840.712,383.766 839.212,380.933 837.5,378C 839.047,377.667 840.38,378.167 841.5,379.5C 841.109,378.282 841.776,377.448 843.5,377C 840.076,374.62 837.076,371.787 834.5,368.5C 838.577,365.63 838.41,362.963 834,360.5C 833.844,356.866 832.844,353.533 831,350.5C 830.502,347.518 830.335,344.518 830.5,341.5C 836.72,343.157 842.72,342.657 848.5,340C 865.833,328 883.167,316 900.5,304C 908.473,299.381 916.473,299.381 924.5,304C 929.346,304.189 934.012,305.189 938.5,307C 946.004,311.587 953.671,315.92 961.5,320C 975.82,321.994 988.154,327.994 998.5,338C 999.5,338.667 1000.5,338.667 1001.5,338C 999.539,335.037 997.206,332.371 994.5,330C 983.478,321.651 971.144,315.985 957.5,313C 956.154,310.206 956.654,307.706 959,305.5C 970.992,292.832 984.159,281.665 998.5,272C 1006.83,264.333 1015.17,256.667 1023.5,249C 1026.07,248.042 1028.74,247.542 1031.5,247.5C 1036.43,248.976 1041.43,249.81 1046.5,250C 1056.82,244.84 1066.82,239.173 1076.5,233C 1088.56,229.004 1100.23,230.004 1111.5,236C 1128.69,245.423 1145.02,256.089 1160.5,268C 1167.28,268.857 1173.94,270.19 1180.5,272C 1202.34,286.174 1223.34,301.507 1243.5,318C 1249.88,321.574 1256.55,324.574 1263.5,327C 1265.7,330.048 1265.03,332.714 1261.5,335C 1255.14,339.177 1248.8,343.344 1242.5,347.5 Z"/></g>
<g><path style="opacity:1" fill="#d8d5d3" d="M 1442.5,249.5 C 1445.15,247.441 1445.98,244.775 1445,241.5C 1442.87,240.582 1440.7,240.416 1438.5,241C 1441.53,237.911 1444.69,237.745 1448,240.5C 1448.67,241.833 1448.67,243.167 1448,244.5C 1446.92,247.079 1445.09,248.746 1442.5,249.5 Z"/></g>
<g><path style="opacity:1" fill="#e1dedc" d="M 1480.5,248.5 C 1482.11,246.399 1482.61,244.065 1482,241.5C 1479.16,240.494 1476.66,240.494 1474.5,241.5C 1476.89,238.761 1479.89,237.928 1483.5,239C 1485.39,243.207 1484.39,246.374 1480.5,248.5 Z"/></g>
<g><path style="opacity:1" fill="#dfdddb" d="M 1495.5,249.5 C 1500.57,242.945 1499.23,240.278 1491.5,241.5C 1493.68,238.438 1496.51,237.772 1500,239.5C 1501.35,244.264 1499.85,247.597 1495.5,249.5 Z"/></g>
<g><path style="opacity:1" fill="#100f0f" d="M 1457.5,240.5 C 1460.12,240.232 1462.62,240.565 1465,241.5C 1467.52,249.616 1464.68,253.782 1456.5,254C 1453.31,251.047 1452.65,247.547 1454.5,243.5C 1455.83,242.833 1456.83,241.833 1457.5,240.5 Z"/></g>
<g><path style="opacity:1" fill="#c6c1be" d="M 1457.5,240.5 C 1456.83,241.833 1455.83,242.833 1454.5,243.5C 1454.5,241.5 1455.5,240.5 1457.5,240.5 Z"/></g>
<g><path style="opacity:1" fill="#dddad8" d="M 1416.5,234.5 C 1417.24,234.369 1417.91,234.536 1418.5,235C 1417.37,236.753 1416.37,238.587 1415.5,240.5C 1416.73,241.281 1418.06,241.781 1419.5,242C 1416.49,241.84 1414.32,243.007 1413,245.5C 1412.5,247.5 1412,249.5 1411.5,251.5C 1411.59,253.425 1412.59,254.592 1414.5,255C 1411.7,256.936 1410.03,256.103 1409.5,252.5C 1409.86,249.921 1410.53,247.421 1411.5,245C 1408.97,242.641 1409.63,241.474 1413.5,241.5C 1414.01,238.978 1415.01,236.645 1416.5,234.5 Z"/></g>
<g><path style="opacity:1" fill="#9c9590" d="M 1491.5,241.5 C 1491.54,242.756 1491.04,243.756 1490,244.5C 1489.42,243.002 1489.92,242.002 1491.5,241.5 Z"/></g>
<g><path style="opacity:1" fill="#d9d6d4" d="M 1401.5,241.5 C 1403.17,241.5 1404.83,241.5 1406.5,241.5C 1406.66,242.873 1406.49,244.207 1406,245.5C 1404.91,242.183 1403.41,241.849 1401.5,244.5C 1404.15,247.372 1404.98,250.705 1404,254.5C 1401.2,257.113 1398.37,257.113 1395.5,254.5C 1396.66,250.665 1397.66,250.832 1398.5,255C 1399.78,255.684 1400.95,255.517 1402,254.5C 1402.67,252.833 1402.67,251.167 1402,249.5C 1398.9,246.98 1398.73,244.313 1401.5,241.5 Z"/></g>
<g><path style="opacity:1" fill="#dedbd9" d="M 1454.5,243.5 C 1452.65,247.547 1453.31,251.047 1456.5,254C 1464.68,253.782 1467.52,249.616 1465,241.5C 1462.62,240.565 1460.12,240.232 1457.5,240.5C 1461.17,237.661 1464.67,237.995 1468,241.5C 1468.62,251.214 1464.12,256.047 1454.5,256C 1450.53,251.715 1450.53,247.549 1454.5,243.5 Z"/></g>
<g><path style="opacity:1" fill="#dfdcda" d="M 1391.5,241.5 C 1396.39,242.54 1396.73,244.54 1392.5,247.5C 1392.17,247.333 1391.83,247.167 1391.5,247C 1394.43,244.649 1394.1,243.649 1390.5,244C 1388.04,245.512 1388.04,246.846 1390.5,248C 1389.55,248.483 1388.55,248.649 1387.5,248.5C 1386.89,252.458 1388.56,254.624 1392.5,255C 1388.38,257.548 1386.05,256.381 1385.5,251.5C 1386,247.156 1388,243.823 1391.5,241.5 Z"/></g>
<g><path style="opacity:1" fill="#b8b3ae" d="M 1442.5,249.5 C 1442.03,250.906 1441.03,251.573 1439.5,251.5C 1439.97,250.094 1440.97,249.427 1442.5,249.5 Z"/></g>
<g><path style="opacity:1" fill="#b4aeaa" d="M 1495.5,249.5 C 1495,251.085 1494,251.585 1492.5,251C 1493.24,249.961 1494.24,249.461 1495.5,249.5 Z"/></g>
<g><path style="opacity:1" fill="#b0aaa7" d="M 1480.5,248.5 C 1479.2,250.822 1477.2,252.155 1474.5,252.5C 1476.15,250.674 1478.15,249.34 1480.5,248.5 Z"/></g>
<g><path style="opacity:1" fill="#f8f7f7" d="M 1420.5,252.5 C 1421.4,253.209 1421.74,254.209 1421.5,255.5C 1420.45,255.649 1419.45,255.483 1418.5,255C 1419.38,254.292 1420.05,253.458 1420.5,252.5 Z"/></g>
<g><path style="opacity:1" fill="#cbc7c4" d="M 1439.5,251.5 C 1438.4,252.397 1438.4,253.23 1439.5,254C 1442.35,254.944 1444.85,254.444 1447,252.5C 1447.45,254.409 1446.61,255.576 1444.5,256C 1440.58,255.861 1436.75,256.027 1433,256.5C 1433.99,253.707 1436.16,252.04 1439.5,251.5 Z"/></g>
<g><path style="opacity:1" fill="#dddad8" d="M 1474.5,252.5 C 1474.61,253.117 1474.94,253.617 1475.5,254C 1477.83,254.333 1480.17,254.667 1482.5,255C 1481.4,256.023 1480.07,256.523 1478.5,256.5C 1475.5,256 1472.5,255.5 1469.5,255C 1470.91,253.628 1472.58,252.795 1474.5,252.5 Z"/></g>
<g><path style="opacity:1" fill="#e2dfde" d="M 1488.5,252.5 C 1491.58,254.02 1494.91,254.853 1498.5,255C 1494.24,256.497 1489.91,256.497 1485.5,255C 1486.94,254.623 1487.94,253.79 1488.5,252.5 Z"/></g>
<g><path style="opacity:1" fill="#534b4a" d="M 1434.5,364.5 C 1433.31,364.97 1432.64,365.97 1432.5,367.5C 1431.82,372.572 1430.82,377.572 1429.5,382.5C 1427.99,383.23 1426.66,383.563 1425.5,383.5C 1426.5,385.5 1427.5,387.5 1428.5,389.5C 1427.96,390.748 1427.29,391.915 1426.5,393C 1428.11,393.658 1429.27,393.158 1430,391.5C 1430.17,392 1430.33,392.5 1430.5,393C 1429.17,395.333 1427.83,397.667 1426.5,400C 1428.83,402.099 1428.99,404.265 1427,406.5C 1425.27,406.491 1423.44,406.158 1421.5,405.5C 1421.71,404.914 1422.04,404.414 1422.5,404C 1420.67,402.887 1419.84,401.387 1420,399.5C 1422.14,403.204 1423.97,403.204 1425.5,399.5C 1423.71,397.424 1422.05,395.257 1420.5,393C 1421.83,392.667 1423.17,392.333 1424.5,392C 1420.04,389.3 1419.04,385.8 1421.5,381.5C 1419.59,379.743 1418.26,377.576 1417.5,375C 1418.17,374 1418.83,373 1419.5,372C 1416.87,367.222 1415.37,362.055 1415,356.5C 1414.09,363.902 1412.76,371.235 1411,378.5C 1409.65,379.685 1408.48,381.019 1407.5,382.5C 1408.64,383.425 1408.64,384.259 1407.5,385C 1408.45,385.617 1409.28,385.451 1410,384.5C 1410.17,385 1410.33,385.5 1410.5,386C 1407.78,389.87 1404.11,392.537 1399.5,394C 1394.55,394.9 1393.55,393.4 1396.5,389.5C 1395.86,388.354 1395.02,387.354 1394,386.5C 1393.08,381.521 1392.24,376.521 1391.5,371.5C 1390.68,374.107 1390.18,376.774 1390,379.5C 1388.12,381.409 1386.62,383.575 1385.5,386C 1386.5,386.833 1387.5,387.667 1388.5,388.5C 1383.01,390.09 1379.68,388.09 1378.5,382.5C 1380.66,382.884 1382.33,382.217 1383.5,380.5C 1380.53,378.194 1377.86,375.527 1375.5,372.5C 1376.02,370.547 1377.02,368.88 1378.5,367.5C 1375.57,365.375 1374.9,362.709 1376.5,359.5C 1375.33,354.758 1374.17,350.091 1373,345.5C 1369.35,363.762 1367.02,363.095 1366,343.5C 1364.96,349.585 1364.29,355.585 1364,361.5C 1361.99,362.669 1359.83,363.335 1357.5,363.5C 1357.36,365.124 1358.03,366.29 1359.5,367C 1358.83,367.667 1358.17,368.333 1357.5,369C 1359.08,369.085 1360.42,369.251 1361.5,369.5C 1360.72,372.153 1359.22,372.82 1357,371.5C 1356.82,368.118 1356.32,364.785 1355.5,361.5C 1354.75,365.095 1353.41,368.428 1351.5,371.5C 1351.71,372.086 1352.04,372.586 1352.5,373C 1351.17,373.667 1349.83,373.667 1348.5,373C 1342.21,366.913 1343.21,365.079 1351.5,367.5C 1351.44,364.95 1350.11,363.45 1347.5,363C 1349.16,361.556 1349.82,359.722 1349.5,357.5C 1347.09,357.756 1345.42,356.756 1344.5,354.5C 1345.94,351.917 1345.6,349.583 1343.5,347.5C 1344.82,346.193 1345.82,344.693 1346.5,343C 1344.26,341.022 1342.93,338.522 1342.5,335.5C 1341.2,338.853 1339.54,342.02 1337.5,345C 1338.5,346.667 1339.5,348.333 1340.5,350C 1337.65,350.874 1335.65,352.041 1334.5,353.5C 1333.83,353.167 1333.17,352.833 1332.5,352.5C 1333.18,350.412 1333.51,348.412 1333.5,346.5C 1330.6,343.038 1329.1,339.038 1329,334.5C 1327.73,339.398 1326.23,344.232 1324.5,349C 1324.74,349.873 1325.07,350.707 1325.5,351.5C 1323.29,355.485 1321.29,359.485 1319.5,363.5C 1320.87,363.343 1322.21,363.51 1323.5,364C 1321.17,365.667 1318.83,367.333 1316.5,369C 1319.1,369.281 1321.43,369.448 1323.5,369.5C 1321.29,372.545 1318.62,375.045 1315.5,377C 1316.23,378.765 1317.57,379.932 1319.5,380.5C 1318.69,381.216 1318.02,382.05 1317.5,383C 1318.86,384.567 1319.52,386.4 1319.5,388.5C 1316.08,388.762 1315.08,387.428 1316.5,384.5C 1315.35,382.851 1314.02,381.351 1312.5,380C 1315.04,378.437 1315.04,376.937 1312.5,375.5C 1313.84,373.166 1313.17,371.499 1310.5,370.5C 1312.75,369.676 1312.91,368.676 1311,367.5C 1310.15,363.531 1309.48,359.531 1309,355.5C 1309.45,361.184 1307.95,366.184 1304.5,370.5C 1305.17,372.101 1305.5,373.601 1305.5,375C 1304.38,375.249 1303.38,375.749 1302.5,376.5C 1303.17,377.833 1303.83,379.167 1304.5,380.5C 1303.17,381.5 1301.83,382.5 1300.5,383.5C 1303.44,386.865 1302.77,389.365 1298.5,391C 1299.17,392.333 1300.17,393.333 1301.5,394C 1300.97,394.692 1300.31,395.192 1299.5,395.5C 1297.47,393.295 1295.81,390.795 1294.5,388C 1296.5,387.667 1298.5,387.333 1300.5,387C 1296.57,383.95 1294.07,380.117 1293,375.5C 1294.91,379.01 1297.74,380.176 1301.5,379C 1300.17,377.667 1298.83,376.333 1297.5,375C 1298.57,374.261 1299.24,373.261 1299.5,372C 1297.04,370.442 1295.04,368.442 1293.5,366C 1293.83,365 1294.17,364 1294.5,363C 1291.99,361.707 1291.32,359.874 1292.5,357.5C 1290.26,355.453 1289.93,353.12 1291.5,350.5C 1290.07,346.987 1289.23,343.32 1289,339.5C 1287.75,345.339 1285.92,351.006 1283.5,356.5C 1283.93,357.293 1284.26,358.127 1284.5,359C 1283.3,360.368 1282.3,361.868 1281.5,363.5C 1283.82,366.584 1282.82,368.251 1278.5,368.5C 1278.66,365.813 1278.5,363.146 1278,360.5C 1277.81,362.9 1277.31,365.234 1276.5,367.5C 1275.19,366.687 1274.02,365.687 1273,364.5C 1273.18,358.463 1272.35,352.463 1270.5,346.5C 1269.18,351.936 1267.18,357.103 1264.5,362C 1264.64,362.772 1264.98,363.439 1265.5,364C 1263.24,365.813 1260.91,367.313 1258.5,368.5C 1258.99,366.194 1259.33,363.861 1259.5,361.5C 1260.5,361.5 1261.5,361.5 1262.5,361.5C 1260.19,355.396 1258.53,349.063 1257.5,342.5C 1258.42,343.303 1259.42,343.47 1260.5,343C 1263.17,341 1265.83,339 1268.5,337C 1290.17,324.667 1311.83,312.333 1333.5,300C 1340.26,298.384 1346.26,299.717 1351.5,304C 1367.24,319.733 1382.24,336.067 1396.5,353C 1397.87,353.875 1399.37,354.375 1401,354.5C 1413.43,350.2 1423.77,353.2 1432,363.5C 1433.01,361.258 1433.84,361.592 1434.5,364.5 Z"/></g>
<g><path style="opacity:1" fill="#514948" d="M 830.5,340.5 C 829.686,342.631 829.186,344.964 829,347.5C 827.833,349.667 826.667,351.833 825.5,354C 826.167,355 826.833,356 827.5,357C 826.742,359.576 825.409,361.743 823.5,363.5C 823.722,365.055 824.389,366.389 825.5,367.5C 824.667,369.167 823.833,370.833 823,372.5C 819.989,374 820.489,374.834 824.5,375C 823.072,377.185 821.405,379.185 819.5,381C 817.149,380.137 815.482,378.303 814.5,375.5C 815.582,375.251 816.915,375.085 818.5,375C 817.426,374.261 816.759,373.261 816.5,372C 817.677,369.807 818.677,367.641 819.5,365.5C 818.34,365.563 817.006,365.23 815.5,364.5C 814.117,360.25 813.117,355.917 812.5,351.5C 817.349,348.162 822.349,344.996 827.5,342C 828.071,340.795 828.738,339.628 829.5,338.5C 830.298,338.957 830.631,339.624 830.5,340.5 Z"/></g>
<g><path style="opacity:1" fill="#544c4b" d="M 1256.5,344.5 C 1256.68,346.954 1256.01,349.121 1254.5,351C 1254.64,351.772 1254.98,352.439 1255.5,353C 1254,354.491 1253.16,356.324 1253,358.5C 1251.83,359.893 1250.33,360.727 1248.5,361C 1249.17,361.667 1249.83,362.333 1250.5,363C 1249.89,364.13 1249.89,365.463 1250.5,367C 1250.51,368.812 1249.84,370.312 1248.5,371.5C 1249.88,372.863 1249.71,373.863 1248,374.5C 1244.3,372.604 1244.14,370.937 1247.5,369.5C 1243.53,366.461 1242.86,362.961 1245.5,359C 1243.98,357.649 1242.65,356.149 1241.5,354.5C 1247.75,352.885 1252.75,349.552 1256.5,344.5 Z"/></g>
<g><path style="opacity:1" fill="#f2f1f0" d="M 1221.5,353.5 C 1220.37,356.299 1218.7,358.632 1216.5,360.5C 1213.42,361.538 1210.42,362.872 1207.5,364.5C 1206.73,361.904 1206.4,359.237 1206.5,356.5C 1210.83,354.669 1215.33,353.336 1220,352.5C 1220.76,352.57 1221.26,352.903 1221.5,353.5 Z"/></g>
<g><path style="opacity:1" fill="#ebe9e8" d="M 1205.5,358.5 C 1206.02,362.719 1204.85,366.386 1202,369.5C 1201.5,369 1201,368.5 1200.5,368C 1202.9,366.29 1202.9,364.456 1200.5,362.5C 1201.58,360.413 1203.25,359.08 1205.5,358.5 Z"/></g>
<g><path style="opacity:1" fill="#504847" d="M 1216.5,360.5 C 1216.5,361.5 1216.5,362.5 1216.5,363.5C 1217.87,363.343 1219.21,363.51 1220.5,364C 1218.34,365.912 1216.01,367.579 1213.5,369C 1216.2,369.253 1218.87,369.253 1221.5,369C 1220.27,370.635 1218.94,372.135 1217.5,373.5C 1216.75,372.624 1216.25,371.624 1216,370.5C 1214.98,372.703 1213.81,374.869 1212.5,377C 1212.64,377.772 1212.98,378.439 1213.5,379C 1212.57,381.651 1211.23,381.985 1209.5,380C 1211.96,378.488 1211.96,377.154 1209.5,376C 1210.52,374.951 1210.68,373.784 1210,372.5C 1207.46,371.124 1207.29,369.957 1209.5,369C 1207.96,367.89 1207.3,366.39 1207.5,364.5C 1210.42,362.872 1213.42,361.538 1216.5,360.5 Z"/></g>
<g><path style="opacity:1" fill="#494241" d="M 890.5,367.5 C 892.951,369.478 895.618,369.811 898.5,368.5C 899.402,371.56 898.402,374.06 895.5,376C 894.056,376.781 892.723,376.614 891.5,375.5C 891.709,374.914 892.043,374.414 892.5,374C 890.771,372.211 890.104,370.044 890.5,367.5 Z"/></g>
<g><path style="opacity:1" fill="#534b4a" d="M 1434.5,366.5 C 1441.06,371.606 1447.39,376.939 1453.5,382.5C 1454.1,388.024 1453.1,393.19 1450.5,398C 1451.31,398.308 1451.97,398.808 1452.5,399.5C 1448.07,400.578 1444.41,399.245 1441.5,395.5C 1443.09,393.827 1443.75,391.827 1443.5,389.5C 1441,390.826 1438.33,391.326 1435.5,391C 1434.67,388.919 1434.67,386.752 1435.5,384.5C 1437.1,384.688 1438.44,384.188 1439.5,383C 1438.54,381.581 1437.71,380.081 1437,378.5C 1436.67,374.305 1435.83,370.305 1434.5,366.5 Z"/></g>
<g><path style="opacity:1" fill="#524a49" d="M 808.5,355.5 C 808.346,359.453 807.346,363.119 805.5,366.5C 806.5,366.5 807.5,366.5 808.5,366.5C 808.227,368.451 808.893,369.951 810.5,371C 808.026,375.485 805.192,375.651 802,371.5C 801.014,374.742 801.848,377.408 804.5,379.5C 800.81,381.051 800.81,382.884 804.5,385C 803.833,385.333 803.167,385.667 802.5,386C 808.884,388.494 808.55,390.661 801.5,392.5C 801.328,394.492 801.995,396.158 803.5,397.5C 801.54,399.156 799.54,400.823 797.5,402.5C 796.571,403.689 796.238,405.022 796.5,406.5C 793.633,402.512 794.633,399.512 799.5,397.5C 798.653,396.155 797.487,395.155 796,394.5C 795.608,391.812 795.108,389.145 794.5,386.5C 794.919,385.328 795.585,384.328 796.5,383.5C 795.167,382.833 793.833,382.167 792.5,381.5C 792.931,380.707 793.265,379.873 793.5,379C 792.589,375.855 791.755,372.688 791,369.5C 790.34,374.219 788.84,378.553 786.5,382.5C 787.529,386.572 786.362,387.239 783,384.5C 782.833,385 782.667,385.5 782.5,386C 783.573,387.416 783.573,388.75 782.5,390C 783.833,391 785.167,392 786.5,393C 784.323,394.202 781.989,394.702 779.5,394.5C 779.286,396.144 779.62,397.644 780.5,399C 779.833,399.333 779.167,399.667 778.5,400C 780.336,401.419 782.336,402.586 784.5,403.5C 785.521,404.002 785.688,404.668 785,405.5C 781.842,408.025 779.008,407.525 776.5,404C 777.167,403.667 777.833,403.333 778.5,403C 775.997,398.548 774.831,393.715 775,388.5C 775.726,394.736 773.892,399.903 769.5,404C 771.54,406.182 771.206,408.349 768.5,410.5C 771.463,414.231 770.463,415.898 765.5,415.5C 763.981,411.391 763.147,407.057 763,402.5C 762.667,405.833 762.333,409.167 762,412.5C 761.632,413.91 760.799,414.91 759.5,415.5C 757.982,411.57 756.982,407.57 756.5,403.5C 769.026,389.936 781.026,378.27 792.5,368.5C 797.852,364.143 803.186,359.81 808.5,355.5 Z"/></g>
<g><path style="opacity:1" fill="#413939" d="M 968.5,372.5 C 970.446,373.254 971.279,374.588 971,376.5C 968.892,378.959 966.392,380.459 963.5,381C 962.833,380.333 962.167,379.667 961.5,379C 964.043,378.86 966.377,378.194 968.5,377C 967.692,376.692 967.025,376.192 966.5,375.5C 967.193,374.482 967.859,373.482 968.5,372.5 Z"/></g>
<g><path style="opacity:1" fill="#453d3d" d="M 997.5,377.5 C 1004.88,377.544 1005.22,379.544 998.5,383.5C 994.864,381.793 994.864,380.626 998.5,380C 997.748,379.329 997.414,378.496 997.5,377.5 Z"/></g>
<g><path style="opacity:1" fill="#4a4242" d="M 1065.5,378.5 C 1068.19,378.336 1070.85,378.503 1073.5,379C 1070.14,383.6 1067.47,383.434 1065.5,378.5 Z"/></g>
<g><path style="opacity:1" fill="#484140" d="M 823.5,382.5 C 824.043,382.56 824.376,382.893 824.5,383.5C 824.088,385.887 823.088,387.887 821.5,389.5C 820.11,387.797 818.61,387.13 817,387.5C 816.51,386.207 816.343,384.873 816.5,383.5C 818.262,383.357 819.929,383.691 821.5,384.5C 822.522,384.145 823.189,383.478 823.5,382.5 Z"/></g>
<g><path style="opacity:1" fill="#484040" d="M 1141.5,383.5 C 1144.78,384.732 1145.11,386.399 1142.5,388.5C 1138.86,387.459 1138.53,385.792 1141.5,383.5 Z"/></g>
<g><path style="opacity:1" fill="#564e4c" d="M 1454.5,382.5 C 1463.43,388.895 1471.93,395.895 1480,403.5C 1482.8,409.24 1485.96,414.74 1489.5,420C 1498,420.758 1506.33,422.425 1514.5,425C 1518.62,430.112 1518.29,434.945 1513.5,439.5C 1251.5,439.5 989.5,439.5 727.5,439.5C 727.5,439.167 727.5,438.833 727.5,438.5C 733.833,438.5 740.167,438.5 746.5,438.5C 991.833,438.5 1237.17,438.5 1482.5,438.5C 1482.38,436.516 1483.05,434.85 1484.5,433.5C 1483.17,432.5 1481.83,431.5 1480.5,430.5C 1480.05,427.274 1480.05,423.941 1480.5,420.5C 1477.78,418.205 1476.28,415.205 1476,411.5C 1474.85,413.731 1473.85,416.065 1473,418.5C 1472.33,417.833 1471.67,417.167 1471,416.5C 1470.15,412.531 1469.48,408.531 1469,404.5C 1468.67,407.833 1468.33,411.167 1468,414.5C 1467.17,415.5 1466.33,416.5 1465.5,417.5C 1464.5,417.167 1463.83,416.5 1463.5,415.5C 1466.02,413.74 1466.85,411.407 1466,408.5C 1464.95,409.517 1463.78,409.684 1462.5,409C 1463.69,407.981 1464.69,406.814 1465.5,405.5C 1464.61,404.41 1463.61,404.41 1462.5,405.5C 1461.81,404.975 1461.31,404.308 1461,403.5C 1460.67,403.833 1460.33,404.167 1460,404.5C 1459.34,400.995 1457.84,397.995 1455.5,395.5C 1454.63,391.213 1454.29,386.879 1454.5,382.5 Z"/></g>
<g><path style="opacity:1" fill="#4c4444" d="M 1397.5,396.5 C 1399.75,396.181 1401.75,396.681 1403.5,398C 1402.5,398.333 1401.5,398.667 1400.5,399C 1402.39,400.101 1403.06,401.434 1402.5,403C 1400.7,403.972 1399.03,405.139 1397.5,406.5C 1396.29,405.126 1395.29,403.626 1394.5,402C 1395.63,400.235 1396.63,398.402 1397.5,396.5 Z"/></g>
<g><path style="opacity:1" fill="#4d4645" d="M 838.5,399.5 C 840.532,399.478 842.698,399.145 845,398.5C 846.667,400.545 848.5,402.378 850.5,404C 849.378,406.124 847.878,407.957 846,409.5C 844.079,407.119 841.579,405.619 838.5,405C 846.203,402.44 846.203,400.606 838.5,399.5 Z"/></g>
<g><path style="opacity:1" fill="#4e4645" d="M 1447.5,402.5 C 1448.5,402.5 1449.5,402.5 1450.5,402.5C 1450.66,405.686 1449.66,408.353 1447.5,410.5C 1446.76,409.009 1446.09,407.509 1445.5,406C 1446.82,405.184 1447.49,404.017 1447.5,402.5 Z"/></g>
<g><path style="opacity:1" fill="#544c4b" d="M 756.5,403.5 C 756.665,406.518 756.498,409.518 756,412.5C 755.315,415.057 753.815,416.891 751.5,418C 752.167,418.667 752.833,419.333 753.5,420C 750.528,422.526 750.195,425.193 752.5,428C 750.833,429.167 749.167,430.333 747.5,431.5C 750.205,434.332 749.872,436.665 746.5,438.5C 740.167,438.5 733.833,438.5 727.5,438.5C 725.399,432.928 726.399,428.094 730.5,424C 740.381,420.791 747.881,414.625 753,405.5C 753.816,404.177 754.983,403.511 756.5,403.5 Z"/></g>
<g><path style="opacity:1" fill="#463f3f" d="M 796.5,406.5 C 797.627,407.122 798.627,407.955 799.5,409C 798.141,410.204 797.141,411.704 796.5,413.5C 795.28,413.113 794.613,412.28 794.5,411C 795.414,409.594 796.08,408.094 796.5,406.5 Z"/></g>
</svg>
