<svg id="Layer_1" xmlns="http://www.w3.org/2000/svg" viewBox="0 0 774.9 346.2">
	<style>.cls-2{fill:#fff}.cls-5{font-family:FranklinGothic-Heavy,Franklin Gothic Heavy}.cls-5,.cls-6{fill:#a13d33}.cls-5{font-size:36.63px}.cls-14{letter-spacing:.02em}		
	</style>
	<!-- ellipse border -->
	<ellipse style="fill:#131211" cx="472.1" cy="208.3" rx="302.8" ry="137.8" />

	<!-- white bg of logo -->
	<ellipse class="cls-2" cx="472.1" cy="208.3" rx="301.5" ry="136.5" />

	<!-- cleaver blade -->
	<path d="M453 61a1726 1726 0 0 0-21-55c-2-5-8-7-13-5l-28 18a655 655 0 0 1-119 69l-38 16-15 5-4 2h-1l8 40c4-1 7 0 8 4l2 6c1 8 2 8 5 16l2 7 1 2 1 3v3l229-82v-1l-1-2-1-2-1-3-14-41Z" />

	<!-- cleaver handle -->
	<path d="M212.5 110.1c-.6-.2-1.5.2-2.3.4l-14.1 3.6-61.5 15.3c-26.7 6.6-53.1 14-79.4 22l-40 12.2c-7.5 2.3-12 7.6-14 15A35.2 35.2 0 0 0 4.9 206c9 15.5 28.1 18.7 41 6.7 2.4-2.1 4.2-4.8 5.5-7.8a4.4 4.4 0 0 1 3-2.6l10.2-3 71.6-21.4 81.5-24.4a14 14 0 0 0 3.2-1.5l1.2-.6-8-40.9a5 5 0 0 1-1.5-.3ZM32.3 194.4a7.1 7.1 0 0 1-8 1 5.5 5.5 0 0 1-3.2-5.5 7.2 7.2 0 0 1 4.7-6.5c3.7-1.3 7.2-.2 8.6 2.5 1.5 2.9.7 6.4-2.1 8.5Zm81.5-33c0 2.9-2 5.5-5 6.6-3.2 1.2-6.6.2-8.1-2.4-1.7-2.7-1-6.3 1.7-8.6 2.3-2 5.7-2.5 8.2-1.2 2.2 1.2 3.3 3 3.2 5.6Zm78.5-18.6c-1 1.5-2.4 2.6-3.7 3.8-2.4.5-4.4.5-6.4-.7a5.8 5.8 0 0 1-2.9-6 7.8 7.8 0 0 1 8.3-6.4c4.7.5 7.2 5.3 4.7 9.3Z" />
<!-- THE BUTCHER SHOPPE -->
	<!-- good! -->
<!-- T -->
<path class="cls-6" d="M332 70.5c.7 1 .4 1.9-.5 2.4l-.5.1c-1.8.7-5 .2-8 .6l6.2 17c.4.8 1.2 1.7 1.7 1.6l.2-.1c.2 0 .3.2.1.2l-.3.1c-2.2.8-2.5 3.4-5 4.4h-.2c-1.6.6-2.9 0-3.3-1.4-.3-1.3.2-2.4 1.2-2.8h1c-.9.4-1 1.4-.5 2.3s1.3 1 2 .7 1.9-1.3.9-4.2L320.7 74l-1.5.5a7 7 0 0 0-3.2 2c-1.6 1.7-1.3 3.5-.2 4.1.4.2.7.2 1 .1.4-.2.8-.7.7-1.3l-.2-.7a.6.6 0 0 1 .1-.8h.2c.2-.2.5 0 .6.2.2.4.4.8.2 1.6-.2.7-.8 1.2-1.4 1.5-1 .4-1.8-.1-2.4-.9.2 0 .2-.2.2-.4s-.3-.2-.4-.2c-.2.1-.3.3-.2.4l.2.3c0 2.4 2.1 3.5 4 2.9l1-.6c-.6 1-1.2 1.5-1.8 1.7-1.8.6-3.6-1-3.6-2.6-3.4-1-2.3-5.5 2-7.4l1.2-.5c5-1.8 9.6-1.1 12.2-1.8l.4-.1c1.6-.6 2-1.8 1.6-2.2-.2-.4-.6-.8-1.2-.6l-.3.2c-.4.3-.4.7-.3 1-1-.5-.7-1.7 0-2.1l.3-.2c.5-.1 1.2-.1 1.8.6.4.5.6 1.3.2 1.9Z" />
<!-- HE BUTCHER S -->
	<path class="cls-6" d="m327.4 77.3 4.7-1.7c.2-.1.3.1.1.2l-.2.1c-.5.2-.5 1.4-.4 2.2l1.5 4 3.8-1.3-1.5-4c-.4-.8-1.2-1.7-1.6-1.6l-.3.1c-.2.1-.3-.1 0-.2l4.6-1.7c.2 0 .3.2.1.3h-.2c-.5.2-.5 1.4-.4 2.3l3.7 10.3c.5.8 1.2 1.7 1.7 1.5h.3c.2-.2.3 0 0 .2l-4.7 1.7c-.2 0-.3-.2 0-.3h.2c.4-.3.5-1.5.3-2.4l-2-5.7-3.9 1.4 2.1 5.7c.5.8 1.2 1.7 1.7 1.6l.2-.1c.3-.1.4.1.1.2l-4.7 1.7c-.2 0-.3-.2 0-.2l.2-.1c.4-.2.5-1.4.3-2.3L329.4 79c-.4-.8-1.2-1.7-1.7-1.5l-.2.1c-.2 0-.3-.2-.1-.3Zm12.1-4.4 7.7-2.8.6 1.8v.2l-.2-.1-.1-.3c-.2-.4-1.4-.4-2.3-.3l-2 .8 2 5.6.6-.2c.8-.5 1.7-1.2 1.5-1.7v-.2c-.1-.1 0-.2 0-.2h.2l1 3v.3l-.2-.1v-.3c-.2-.4-1.4-.5-2.3-.3l-.6.2 2.6 7.4 2-.8c.9-.4 1.8-1.1 1.6-1.6V83c-.1-.1 0-.1 0-.2l.2.1.6 1.8-7.6 2.8c-.3 0-.4-.2-.1-.3h.2c.5-.2.5-1.4.3-2.3l-3.7-10.4c-.4-.7-1.2-1.6-1.7-1.4h-.2c-.2.1-.3-.1 0-.2ZM233.3 126c4.7-1.6 8.1-.4 10.4 1 1.5 1 2.4 2 3.3 1.7-.2 4-2.3 7-3.9 8.8 2.1 0 9.4-.1 13.6 4.4 1.8 7.5.9 16.5-7.5 19.5-5.4 2-12 .3-14.1-5.6-1.8-5 1-9.3 4.5-11l-4.1-11.6c-.7-1.3-2-2.7-2.7-2.4l-.4.1c-.3.1-.4-.3-.1-.4l7.5-2.7c.3 0 .4.3 0 .4l-.3.2c-.8.2-.8 2.1-.5 3.5l2 5.7c1.9-2.1 2.9-5 3-7-.8-1.5-4.2-5.5-9-3.8-4 1.4-6 5.1-4.7 8.5a5.2 5.2 0 0 0 4.2 3.6c-.4.4-.7.7-1.1.8-1.4.5-2.6-1-2.8-2.2-1.7.6-3-.2-3.8-1.8-1.4-3.5 1.8-8 6.4-9.6Zm5.8 30.2c1.5 4.2 6 5.2 10 3.8 5-1.8 8.2-8.3 4.4-14.5a6.2 6.2 0 0 0-2.5-2.4h-.9c-.8.3-1 1.4-.4 2 .3.3.7.3 1 .4l-.6.3a2 2 0 0 1-2.4-1c-.8-1.3 0-2.6 1.3-3a3 3 0 0 1 1.5-.2c0 .5.3.8.6.7l.2-.2c.3-.4 0-1-.6-.7-1.5-1.4-5-3-9-2.3l1.7 5c.4 0 .7 0 1 .2 4.6 1.4 4.9 5.8 3.2 6.6 1.5 1.6 2 3.6 1.3 5.2-.1.2-.3.4-.5.4-.8.3-2-.5-1.3-1.5l.4-1.3c0-1.3-.8-2.7-2-3.4a4.7 4.7 0 0 0-3.8-.2 4 4 0 0 0-2.4 2 5.3 5.3 0 0 0-.2 4.1Zm13.1-27.6 7.4-2.6c.3-.2.4.2.1.4h-.4c-.7.3-.7 2.2-.5 3.6l4.9 13.5a4 4 0 0 0 7.6-2.7l-5-13.6c-.6-1.1-1.8-2.5-2.6-2.3l-.3.2c-.4 0-.5-.3-.2-.4l4.7-1.7c.4-.2.5.2.2.4l-.4.1c-.7.3-.8 2.1-.5 3.5l4.7 13.1c1.2 3.5 0 7.3-3.5 8.5-3.4 1.2-7-.6-8.2-3.9l-4.8-13.5c-.7-1.2-2-2.6-2.7-2.3l-.3.1c-.4.1-.5-.3-.2-.4Zm17.5-6.3 17.3-6.2 1 2.8c0 .1 0 .2-.2.3 0 0-.2 0-.2-.2l-.2-.4c-.2-.7-2.1-.7-3.5-.5l-3.5 1.3 6.7 18.7c.7 1.3 1.9 2.7 2.7 2.4l.4-.1c.2-.1.4.3.1.4l-7.5 2.6a.2.2 0 0 1-.1-.4h.4c.8-.4.8-2.3.5-3.6l-6.7-18.8-3.5 1.3c-1.2.7-2.7 2-2.4 2.6l.1.4v.3l-.4-.1-1-2.8Zm23.5-8.4c1-.4 2-.5 3-.2h.2c.2 0 .3-.3.3-.4v-.3l.4.1 2.4 6.8c0 .1 0 .3-.2.3l-.3-.1c-1.8-3-3.9-4.8-5.4-4.2-2 .7-1.9 5.5.2 10.8 2 5.3 5.3 9 7.4 8.3 1.2-.5 1.7-2.5 1.3-5.2 0-.1 0-.2.2-.2l.3.1 1.9 5.2c0 .1 0 .2-.2.2h-.2c-.1-.3-.3-.4-.5-.3l-.2.1a5 5 0 0 1-2.4 1.9c-3.9 1.4-8.9-2.6-11.1-9-2.3-6.3-1-12.5 3-14Zm5.6-2 7.4-2.7c.3-.1.5.3.1.4l-.4.2c-.7.2-.7 2-.5 3.4l2.3 6.4 6-2.1-2.3-6.4c-.7-1.2-2-2.6-2.7-2.4l-.3.2c-.4.1-.5-.3-.2-.4l7.4-2.7c.3 0 .5.3.1.4l-.3.2c-.8.2-.8 2.1-.6 3.4l5.8 16.2c.8 1.3 2 2.7 2.7 2.5l.4-.2c.3-.1.5.3.1.4l-7.4 2.7c-.3 0-.5-.3-.1-.4l.4-.2c.7-.2.7-2.1.5-3.5l-3.3-9-6 2 3.3 9.1c.7 1.3 2 2.7 2.7 2.5l.3-.2c.4-.1.5.3.2.4l-7.4 2.6c-.4.2-.5-.2-.1-.3l.3-.2c.8-.2.8-2.1.5-3.5l-5.8-16.2c-.7-1.2-1.9-2.6-2.6-2.4l-.4.2c-.3.1-.5-.3-.1-.4Zm19-6.9 12-4.3 1 2.8v.3c-.2 0-.3 0-.4-.2l-.1-.4c-.3-.7-2.1-.7-3.5-.5l-3.3 1.2 3.2 8.9 1-.4c1.2-.7 2.6-2 2.3-2.7v-.6c.2 0 .3 0 .3.2l1.7 4.7v.3c-.2 0-.3 0-.4-.2l-.1-.4c-.3-.7-2.1-.7-3.6-.5l-.9.4 4.1 11.5 3.3-1.1c1.2-.7 2.7-1.9 2.4-2.7l-.2-.4.2-.2h.2l1 3-12 4.2c-.3.2-.5-.2-.1-.4h.3c.8-.3.8-2.2.6-3.6l-5.8-16.2c-.7-1.2-2-2.6-2.7-2.4l-.3.1c-.4.2-.5-.2-.2-.3Zm13.9-5 8.7-3c2.6-1 5.6.6 6.7 3.6.7 2 .3 4-.9 5.3l-1.1 1c1 .2 2 1 3 1.8 1.9 2 4 5.8 5.5 7.6.7 1 1.5.8 1.7.8l.6-.2c.2-.1.3.2.1.3 0 0-1.1 1-2.4 1.5-2.1.8-3.8-.8-5-2.6-1-1.9-2.4-4-3.2-5.3-1.1-1.8-2.1-2.6-4-2.4l-.4.1 3.2 9c.7 1.3 2 2.7 2.7 2.5l.4-.2c.3 0 .4.3.1.4L340 123c-.3.1-.4-.3-.1-.4l.4-.1c.8-.3.8-2.2.5-3.6l-5.8-16.2c-.6-1.2-1.9-2.6-2.7-2.3l-.3.1c-.4.1-.5-.2-.2-.4Zm5.8-1.1 3.2 8.8 1.3-.4c1.7-.6 2.4-3.1 1.6-5.4s-2.6-4.3-4.7-3.5l-1.4.4Zm52.1 8.9a6.3 6.3 0 0 0 2.8-2c0 1.8-1.4 3.6-3.6 4.4a7 7 0 0 1-4.8 0l-3.8-2.1c-1 1-2.2 1.8-3.6 2.3l-.8.3c-4.4 1-10-1-11.3-6.7-.7-3 .2-6.2 3.3-7.3 1.9-.7 3.2.4 3.1 1.6 3.9-.4 5.8 3.8 2.8 5.4a13 13 0 0 1 5.5 1.8c.5-1 .5-2.3.4-3.7a8.6 8.6 0 0 0-1.8-4.6c-1.2-1.5-2.6-1.8-3.5-1.5-.8.3-1.2.9-1.1 1.6-1-.8-.8-1.8-.3-2.5.1.1.3.1.4 0 .7-.2.4-1-.3-.8-.1 0-.3.2-.3.4l-5.2-.6c-2.5-.3-6.2-1.4-6.6-5.7-.2-3 1.9-5.2 4.4-6 .9-.4 1.8-.5 2.6-.6-.3-2.3.3-4 .9-5.1.2-.5.4-.7.7-.8 1-.4 2.2 1 1.1 2a5.3 5.3 0 0 0-1.5 4c3.9.5 5.5 3.8 3.2 4.9 0 1.5-1 2.6-2.2 3l-1.2.2c-1.7 0-3-1.9-1.9-3.6.3-.4.7-.7 1-.8.4-.2.8-.1 1.2 0a10 10 0 0 1-1-2.6c-.5 0-1 0-1.4.2-.4.2-.9.4-1.3.8-3.7 2.7-1.5 8.5 3 9l5.3.6c4 .3 7.7 2 8.7 6.6a9 9 0 0 1-1.1 6.7c2.8 1.3 5 2.3 8.1 1.2Zm-14.4 1.8a7.1 7.1 0 0 0 3.4-2.7c-2-1.4-4-2.7-6.3-3 0 0 1.4-1.4.7-3.2a2.4 2.4 0 0 0-3.1-1.4c-2.2.7-3 3.4-2.6 5.5.2-1 .8-1.9 1.8-2.2 1.4-.5 2.3.5 2.1 1.6.5 0 1.5.3 2.1 1.2.8 1.2.7 2.9-.6 3.5h-.2c-1.2.5-2.2-.5-2-1.4.2.2.8.5 1.4.3.3-.1.6-.4.7-.9.5-1.2-.8-2.6-2.2-2-1.2.4-1.6 1.7-1.2 2.9.2.5.8 1.5 2 1.9 1.3.4 2.7.4 4 0ZM370 86a.8.8 0 0 0-.7 0c-.7.2-1.1 1.5-.1 2.2.3.3.7.3 1 .2 1-.4 1.7-1.8 1-3.5a3.3 3.3 0 0 0-2.1-2.1c.2 1.2.6 2.3.9 3.2Z" />
<!-- H -->
	<path class="cls-6" d="m377.2 83.7 7.4-2.6c.3-.1.5.3.1.4l-.4.1c-.7.3-.7 2.1-.5 3.5l2.3 6.4 6-2.2-2.3-6.4c-.7-1.1-2-2.6-2.7-2.3l-.4.1c-.3.2-.4-.2-.1-.4l7.4-2.6c.3-.1.5.3.1.4l-.4.1c-.7.3-.7 2.1-.5 3.5l5.8 16.2c.8 1.2 2 2.7 2.7 2.4l.4-.1c.3-.2.5.2.1.4l-7.4 2.6c-.3.1-.5-.3-.1-.4l.4-.1c.7-.3.7-2.2.5-3.6l-3.3-9-6 2.1 3.3 9c.7 1.3 2 2.8 2.6 2.5l.4-.1c.4-.2.5.2.2.4l-7.4 2.6c-.4.1-.5-.3-.1-.4l.3-.1c.7-.3.8-2.2.5-3.6l-5.8-16.2c-.7-1.1-1.9-2.6-2.6-2.3l-.4.1c-.3.2-.5-.2-.1-.4Z" />
<!-- O -->
	<path class="cls-6" d="M398.5 89.3c-2.3-6.5-1-12.9 2.9-14.3 4-1.4 9 2.7 11.3 9.2 2.3 6.5 1 12.8-2.9 14.3-3.9 1.3-9-2.8-11.3-9.2Zm3.4-1.4c2.1 5.4 5.5 9.2 7.5 8.5 2-.8 2-5.7-.2-11.1-2-5.4-5.5-9.2-7.5-8.5s-1.9 5.7.2 11Zm5.7-1.9c-.8 2-.2 5.7-.2 5.7s-1.8-3.3-3.7-4.3c.8-2 0-5.7 0-5.7s2 3.2 3.8 4.3Z" />
<!-- P -->
	<path class="cls-6" d="m408.8 72.4 8.6-3.1c2.6-1 5.6.7 6.7 3.7.7 2 .3 3.9-.8 5.3a6 6 0 0 1-2.4 1.5l-3 1 3.3 9.1c.7 1.3 2 2.7 2.6 2.4l.4-.1c.4-.1.5.3.2.4l-7.4 2.6c-.4.2-.5-.2-.2-.4h.4c.7-.3.8-2.2.5-3.6L412 75c-.7-1.2-1.9-2.6-2.6-2.4l-.4.2c-.3 0-.5-.3-.1-.4Zm10.2 7.2c1.6-.6 2.4-3 1.6-5.4s-2.6-4.3-4.8-3.5l-1.3.5 3.2 8.9 1.3-.5Z" />
<!-- P -->
	<path class="cls-6" d="m422.5 67.5 8.6-3.2c2.6-.9 5.6.8 6.7 3.8.7 2 .3 3.9-.8 5.2a6 6 0 0 1-2.4 1.6l-3 1L435 85c.7 1.3 2 2.7 2.6 2.4l.4-.1c.4-.1.5.3.2.4l-7.4 2.6c-.4.2-.5-.2-.2-.4l.4-.1c.7-.3.8-2.1.5-3.6L425.6 70c-.7-1.1-1.9-2.6-2.6-2.3l-.4.1c-.4.2-.5-.2-.1-.3Zm10.2 7.2c1.6-.6 2.4-3 1.6-5.4-.8-2.3-2.6-4.3-4.8-3.5l-1.3.5 3.2 8.9 1.3-.5Z" />
<!-- E -->
	<path class="cls-6" d="m436.1 62.5 12-4.3 1 2.8v.3c-.1 0-.3 0-.3-.2l-.2-.4c-.2-.7-2.1-.7-3.5-.5l-3.2 1.2 3.1 8.9 1-.4c1.2-.7 2.7-2 2.4-2.7l-.1-.3v-.3c.2 0 .3 0 .4.2l1.6 4.7v.3c-.1 0-.3 0-.3-.2l-.2-.4c-.2-.7-2.1-.7-3.5-.5l-1 .4 4.2 11.5 3.2-1.1c1.3-.7 2.7-1.9 2.4-2.7l-.1-.4.1-.2h.3l1 3-12 4.2c-.4.2-.5-.2-.2-.4h.3c.8-.3.9-2.2.6-3.6l-5.8-16.2c-.7-1.2-2-2.6-2.7-2.4l-.3.1c-.4.2-.5-.2-.2-.3Z" />

	<!-- MOBILE FARM SLAUGHTER -->
	<text transform="translate(202 267)" style="font-family:FranklinGothic-Heavy,'Franklin Gothic Heavy';font-size:43.66px">
		<tspan x="0" y="0">MOBILE </tspan>
		<tspan x="168.8" y="0" style="letter-spacing:-.03em">F</tspan>
		<tspan x="191.2" y="0">ARM SL</tspan>
		<tspan x="346.9" y="0" style="letter-spacing:-.02em">A</tspan>
		<tspan x="374.1" y="0">UGHTER</tspan>
	</text>
	<!-- website URL -->
	<text transform="translate(240 294)" style="fill:#a13d33;font-size:25.81px;font-family:FranklinGothic-Heavy,'Franklin Gothic Heavy'">
		<tspan x="0" y="0">ww</tspan>
		<tspan x="38.3" y="0" style="letter-spacing:-.02em">w</tspan>
		<tspan x="56.9" y="0">.theno</tspan>
		<tspan class="cls-14" x="134.5" y="0">r</tspan>
		<tspan x="144.9" y="0">thpo</tspan>
		<tspan class="cls-14" x="200.2" y="0">r</tspan>
		<tspan x="210.5" y="0">tbut</tspan>
		<tspan x="260" y="0" style="letter-spacing:.01em">c</tspan>
		<tspan x="273.8" y="0">he</tspan>
		<tspan x="304.2" y="0" style="letter-spacing:0">r</tspan>
		<tspan x="314.1" y="0">shoppe.com</tspan>
	</text>
	
	<!-- phone number -->
	<!-- good! -->
	<text transform="matrix(.996134 .087851 -.087851 .996134 516.96 102.3)" class="cls-5">
		<tspan x="0" y="0">5</tspan>
	</text>
	<text transform="matrix(.992332 .123601 -.123601 .992332 538.04 104.15)" class="cls-5">
		<tspan x="0" y="0">0</tspan>
	</text>
	<text transform="matrix(.98694 .161087 -.161087 .98694 559 106.75)" class="cls-5">
		<tspan x="0" y="0">9</tspan>
	</text>
	<text transform="matrix(.98176 .190124 -.190124 .98176 579.9 110.24)" class="cls-5">
		<tspan x="0" y="0">-</tspan>
	</text>
	<text transform="matrix(.975342 .220697 -.220697 .975342 589.54 112.01)" class="cls-5">
		<tspan x="0" y="0">6</tspan>
	</text>
	<text transform="matrix(.964049 .265724 -.265724 .964049 610.07 116.64)" class="cls-5">
		<tspan x="0" y="0">4</tspan>
	</text>
	<text transform="matrix(.948986 .315318 -.315318 .948986 630.32 122.19)" class="cls-5">
		<tspan x="0" y="0">0</tspan>
	</text>
	<text transform="matrix(.934702 .355433 -.355433 .934702 650.29 128.94)" class="cls-5">
		<tspan x="0" y="0">-</tspan>
	</text>
	<text transform="matrix(.916712 .399549 -.399549 .916712 659.36 132.22)" class="cls-5">
		<tspan x="0" y="0">6</tspan>
	</text>
	<text transform="matrix(.883275 .468855 -.468855 .883275 678.45 140.48)" class="cls-5">
		<tspan x="0" y="0">7</tspan>
	</text>
	<text transform="matrix(.835712 .549169 -.549169 .835712 695.66 149.46)" class="cls-5">
		<tspan x="0" y="0">6</tspan>
	</text>
	<text transform="matrix(.752989 .658033 -.658033 .752989 712.71 160.46)" class="cls-5">
		<tspan x="0" y="0">6</tspan>
	</text>
	<!-- mountains -->
	<path d="M734 222h-1l-9-2h-1c-8 0-6-7-12-13l-13-10-19-15c-5-5-9-8-16-6-4 1-6 0-8-2a942 942 0 0 0-32-33h-7l-44 25c-5 2-9 6-13 9-3 2-5 3-8 3l-6 1c-8 0-14 4-20 9l-13 11 1-3 10-11c5-7 12-10 21-10 5 1 8-1 12-4l11-7 3-4-3-2c-10-2-16-9-24-14l-29-20c-2-2-5-3-7-3-5 1-9-1-13-4-8-7-17-12-27-17-9-5-18-6-27 0l-14 8c-2 1-4 2-7 0-5-3-9-1-13 2l-21 19c-7 4-13 10-18 15-4 4-4 6 2 7 8 1 15 5 21 10l5 5-1 1-5-4c-6-4-13-8-20-9-3 0-5-2-8-3-5-3-10-7-16-7l-4-1c-5-3-10-2-15 1l-33 23c-2 1-4 3-8 1-4-1-8 1-12 4-14 10-28 22-40 34v1c-9 6-17 12-27 15-2 0-3 2-4 4v1c0 3 2 6 6 6l513-1h13l2-2c2-3 1-7-2-8Z" style="fill:#544c4c" />

	<!-- trees -->
	<path d="m737 230-2-3-1-2v-5l-2-1 3-3v-1h1l-5 1 2-2 2-1h-2l2-1h-5l-1-1v-1h1l4-2h-2l2-1-1-2h-3l-2-1 3-2-2 1 2-3-1 1h-1l-1-1h-1l1-2-1-1-1-2v-3l-1-2v-2 2l-2 6h1l-1 1h1v1h-4l1 1 2 1-1 1h1l-2 2 1 2-3 1-1 1h2v1h2v1l1-1-1 3-2 2h1l2 1-1 1-1 1h-2l1-1v-1h-1l-1-1 2-1 1-3-1 1-2-1-1-1-2-1 1-1 1-1v-1h-2l-2-2h-1v-1l1-1h3l-2-1h2l1-2h-2l-1-1 3-3v-2s-1 2-3 2h-3l-1-2h1v-2l3-1h-1l-1-2v-1h-1v-2l-1-2v-3l-1-1v-2 5l-1 3v-1 2l-1 1v3h-2 2-4c1 2 3 2 3 2h-3l3 1-2 3h1l1-1 2-2-2 4-3 3h1l2 1-1 2-1 2v-2l-2 1h-3l1-2-1-1-1-3 2 2 1 1h2-2l2-1-2-2a141 141 0 0 0-1-3l1 1 1-1h-1l-1-1-1-1-1-2 2-1v-2h-1l-2-1v-2l1-1-1-2-1-2-1-5v1l-1 3v2l-1 2v1l-1 1 1 1-1 2-2 1-1 1 1 1-1 1 2-1h1l-1 2-2 1-1 1-2 1-2 1h2l-1 1h2l2-1-1 3-3 2 2-1 3-1 3-4-1 3-1 3-2 1-1 2h3l-3 2-4 1-2 1h1-3l-1-2h1l1-1v-1l-2-2v-1s0-6-2-6c-1-1 0 3-1 4l-2 2v1l-2 1h3v2l-2 1 1-1h-1l-2-1-2-1-2-2h1l-1-1h3l1-1h-1l-1-1-2-1-1-1v-2h1l-1-1h-1 2l1-2h-2l-2-2 1-1 1 1v-2l-1-1-1-3-1-3v1l-1 2-1 4-2 1-1-1h2l-1-1h-1l1-1v-2l-1-1v-3l-1 2v3l-1 1v2h1v2l-3 1h-2l-1 1h2l-1 2h-1l1 1 2-1 1-1v1h-1 1l-2 2h1-3v-1h-1v-7 1l-1 2v2h-1l1 1-1 1h-1v1h1v1h-2l-2-1-1-1-1-1-1-2h1c0 1 0 0 0 0l1 1h4l-1-1 2-1-3 1-2-1 2-2v-2h-2l-2-1v-1h1v-2h-1l-1-1v-2l1 1 1-1h-1l2-1-1-1-2-1v-6l-1 2v3l-1 1v1l-1 1-1 1h3l-1 1-1 1h2l-1 1-1 1h-3l1 1h-2l-1-1 1-1-3-2h3l-2-2-1-2v-1l-1-2v1l-1 2-2 6 2-1-1 2-1 2h-1l-1 1 1 1-3 2c-1 0 0 0 0 0l2 1 2-1-1 1-6 3c1 1 6 0 7-1-1 3-3 4-4 4l-3 1c0 1 0 2 4 2l-2 2 1 1v1l-1 2-1-1-2-1 2-1-2-1-2-2 2-1-2-2c1 1 2 0 2-1-1 0-2 0-3-2h1l-1-1-1-3v-4 4l-1 1v1l-1 1h1l-2 1-1 1 1 1h1-1v1c-1 0 0 0 0 0h1l-1 1h-2l1 1v1h1l-1 1-2 1h-1v1h2v2l-2 1h-1v1s2 2 3 1l-2 2-3-3-2-3 4 1 2-1-3-1 1-1s-1 1-3-1c-1-1-3-3-3-5l4 4h4l-3-3s2-1 1-2l-4-2-1-1 2-2-2-1-2-1 2-1-1-1v-3l-1-2-1-4v3l-1 2v1h-1v1l1 1-2 1-1 1 1 1h2l-1 1h-1l-1 1-1 1h1l1 1h1-1l-1 1-2 1h-1l-1-1v-4 2l-1 3-1-1v-1h-2l-1-2 1-1 1 1v-2l-1-1-1-3-1-3v1l-1 2-1 4-2 2c-1 1 1 0 1 1l-2 1-1 1-1 1h-2v-2h1l-1-1 1-1 2-1v-1l-1-1h-1v-2c1 0 0 0 0 0v-1l-1-2v-2l-1-1v-3 4l-1 1-1 3 1-1v2l-1 1-1 3v-1l-1 1v1l-2-1 2 2h-2l1 1v2l-1 1v1h1c-1 1-2 2-3 1l-3-3 1 1h2l1-1h-1l-1-1-1-1-1-2 2-1-1-2h-1l-1-1v-1l-1-1 2-1-1-2-1-2-1-5-1 2v4l-1 2v1l-1 1 1 1h-4l-2-1 2-1-3-2h2l-1-2-1-2v-2l-1-1v1l-1 2-2 6 1-1v2l-1 2h-1l-1 1 1 1-3 1v1l2 1 1-1v1l-6 3c1 1 6 0 7-1-1 3-3 3-4 4l-1-2-1 2-1 1 1 2-2 1h-1l-1-1 2-1-2-2c1 1 2 0 1-1l-2-2h1l-1-1-1-3v-4l-1 2v4l-1 1h1l-2 1-1 1v-1c0-1 0 0 0 0l-1-1h2v-1l-2-1-1-2h2v-1l-1-2-1-2-1-4v2l-1 2-1 4h-3v-1l1 1-1-1v-1h1v-2l-1-1v-4l-1 2v3l-1 2-1-1h1v-2l-1-2-1-4v3l-1 2-1 1v2l-1 1-1 1 1 1h2l-1 1h-2v-1l-1 1v2l-1 1v2c-1 0-5 0-6-2h5-1l2-1h-3l-2-1 2-1v-2h-2l-2-2c-1 0 0 0 0 0l1-1v-2h-2v-2h2l-1-1 1-1h-1l-1-1v-4l-1-3v5l-1 1v1l-1 1c-1 0 0 0 0 0v1l-2 1h2l1-1 1 1-2 1v1h1v1l-1 1-3-1 1 1v1h-2l-2-1 2-1-3-3 2 1-1-2-1-2v-2l-1-1v1l-1 2-2 6 1-2-1 3-1 1v1l-1 1h1l-3 2v1h3v1l-6 3c1 1 6 0 7-1-2 3-3 3-5 4l-2 1s0 2 4 2l-2 1c-1 1-1 2 1 2s0 1 0 1l-1 1h-1l-2-1 2-1-2-2-2-1 2-1-2-2c1 1 2 0 1-1l-2-2h1l-1-2-1-2v-4l-1 2v4l-1 1h1l-2 1-1 1v-1 1h2l-1 1h-1l1 1h1l-1 1h-2l1 1v1c-1 0 0 0 0 0h1l-1 1-2 1h-1v1h2v2l-2 1h-1v1l3 1-2 2-3-3-2-3 4 1 1-1-2-1 1-1s-1 1-3-1c-1-1-3-3-3-5l4 3h4c-2 0-3-2-3-2s2-1 1-2l-4-2-1-1s2-1 1-2l-2-1-1-1 2-1-2-1v-1l1-2-1-2-1-4v1l-1 2v2l-1 1-1 1h1v1l-1 1-1 1 1 1h2l-1 1h-1l-1 1-1 1h1l1 1-1 1-2 1-4-1h-1l-1-1-1-2h1l1-1-1-2-1-2-1-4-1 1v2l-2 4-2 2c0 2 2 0 2 1l-2 1-1 1-1 1h-2 1-1l1 1h3l-2 2-2 1h-1v1h3l1 1-1 1h-1l1 1h2l-5 3v-1c2 0 3 0 2-1l-2-1-2-3-1-1h2v-1l-1-1h-1v-8l-1 1-1 3v2l-1 1h-1l1 1 1 1-3 1c0-1 0 0 0 0l-1-1v1h-1l2-2 1-1 1-2c-1 2-5 2-6 2l-1-1-1-1h-1l2-1h1l-1-1-1-1h-2v-1h1l1-1-1-1-1-1 1-1-1-1-1-1v-2l-1-2v-1l-1 4-1 3h-2l2-2-3-2 2 1-1-2-1-2-1-2v-2l-1 2v2l-3 6 2-2-1 3-1 1-1 1v1h1l-4 2 1 1h3l-4 3-1-1v-3l-1-3v4l-1 3-1 1 1 1-1 1s-2 0-3-2h2l-1-2-1-2v-4l-1 2v4l-1 1-4-2v-1l1 1h2v-1l-3-2 1-1c0-1 0 0 0 0l-1-1-1-2-1-2 1 1-2-5-1-2v-2l-1 2v1l-1 3-1 1h2l-3 2 2 2h-3l1-2-1-2-1-4-1 1v4l-1 1h-1l1 1-1 2-1 1 1 1h1-1l-1 1h-1l-1 2h1l2 1h-1l-1 1-1 1-6-2 1 2 1 1 2 1-3 1 1 1s0-1 0 0l-3-1 1-1 1-1h-1l-1-1v-1l-1-1v-3l-1-1v8h-1l-1 1v1h2l-1 1-2 3-2 1c-1 1 0 1 2 1v1l-5-3h3l-1-1-1-1 1-1h3v-1h-1l-2-1-2-1 3-1 1-1h-2l-1-1-1-1-2-1s2 1 2-1l-3-2-1-3-1-2v-2l-1 4-1 2-1 2v1h2l-1 2-1 1h-1v1h-4l-2-1h-1l-1-1h2l1-1-1-1h-1l-1-1-1-1h2l1-1-1-1-1-1v-2l-1-1-1-2v-3l-1 5-1 2v1l1 1-2 2h2l-2 2h-1c-1 1 1 3 1 3l-1 1-4 1c-1 2 1 3 1 3l-3 2h4l4-4-3 6-3 1 1 1h-2l1 1h4l-2 3-2 2-3-1 3-1v-1h-1l-2-2v-1l2-1v-1h-3l-1-1h1v-1c-1 0 0 0 0 0v-1h1l-2-1-1-1 1 1 1-1h-1l-1-1h2v-1h-1l-2-1 1-1h-1v-3l-1-1v-3 5l-1 2-1 2h1l-2 2 1 1-2 1 2 1-2 2-2 1 2 1-2 1-1 1-1-2s-1 0 0 0c2-1 2-1 1-2l-2-1c4 0 4-2 4-3l-2-1c-2 0-3 0-5-4l7 2-6-4v-1l1 1h2v-1l-3-2 1-1h-1l-1-1-1-2v-2l1 2-2-6-1-2v-2l-1 2v2l-1 2-1 2 2-1-3 2 2 2h-2l-2 1v-1l1-1h-4l-1-1h2v-1l-2-2 2 1 1-1h-1v-1h-1v-1l-1-1v-3l-1-3v7l-1 1h-1l1 1-1 1h2v1l-1 1h-1v2l1 1s1 0 0 0l-2 2h-2v2l2 1-2 1h-3l2 1h-1 6l-1 1-1 2-1 1h-4l1-1v-1l-1-1v-1l-1-1v-2l-1-1v6c-1 0 0 0 0 0l-1 1-1 1-2-1h1l-2-1h1-1v-1h1l2 1h1l-1-1-1-1h2l-1-2h-2l-3-1v-2h1v-1l-1-2v-3l-1-2v5l-1 1v1h1l-1 1-1 1h2v1h-1l-2-1-1-4-1-2v-2l-1 4-1 2-1 2v1h1l1 1-1 1-2 1v1h2l-1 1h-1l1 1v2l-1 1h-1l-2 1-1 1 2 1h2v1l-1 2-3 1h-3l1 2-2-2v-1h2l1-1h-2v-1l-2-2-1-5-1 6-1 2-1 2-1 1h2l-1 2-3 1h1l-2-1-4-1-3-3 3 1-1-2-1-2-2-2-1-3 3 3 3 2 2 1-2-3-2-2h2l2 1-1-1h2l-2-1-2-1-1-1-2-1-1-2h3l-1-1h1l-1-2-2-1-1-1 1-1-1-2v-1l-1-1v-2l-1-3v-2l-1 6-1 2-1 2 1 1c1 0 0 0 0 0v2l-1 1h-2v1l2 2-1 2-1 1-1 1h-1 4l-3 2-2 3h2l-2 1h2l1-1 2-2-1 2-1 2 1 1-3 1-2-2 1 2-2-2-1-1 2-1h1l-3-3-2-5 2 3 1 1v-1l1 1-2-3 3-1h-3s2 0 3-2h-3 1l-2-1v-2l-1-2v-1l1 1-2-3v-5 2l-1 1v2l-1 2v2-1 2l-1 1-1 1v1h-1l3 1 1 1-1 1 1-1v2l-4 1c-2 0-3-2-3-2v2s2 3 4 3l-2 1h-2l1 1 3 1-3 1h3l1 1v1h-1l-2 2-2-1v2l1 1 1 1-1 1-2 1h-3l1 3 2 1-2 1v1l1 1h-2l-1-1v-2h2l-2-3-1-3 2 1-1-1h2l2-1h-1l-3-1 1-2-2-2h1v-2h1l1-1h-4v-2l1 1-1-1h1l-2-6v-2 1l-1 3v3l-1 1-1 1 1 2-1 1-1 1v-1 1l-2-2c0 2 2 3 2 3h-2l3 2-2 1h-3l-1 1 2 2h-2l4 2h1v1l-1 1h-1l-4-1 2 2-2-1 2 2 2 2-4-2 1 1-1 1 3 3-2 1v5l-1 2-2 2v3h155l80-1 299-1v-2Zm-480-14v-1l-1-1h-1l-2-1h-1l-1-1h2l2 1-1-1 1-1 2-1h-3l-3-2 3 1h3l2 1c-1 0 0 2 2 2l-4 4Zm14-4-1 1h-1l1 1h-1v-1h-1l2-2-2-1-1-1h1l2-1-2-1h3l-1 1h-1l1 1h1v1h-1l1 1h1l-2 1h1Zm4-16-1-1h2l-1 1Zm5-6Zm5 3Zm2 8-1 1-1-3 3 1-1-1-1-1 1 1h2l-2 2Zm2-3-1-1h2l-1 1Zm4 1h2l1-1h1l-1 1h-3Zm4 6v1l-3-2 1-1a4 4 0 0 0 3 0l-1 2Zm4-3h1l1 1h-2v-1Zm3 3h-1l-1-2 1 1h1l1 1v-1h2l-3 1Zm0-4 2-1-2 1Zm0-6h-1l-1-2h6l-4 2Zm1-5h-1v-2h3l1 1-3 1Zm27 30-1-1h3l-2 1Zm2-6v-1h1l-1 1Zm3 1h-1l2-1-1 1Zm11-1Zm2-7Zm1-3-3 1h-1l3-1-1-1a16 16 0 0 0 3 0l-1 1Zm1-3h-1 1Zm0-3h-1l-1 1h-2l-1-1v-1l2 1 2-1 2-1h-3l1-2h2v-1h1v1h-1l2 1-3 3Zm12 8h-1l-2-1 3 1Zm-2 2h2l-1 1-1-1Zm2 4v-1h1l-1 1Zm14-7h-2l1 1-4-2 1-1a4 4 0 0 0 3 0l-1 1h3l-1 1Zm0-6-3 1-2-1h-1 3l1-1h-2l1-1h4l-1 2Zm8-11Zm7 4 3 1v1h2l-1 1h-1l1 1c-1-1-3-1-4-4Zm4 4h1-1Zm6 4-1-1h1v1Zm0-3-2-1h1l2 1h-1Zm5-2 1-1h1-2l-1-1 5-2c-1 3-3 4-4 4Zm11-7-1 1v-1l1-1h1l-1 1Zm12 9h-1 1Zm-5 8v-1h1l-1 1Zm2 0 1-1h-1v-1h4l-4 2Zm4-7-1 1-2 1-2-1-1-2h4l1 1h2-1Zm9 13-1-1h1v1Zm1-3-1-1h2l-1 1Zm0-3h-1l3-1-2 1Zm11-5h1-1Zm2 6h1-1Zm2 7Zm1-9h-1l-3-2h3l-2 1h4l-1 1Zm-1-6h-1l-2-1h-1l-3-3 2-1c0-1 0 0 0 0l-1-1h1l2 1 1 2h-3l2 1h5l-2 2Zm11 16v-2l1 1-1 1Zm3-3h1l-1 1v-1Zm2 8-1-2h3l-2 2Zm25-32h2l1-1h1v2h-2l-3-1h1Zm0 4 2 1h2l1-1-1 2-1 1-3-3Zm3 8h-2 2Zm2 4-1 1v-1l-3-1h1v1l1-1h1l2-1-1 2Zm1-2h-1v-1l1 1Zm3-9-1-2h1l1 2 2 1 1 1h-2l-1-1-1-1Zm2 12-1-1v-2h1a4 4 0 0 0 2 1l-2 2Zm2-6a6 6 0 0 1-3-2h1l1 1h2l-1 1Zm5-8-1 1v-1a9 9 0 0 0 2 0h-1Zm6-3h-1l-1-1h2v1Zm3 1Zm6 6-2-1h2v1Zm1 2-1-1v-2l1 1h1-1l-1 1h2l-1 1Zm7 6h1v1l-1-1Zm4-3v-1h1l-1 1Zm11-13Zm0 1 1 1h-2l1-1Zm1 16-1-1h1v1Zm0-4Zm1-10-1-1h2v1h-1Zm1 5 1-1-1 1Zm0-9h-2s2 0 3-2v1l-1 1Zm9 14h-1l-1-1-1-3 2 2 1 1h1l-1 1Zm1-1h-1l2-1-1 1Zm4-11v1-1Zm1 6h-1v-1l2-3-1 4Zm6 8h-1v-1h2l-1 1Zm16 2Zm10 10-1 1v-1h1Zm-11-17h1l-1 1v-1Zm-4 1-1-1h1v1Zm0-2h-1 1Zm-1-2h-1l-1-1h2l1 1-1 2v1l-3-2 3-1Zm18 18h1l-1 1v-1Zm2 8-1-2 3 1-2 1Zm26-32h3v-1 2l-1 1h-1l-3-1 2-1Zm-1 5h4l1-1-1 2-1 1-3-2Zm3 8-2-1 2 1Zm2 3-1 1-3-1 1-1h1l-1 1 1-1h3l-1 1Zm1-2h-1 1Zm5 3-1-1v-1h3l-2 2Zm3-6a6 6 0 0 1-3-1h3v1Zm4-2h2l-2 1v-1Zm3 4-1-1-1-1v-1h2v1h-1l2-1-1 3Zm1-8h1-1Zm5-3v-1 1Zm6 6-1-1 1-1v2Zm7 13-3 2 2 1v1l-1 1v-2l-1 1-1-1h1l-2-2h2l-1-1h1l1-1h-1v-1h2l-1 1c-1 1-1 1 1 1l2-1-1 1Zm12 2h1l-1 1h2l2-1v1l-2 1h-3l-1 2c-1 0-3-1-4-4 2 0 3-1 2-2l2-1 1 1h3l3-1-3 2h-3l1 1Z" style="fill:#0d0d0c" />

	<!-- North -->
	<!-- good! -->
	<path class="cls-2" d="M638.4 209.7c.5 0 1 .2 1.2.6s.3 1 .3 2l-.1.1-.2-.1c0-.3-.2-.6-.4-.8-.2-.3-.6-.4-1-.4-.6 0-1.2.2-1.7.6l-1.6 1.7-1.5 2.5a26.9 26.9 0 0 0-2.7 10l-.2-.2v-.3a39 39 0 0 0-2.8-7.3 16.7 16.7 0 0 0-3.7-5c-.3 2-.9 3.8-1.5 5.4-.7 1.6-1.5 3-2.4 4-1 1.1-2 2-3 2.5a7.7 7.7 0 0 1-5.7.5c-.5-.2-1-.4-1.4-.8-.4-.3-.7-.7-.9-1.1s-.3-1-.3-1.5a4.3 4.3 0 0 1 2-3.6h.1v.3l-.7 1c-.2.3-.3.8-.3 1.2 0 1 .4 2 1 2.6a5 5 0 0 0 3.2 1c2.4 0 4.5-1 6-3 1.7-2 2.8-5 3.4-9l-2.3-1.4a7 7 0 0 0-2.5-.5 3.4 3.4 0 0 0-3.1 1.8h-.2v-.1c0-.3.3-.7.6-1a5.2 5.2 0 0 1 2.2-1.5c.5-.2 1-.2 1.5-.2.7 0 1.3 0 2 .3l2 1 .1-.3.3-.3.2-.2v1.3l2 2a20.7 20.7 0 0 1 3.4 5.8c.4 1 .8 2 1.1 3.2a23.2 23.2 0 0 1 2.9-8.5l1.5-2.2c.5-.7 1-1.2 1.5-1.6s1-.5 1.6-.5Zm-1.2 9.7c.6 0 1 .2 1.3.5.3.4.4.8.4 1.3 0 .6 0 1.2-.3 1.8l-1 1.5c-.4.5-.8.7-1.2 1l-1.2.3c-.6 0-1-.2-1.3-.5a2 2 0 0 1-.4-1.3c0-.5 0-1 .3-1.5.2-.6.5-1 .8-1.5l1.2-1.1a3 3 0 0 1 1.4-.5Zm-1.4 5.7c.6 0 1-.3 1.4-.9a4 4 0 0 0 .5-2.2c0-.5-.1-1-.3-1.3a1 1 0 0 0-.9-.5c-.5 0-1 .3-1.3.8-.3.5-.5 1.3-.5 2.3 0 .6.1 1 .3 1.3.2.3.5.4.8.4Zm6.8-5v.9l-.3 1c.4-.8.7-1.5 1.1-2a2 2 0 0 1 1.3-.6c.3 0 .5 0 .6.2l.2.4c0 .2 0 .4-.2.7l-.3.5h-.1c0-.2 0-.3-.2-.4l-.4-.1c-.6 0-1.1.4-1.6 1.2-.5.8-.9 2-1.3 3.4 0 .1 0 .2-.2.2l-.3.2h-.4l-.3.1c-.2 0-.3 0-.2-.3a16 16 0 0 0 1.1-3.6 21.9 21.9 0 0 0 .3-1.7l-.2-.2-.6.3-.4.5h-.2s-.1 0 0-.2a4.2 4.2 0 0 1 .8-.8c.2 0 .3-.2.5-.3l.6-.1c.3 0 .5 0 .6.2l.1.5Zm7.4-.6c.2 0 .2.1.2.2l-.2.1h-1l-1 .1-.8 2.4-.3 2c0 .5.2.8.6.8s1-.4 1.5-1.2h.1v.2a3 3 0 0 1-1 1.2c-.4.4-.9.5-1.3.5s-.7 0-1-.3c-.2-.2-.3-.5-.3-.8l.4-2 .9-2.7-1.2.2c-.1 0-.1 0 0 0l.1-.3a1.8 1.8 0 0 1 .9-.3h.4a26.3 26.3 0 0 1 1.4-2.7l.4-.3a3.5 3.5 0 0 1 .9-.3l.1.1a19 19 0 0 0-1.6 3.2h1.9Zm-.2 6.1a56.2 56.2 0 0 1 5.7-13.7c1.1-1.6 2.2-2.9 3.3-3.7a5.2 5.2 0 0 1 3.2-1.4c.4 0 .8.1 1 .3l.5.7v1l-.4.8h-.1v-.1c0-.3 0-.7-.4-1-.2-.3-.7-.4-1.2-.4-1 0-1.8.2-2.6.7a8 8 0 0 0-2.4 2.4c-.8 1.2-1.5 2.7-2.2 4.5a72 72 0 0 0-2.3 7 8.5 8.5 0 0 1 2-2.3 5 5 0 0 1 1.2-.7 3 3 0 0 1 1.3-.3l.5.1.1.4c0 .2 0 .5-.2.7-.4.6-.7 1.3-.9 2l-.3 1.7v.6l.4.2c.1 0 .3 0 .5-.2l.5-.6h.2v.1c-.2.4-.5.7-1 1a2 2 0 0 1-1 .4 1 1 0 0 1-.7-.2c-.2-.2-.3-.4-.3-.8l.1-1a9.3 9.3 0 0 1 1-2.9l.1-.4c0-.2 0-.3-.2-.3a2 2 0 0 0-1 .4c-.4.2-.8.6-1.1 1a11 11 0 0 0-1.9 3.7l-.4.3c-.2.2-.5.2-.8.2-.1 0-.2 0-.2-.2Z" />

	<!-- port, Wa -->
	<!-- good! -->
	<path class="cls-2" d="M663.3 219.4c.3 0 .6.2.9.5.2.4.3.8.3 1.3a4 4 0 0 1-.4 1.9 5 5 0 0 1-4.4 2.7h-.8l-.7 2.6a11 11 0 0 0-.4 2.6c0 .4.2.5.6.4h.4l.3-.3.1.1v.2l-.4.2-.7.2-.6.1h-.9l-.1-.3c0-.9.1-1.9.4-3l1-3.5a1 1 0 0 1-.1-.3c0-.1 0-.2.4-.3l.7-1.8.7-1.8.5-1.2c0-.2-.2-.2-.4-.1-.2 0-.5.3-.8.7h-.1v-.2a6.4 6.4 0 0 1 1-1l.6-.2.5-.2c.2 0 .4 0 .4.3v.5a24 24 0 0 1-.9 2 10.8 10.8 0 0 1 1.3-1.4l.8-.5c.2-.2.5-.2.8-.2Zm-3 6a2.7 2.7 0 0 0 2-1c.3-.3.5-.7.7-1.2l.2-1.6c0-.4 0-.7-.2-1a.7.7 0 0 0-.7-.3c-.4 0-.8.3-1.4 1-.5.7-1 1.7-1.4 2.9l-.2.4-.1.4c.2.2.6.3 1 .3Zm9-6c.5 0 1 .2 1.3.5.2.4.4.8.4 1.3a4 4 0 0 1-.4 1.8l-1 1.5c-.4.5-.7.7-1.2 1l-1.2.3c-.5 0-1-.2-1.2-.5a2 2 0 0 1-.5-1.3l.3-1.5c.2-.6.5-1 .9-1.5.3-.5.7-.8 1.1-1.1a3 3 0 0 1 1.5-.5Zm-1.4 5.7c.5 0 1-.3 1.3-.9a4 4 0 0 0 .5-2.2c0-.5 0-1-.3-1.3a1 1 0 0 0-.8-.5c-.6 0-1 .3-1.4.8-.3.5-.5 1.3-.5 2.3 0 .6.1 1 .4 1.3.2.3.4.4.8.4Zm6.7-5v.9l-.2 1 1-2c.5-.4 1-.6 1.4-.6.2 0 .4 0 .6.2l.2.4-.2.7-.3.5h-.1l-.2-.4-.4-.1c-.6 0-1.2.4-1.6 1.2-.5.8-1 2-1.3 3.4l-.2.2-.4.2h-.4l-.3.1c-.2 0-.2 0-.2-.3a16 16 0 0 0 1.2-3.6 21.9 21.9 0 0 0 .2-1.7s0-.2-.2-.2-.3.1-.5.3l-.5.5h-.2v-.2a4.2 4.2 0 0 1 .8-.8l.6-.3.5-.1c.3 0 .5 0 .6.2l.1.5Zm7.5-.6.1.2-.2.1h-.9l-1 .1-.8 2.4c-.3.8-.4 1.4-.4 2 0 .5.2.8.7.8s.9-.4 1.4-1.2h.2v.2a4 4 0 0 1-1 1.2c-.5.4-1 .5-1.3.5s-.8 0-1-.3c-.2-.2-.3-.5-.3-.8l.3-2 1-2.7-1.3.2c0-.2 0-.2.2-.3a1.8 1.8 0 0 1 .8-.3h.4a26.3 26.3 0 0 1 1.4-2.7l.4-.3a3.5 3.5 0 0 1 1-.3v.1a19 19 0 0 0-1.6 3.2h2Zm1.3 4.5.2.4v.5c0 .6-.1 1.1-.5 1.7-.5.6-1 1-1.7 1.4h-.1v-.3c.4-.2.7-.4 1-.8.2-.3.3-.7.3-1s-.1-.7-.3-.7v-.3a1.7 1.7 0 0 1 .7-.7l.4-.2Zm19.1 1v-3.1c0-1.1-.2-2.2-.3-3.2v-2.8c0-.8 0-1.5.3-2a53.8 53.8 0 0 0-6.6 12l-.3-.3.2-.6a25 25 0 0 0 1.7-6.9v-3l-.7-2.3c-.2-.7-.6-1.2-1.1-1.6s-1-.5-1.7-.5-1.2.1-1.7.4c-.4.2-.8.6-1.2 1l-.7 1.6-.3 1.8-.1.2-.1-.1c0-.8 0-1.6.3-2.3.2-.8.5-1.4 1-2a4.8 4.8 0 0 1 3.8-1.8c1 0 1.8.4 2.4 1 .6.7 1 1.6 1.2 2.7a13 13 0 0 1 0 3.9 25 25 0 0 1-1.2 4.6 51.7 51.7 0 0 1 5.3-8.6l2-2.2.3.1v.4c-.3.2-.6.3-.8.6a3 3 0 0 0-.6 1.4l-.1 1.8v2.2l.2 2.2a42.5 42.5 0 0 1 .1 4.1l1.5-1.7 1.5-1.7 1.6-1.7a9.7 9.7 0 0 0 2.3-3.8c.2-.6.3-1.4.3-2.3 0-.5 0-1-.2-1.3-.2-.3-.4-.4-.7-.4-.2 0-.3 0-.5.3l-.4.6h-.1l-.1-.1c.2-.5.4-1 .8-1.4.3-.4.7-.6 1-.6.6 0 1 .3 1.2.7.3.4.4 1 .4 1.6a7.7 7.7 0 0 1-1.6 4.9l-1.8 2-2 2a38.7 38.7 0 0 0-4.5 5v-1Zm14.5-.8.1.2c-.3.4-.6.8-1 1-.4.3-.7.4-1 .4-.4 0-.7-.3-.8-.8a5 5 0 0 1 .2-2c-.5.8-1 1.4-1.5 1.9s-1 .8-1.7 1a1 1 0 0 1-.9-.6c-.2-.4-.3-.8-.3-1.3a4.5 4.5 0 0 1 1.4-3.1 6 6 0 0 1 1.5-1c.6-.4 1.1-.5 1.7-.5.5 0 1 .1 1.3.4l.7-.3.7-.1v.1a9.8 9.8 0 0 0-2 4.5l.3.9s.2.1.4 0c.2 0 .5-.2.8-.6Zm-4.9.7c.2 0 .4-.1.7-.4l1-1a15 15 0 0 0 1.7-3 1 1 0 0 0-.4-.5l-.9-.2c-.4 0-.7 0-1 .3-.4.2-.7.4-1 .8l-.5 1.2c-.2.5-.2 1-.2 1.6 0 .4 0 .6.2.9.1.2.2.3.4.3Z" />


</svg>